G04 #@! TF.GenerationSoftware,KiCad,Pcbnew,(5.1.0-0)*
G04 #@! TF.CreationDate,2019-04-03T12:05:29-07:00*
G04 #@! TF.ProjectId,ZiaconBadge,5a696163-6f6e-4426-9164-67652e6b6963,rev?*
G04 #@! TF.SameCoordinates,Original*
G04 #@! TF.FileFunction,Legend,Bot*
G04 #@! TF.FilePolarity,Positive*
%FSLAX46Y46*%
G04 Gerber Fmt 4.6, Leading zero omitted, Abs format (unit mm)*
G04 Created by KiCad (PCBNEW (5.1.0-0)) date 2019-04-03 12:05:29*
%MOMM*%
%LPD*%
G04 APERTURE LIST*
%ADD10C,0.020000*%
%ADD11C,0.300000*%
%ADD12C,0.050000*%
%ADD13C,0.100000*%
%ADD14C,0.200000*%
%ADD15C,0.150000*%
G04 APERTURE END LIST*
D10*
X113566307Y-89695977D02*
X113439044Y-89806996D01*
X113448462Y-89260887D02*
X113467446Y-89282342D01*
X113487028Y-89236012D02*
X113426233Y-89236012D01*
X113484552Y-89301226D02*
X113501149Y-89318390D01*
X113622750Y-89574008D02*
X113616233Y-89619102D01*
X111894913Y-89514895D02*
X111895168Y-89510641D01*
X111894421Y-89519120D02*
X111894913Y-89514895D01*
X111893380Y-89523174D02*
X111894421Y-89519120D01*
X113439044Y-89806996D02*
X113311516Y-89917712D01*
X113633551Y-89168402D02*
X113638037Y-89191130D01*
X110838772Y-90116675D02*
X110819789Y-90065941D01*
X113628674Y-89143690D02*
X113628674Y-89143690D01*
X113655712Y-89155546D02*
X113628674Y-89143690D01*
X113680546Y-89166489D02*
X113655712Y-89155546D01*
X113703968Y-89176681D02*
X113680546Y-89166489D01*
X113726773Y-89186282D02*
X113703968Y-89176681D01*
X113802883Y-89219822D02*
X113726773Y-89186282D01*
X113878793Y-89254395D02*
X113802883Y-89219822D01*
X113955485Y-89285352D02*
X113878793Y-89254395D01*
X114033940Y-89308042D02*
X113955485Y-89285352D01*
X114165667Y-89343392D02*
X114033940Y-89308042D01*
X114290144Y-89392054D02*
X114165667Y-89343392D01*
X114407588Y-89454687D02*
X114290144Y-89392054D01*
X114518219Y-89531948D02*
X114407588Y-89454687D01*
X114540643Y-89553425D02*
X114518219Y-89531948D01*
X114560430Y-89578237D02*
X114540643Y-89553425D01*
X114579116Y-89604451D02*
X114560430Y-89578237D01*
X114598236Y-89630133D02*
X114579116Y-89604451D01*
X114610255Y-89646998D02*
X114598236Y-89630133D01*
X114622017Y-89664496D02*
X114610255Y-89646998D01*
X114634731Y-89679976D02*
X114622017Y-89664496D01*
X114649607Y-89690784D02*
X114634731Y-89679976D01*
X114696847Y-89711553D02*
X114649607Y-89690784D01*
X114744924Y-89730589D02*
X114696847Y-89711553D01*
X114793633Y-89748041D02*
X114744924Y-89730589D01*
X114842768Y-89764058D02*
X114793633Y-89748041D01*
X114926468Y-89789040D02*
X114842768Y-89764058D01*
X115010524Y-89812879D02*
X114926468Y-89789040D01*
X115094543Y-89836828D02*
X115010524Y-89812879D01*
X115178129Y-89862144D02*
X115094543Y-89836828D01*
X115223697Y-89878632D02*
X115178129Y-89862144D01*
X115243822Y-89895960D02*
X115223697Y-89878632D01*
X115244936Y-89923455D02*
X115243822Y-89895960D01*
X115233468Y-89970446D02*
X115244936Y-89923455D01*
X115203856Y-90063081D02*
X115233468Y-89970446D01*
X115163949Y-90149642D02*
X115203856Y-90063081D01*
X115112444Y-90229416D02*
X115163949Y-90149642D01*
X115048038Y-90301687D02*
X115112444Y-90229416D01*
X115029736Y-90316751D02*
X115048038Y-90301687D01*
X115008716Y-90329601D02*
X115029736Y-90316751D01*
X114986255Y-90339179D02*
X115008716Y-90329601D01*
X114963631Y-90344425D02*
X114986255Y-90339179D01*
X114866638Y-90355077D02*
X114963631Y-90344425D01*
X114769464Y-90364248D02*
X114866638Y-90355077D01*
X114672277Y-90373332D02*
X114769464Y-90364248D01*
X114575245Y-90383724D02*
X114672277Y-90373332D01*
X114553310Y-90388365D02*
X114575245Y-90383724D01*
X114531381Y-90396803D02*
X114553310Y-90388365D01*
X114511082Y-90408434D02*
X114531381Y-90396803D01*
X114494037Y-90422656D02*
X114511082Y-90408434D01*
X114420894Y-90499750D02*
X114494037Y-90422656D01*
X114348756Y-90577822D02*
X114420894Y-90499750D01*
X114276457Y-90655727D02*
X114348756Y-90577822D01*
X114202832Y-90732322D02*
X114276457Y-90655727D01*
X114174334Y-90757319D02*
X114202832Y-90732322D01*
X114142801Y-90779366D02*
X114174334Y-90757319D01*
X114109615Y-90799543D02*
X114142801Y-90779366D01*
X114076158Y-90818929D02*
X114109615Y-90799543D01*
X114058747Y-90826290D02*
X114076158Y-90818929D01*
X114042269Y-90826497D02*
X114058747Y-90826290D01*
X114027686Y-90817494D02*
X114042269Y-90826497D01*
X114015960Y-90797228D02*
X114027686Y-90817494D01*
X113953502Y-90659595D02*
X114015960Y-90797228D01*
X113873882Y-90534360D02*
X113953502Y-90659595D01*
X113777112Y-90422366D02*
X113873882Y-90534360D01*
X113663206Y-90324451D02*
X113777112Y-90422366D01*
X113555370Y-90258932D02*
X113663206Y-90324451D01*
X113439819Y-90214857D02*
X113555370Y-90258932D01*
X113317715Y-90191061D02*
X113439819Y-90214857D01*
X113190219Y-90186378D02*
X113317715Y-90191061D01*
X113148485Y-90187236D02*
X113190219Y-90186378D01*
X113106723Y-90187249D02*
X113148485Y-90187236D01*
X113064948Y-90186902D02*
X113106723Y-90187249D01*
X102864073Y-89685585D02*
X102863068Y-89744898D01*
X102859981Y-89649707D02*
X102864073Y-89685585D01*
X102845617Y-89625619D02*
X102859981Y-89649707D01*
X102820722Y-89612255D02*
X102845617Y-89625619D01*
X102785035Y-89608547D02*
X102820722Y-89612255D01*
X102710891Y-89609404D02*
X102785035Y-89608547D01*
X102636732Y-89609497D02*
X102710891Y-89609404D01*
X102562567Y-89609244D02*
X102636732Y-89609497D01*
X102488403Y-89609067D02*
X102562567Y-89609244D01*
X102017933Y-90455743D02*
X102017933Y-90455743D01*
X102090391Y-90370214D02*
X102017933Y-90455743D01*
X102163001Y-90284504D02*
X102090391Y-90370214D01*
X102236773Y-90197423D02*
X102163001Y-90284504D01*
X102312715Y-90107779D02*
X102236773Y-90197423D01*
X102272775Y-90107884D02*
X102312715Y-90107779D01*
X102236669Y-90108047D02*
X102272775Y-90107884D01*
X102203124Y-90108037D02*
X102236669Y-90108047D01*
X102170864Y-90107625D02*
X102203124Y-90108037D01*
X102103948Y-90094956D02*
X102170864Y-90107625D01*
X102052600Y-90061738D02*
X102103948Y-90094956D01*
X102019417Y-90010388D02*
X102052600Y-90061738D01*
X102006996Y-89943319D02*
X102019417Y-90010388D01*
X102006316Y-89878086D02*
X102006996Y-89943319D01*
X102006194Y-89812843D02*
X102006316Y-89878086D01*
X102006409Y-89747597D02*
X102006194Y-89812843D01*
X102006740Y-89682352D02*
X102006409Y-89747597D01*
X102018453Y-89603378D02*
X102006740Y-89682352D01*
X102052840Y-89547143D02*
X102018453Y-89603378D01*
X102110076Y-89513487D02*
X102052840Y-89547143D01*
X102190335Y-89502248D02*
X102110076Y-89513487D01*
X102371237Y-89502142D02*
X102190335Y-89502248D01*
X102552138Y-89502130D02*
X102371237Y-89502142D01*
X102733039Y-89502186D02*
X102552138Y-89502130D01*
X102913941Y-89502283D02*
X102733039Y-89502186D01*
X102926870Y-89502523D02*
X102913941Y-89502283D01*
X102939931Y-89503104D02*
X102926870Y-89502523D01*
X102953256Y-89503839D02*
X102939931Y-89503104D01*
X102966977Y-89504538D02*
X102953256Y-89503839D01*
X102966977Y-89744707D02*
X102966977Y-89504538D01*
X102966977Y-89983724D02*
X102966977Y-89744707D01*
X102966977Y-90221961D02*
X102966977Y-89983724D01*
X102966977Y-90459789D02*
X102966977Y-90221961D01*
X102940605Y-90459789D02*
X102966977Y-90459789D01*
X102914736Y-90459789D02*
X102940605Y-90459789D01*
X102888505Y-90459789D02*
X102914736Y-90459789D01*
X102861044Y-90459789D02*
X102888505Y-90459789D01*
X102861044Y-90370587D02*
X102861044Y-90459789D01*
X102861044Y-90282496D02*
X102861044Y-90370587D01*
X102861044Y-90195059D02*
X102861044Y-90282496D01*
X102861044Y-90107815D02*
X102861044Y-90195059D01*
X102767366Y-90107617D02*
X102861044Y-90107815D01*
X102675304Y-90107408D02*
X102767366Y-90107617D01*
X102584332Y-90107767D02*
X102675304Y-90107408D01*
X102493926Y-90109274D02*
X102584332Y-90107767D01*
X102477104Y-90112141D02*
X102493926Y-90109274D01*
X102459970Y-90119161D02*
X102477104Y-90112141D01*
X102444086Y-90129182D02*
X102459970Y-90119161D01*
X102431011Y-90141055D02*
X102444086Y-90129182D01*
X102379388Y-90198392D02*
X102431011Y-90141055D01*
X102328251Y-90256225D02*
X102379388Y-90198392D01*
X102278738Y-90315300D02*
X102328251Y-90256225D01*
X102231988Y-90376365D02*
X102278738Y-90315300D01*
X102189887Y-90424206D02*
X102231988Y-90376365D01*
X102142037Y-90454939D02*
X102189887Y-90424206D01*
X102085649Y-90466231D02*
X102142037Y-90454939D01*
X102017933Y-90455743D02*
X102085649Y-90466231D01*
X108191381Y-89504106D02*
X108191381Y-89504106D01*
X108191381Y-89745134D02*
X108191381Y-89504106D01*
X108191381Y-89984404D02*
X108191381Y-89745134D01*
X108191381Y-90222304D02*
X108191381Y-89984404D01*
X108191381Y-90459225D02*
X108191381Y-90222304D01*
X108146849Y-90459225D02*
X108191381Y-90459225D01*
X108103123Y-90459225D02*
X108146849Y-90459225D01*
X108059432Y-90459225D02*
X108103123Y-90459225D01*
X108015007Y-90459225D02*
X108059432Y-90459225D01*
X108015007Y-90361978D02*
X108015007Y-90459225D01*
X108015007Y-90265475D02*
X108015007Y-90361978D01*
X108015007Y-90168660D02*
X108015007Y-90265475D01*
X108015007Y-90070480D02*
X108015007Y-90168660D01*
X107872670Y-90070480D02*
X108015007Y-90070480D01*
X107731576Y-90070480D02*
X107872670Y-90070480D01*
X107591388Y-90070480D02*
X107731576Y-90070480D01*
X107451772Y-90070480D02*
X107591388Y-90070480D01*
X107451772Y-90025824D02*
X107451772Y-90070480D01*
X107451772Y-89982350D02*
X107451772Y-90025824D01*
X107451772Y-89938750D02*
X107451772Y-89982350D01*
X107451772Y-89893712D02*
X107451772Y-89938750D01*
X107593779Y-89893712D02*
X107451772Y-89893712D01*
X107734524Y-89893712D02*
X107593779Y-89893712D01*
X107874209Y-89893712D02*
X107734524Y-89893712D01*
X108013036Y-89893712D02*
X107874209Y-89893712D01*
X108013036Y-89838184D02*
X108013036Y-89893712D01*
X108013036Y-89784326D02*
X108013036Y-89838184D01*
X108013036Y-89730990D02*
X108013036Y-89784326D01*
X108013036Y-89677029D02*
X108013036Y-89730990D01*
X107837669Y-89677029D02*
X108013036Y-89677029D01*
X107663414Y-89677029D02*
X107837669Y-89677029D01*
X107489766Y-89677029D02*
X107663414Y-89677029D01*
X107316217Y-89677029D02*
X107489766Y-89677029D01*
X107316217Y-89632408D02*
X107316217Y-89677029D01*
X107316217Y-89589098D02*
X107316217Y-89632408D01*
X107316217Y-89546523D02*
X107316217Y-89589098D01*
X107316217Y-89504106D02*
X107316217Y-89546523D01*
X107535702Y-89504106D02*
X107316217Y-89504106D01*
X107754089Y-89504106D02*
X107535702Y-89504106D01*
X107972330Y-89504106D02*
X107754089Y-89504106D01*
X108191381Y-89504106D02*
X107972330Y-89504106D01*
X106462963Y-90200750D02*
X106462963Y-90200750D01*
X106478079Y-90184099D02*
X106462963Y-90200750D01*
X106491002Y-90169960D02*
X106478079Y-90184099D01*
X106502331Y-90157383D02*
X106491002Y-90169960D01*
X106512662Y-90145420D02*
X106502331Y-90157383D01*
X106639337Y-89994158D02*
X106512662Y-90145420D01*
X106765993Y-89842880D02*
X106639337Y-89994158D01*
X106892751Y-89691688D02*
X106765993Y-89842880D01*
X107019735Y-89540686D02*
X106892751Y-89691688D01*
X107030424Y-89528653D02*
X107019735Y-89540686D01*
X107042538Y-89517146D02*
X107030424Y-89528653D01*
X107055452Y-89508269D02*
X107042538Y-89517146D01*
X107068544Y-89504128D02*
X107055452Y-89508269D01*
X107110869Y-89501893D02*
X107068544Y-89504128D01*
X107153401Y-89501513D02*
X107110869Y-89501893D01*
X107196112Y-89502004D02*
X107153401Y-89501513D01*
X107238976Y-89502387D02*
X107196112Y-89502004D01*
X107238976Y-89744413D02*
X107238976Y-89502387D01*
X107238976Y-89984317D02*
X107238976Y-89744413D01*
X107238976Y-90222695D02*
X107238976Y-89984317D01*
X107238976Y-90460145D02*
X107238976Y-90222695D01*
X107195388Y-90460145D02*
X107238976Y-90460145D01*
X107152677Y-90460145D02*
X107195388Y-90460145D01*
X107109970Y-90460145D02*
X107152677Y-90460145D01*
X107066394Y-90460145D02*
X107109970Y-90460145D01*
X107066394Y-90287946D02*
X107066394Y-90460145D01*
X107066394Y-90115721D02*
X107066394Y-90287946D01*
X107066394Y-89941994D02*
X107066394Y-90115721D01*
X107066394Y-89765291D02*
X107066394Y-89941994D01*
X107051291Y-89781874D02*
X107066394Y-89765291D01*
X107038363Y-89795972D02*
X107051291Y-89781874D01*
X107027020Y-89808526D02*
X107038363Y-89795972D01*
X107016670Y-89820476D02*
X107027020Y-89808526D01*
X106888844Y-89972708D02*
X107016670Y-89820476D01*
X106761042Y-90124961D02*
X106888844Y-89972708D01*
X106633190Y-90277172D02*
X106761042Y-90124961D01*
X106505212Y-90429276D02*
X106633190Y-90277172D01*
X106496433Y-90439729D02*
X106505212Y-90429276D01*
X106486779Y-90450102D02*
X106496433Y-90439729D01*
X106476623Y-90458188D02*
X106486779Y-90450102D01*
X106466337Y-90461778D02*
X106476623Y-90458188D01*
X106421192Y-90463522D02*
X106466337Y-90461778D01*
X106376111Y-90463885D02*
X106421192Y-90463522D01*
X106331278Y-90463579D02*
X106376111Y-90463885D01*
X106286881Y-90463318D02*
X106331278Y-90463579D01*
X106286881Y-90221405D02*
X106286881Y-90463318D01*
X106286881Y-89981855D02*
X106286881Y-90221405D01*
X106286881Y-89743749D02*
X106286881Y-89981855D01*
X106286881Y-89506168D02*
X106286881Y-89743749D01*
X106330872Y-89506168D02*
X106286881Y-89506168D01*
X106374378Y-89506168D02*
X106330872Y-89506168D01*
X106418156Y-89506168D02*
X106374378Y-89506168D01*
X106462963Y-89506168D02*
X106418156Y-89506168D01*
X106462963Y-89678371D02*
X106462963Y-89506168D01*
X106462963Y-89850561D02*
X106462963Y-89678371D01*
X106462963Y-90024200D02*
X106462963Y-89850561D01*
X106462963Y-90200750D02*
X106462963Y-90024200D01*
X105236509Y-90461981D02*
X105236509Y-90461981D01*
X105236509Y-90417384D02*
X105236509Y-90461981D01*
X105236509Y-90373867D02*
X105236509Y-90417384D01*
X105236509Y-90330173D02*
X105236509Y-90373867D01*
X105236509Y-90285043D02*
X105236509Y-90330173D01*
X105412785Y-90285043D02*
X105236509Y-90285043D01*
X105587975Y-90285043D02*
X105412785Y-90285043D01*
X105762417Y-90285043D02*
X105587975Y-90285043D01*
X105936448Y-90285043D02*
X105762417Y-90285043D01*
X105936448Y-90230812D02*
X105936448Y-90285043D01*
X105936448Y-90177997D02*
X105936448Y-90230812D01*
X105936448Y-90125287D02*
X105936448Y-90177997D01*
X105936448Y-90071373D02*
X105936448Y-90125287D01*
X105794888Y-90071373D02*
X105936448Y-90071373D01*
X105654041Y-90071373D02*
X105794888Y-90071373D01*
X105513616Y-90071373D02*
X105654041Y-90071373D01*
X105373323Y-90071373D02*
X105513616Y-90071373D01*
X105373323Y-90026584D02*
X105373323Y-90071373D01*
X105373323Y-89983010D02*
X105373323Y-90026584D01*
X105373323Y-89939307D02*
X105373323Y-89983010D01*
X105373323Y-89894135D02*
X105373323Y-89939307D01*
X105515245Y-89894135D02*
X105373323Y-89894135D01*
X105656046Y-89894135D02*
X105515245Y-89894135D01*
X105795938Y-89894135D02*
X105656046Y-89894135D01*
X105935134Y-89894135D02*
X105795938Y-89894135D01*
X105935134Y-89838434D02*
X105935134Y-89894135D01*
X105935134Y-89784407D02*
X105935134Y-89838434D01*
X105935134Y-89730849D02*
X105935134Y-89784407D01*
X105935134Y-89676558D02*
X105935134Y-89730849D01*
X105759776Y-89676558D02*
X105935134Y-89676558D01*
X105585257Y-89676558D02*
X105759776Y-89676558D01*
X105410891Y-89676558D02*
X105585257Y-89676558D01*
X105235987Y-89676558D02*
X105410891Y-89676558D01*
X105235987Y-89632566D02*
X105235987Y-89676558D01*
X105235987Y-89589925D02*
X105235987Y-89632566D01*
X105235987Y-89547982D02*
X105235987Y-89589925D01*
X105235987Y-89506083D02*
X105235987Y-89547982D01*
X105456399Y-89506083D02*
X105235987Y-89506083D01*
X105675832Y-89506083D02*
X105456399Y-89506083D01*
X105894475Y-89506083D02*
X105675832Y-89506083D01*
X106112515Y-89506083D02*
X105894475Y-89506083D01*
X106112515Y-89746239D02*
X106112515Y-89506083D01*
X106112515Y-89985334D02*
X106112515Y-89746239D01*
X106112515Y-90223778D02*
X106112515Y-89985334D01*
X106112515Y-90461981D02*
X106112515Y-90223778D01*
X105893109Y-90461981D02*
X106112515Y-90461981D01*
X105674595Y-90461981D02*
X105893109Y-90461981D01*
X105456040Y-90461981D02*
X105674595Y-90461981D01*
X105236509Y-90461981D02*
X105456040Y-90461981D01*
X110176679Y-89681541D02*
X110176679Y-89681541D01*
X110025808Y-89681541D02*
X110176679Y-89681541D01*
X109876100Y-89681541D02*
X110025808Y-89681541D01*
X109726702Y-89681541D02*
X109876100Y-89681541D01*
X109576757Y-89681541D02*
X109726702Y-89681541D01*
X109576757Y-89831875D02*
X109576757Y-89681541D01*
X109576757Y-89981869D02*
X109576757Y-89831875D01*
X109576757Y-90132136D02*
X109576757Y-89981869D01*
X109576757Y-90283291D02*
X109576757Y-90132136D01*
X109726169Y-90283291D02*
X109576757Y-90283291D01*
X109875648Y-90283291D02*
X109726169Y-90283291D01*
X110025662Y-90283291D02*
X109875648Y-90283291D01*
X110176679Y-90283291D02*
X110025662Y-90283291D01*
X110176679Y-90133712D02*
X110176679Y-90283291D01*
X110176679Y-89983973D02*
X110176679Y-90133712D01*
X110176679Y-89833455D02*
X110176679Y-89983973D01*
X110176679Y-89681541D02*
X110176679Y-89833455D01*
X109869780Y-89502568D02*
X109869780Y-89502568D01*
X109942439Y-89502488D02*
X109869780Y-89502568D01*
X110015099Y-89502368D02*
X109942439Y-89502488D01*
X110087758Y-89502384D02*
X110015099Y-89502368D01*
X110160415Y-89502715D02*
X110087758Y-89502384D01*
X110241960Y-89516815D02*
X110160415Y-89502715D01*
X110303618Y-89556027D02*
X110241960Y-89516815D01*
X110342711Y-89617768D02*
X110303618Y-89556027D01*
X110356561Y-89699454D02*
X110342711Y-89617768D01*
X110356967Y-89841805D02*
X110356561Y-89699454D01*
X110357112Y-89984158D02*
X110356967Y-89841805D01*
X110356972Y-90126511D02*
X110357112Y-89984158D01*
X110356526Y-90268862D02*
X110356972Y-90126511D01*
X110342671Y-90348790D02*
X110356526Y-90268862D01*
X110303934Y-90410004D02*
X110342671Y-90348790D01*
X110243432Y-90449280D02*
X110303934Y-90410004D01*
X110164280Y-90463393D02*
X110243432Y-90449280D01*
X110020446Y-90463958D02*
X110164280Y-90463393D01*
X109876610Y-90464148D02*
X110020446Y-90463958D01*
X109732774Y-90463960D02*
X109876610Y-90464148D01*
X109588941Y-90463391D02*
X109732774Y-90463960D01*
X109509677Y-90449189D02*
X109588941Y-90463391D01*
X109448644Y-90409845D02*
X109509677Y-90449189D01*
X109409311Y-90348866D02*
X109448644Y-90409845D01*
X109395149Y-90269759D02*
X109409311Y-90348866D01*
X109394655Y-90127408D02*
X109395149Y-90269759D01*
X109394514Y-89985055D02*
X109394655Y-90127408D01*
X109394670Y-89842702D02*
X109394514Y-89985055D01*
X109395073Y-89700350D02*
X109394670Y-89842702D01*
X109409067Y-89618969D02*
X109395073Y-89700350D01*
X109448399Y-89556928D02*
X109409067Y-89618969D01*
X109510051Y-89517196D02*
X109448399Y-89556928D01*
X109591006Y-89502740D02*
X109510051Y-89517196D01*
X109660697Y-89502352D02*
X109591006Y-89502740D01*
X109730390Y-89502333D02*
X109660697Y-89502352D01*
X109800085Y-89502475D02*
X109730390Y-89502333D01*
X109869780Y-89502568D02*
X109800085Y-89502475D01*
X110838772Y-90116675D02*
X110838772Y-90116675D01*
X110842092Y-90116258D02*
X110838772Y-90116675D01*
X110845412Y-90115842D02*
X110842092Y-90116258D01*
X110848733Y-90115426D02*
X110845412Y-90115842D01*
X110852053Y-90115010D02*
X110848733Y-90115426D01*
X110897815Y-89989866D02*
X110852053Y-90115010D01*
X110943578Y-89864722D02*
X110897815Y-89989866D01*
X110989336Y-89739577D02*
X110943578Y-89864722D01*
X111035081Y-89614427D02*
X110989336Y-89739577D01*
X111060918Y-89549272D02*
X111035081Y-89614427D01*
X111086550Y-89516166D02*
X111060918Y-89549272D01*
X111127288Y-89503809D02*
X111086550Y-89516166D01*
X111198442Y-89500900D02*
X111127288Y-89503809D01*
X111225540Y-89503443D02*
X111198442Y-89500900D01*
X111244962Y-89512662D02*
X111225540Y-89503443D01*
X111258888Y-89528914D02*
X111244962Y-89512662D01*
X111269497Y-89552555D02*
X111258888Y-89528914D01*
X111311292Y-89669745D02*
X111269497Y-89552555D01*
X111353751Y-89786700D02*
X111311292Y-89669745D01*
X111396557Y-89903533D02*
X111353751Y-89786700D01*
X111439396Y-90020354D02*
X111396557Y-89903533D01*
X111448765Y-90045538D02*
X111439396Y-90020354D01*
X111458791Y-90071869D02*
X111448765Y-90045538D01*
X111469828Y-90100606D02*
X111458791Y-90071869D01*
X111482227Y-90133008D02*
X111469828Y-90100606D01*
X111528082Y-90008324D02*
X111482227Y-90133008D01*
X111572477Y-89887600D02*
X111528082Y-90008324D01*
X111615912Y-89769522D02*
X111572477Y-89887600D01*
X111658891Y-89652775D02*
X111615912Y-89769522D01*
X111695917Y-89559724D02*
X111658891Y-89652775D01*
X111732276Y-89513220D02*
X111695917Y-89559724D01*
X111789561Y-89499315D02*
X111732276Y-89513220D01*
X111889363Y-89504066D02*
X111789561Y-89499315D01*
X111890679Y-89504345D02*
X111889363Y-89504066D01*
X111892071Y-89504915D02*
X111890679Y-89504345D01*
X111893643Y-89505668D02*
X111892071Y-89504915D01*
X111895500Y-89506497D02*
X111893643Y-89505668D01*
X111895168Y-89510641D02*
X111895500Y-89506497D01*
X95504275Y-89515739D02*
X95443291Y-89503486D01*
X95552323Y-89548738D02*
X95504275Y-89515739D01*
X95583923Y-89598401D02*
X95552323Y-89548738D01*
X95595560Y-89660648D02*
X95583923Y-89598401D01*
X95596403Y-89820873D02*
X95595560Y-89660648D01*
X95596667Y-89981103D02*
X95596403Y-89820873D01*
X95596413Y-90141334D02*
X95596667Y-89981103D01*
X95595703Y-90301562D02*
X95596413Y-90141334D01*
X95583848Y-90367096D02*
X95595703Y-90301562D01*
X95551147Y-90418040D02*
X95583848Y-90367096D01*
X95500664Y-90451142D02*
X95551147Y-90418040D01*
X95435463Y-90463144D02*
X95500664Y-90451142D01*
X95242597Y-90463759D02*
X95435463Y-90463144D01*
X95049729Y-90463798D02*
X95242597Y-90463759D01*
X94856859Y-90463534D02*
X95049729Y-90463798D01*
X94663989Y-90463240D02*
X94856859Y-90463534D01*
X94658441Y-90462767D02*
X94663989Y-90463240D01*
X94652688Y-90461589D02*
X94658441Y-90462767D01*
X94646525Y-90460047D02*
X94652688Y-90461589D01*
X94639747Y-90458484D02*
X94646525Y-90460047D01*
X94639747Y-90434003D02*
X94639747Y-90458484D01*
X94639747Y-90409492D02*
X94639747Y-90434003D01*
X94639747Y-90384050D02*
X94639747Y-90409492D01*
X94639747Y-90356775D02*
X94639747Y-90384050D01*
X100920626Y-89505521D02*
X100920626Y-89505521D01*
X100935439Y-89504570D02*
X100920626Y-89505521D01*
X100948677Y-89503649D02*
X100935439Y-89504570D01*
X100960865Y-89502951D02*
X100948677Y-89503649D01*
X100972529Y-89502670D02*
X100960865Y-89502951D01*
X101155013Y-89502540D02*
X100972529Y-89502670D01*
X101337497Y-89502447D02*
X101155013Y-89502540D01*
X101519981Y-89502477D02*
X101337497Y-89502447D01*
X101702466Y-89502716D02*
X101519981Y-89502477D01*
X101777794Y-89514354D02*
X101702466Y-89502716D01*
X101832711Y-89548308D02*
X101777794Y-89514354D01*
X101866362Y-89603656D02*
X101832711Y-89548308D01*
X101877889Y-89679477D02*
X101866362Y-89603656D01*
X101878104Y-89829322D02*
X101877889Y-89679477D01*
X101878153Y-89979167D02*
X101878104Y-89829322D01*
X101878087Y-90129013D02*
X101878153Y-89979167D01*
X101877956Y-90278858D02*
X101878087Y-90129013D01*
X101866640Y-90360640D02*
X101877956Y-90278858D01*
X101832427Y-90418248D02*
X101866640Y-90360640D01*
X101774632Y-90452353D02*
X101832427Y-90418248D01*
X101692572Y-90463626D02*
X101774632Y-90452353D01*
X101514539Y-90463727D02*
X101692572Y-90463626D01*
X101336505Y-90463740D02*
X101514539Y-90463727D01*
X101158471Y-90463678D02*
X101336505Y-90463740D01*
X100980438Y-90463555D02*
X101158471Y-90463678D01*
X100966139Y-90463235D02*
X100980438Y-90463555D01*
X100951714Y-90462467D02*
X100966139Y-90463235D01*
X100937035Y-90461498D02*
X100951714Y-90462467D01*
X100921974Y-90460578D02*
X100937035Y-90461498D01*
X100921974Y-90434440D02*
X100921974Y-90460578D01*
X100921974Y-90409161D02*
X100921974Y-90434440D01*
X100921974Y-90383643D02*
X100921974Y-90409161D01*
X100921974Y-90356786D02*
X100921974Y-90383643D01*
X100939644Y-90356786D02*
X100921974Y-90356786D01*
X100956445Y-90356786D02*
X100939644Y-90356786D01*
X100972667Y-90356786D02*
X100956445Y-90356786D01*
X100988600Y-90356785D02*
X100972667Y-90356786D01*
X101160700Y-90356794D02*
X100988600Y-90356785D01*
X101332799Y-90356806D02*
X101160700Y-90356794D01*
X101504898Y-90356797D02*
X101332799Y-90356806D01*
X101676998Y-90356743D02*
X101504898Y-90356797D01*
X101726530Y-90353757D02*
X101676998Y-90356743D01*
X101754985Y-90341249D02*
X101726530Y-90353757D01*
X101767967Y-90313802D02*
X101754985Y-90341249D01*
X101771082Y-90266000D02*
X101767967Y-90313802D01*
X101771175Y-90123573D02*
X101771082Y-90266000D01*
X101771212Y-89981146D02*
X101771175Y-90123573D01*
X101771177Y-89838719D02*
X101771212Y-89981146D01*
X101771053Y-89696292D02*
X101771177Y-89838719D01*
X101767792Y-89651861D02*
X101771053Y-89696292D01*
X101755246Y-89625495D02*
X101767792Y-89651861D01*
X101729066Y-89612843D02*
X101755246Y-89625495D01*
X101684907Y-89609554D02*
X101729066Y-89612843D01*
X101509840Y-89609435D02*
X101684907Y-89609554D01*
X101334774Y-89609413D02*
X101509840Y-89609435D01*
X101159708Y-89609436D02*
X101334774Y-89609413D01*
X100984641Y-89609454D02*
X101159708Y-89609436D01*
X100969037Y-89609454D02*
X100984641Y-89609454D01*
X100953272Y-89609454D02*
X100969037Y-89609454D01*
X100937189Y-89609454D02*
X100953272Y-89609454D01*
X100920626Y-89609454D02*
X100937189Y-89609454D01*
X100920626Y-89581959D02*
X100920626Y-89609454D01*
X100920626Y-89556482D02*
X100920626Y-89581959D01*
X100920626Y-89531508D02*
X100920626Y-89556482D01*
X100920626Y-89505521D02*
X100920626Y-89531508D01*
X99894045Y-90041583D02*
X99894045Y-90041583D01*
X99894045Y-90147450D02*
X99894045Y-90041583D01*
X99894045Y-90252353D02*
X99894045Y-90147450D01*
X99894045Y-90356387D02*
X99894045Y-90252353D01*
X99894045Y-90459648D02*
X99894045Y-90356387D01*
X99865284Y-90459648D02*
X99894045Y-90459648D01*
X99838896Y-90459648D02*
X99865284Y-90459648D01*
X99814361Y-90459648D02*
X99838896Y-90459648D01*
X99791160Y-90459648D02*
X99814361Y-90459648D01*
X99791160Y-90219303D02*
X99791160Y-90459648D01*
X99791160Y-89980304D02*
X99791160Y-90219303D01*
X99791160Y-89742338D02*
X99791160Y-89980304D01*
X99791160Y-89505091D02*
X99791160Y-89742338D01*
X99817496Y-89505091D02*
X99791160Y-89505091D01*
X99842972Y-89505091D02*
X99817496Y-89505091D01*
X99868667Y-89505091D02*
X99842972Y-89505091D01*
X99895659Y-89505091D02*
X99868667Y-89505091D01*
X99895659Y-89611092D02*
X99895659Y-89505091D01*
X99895659Y-89716324D02*
X99895659Y-89611092D01*
X99895659Y-89821052D02*
X99895659Y-89716324D01*
X99895659Y-89925542D02*
X99895659Y-89821052D01*
X100089828Y-89925542D02*
X99895659Y-89925542D01*
X100282778Y-89925542D02*
X100089828Y-89925542D01*
X100475704Y-89925542D02*
X100282778Y-89925542D01*
X100669802Y-89925542D02*
X100475704Y-89925542D01*
X100669802Y-89818811D02*
X100669802Y-89925542D01*
X100669802Y-89713376D02*
X100669802Y-89818811D01*
X100669802Y-89609012D02*
X100669802Y-89713376D01*
X100669802Y-89505492D02*
X100669802Y-89609012D01*
X100696717Y-89505492D02*
X100669802Y-89505492D01*
X100721909Y-89505492D02*
X100696717Y-89505492D01*
X100746070Y-89505492D02*
X100721909Y-89505492D01*
X100769896Y-89505492D02*
X100746070Y-89505492D01*
X100769896Y-89745283D02*
X100769896Y-89505492D01*
X100769896Y-89984067D02*
X100769896Y-89745283D01*
X100769896Y-90222077D02*
X100769896Y-89984067D01*
X100769896Y-90459550D02*
X100769896Y-90222077D01*
X100743394Y-90459550D02*
X100769896Y-90459550D01*
X100717472Y-90459550D02*
X100743394Y-90459550D01*
X100691258Y-90459550D02*
X100717472Y-90459550D01*
X100663882Y-90459550D02*
X100691258Y-90459550D01*
X100663882Y-90353892D02*
X100663882Y-90459550D01*
X100663882Y-90249366D02*
X100663882Y-90353892D01*
X100663882Y-90145441D02*
X100663882Y-90249366D01*
X100663882Y-90041583D02*
X100663882Y-90145441D01*
X100471337Y-90041583D02*
X100663882Y-90041583D01*
X100279668Y-90041583D02*
X100471337Y-90041583D01*
X100087646Y-90041583D02*
X100279668Y-90041583D01*
X99894045Y-90041583D02*
X100087646Y-90041583D01*
X104196602Y-89506048D02*
X104196602Y-89506048D01*
X104436201Y-89506048D02*
X104196602Y-89506048D01*
X104675132Y-89506048D02*
X104436201Y-89506048D01*
X104913846Y-89506048D02*
X104675132Y-89506048D01*
X105152791Y-89506048D02*
X104913846Y-89506048D01*
X105152791Y-89548961D02*
X105152791Y-89506048D01*
X105152791Y-89591532D02*
X105152791Y-89548961D01*
X105152791Y-89634736D02*
X105152791Y-89591532D01*
X105152791Y-89679551D02*
X105152791Y-89634736D01*
X105055537Y-89679551D02*
X105152791Y-89679551D01*
X104958561Y-89679551D02*
X105055537Y-89679551D01*
X104861034Y-89679551D02*
X104958561Y-89679551D01*
X104762128Y-89679551D02*
X104861034Y-89679551D01*
X104762128Y-89876958D02*
X104762128Y-89679551D01*
X104762128Y-90072372D02*
X104762128Y-89876958D01*
X104762128Y-90266370D02*
X104762128Y-90072372D01*
X104762128Y-90459529D02*
X104762128Y-90266370D01*
X104716427Y-90459529D02*
X104762128Y-90459529D01*
X104671929Y-90459529D02*
X104716427Y-90459529D01*
X104627508Y-90459529D02*
X104671929Y-90459529D01*
X104582036Y-90459529D02*
X104627508Y-90459529D01*
X104582036Y-90263384D02*
X104582036Y-90459529D01*
X104582036Y-90068062D02*
X104582036Y-90263384D01*
X104582036Y-89872705D02*
X104582036Y-90068062D01*
X104582036Y-89676449D02*
X104582036Y-89872705D01*
X104484153Y-89676449D02*
X104582036Y-89676449D01*
X104387774Y-89676449D02*
X104484153Y-89676449D01*
X104292168Y-89676449D02*
X104387774Y-89676449D01*
X104196602Y-89676449D02*
X104292168Y-89676449D01*
X104196602Y-89632829D02*
X104196602Y-89676449D01*
X104196602Y-89590343D02*
X104196602Y-89632829D01*
X104196602Y-89548310D02*
X104196602Y-89590343D01*
X104196602Y-89506048D02*
X104196602Y-89548310D01*
X109245486Y-89504000D02*
X109245486Y-89504000D01*
X109245486Y-89745055D02*
X109245486Y-89504000D01*
X109245486Y-89984416D02*
X109245486Y-89745055D01*
X109245486Y-90222536D02*
X109245486Y-89984416D01*
X109245486Y-90459865D02*
X109245486Y-90222536D01*
X109005856Y-90459865D02*
X109245486Y-90459865D01*
X108767552Y-90459865D02*
X109005856Y-90459865D01*
X108530040Y-90459865D02*
X108767552Y-90459865D01*
X108292783Y-90459865D02*
X108530040Y-90459865D01*
X108292783Y-90416767D02*
X108292783Y-90459865D01*
X108292783Y-90374130D02*
X108292783Y-90416767D01*
X108292783Y-90330969D02*
X108292783Y-90374130D01*
X108292783Y-90286298D02*
X108292783Y-90330969D01*
X108488341Y-90286298D02*
X108292783Y-90286298D01*
X108683465Y-90286298D02*
X108488341Y-90286298D01*
X108879052Y-90286298D02*
X108683465Y-90286298D01*
X109076002Y-90286298D02*
X108879052Y-90286298D01*
X109076002Y-90088935D02*
X109076002Y-90286298D01*
X109076002Y-89893287D02*
X109076002Y-90088935D01*
X109076002Y-89698570D02*
X109076002Y-89893287D01*
X109076002Y-89504000D02*
X109076002Y-89698570D01*
X109119392Y-89504000D02*
X109076002Y-89504000D01*
X109161453Y-89504000D02*
X109119392Y-89504000D01*
X109203159Y-89504000D02*
X109161453Y-89504000D01*
X109245486Y-89504000D02*
X109203159Y-89504000D01*
X97990290Y-89503883D02*
X97990290Y-89503883D01*
X97990290Y-89744924D02*
X97990290Y-89503883D01*
X97990290Y-89984300D02*
X97990290Y-89744924D01*
X97990290Y-90222393D02*
X97990290Y-89984300D01*
X97990290Y-90459582D02*
X97990290Y-90222393D01*
X97771622Y-90459582D02*
X97990290Y-90459582D01*
X97554130Y-90459582D02*
X97771622Y-90459582D01*
X97337264Y-90459582D02*
X97554130Y-90459582D01*
X97120472Y-90459582D02*
X97337264Y-90459582D01*
X97120472Y-90434000D02*
X97120472Y-90459582D01*
X97120472Y-90408888D02*
X97120472Y-90434000D01*
X97120472Y-90383153D02*
X97120472Y-90408888D01*
X97120472Y-90355703D02*
X97120472Y-90383153D01*
X97312509Y-90355703D02*
X97120472Y-90355703D01*
X97503620Y-90355703D02*
X97312509Y-90355703D01*
X97693964Y-90355703D02*
X97503620Y-90355703D01*
X97883699Y-90355703D02*
X97693964Y-90355703D01*
X97883699Y-90274878D02*
X97883699Y-90355703D01*
X97883699Y-90195528D02*
X97883699Y-90274878D01*
X97883699Y-90116290D02*
X97883699Y-90195528D01*
X97883699Y-90035804D02*
X97883699Y-90116290D01*
X97729368Y-90035804D02*
X97883699Y-90035804D01*
X97576281Y-90035804D02*
X97729368Y-90035804D01*
X97424099Y-90035804D02*
X97576281Y-90035804D01*
X97272483Y-90035804D02*
X97424099Y-90035804D01*
X97272483Y-90008320D02*
X97272483Y-90035804D01*
X97272483Y-89982256D02*
X97272483Y-90008320D01*
X97272483Y-89956357D02*
X97272483Y-89982256D01*
X97272483Y-89929367D02*
X97272483Y-89956357D01*
X97426055Y-89929367D02*
X97272483Y-89929367D01*
X97578939Y-89929367D02*
X97426055Y-89929367D01*
X97731456Y-89929367D02*
X97578939Y-89929367D01*
X97883931Y-89929367D02*
X97731456Y-89929367D01*
X97883931Y-89847961D02*
X97883931Y-89929367D01*
X97883931Y-89767860D02*
X97883931Y-89847961D01*
X97883931Y-89687985D02*
X97883931Y-89767860D01*
X97883931Y-89607258D02*
X97883931Y-89687985D01*
X97692264Y-89607258D02*
X97883931Y-89607258D01*
X97501673Y-89607258D02*
X97692264Y-89607258D01*
X97311721Y-89607258D02*
X97501673Y-89607258D01*
X97121974Y-89607258D02*
X97311721Y-89607258D01*
X97121974Y-89580025D02*
X97121974Y-89607258D01*
X97121974Y-89554152D02*
X97121974Y-89580025D01*
X97121974Y-89528988D02*
X97121974Y-89554152D01*
X97121974Y-89503883D02*
X97121974Y-89528988D01*
X97339577Y-89503883D02*
X97121974Y-89503883D01*
X97556296Y-89503883D02*
X97339577Y-89503883D01*
X97772933Y-89503883D02*
X97556296Y-89503883D01*
X97990290Y-89503883D02*
X97772933Y-89503883D01*
X94023402Y-89609477D02*
X94023402Y-89609477D01*
X93949320Y-89609637D02*
X94023402Y-89609477D01*
X93875238Y-89609866D02*
X93949320Y-89609637D01*
X93801160Y-89609781D02*
X93875238Y-89609866D01*
X93727095Y-89608998D02*
X93801160Y-89609781D01*
X93691650Y-89612759D02*
X93727095Y-89608998D01*
X93666980Y-89626150D02*
X93691650Y-89612759D01*
X93652626Y-89650242D02*
X93666980Y-89626150D01*
X93648130Y-89686108D02*
X93652626Y-89650242D01*
X93648876Y-89834262D02*
X93648130Y-89686108D01*
X93649126Y-89982420D02*
X93648876Y-89834262D01*
X93648873Y-90130578D02*
X93649126Y-89982420D01*
X93648107Y-90278732D02*
X93648873Y-90130578D01*
X93652258Y-90314347D02*
X93648107Y-90278732D01*
X93665928Y-90338825D02*
X93652258Y-90314347D01*
X93690083Y-90352883D02*
X93665928Y-90338825D01*
X93725689Y-90357238D02*
X93690083Y-90352883D01*
X93873844Y-90356553D02*
X93725689Y-90357238D01*
X94022002Y-90356324D02*
X93873844Y-90356553D01*
X94170159Y-90356557D02*
X94022002Y-90356324D01*
X94318314Y-90357257D02*
X94170159Y-90356557D01*
X94353741Y-90353252D02*
X94318314Y-90357257D01*
X94378409Y-90339890D02*
X94353741Y-90353252D01*
X94392768Y-90315932D02*
X94378409Y-90339890D01*
X94397264Y-90280134D02*
X94392768Y-90315932D01*
X94396512Y-90131980D02*
X94397264Y-90280134D01*
X94396259Y-89983822D02*
X94396512Y-90131980D01*
X94396514Y-89835664D02*
X94396259Y-89983822D01*
X94397285Y-89687511D02*
X94396514Y-89835664D01*
X94393138Y-89651810D02*
X94397285Y-89687511D01*
X94379475Y-89627205D02*
X94393138Y-89651810D01*
X94355323Y-89613130D02*
X94379475Y-89627205D01*
X94319710Y-89609021D02*
X94355323Y-89613130D01*
X94245643Y-89609777D02*
X94319710Y-89609021D01*
X94171566Y-89609858D02*
X94245643Y-89609777D01*
X94097483Y-89609634D02*
X94171566Y-89609858D01*
X94023402Y-89609477D02*
X94097483Y-89609634D01*
X94023496Y-90463674D02*
X94023496Y-90463674D01*
X93946413Y-90463743D02*
X94023496Y-90463674D01*
X93869330Y-90463848D02*
X93946413Y-90463743D01*
X93792247Y-90463831D02*
X93869330Y-90463848D01*
X93715166Y-90463530D02*
X93792247Y-90463831D01*
X93641640Y-90451682D02*
X93715166Y-90463530D01*
X93587332Y-90418071D02*
X93641640Y-90451682D01*
X93553633Y-90364000D02*
X93587332Y-90418071D01*
X93541934Y-90290770D02*
X93553633Y-90364000D01*
X93541598Y-90136605D02*
X93541934Y-90290770D01*
X93541477Y-89982439D02*
X93541598Y-90136605D01*
X93541589Y-89828273D02*
X93541477Y-89982439D01*
X93541953Y-89674108D02*
X93541589Y-89828273D01*
X93553796Y-89601395D02*
X93541953Y-89674108D01*
X93587820Y-89547660D02*
X93553796Y-89601395D01*
X93642554Y-89514303D02*
X93587820Y-89547660D01*
X93716528Y-89502724D02*
X93642554Y-89514303D01*
X93869211Y-89502419D02*
X93716528Y-89502724D01*
X94021894Y-89502323D02*
X93869211Y-89502419D01*
X94174578Y-89502422D02*
X94021894Y-89502323D01*
X94327261Y-89502702D02*
X94174578Y-89502422D01*
X94402766Y-89514328D02*
X94327261Y-89502702D01*
X94457954Y-89548145D02*
X94402766Y-89514328D01*
X94491856Y-89603174D02*
X94457954Y-89548145D01*
X94503500Y-89678436D02*
X94491856Y-89603174D01*
X94503765Y-89831119D02*
X94503500Y-89678436D01*
X94503859Y-89983802D02*
X94503765Y-89831119D01*
X94503769Y-90136486D02*
X94503859Y-89983802D01*
X94503480Y-90289168D02*
X94503769Y-90136486D01*
X94491748Y-90363964D02*
X94503480Y-90289168D01*
X94457613Y-90418511D02*
X94491748Y-90363964D01*
X94402017Y-90451990D02*
X94457613Y-90418511D01*
X94325898Y-90463584D02*
X94402017Y-90451990D01*
X94250298Y-90463786D02*
X94325898Y-90463584D01*
X94174698Y-90463796D02*
X94250298Y-90463786D01*
X94099097Y-90463723D02*
X94174698Y-90463796D01*
X94023496Y-90463674D02*
X94099097Y-90463723D01*
X103243760Y-89999606D02*
X103243760Y-89999606D01*
X103428387Y-89999606D02*
X103243760Y-89999606D01*
X103611269Y-89999606D02*
X103428387Y-89999606D01*
X103793962Y-89999606D02*
X103611269Y-89999606D01*
X103978023Y-89999606D02*
X103793962Y-89999606D01*
X103978303Y-89912629D02*
X103978023Y-89999606D01*
X103978537Y-89825762D02*
X103978303Y-89912629D01*
X103977816Y-89739010D02*
X103978537Y-89825762D01*
X103975233Y-89652376D02*
X103977816Y-89739010D01*
X103968519Y-89639638D02*
X103975233Y-89652376D01*
X103952810Y-89626345D02*
X103968519Y-89639638D01*
X103933246Y-89615827D02*
X103952810Y-89626345D01*
X103914970Y-89611416D02*
X103933246Y-89615827D01*
X103763632Y-89609800D02*
X103914970Y-89611416D01*
X103612275Y-89609305D02*
X103763632Y-89609800D01*
X103460909Y-89609389D02*
X103612275Y-89609305D01*
X103309543Y-89609511D02*
X103460909Y-89609389D01*
X103282508Y-89612915D02*
X103309543Y-89609511D01*
X103261944Y-89623544D02*
X103282508Y-89612915D01*
X103248806Y-89642008D02*
X103261944Y-89623544D01*
X103244049Y-89668913D02*
X103248806Y-89642008D01*
X103243641Y-89750305D02*
X103244049Y-89668913D01*
X103243582Y-89832210D02*
X103243641Y-89750305D01*
X103243685Y-89915141D02*
X103243582Y-89832210D01*
X103243760Y-89999606D02*
X103243685Y-89915141D01*
X103136758Y-90461179D02*
X103136758Y-90461179D01*
X103136758Y-90446688D02*
X103136758Y-90461179D01*
X103136758Y-90432911D02*
X103136758Y-90446688D01*
X103136758Y-90419610D02*
X103136758Y-90432911D01*
X103136758Y-90406548D02*
X103136758Y-90419610D01*
X103136731Y-90225693D02*
X103136758Y-90406548D01*
X103136692Y-90044838D02*
X103136731Y-90225693D01*
X103136708Y-89863983D02*
X103136692Y-90044838D01*
X103136843Y-89683128D02*
X103136708Y-89863983D01*
X103148306Y-89603962D02*
X103136843Y-89683128D01*
X103182579Y-89547614D02*
X103148306Y-89603962D01*
X103239815Y-89513896D02*
X103182579Y-89547614D01*
X103320167Y-89502623D02*
X103239815Y-89513896D01*
X103465443Y-89502493D02*
X103320167Y-89502623D01*
X103610721Y-89502454D02*
X103465443Y-89502493D01*
X103755998Y-89502496D02*
X103610721Y-89502454D01*
X103901275Y-89502609D02*
X103755998Y-89502496D01*
X103983373Y-89513856D02*
X103901275Y-89502609D01*
X104041185Y-89547870D02*
X103983373Y-89513856D01*
X104075398Y-89605346D02*
X104041185Y-89547870D01*
X104086700Y-89686979D02*
X104075398Y-89605346D01*
X104086790Y-89866352D02*
X104086700Y-89686979D01*
X104086800Y-90045724D02*
X104086790Y-89866352D01*
X104086775Y-90225097D02*
X104086800Y-90045724D01*
X104086756Y-90404470D02*
X104086775Y-90225097D01*
X104086757Y-90418667D02*
X104086756Y-90404470D01*
X104086757Y-90432874D02*
X104086757Y-90418667D01*
X104086757Y-90447100D02*
X104086757Y-90432874D01*
X104086757Y-90461357D02*
X104086757Y-90447100D01*
X104058714Y-90461357D02*
X104086757Y-90461357D01*
X104032401Y-90461357D02*
X104058714Y-90461357D01*
X104006453Y-90461357D02*
X104032401Y-90461357D01*
X103979506Y-90461357D02*
X104006453Y-90461357D01*
X103979506Y-90373289D02*
X103979506Y-90461357D01*
X103979506Y-90285856D02*
X103979506Y-90373289D01*
X103979506Y-90198734D02*
X103979506Y-90285856D01*
X103979506Y-90111598D02*
X103979506Y-90198734D01*
X103794345Y-90111598D02*
X103979506Y-90111598D01*
X103610389Y-90111598D02*
X103794345Y-90111598D01*
X103426456Y-90111598D02*
X103610389Y-90111598D01*
X103241363Y-90111598D02*
X103426456Y-90111598D01*
X103241363Y-90200342D02*
X103241363Y-90111598D01*
X103241363Y-90287995D02*
X103241363Y-90200342D01*
X103241363Y-90374845D02*
X103241363Y-90287995D01*
X103241363Y-90461179D02*
X103241363Y-90374845D01*
X103214439Y-90461179D02*
X103241363Y-90461179D01*
X103188777Y-90461179D02*
X103214439Y-90461179D01*
X103163257Y-90461179D02*
X103188777Y-90461179D01*
X103136758Y-90461179D02*
X103163257Y-90461179D01*
X92309560Y-89506951D02*
X92309560Y-89506951D01*
X92389762Y-89499898D02*
X92309560Y-89506951D01*
X92439311Y-89506249D02*
X92389762Y-89499898D01*
X92478735Y-89533842D02*
X92439311Y-89506249D01*
X92528561Y-89590513D02*
X92478735Y-89533842D01*
X92551403Y-89617826D02*
X92528561Y-89590513D01*
X92574219Y-89645161D02*
X92551403Y-89617826D01*
X92597052Y-89672483D02*
X92574219Y-89645161D01*
X92619945Y-89699753D02*
X92597052Y-89672483D01*
X92677090Y-89767561D02*
X92619945Y-89699753D01*
X92734596Y-89835743D02*
X92677090Y-89767561D01*
X92792783Y-89904708D02*
X92734596Y-89835743D01*
X92851972Y-89974864D02*
X92792783Y-89904708D01*
X92865989Y-89959245D02*
X92851972Y-89974864D01*
X92878865Y-89944975D02*
X92865989Y-89959245D01*
X92890862Y-89931506D02*
X92878865Y-89944975D01*
X92902248Y-89918291D02*
X92890862Y-89931506D01*
X92974747Y-89833769D02*
X92902248Y-89918291D01*
X93047598Y-89749493D02*
X92974747Y-89833769D01*
X93118766Y-89664000D02*
X93047598Y-89749493D01*
X93186216Y-89575827D02*
X93118766Y-89664000D01*
X93232351Y-89528806D02*
X93186216Y-89575827D01*
X93282396Y-89505993D02*
X93232351Y-89528806D01*
X93336471Y-89500824D02*
X93282396Y-89505993D01*
X93394699Y-89506733D02*
X93336471Y-89500824D01*
X93394699Y-89746735D02*
X93394699Y-89506733D01*
X93394699Y-89985614D02*
X93394699Y-89746735D01*
X93394699Y-90223578D02*
X93394699Y-89985614D01*
X93394699Y-90460835D02*
X93394699Y-90223578D01*
X93368734Y-90460835D02*
X93394699Y-90460835D01*
X93343507Y-90460835D02*
X93368734Y-90460835D01*
X93318012Y-90460835D02*
X93343507Y-90460835D01*
X93291240Y-90460835D02*
X93318012Y-90460835D01*
X93291240Y-90255196D02*
X93291240Y-90460835D01*
X93291240Y-90049014D02*
X93291240Y-90255196D01*
X93291240Y-89840567D02*
X93291240Y-90049014D01*
X93291240Y-89628133D02*
X93291240Y-89840567D01*
X93179031Y-89761172D02*
X93291240Y-89628133D01*
X93069387Y-89891171D02*
X93179031Y-89761172D01*
X92961098Y-90019562D02*
X93069387Y-89891171D01*
X92852956Y-90147780D02*
X92961098Y-90019562D01*
X92744013Y-90018599D02*
X92852956Y-90147780D01*
X92636477Y-89891085D02*
X92744013Y-90018599D01*
X92529878Y-89764684D02*
X92636477Y-89891085D01*
X92423748Y-89638838D02*
X92529878Y-89764684D01*
X92420467Y-89640497D02*
X92423748Y-89638838D01*
X92417185Y-89642157D02*
X92420467Y-89640497D01*
X92413904Y-89643817D02*
X92417185Y-89642157D01*
X92410622Y-89645476D02*
X92413904Y-89643817D01*
X92410622Y-89849505D02*
X92410622Y-89645476D01*
X92410622Y-90053489D02*
X92410622Y-89849505D01*
X92410622Y-90257387D02*
X92410622Y-90053489D01*
X92410622Y-90461153D02*
X92410622Y-90257387D01*
X92384178Y-90461153D02*
X92410622Y-90461153D01*
X92359037Y-90461153D02*
X92384178Y-90461153D01*
X92334424Y-90461153D02*
X92359037Y-90461153D01*
X92309560Y-90461153D02*
X92334424Y-90461153D01*
X92309560Y-90222554D02*
X92309560Y-90461153D01*
X92309560Y-89984406D02*
X92309560Y-90222554D01*
X92309560Y-89746082D02*
X92309560Y-89984406D01*
X92309560Y-89506951D02*
X92309560Y-89746082D01*
X96029574Y-89698202D02*
X96029574Y-89698202D01*
X96031827Y-89619012D02*
X96029574Y-89698202D01*
X96061037Y-89557254D02*
X96031827Y-89619012D01*
X96114076Y-89516990D02*
X96061037Y-89557254D01*
X96187815Y-89502284D02*
X96114076Y-89516990D01*
X96346621Y-89501481D02*
X96187815Y-89502284D01*
X96505432Y-89501239D02*
X96346621Y-89501481D01*
X96664244Y-89501528D02*
X96505432Y-89501239D01*
X96823051Y-89502316D02*
X96664244Y-89501528D01*
X96888432Y-89514239D02*
X96823051Y-89502316D01*
X96939093Y-89546999D02*
X96888432Y-89514239D01*
X96972255Y-89597481D02*
X96939093Y-89546999D01*
X96985141Y-89662566D02*
X96972255Y-89597481D01*
X96985865Y-89708558D02*
X96985141Y-89662566D01*
X96985928Y-89754568D02*
X96985865Y-89708558D01*
X96985685Y-89800585D02*
X96985928Y-89754568D01*
X96985493Y-89846600D02*
X96985685Y-89800585D01*
X96974510Y-89933337D02*
X96985493Y-89846600D01*
X96940482Y-89992961D02*
X96974510Y-89933337D01*
X96881469Y-90027378D02*
X96940482Y-89992961D01*
X96795535Y-90038495D02*
X96881469Y-90027378D01*
X96650082Y-90038548D02*
X96795535Y-90038495D01*
X96504628Y-90038508D02*
X96650082Y-90038548D01*
X96359174Y-90038520D02*
X96504628Y-90038508D01*
X96213722Y-90038731D02*
X96359174Y-90038520D01*
X96171865Y-90042251D02*
X96213722Y-90038731D01*
X96146595Y-90054996D02*
X96171865Y-90042251D01*
X96134101Y-90080621D02*
X96146595Y-90054996D01*
X96130572Y-90122781D02*
X96134101Y-90080621D01*
X96130373Y-90161370D02*
X96130572Y-90122781D01*
X96130280Y-90199960D02*
X96130373Y-90161370D01*
X96130345Y-90238550D02*
X96130280Y-90199960D01*
X96130620Y-90277137D02*
X96130345Y-90238550D01*
X96134373Y-90316687D02*
X96130620Y-90277137D01*
X96146921Y-90340965D02*
X96134373Y-90316687D01*
X96171693Y-90353204D02*
X96146921Y-90340965D01*
X96212120Y-90356635D02*
X96171693Y-90353204D01*
X96353121Y-90356830D02*
X96212120Y-90356635D01*
X96494121Y-90356867D02*
X96353121Y-90356830D01*
X96635121Y-90356823D02*
X96494121Y-90356867D01*
X96776122Y-90356771D02*
X96635121Y-90356823D01*
X96828396Y-90354962D02*
X96776122Y-90356771D01*
X96857851Y-90344649D02*
X96828396Y-90354962D01*
X96873641Y-90318454D02*
X96857851Y-90344649D01*
X96884922Y-90269000D02*
X96873641Y-90318454D01*
X96909190Y-90269000D02*
X96884922Y-90269000D01*
X96933459Y-90269000D02*
X96909190Y-90269000D01*
X96957678Y-90269000D02*
X96933459Y-90269000D01*
X96981793Y-90269000D02*
X96957678Y-90269000D01*
X96976102Y-90351482D02*
X96981793Y-90269000D01*
X96944865Y-90412693D02*
X96976102Y-90351482D01*
X96889756Y-90450858D02*
X96944865Y-90412693D01*
X96812451Y-90464199D02*
X96889756Y-90450858D01*
X96656611Y-90464676D02*
X96812451Y-90464199D01*
X96500768Y-90464860D02*
X96656611Y-90464676D01*
X96344925Y-90464675D02*
X96500768Y-90464860D01*
X96189085Y-90464043D02*
X96344925Y-90464675D01*
X96121645Y-90452152D02*
X96189085Y-90464043D01*
X96069994Y-90419146D02*
X96121645Y-90452152D01*
X96036596Y-90367763D02*
X96069994Y-90419146D01*
X96023912Y-90300740D02*
X96036596Y-90367763D01*
X96023294Y-90253257D02*
X96023912Y-90300740D01*
X96023211Y-90205762D02*
X96023294Y-90253257D01*
X96023422Y-90158263D02*
X96023211Y-90205762D01*
X96023686Y-90110766D02*
X96023422Y-90158263D01*
X96035453Y-90031660D02*
X96023686Y-90110766D01*
X96069981Y-89975115D02*
X96035453Y-90031660D01*
X96127302Y-89941140D02*
X96069981Y-89975115D01*
X96207445Y-89929743D02*
X96127302Y-89941140D01*
X96355868Y-89929525D02*
X96207445Y-89929743D01*
X96504290Y-89929370D02*
X96355868Y-89929525D01*
X96652711Y-89929522D02*
X96504290Y-89929370D01*
X96801127Y-89930227D02*
X96652711Y-89929522D01*
X96837024Y-89926122D02*
X96801127Y-89930227D01*
X96861734Y-89912505D02*
X96837024Y-89926122D01*
X96875628Y-89888316D02*
X96861734Y-89912505D01*
X96879076Y-89852496D02*
X96875628Y-89888316D01*
X96878164Y-89812459D02*
X96879076Y-89852496D01*
X96878175Y-89772387D02*
X96878164Y-89812459D01*
X96878505Y-89732300D02*
X96878175Y-89772387D01*
X96878547Y-89692219D02*
X96878505Y-89732300D01*
X96874970Y-89650410D02*
X96878547Y-89692219D01*
X96862361Y-89625240D02*
X96874970Y-89650410D01*
X96836740Y-89612898D02*
X96862361Y-89625240D01*
X96794126Y-89609571D02*
X96836740Y-89612898D01*
X96654610Y-89609417D02*
X96794126Y-89609571D01*
X96515094Y-89609389D02*
X96654610Y-89609417D01*
X96375578Y-89609425D02*
X96515094Y-89609389D01*
X96236062Y-89609465D02*
X96375578Y-89609425D01*
X96182872Y-89610866D02*
X96236062Y-89609465D01*
X96153228Y-89620584D02*
X96182872Y-89610866D01*
X96136405Y-89646927D02*
X96153228Y-89620584D01*
X96121682Y-89698202D02*
X96136405Y-89646927D01*
X96098566Y-89698202D02*
X96121682Y-89698202D01*
X96075475Y-89698202D02*
X96098566Y-89698202D01*
X96052460Y-89698202D02*
X96075475Y-89698202D01*
X96029574Y-89698202D02*
X96052460Y-89698202D01*
X102488403Y-89609067D02*
X102488403Y-89609067D01*
X102415726Y-89609024D02*
X102488403Y-89609067D01*
X102343049Y-89608965D02*
X102415726Y-89609024D01*
X102270371Y-89608980D02*
X102343049Y-89608965D01*
X102197695Y-89609163D02*
X102270371Y-89608980D01*
X102156563Y-89612437D02*
X102197695Y-89609163D01*
X102131635Y-89624216D02*
X102156563Y-89612437D01*
X102119229Y-89648053D02*
X102131635Y-89624216D01*
X102115663Y-89687503D02*
X102119229Y-89648053D01*
X102115554Y-89746833D02*
X102115663Y-89687503D01*
X102115784Y-89806166D02*
X102115554Y-89746833D01*
X102115809Y-89865494D02*
X102115784Y-89806166D01*
X102115086Y-89924806D02*
X102115809Y-89865494D01*
X102119176Y-89959103D02*
X102115086Y-89924806D01*
X102133161Y-89982198D02*
X102119176Y-89959103D01*
X102157013Y-89995191D02*
X102133161Y-89982198D01*
X102190703Y-89999186D02*
X102157013Y-89995191D01*
X102340506Y-89998805D02*
X102190703Y-89999186D01*
X102490310Y-89998692D02*
X102340506Y-89998805D01*
X102640114Y-89998799D02*
X102490310Y-89998692D01*
X102789918Y-89999076D02*
X102640114Y-89998799D01*
X102823655Y-89994633D02*
X102789918Y-89999076D01*
X102846982Y-89980788D02*
X102823655Y-89994633D01*
X102860317Y-89957038D02*
X102846982Y-89980788D01*
X102864079Y-89922878D02*
X102860317Y-89957038D01*
X102863078Y-89863563D02*
X102864079Y-89922878D01*
X102862739Y-89804231D02*
X102863078Y-89863563D01*
X102863068Y-89744898D02*
X102862739Y-89804231D01*
X95448086Y-90353303D02*
X95405961Y-90356656D01*
X95473419Y-90340803D02*
X95448086Y-90353303D01*
X95485821Y-90315306D02*
X95473419Y-90340803D01*
X95489151Y-90272964D02*
X95485821Y-90315306D01*
X95489312Y-90129054D02*
X95489151Y-90272964D01*
X95489359Y-89985143D02*
X95489312Y-90129054D01*
X95489309Y-89841233D02*
X95489359Y-89985143D01*
X95489183Y-89697322D02*
X95489309Y-89841233D01*
X95485953Y-89651654D02*
X95489183Y-89697322D01*
X95473044Y-89625032D02*
X95485953Y-89651654D01*
X95445440Y-89612603D02*
X95473044Y-89625032D01*
X95398126Y-89609513D02*
X95445440Y-89612603D01*
X95224543Y-89609440D02*
X95398126Y-89609513D01*
X95050961Y-89609427D02*
X95224543Y-89609440D01*
X94877378Y-89609443D02*
X95050961Y-89609427D01*
X94703795Y-89609454D02*
X94877378Y-89609443D01*
X94688123Y-89609454D02*
X94703795Y-89609454D01*
X94672377Y-89609454D02*
X94688123Y-89609454D01*
X94656485Y-89609454D02*
X94672377Y-89609454D01*
X94640374Y-89609454D02*
X94656485Y-89609454D01*
X94640374Y-89581377D02*
X94640374Y-89609454D01*
X94640374Y-89555755D02*
X94640374Y-89581377D01*
X94640374Y-89531752D02*
X94640374Y-89555755D01*
X94640374Y-89508537D02*
X94640374Y-89531752D01*
X94646301Y-89506662D02*
X94640374Y-89508537D01*
X94651343Y-89504930D02*
X94646301Y-89506662D01*
X94655797Y-89503657D02*
X94651343Y-89504930D01*
X94659957Y-89503159D02*
X94655797Y-89503657D01*
X94855793Y-89502793D02*
X94659957Y-89503159D01*
X95051630Y-89502439D02*
X94855793Y-89502793D01*
X95247463Y-89502526D02*
X95051630Y-89502439D01*
X95443291Y-89503486D02*
X95247463Y-89502526D01*
X98643413Y-90165616D02*
X98590600Y-90073647D01*
X98697153Y-90259206D02*
X98643413Y-90165616D01*
X98752288Y-90355224D02*
X98697153Y-90259206D01*
X94639747Y-90356775D02*
X94639747Y-90356775D01*
X94833560Y-90356798D02*
X94639747Y-90356775D01*
X95025436Y-90356828D02*
X94833560Y-90356798D01*
X95216022Y-90356801D02*
X95025436Y-90356828D01*
X95405961Y-90356656D02*
X95216022Y-90356801D01*
X98366195Y-89686449D02*
X98313084Y-89585656D01*
X98422656Y-89785572D02*
X98366195Y-89686449D01*
X98480622Y-89883946D02*
X98422656Y-89785572D01*
X98538243Y-89982492D02*
X98480622Y-89883946D01*
X98590600Y-90073647D02*
X98538243Y-89982492D01*
X98243092Y-89509070D02*
X98197090Y-89499934D01*
X98281144Y-89537165D02*
X98243092Y-89509070D01*
X98313084Y-89585656D02*
X98281144Y-89537165D01*
X113597990Y-89659722D02*
X113566307Y-89695977D01*
X113023177Y-90186679D02*
X113064948Y-90186902D01*
X98146715Y-89519674D02*
X98152108Y-89531157D01*
X98141299Y-89508325D02*
X98146715Y-89519674D01*
X98197090Y-89499934D02*
X98141299Y-89508325D01*
X98539670Y-90204319D02*
X98665084Y-90421088D01*
X98414318Y-89987515D02*
X98539670Y-90204319D01*
X98289023Y-89770677D02*
X98414318Y-89987515D01*
X98163784Y-89553807D02*
X98289023Y-89770677D01*
X98157718Y-89542594D02*
X98163784Y-89553807D01*
X98152108Y-89531157D02*
X98157718Y-89542594D01*
X113542447Y-89362821D02*
X113577220Y-89410684D01*
X99355468Y-89532029D02*
X99361226Y-89520048D01*
X99349649Y-89543687D02*
X99355468Y-89532029D01*
X99343478Y-89554997D02*
X99349649Y-89543687D01*
X99217953Y-89771700D02*
X99343478Y-89554997D01*
X99092379Y-89988373D02*
X99217953Y-89771700D01*
X98966737Y-90205007D02*
X99092379Y-89988373D01*
X98841011Y-90421592D02*
X98966737Y-90205007D01*
X98803165Y-90457164D02*
X98841011Y-90421592D01*
X98753023Y-90468896D02*
X98803165Y-90457164D01*
X98702893Y-90456849D02*
X98753023Y-90468896D01*
X98665084Y-90421088D02*
X98702893Y-90456849D01*
X99299301Y-89500418D02*
X99258944Y-89506123D01*
X99367215Y-89507770D02*
X99299301Y-89500418D01*
X99361226Y-89520048D02*
X99367215Y-89507770D01*
X98781609Y-90307738D02*
X98773281Y-90321313D01*
X98789132Y-90295021D02*
X98781609Y-90307738D01*
X98891182Y-90117813D02*
X98789132Y-90295021D01*
X98993200Y-89940587D02*
X98891182Y-90117813D01*
X99095210Y-89763355D02*
X98993200Y-89940587D01*
X99197233Y-89586132D02*
X99095210Y-89763355D01*
X99230227Y-89532241D02*
X99197233Y-89586132D01*
X99258944Y-89506123D02*
X99230227Y-89532241D01*
X115271574Y-89186415D02*
X115381352Y-89370336D01*
X115265205Y-89176827D02*
X115271574Y-89186415D01*
X115258564Y-89166041D02*
X115265205Y-89176827D01*
X115250863Y-89153218D02*
X115258564Y-89166041D01*
X115241319Y-89137521D02*
X115250863Y-89153218D01*
X98752288Y-90355224D02*
X98752288Y-90355224D01*
X98763668Y-90336793D02*
X98752288Y-90355224D01*
X98773281Y-90321313D02*
X98763668Y-90336793D01*
X110878470Y-90463045D02*
X110895829Y-90463660D01*
X110861854Y-90463078D02*
X110878470Y-90463045D01*
X110845804Y-90464622D02*
X110861854Y-90463078D01*
X110810408Y-90465532D02*
X110845804Y-90464622D01*
X110783875Y-90454991D02*
X110810408Y-90465532D01*
X110764145Y-90432981D02*
X110783875Y-90454991D01*
X115541212Y-90026756D02*
X115552895Y-90048542D01*
X115533050Y-90003809D02*
X115541212Y-90026756D01*
X115529666Y-89981095D02*
X115533050Y-90003809D01*
X115509648Y-89767781D02*
X115529666Y-89981095D01*
X115460460Y-89564159D02*
X115509648Y-89767781D01*
X115381352Y-89370336D02*
X115460460Y-89564159D01*
X115640413Y-90148475D02*
X115678614Y-90187639D01*
X115602890Y-90108744D02*
X115640413Y-90148475D01*
X115566842Y-90067775D02*
X115602890Y-90108744D01*
X115552895Y-90048542D02*
X115566842Y-90067775D01*
X113603483Y-89463886D02*
X113619256Y-89524330D01*
X110611243Y-90014658D02*
X110658174Y-90142608D01*
X110564419Y-89886672D02*
X110611243Y-90014658D01*
X110530138Y-89792194D02*
X110564419Y-89886672D01*
X110495644Y-89697053D02*
X110530138Y-89792194D01*
X110460687Y-89600600D02*
X110495644Y-89697053D01*
X110425016Y-89502187D02*
X110460687Y-89600600D01*
X113311516Y-89917712D02*
X113183869Y-90028293D01*
X115681745Y-89526692D02*
X115619997Y-89354652D01*
X115723497Y-89704423D02*
X115681745Y-89526692D01*
X115745635Y-89887515D02*
X115723497Y-89704423D01*
X115748002Y-89970594D02*
X115745635Y-89887515D01*
X115745744Y-90053982D02*
X115748002Y-89970594D01*
X115741501Y-90137504D02*
X115745744Y-90053982D01*
X115737915Y-90220982D02*
X115741501Y-90137504D01*
X115732610Y-90222463D02*
X115737915Y-90220982D01*
X115727305Y-90223943D02*
X115732610Y-90222463D01*
X115722000Y-90225423D02*
X115727305Y-90223943D01*
X115716695Y-90226903D02*
X115722000Y-90225423D01*
X115678614Y-90187639D02*
X115716695Y-90226903D01*
X115399802Y-89138270D02*
X115349045Y-89138427D01*
X115449595Y-89136557D02*
X115399802Y-89138270D01*
X115478987Y-89138421D02*
X115449595Y-89136557D01*
X115502321Y-89147716D02*
X115478987Y-89138421D01*
X115521361Y-89164451D02*
X115502321Y-89147716D01*
X115537873Y-89188632D02*
X115521361Y-89164451D01*
X115619997Y-89354652D02*
X115537873Y-89188632D01*
X115306657Y-88883431D02*
X115241339Y-88817925D01*
X115370872Y-88950208D02*
X115306657Y-88883431D01*
X115435445Y-89016573D02*
X115370872Y-88950208D01*
X115241319Y-89137521D02*
X115241319Y-89137521D01*
X115296494Y-89137891D02*
X115241319Y-89137521D01*
X115349045Y-89138427D02*
X115296494Y-89137891D01*
X114723367Y-88485897D02*
X114554735Y-88430741D01*
X114883088Y-88557925D02*
X114723367Y-88485897D01*
X115033313Y-88647518D02*
X114883088Y-88557925D01*
X115173455Y-88755370D02*
X115033313Y-88647518D01*
X115241339Y-88817925D02*
X115173455Y-88755370D01*
X114490729Y-88437776D02*
X114472355Y-88453478D01*
X114509424Y-88428863D02*
X114490729Y-88437776D01*
X114530179Y-88426573D02*
X114509424Y-88428863D01*
X114554735Y-88430741D02*
X114530179Y-88426573D01*
X115114853Y-89001084D02*
X115128973Y-89011692D01*
X115025898Y-88934852D02*
X115114853Y-89001084D01*
X114937564Y-88867492D02*
X115025898Y-88934852D01*
X114847491Y-88803483D02*
X114937564Y-88867492D01*
X114753321Y-88747305D02*
X114847491Y-88803483D01*
X114652699Y-88701484D02*
X114753321Y-88747305D01*
X114547058Y-88663112D02*
X114652699Y-88701484D01*
X114437740Y-88627480D02*
X114547058Y-88663112D01*
X114326088Y-88589880D02*
X114437740Y-88627480D01*
X114361741Y-88557392D02*
X114326088Y-88589880D01*
X114398618Y-88523954D02*
X114361741Y-88557392D01*
X114435797Y-88489378D02*
X114398618Y-88523954D01*
X114472355Y-88453478D02*
X114435797Y-88489378D01*
X115235354Y-89036169D02*
X115297272Y-89036535D01*
X115173503Y-89034328D02*
X115235354Y-89036169D01*
X115158467Y-89030593D02*
X115173503Y-89034328D01*
X115143567Y-89022288D02*
X115158467Y-89030593D01*
X115128973Y-89011692D02*
X115143567Y-89022288D01*
X113952425Y-88389477D02*
X113790958Y-88413461D01*
X114056487Y-88384111D02*
X113952425Y-88389477D01*
X114160992Y-88383906D02*
X114056487Y-88384111D01*
X114265690Y-88385930D02*
X114160992Y-88383906D01*
X114370327Y-88387256D02*
X114265690Y-88385930D01*
X115435445Y-89016573D02*
X115435445Y-89016573D01*
X115431877Y-89021407D02*
X115435445Y-89016573D01*
X115428308Y-89026240D02*
X115431877Y-89021407D01*
X115424739Y-89031074D02*
X115428308Y-89026240D01*
X115421171Y-89035908D02*
X115424739Y-89031074D01*
X115359223Y-89036192D02*
X115421171Y-89035908D01*
X115297272Y-89036535D02*
X115359223Y-89036192D01*
X113483600Y-88515160D02*
X113337315Y-88589218D01*
X113634749Y-88455965D02*
X113483600Y-88515160D01*
X113790958Y-88413461D02*
X113634749Y-88455965D01*
X113290780Y-88645353D02*
X113289302Y-88673160D01*
X113299124Y-88623092D02*
X113290780Y-88645353D01*
X113314560Y-88604880D02*
X113299124Y-88623092D01*
X113337315Y-88589218D02*
X113314560Y-88604880D01*
X111442692Y-90465160D02*
X111464272Y-90463392D01*
X111424445Y-90460377D02*
X111442692Y-90465160D01*
X111409524Y-90447416D02*
X111424445Y-90460377D01*
X111397923Y-90424646D02*
X111409524Y-90447416D01*
X111346581Y-90280986D02*
X111397923Y-90424646D01*
X111294274Y-90137666D02*
X111346581Y-90280986D01*
X111241462Y-89994525D02*
X111294274Y-90137666D01*
X111188604Y-89851400D02*
X111241462Y-89994525D01*
X111183528Y-89838458D02*
X111188604Y-89851400D01*
X111177593Y-89824530D02*
X111183528Y-89838458D01*
X111170539Y-89808412D02*
X111177593Y-89824530D01*
X111162106Y-89788898D02*
X111170539Y-89808412D01*
X111098588Y-89961820D02*
X111162106Y-89788898D01*
X111036428Y-90131047D02*
X111098588Y-89961820D01*
X110975107Y-90297989D02*
X111036428Y-90131047D01*
X110914107Y-90464058D02*
X110975107Y-90297989D01*
X110895829Y-90463660D02*
X110914107Y-90464058D01*
X113291210Y-88768072D02*
X113290663Y-88817573D01*
X113291049Y-88720177D02*
X113291210Y-88768072D01*
X113289302Y-88673160D02*
X113291049Y-88720177D01*
X113340973Y-88839148D02*
X113524845Y-88733072D01*
X113330233Y-88846040D02*
X113340973Y-88839148D01*
X113318564Y-88852970D02*
X113330233Y-88846040D01*
X113305427Y-88860554D02*
X113318564Y-88852970D01*
X113290286Y-88869409D02*
X113305427Y-88860554D01*
X113290663Y-88817573D02*
X113290286Y-88869409D01*
X114259837Y-88522964D02*
X114298753Y-88484731D01*
X114219526Y-88559576D02*
X114259837Y-88522964D01*
X114200437Y-88573310D02*
X114219526Y-88559576D01*
X114178429Y-88584436D02*
X114200437Y-88573310D01*
X114155146Y-88591937D02*
X114178429Y-88584436D01*
X114132236Y-88594798D02*
X114155146Y-88591937D01*
X113920472Y-88611329D02*
X114132236Y-88594798D01*
X113718010Y-88657277D02*
X113920472Y-88611329D01*
X113524845Y-88733072D02*
X113718010Y-88657277D01*
X114105453Y-91394662D02*
X114082475Y-91402452D01*
X114128111Y-91391646D02*
X114105453Y-91394662D01*
X114285939Y-91382087D02*
X114128111Y-91391646D01*
X114439854Y-91356151D02*
X114285939Y-91382087D01*
X114589610Y-91313014D02*
X114439854Y-91356151D01*
X114734960Y-91251851D02*
X114589610Y-91313014D01*
X114797414Y-91218984D02*
X114734960Y-91251851D01*
X114859306Y-91183290D02*
X114797414Y-91218984D01*
X114921974Y-91145798D02*
X114859306Y-91183290D01*
X114986755Y-91107532D02*
X114921974Y-91145798D01*
X115516920Y-90173759D02*
X115516920Y-90173759D01*
X115524735Y-90178552D02*
X115516920Y-90173759D01*
X115530599Y-90182010D02*
X115524735Y-90178552D01*
X115534962Y-90184778D02*
X115530599Y-90182010D01*
X115538276Y-90187504D02*
X115534962Y-90184778D01*
X115573239Y-90221722D02*
X115538276Y-90187504D01*
X115608246Y-90255912D02*
X115573239Y-90221722D01*
X115642490Y-90290757D02*
X115608246Y-90255912D01*
X115675169Y-90326940D02*
X115642490Y-90290757D01*
X115684610Y-90342155D02*
X115675169Y-90326940D01*
X115690990Y-90360849D02*
X115684610Y-90342155D01*
X115693632Y-90380390D02*
X115690990Y-90360849D01*
X115691863Y-90398147D02*
X115693632Y-90380390D01*
X115606702Y-90642806D02*
X115691863Y-90398147D01*
X115486289Y-90864721D02*
X115606702Y-90642806D01*
X115331374Y-91064249D02*
X115486289Y-90864721D01*
X115142710Y-91241747D02*
X115331374Y-91064249D01*
X115131711Y-91250058D02*
X115142710Y-91241747D01*
X115119729Y-91258222D02*
X115131711Y-91250058D01*
X115106454Y-91266924D02*
X115119729Y-91258222D01*
X115091575Y-91276847D02*
X115106454Y-91266924D01*
X115086551Y-91169389D02*
X115091575Y-91276847D01*
X115090513Y-91067285D02*
X115086551Y-91169389D01*
X115121412Y-90974540D02*
X115090513Y-91067285D01*
X115197201Y-90895160D02*
X115121412Y-90974540D01*
X115200435Y-90892329D02*
X115197201Y-90895160D01*
X115203254Y-90888890D02*
X115200435Y-90892329D01*
X115205896Y-90885195D02*
X115203254Y-90888890D01*
X115208602Y-90881594D02*
X115205896Y-90885195D01*
X115322102Y-90722477D02*
X115208602Y-90881594D01*
X115411154Y-90551855D02*
X115322102Y-90722477D01*
X115476009Y-90369144D02*
X115411154Y-90551855D01*
X115516920Y-90173759D02*
X115476009Y-90369144D01*
X114370327Y-88387256D02*
X114370327Y-88387256D01*
X114371599Y-88392169D02*
X114370327Y-88387256D01*
X114372872Y-88397081D02*
X114371599Y-88392169D01*
X114374144Y-88401993D02*
X114372872Y-88397081D01*
X114375417Y-88406906D02*
X114374144Y-88401993D01*
X114337029Y-88445753D02*
X114375417Y-88406906D01*
X114298753Y-88484731D02*
X114337029Y-88445753D01*
X114041461Y-91427531D02*
X114004918Y-91459950D01*
X114060653Y-91413810D02*
X114041461Y-91427531D01*
X114082475Y-91402452D02*
X114060653Y-91413810D01*
X113933737Y-91579365D02*
X113973379Y-91584709D01*
X113890168Y-91573778D02*
X113933737Y-91579365D01*
X113931067Y-91532954D02*
X113890168Y-91573778D01*
X113968719Y-91495051D02*
X113931067Y-91532954D01*
X114004918Y-91459950D02*
X113968719Y-91495051D01*
X114945139Y-91378190D02*
X114965342Y-91364089D01*
X114731881Y-91480271D02*
X114945139Y-91378190D01*
X114511021Y-91550047D02*
X114731881Y-91480271D01*
X114282504Y-91587326D02*
X114511021Y-91550047D01*
X114046273Y-91591916D02*
X114282504Y-91587326D01*
X114010443Y-91589122D02*
X114046273Y-91591916D01*
X113973379Y-91584709D02*
X114010443Y-91589122D01*
X114987589Y-91303239D02*
X114986190Y-91255782D01*
X114986132Y-91327826D02*
X114987589Y-91303239D01*
X114978861Y-91347705D02*
X114986132Y-91327826D01*
X114965342Y-91364089D02*
X114978861Y-91347705D01*
X112587942Y-89625648D02*
X112595283Y-89636682D01*
X112582713Y-89612000D02*
X112587942Y-89625648D01*
X112580280Y-89597738D02*
X112582713Y-89612000D01*
X112581331Y-89584864D02*
X112580280Y-89597738D01*
X112672712Y-89324132D02*
X112581331Y-89584864D01*
X112803821Y-89088285D02*
X112672712Y-89324132D01*
X112975400Y-88876188D02*
X112803821Y-89088285D01*
X113188194Y-88686704D02*
X112975400Y-88876188D01*
X114986755Y-91107532D02*
X114986755Y-91107532D01*
X114986462Y-91158461D02*
X114986755Y-91107532D01*
X114986044Y-91207700D02*
X114986462Y-91158461D01*
X114986190Y-91255782D02*
X114986044Y-91207700D01*
X112749572Y-89758894D02*
X112755542Y-89732206D01*
X112742966Y-89788398D02*
X112749572Y-89758894D01*
X112703163Y-89748299D02*
X112742966Y-89788398D01*
X112665459Y-89710396D02*
X112703163Y-89748299D01*
X112629588Y-89673564D02*
X112665459Y-89710396D01*
X112595283Y-89636682D02*
X112629588Y-89673564D01*
X112731454Y-89969175D02*
X112729990Y-89953034D01*
X112739187Y-90051587D02*
X112731454Y-89969175D01*
X112746134Y-90134125D02*
X112739187Y-90051587D01*
X112754615Y-90216369D02*
X112746134Y-90134125D01*
X112766951Y-90297898D02*
X112754615Y-90216369D01*
X112803010Y-90438939D02*
X112766951Y-90297898D01*
X112856576Y-90573995D02*
X112803010Y-90438939D01*
X112926207Y-90704601D02*
X112856576Y-90573995D01*
X113010459Y-90832288D02*
X112926207Y-90704601D01*
X113188194Y-88686704D02*
X113188194Y-88686704D01*
X113188673Y-88746254D02*
X113188194Y-88686704D01*
X113189334Y-88801997D02*
X113188673Y-88746254D01*
X113189009Y-88855116D02*
X113189334Y-88801997D01*
X113186531Y-88906796D02*
X113189009Y-88855116D01*
X113182827Y-88930011D02*
X113186531Y-88906796D01*
X113175376Y-88953463D02*
X113182827Y-88930011D01*
X113164493Y-88975216D02*
X113175376Y-88953463D01*
X113150495Y-88993334D02*
X113164493Y-88975216D01*
X113017882Y-89145724D02*
X113150495Y-88993334D01*
X112909056Y-89311117D02*
X113017882Y-89145724D01*
X112824944Y-89490170D02*
X112909056Y-89311117D01*
X112766473Y-89683538D02*
X112824944Y-89490170D01*
X112761101Y-89707400D02*
X112766473Y-89683538D01*
X112755542Y-89732206D02*
X112761101Y-89707400D01*
X112585338Y-90403403D02*
X112648406Y-90593226D01*
X112544814Y-90207575D02*
X112585338Y-90403403D01*
X112524257Y-90006617D02*
X112544814Y-90207575D01*
X112524391Y-89943174D02*
X112524257Y-90006617D01*
X112529867Y-89879430D02*
X112524391Y-89943174D01*
X112537621Y-89815558D02*
X112529867Y-89879430D01*
X112544590Y-89751731D02*
X112537621Y-89815558D01*
X112549457Y-89750184D02*
X112544590Y-89751731D01*
X112554323Y-89748637D02*
X112549457Y-89750184D01*
X112559190Y-89747090D02*
X112554323Y-89748637D01*
X112564056Y-89745543D02*
X112559190Y-89747090D01*
X112602860Y-89785995D02*
X112564056Y-89745543D01*
X112641707Y-89826410D02*
X112602860Y-89785995D01*
X112680048Y-89867261D02*
X112641707Y-89826410D01*
X112717336Y-89909021D02*
X112680048Y-89867261D01*
X112724277Y-89921371D02*
X112717336Y-89909021D01*
X112728046Y-89936571D02*
X112724277Y-89921371D01*
X112729990Y-89953034D02*
X112728046Y-89936571D01*
X113904680Y-91417531D02*
X113942124Y-91381190D01*
X113869355Y-91451608D02*
X113904680Y-91417531D01*
X113835926Y-91484623D02*
X113869355Y-91451608D01*
X113804169Y-91517774D02*
X113835926Y-91484623D01*
X113785308Y-91533919D02*
X113804169Y-91517774D01*
X113765747Y-91542104D02*
X113785308Y-91533919D01*
X113744391Y-91543377D02*
X113765747Y-91542104D01*
X113720146Y-91538788D02*
X113744391Y-91543377D01*
X113555574Y-91484818D02*
X113720146Y-91538788D01*
X113399303Y-91414942D02*
X113555574Y-91484818D01*
X113252131Y-91328116D02*
X113399303Y-91414942D01*
X113114859Y-91223295D02*
X113252131Y-91328116D01*
X113044539Y-91159044D02*
X113114859Y-91223295D01*
X112976698Y-91091925D02*
X113044539Y-91159044D01*
X112909926Y-91023569D02*
X112976698Y-91091925D01*
X112842811Y-90955611D02*
X112909926Y-91023569D01*
X113010459Y-90832288D02*
X113010459Y-90832288D01*
X112961835Y-90831751D02*
X113010459Y-90832288D01*
X112916733Y-90830953D02*
X112961835Y-90831751D01*
X112874083Y-90831115D02*
X112916733Y-90830953D01*
X112832819Y-90833455D02*
X112874083Y-90831115D01*
X112800107Y-90832122D02*
X112832819Y-90833455D01*
X112774701Y-90821647D02*
X112800107Y-90832122D01*
X112754299Y-90802755D02*
X112774701Y-90821647D01*
X112736598Y-90776171D02*
X112754299Y-90802755D01*
X112648406Y-90593226D02*
X112736598Y-90776171D01*
X113112501Y-90958057D02*
X113093486Y-90947912D01*
X113128450Y-90970744D02*
X113112501Y-90958057D01*
X113277182Y-91100807D02*
X113128450Y-90970744D01*
X113438729Y-91207938D02*
X113277182Y-91100807D01*
X113613391Y-91291752D02*
X113438729Y-91207938D01*
X113801465Y-91351865D02*
X113613391Y-91291752D01*
X113834016Y-91359364D02*
X113801465Y-91351865D01*
X113867727Y-91366336D02*
X113834016Y-91359364D01*
X113903471Y-91373404D02*
X113867727Y-91366336D01*
X113942124Y-91381190D02*
X113903471Y-91373404D01*
X95774937Y-90409055D02*
X95774937Y-90433840D01*
X95774937Y-90384643D02*
X95774937Y-90409055D01*
X95774937Y-90359960D02*
X95774937Y-90384643D01*
X99629513Y-89504724D02*
X99629513Y-89504724D01*
X99629513Y-89745528D02*
X99629513Y-89504724D01*
X99629513Y-89984906D02*
X99629513Y-89745528D01*
X99629513Y-90223346D02*
X99629513Y-89984906D01*
X99629513Y-90461340D02*
X99629513Y-90223346D01*
X99603895Y-90461340D02*
X99629513Y-90461340D01*
X99579183Y-90461340D02*
X99603895Y-90461340D01*
X99554729Y-90461340D02*
X99579183Y-90461340D01*
X99529886Y-90461340D02*
X99554729Y-90461340D01*
X99529886Y-90221889D02*
X99529886Y-90461340D01*
X99529886Y-89982964D02*
X99529886Y-90221889D01*
X99529886Y-89744073D02*
X99529886Y-89982964D01*
X99529886Y-89504724D02*
X99529886Y-89744073D01*
X99554897Y-89504724D02*
X99529886Y-89504724D01*
X99579408Y-89504724D02*
X99554897Y-89504724D01*
X99604065Y-89504724D02*
X99579408Y-89504724D01*
X99629513Y-89504724D02*
X99604065Y-89504724D01*
X112842811Y-90955611D02*
X112842811Y-90955611D01*
X112846414Y-90950677D02*
X112842811Y-90955611D01*
X112850017Y-90945743D02*
X112846414Y-90950677D01*
X112853620Y-90940809D02*
X112850017Y-90945743D01*
X112857224Y-90935875D02*
X112853620Y-90940809D01*
X112906165Y-90935453D02*
X112857224Y-90935875D01*
X112955117Y-90934880D02*
X112906165Y-90935453D01*
X113004005Y-90935192D02*
X112955117Y-90934880D01*
X113052753Y-90937425D02*
X113004005Y-90935192D01*
X113073029Y-90940853D02*
X113052753Y-90937425D01*
X113093486Y-90947912D02*
X113073029Y-90940853D01*
X110729342Y-89821896D02*
X110695670Y-89730114D01*
X110763080Y-89913653D02*
X110729342Y-89821896D01*
X110781849Y-89964465D02*
X110763080Y-89913653D01*
X110800784Y-90015216D02*
X110781849Y-89964465D01*
X110819789Y-90065941D02*
X110800784Y-90015216D01*
X110749157Y-90399482D02*
X110764145Y-90432981D01*
X110704412Y-90270792D02*
X110749157Y-90399482D01*
X110658174Y-90142608D02*
X110704412Y-90270792D01*
X95876688Y-90436565D02*
X95876688Y-90412428D01*
X95876688Y-90459643D02*
X95876688Y-90436565D01*
X95849746Y-90459643D02*
X95876688Y-90459643D01*
X95824086Y-90459643D02*
X95849746Y-90459643D01*
X95799290Y-90459643D02*
X95824086Y-90459643D01*
X95774937Y-90459643D02*
X95799290Y-90459643D01*
X95774937Y-90433840D02*
X95774937Y-90459643D01*
X95829136Y-90359960D02*
X95803103Y-90359960D01*
X95853508Y-90359960D02*
X95829136Y-90359960D01*
X95876688Y-90359960D02*
X95853508Y-90359960D01*
X95876688Y-90386978D02*
X95876688Y-90359960D01*
X95876688Y-90412428D02*
X95876688Y-90386978D01*
X113542487Y-89236012D02*
X113487028Y-89236012D01*
X109576757Y-90132136D02*
X109576757Y-90283291D01*
X109576757Y-89981869D02*
X109576757Y-90132136D01*
X109576757Y-89831875D02*
X109576757Y-89981869D01*
X109576757Y-89681541D02*
X109576757Y-89831875D01*
X109726702Y-89681541D02*
X109576757Y-89681541D01*
X109876100Y-89681541D02*
X109726702Y-89681541D01*
X110025808Y-89681541D02*
X109876100Y-89681541D01*
X110176679Y-89681541D02*
X110025808Y-89681541D01*
X95774937Y-90359960D02*
X95774937Y-90359960D01*
X95803103Y-90359960D02*
X95774937Y-90359960D01*
X110176679Y-90283291D02*
X110176679Y-90133712D01*
X110025662Y-90283291D02*
X110176679Y-90283291D01*
X109875648Y-90283291D02*
X110025662Y-90283291D01*
X109726169Y-90283291D02*
X109875648Y-90283291D01*
X109576757Y-90283291D02*
X109726169Y-90283291D01*
X102415726Y-89609023D02*
X102343049Y-89608964D01*
X102488403Y-89609064D02*
X102415726Y-89609023D01*
X110176679Y-89681541D02*
X110176679Y-89681541D01*
X110176679Y-89833455D02*
X110176679Y-89681541D01*
X110176679Y-89983973D02*
X110176679Y-89833455D01*
X110176679Y-90133712D02*
X110176679Y-89983973D01*
X102197695Y-89609163D02*
X102156563Y-89612437D01*
X102270371Y-89608980D02*
X102197695Y-89609163D01*
X102343049Y-89608964D02*
X102270371Y-89608980D01*
X102115784Y-89806166D02*
X102115809Y-89865494D01*
X102115554Y-89746833D02*
X102115784Y-89806166D01*
X102115663Y-89687503D02*
X102115554Y-89746833D01*
X102119229Y-89648053D02*
X102115663Y-89687503D01*
X102131635Y-89624216D02*
X102119229Y-89648053D01*
X102156563Y-89612437D02*
X102131635Y-89624216D01*
X102490310Y-89998692D02*
X102640114Y-89998799D01*
X102340506Y-89998805D02*
X102490310Y-89998692D01*
X102190703Y-89999186D02*
X102340506Y-89998805D01*
X102157013Y-89995191D02*
X102190703Y-89999186D01*
X102133161Y-89982198D02*
X102157013Y-89995191D01*
X102119176Y-89959103D02*
X102133161Y-89982198D01*
X102115086Y-89924806D02*
X102119176Y-89959103D01*
X102115809Y-89865494D02*
X102115086Y-89924806D01*
X102860317Y-89957038D02*
X102864079Y-89922878D01*
X102846982Y-89980788D02*
X102860317Y-89957038D01*
X102823655Y-89994633D02*
X102846982Y-89980788D01*
X102789918Y-89999076D02*
X102823655Y-89994633D01*
X102640114Y-89998799D02*
X102789918Y-89999076D01*
X113183869Y-90028293D02*
X113056249Y-90138905D01*
X102845617Y-89625619D02*
X102820722Y-89612255D01*
X102859981Y-89649707D02*
X102845617Y-89625619D01*
X102864073Y-89685585D02*
X102859981Y-89649707D01*
X102863068Y-89744898D02*
X102864073Y-89685585D01*
X102862739Y-89804231D02*
X102863068Y-89744898D01*
X102863078Y-89863563D02*
X102862739Y-89804231D01*
X102864079Y-89922878D02*
X102863078Y-89863563D01*
X113638037Y-89191130D02*
X113642396Y-89213218D01*
X103978303Y-89912629D02*
X103978537Y-89825762D01*
X103978023Y-89999606D02*
X103978303Y-89912629D01*
X103793962Y-89999606D02*
X103978023Y-89999606D01*
X103611269Y-89999606D02*
X103793962Y-89999606D01*
X103428387Y-89999606D02*
X103611269Y-89999606D01*
X103243760Y-89999606D02*
X103428387Y-89999606D01*
X102488403Y-89609064D02*
X102488403Y-89609064D01*
X102562567Y-89609243D02*
X102488403Y-89609064D01*
X102636732Y-89609497D02*
X102562567Y-89609243D01*
X102710891Y-89609404D02*
X102636732Y-89609497D01*
X102785035Y-89608547D02*
X102710891Y-89609404D01*
X102820722Y-89612255D02*
X102785035Y-89608547D01*
X103243582Y-89832210D02*
X103243685Y-89915141D01*
X103243641Y-89750305D02*
X103243582Y-89832210D01*
X103244049Y-89668913D02*
X103243641Y-89750305D01*
X103248806Y-89642008D02*
X103244049Y-89668913D01*
X103261944Y-89623544D02*
X103248806Y-89642008D01*
X103282508Y-89612915D02*
X103261944Y-89623544D01*
X103309543Y-89609511D02*
X103282508Y-89612915D01*
X103460909Y-89609389D02*
X103309543Y-89609511D01*
X103612275Y-89609305D02*
X103460909Y-89609389D01*
X103763632Y-89609800D02*
X103612275Y-89609305D01*
X103914970Y-89611416D02*
X103763632Y-89609800D01*
X103933246Y-89615827D02*
X103914970Y-89611416D01*
X103952810Y-89626345D02*
X103933246Y-89615827D01*
X103968519Y-89639638D02*
X103952810Y-89626345D01*
X103975233Y-89652376D02*
X103968519Y-89639638D01*
X103977816Y-89739010D02*
X103975233Y-89652376D01*
X103978537Y-89825762D02*
X103977816Y-89739010D01*
X93691650Y-89612759D02*
X93666980Y-89626150D01*
X93727095Y-89608998D02*
X93691650Y-89612759D01*
X93801160Y-89609781D02*
X93727095Y-89608998D01*
X93875238Y-89609866D02*
X93801160Y-89609781D01*
X93949320Y-89609636D02*
X93875238Y-89609866D01*
X94023402Y-89609475D02*
X93949320Y-89609636D01*
X103243760Y-89999606D02*
X103243760Y-89999606D01*
X103243685Y-89915141D02*
X103243760Y-89999606D01*
X93648876Y-89834262D02*
X93649126Y-89982420D01*
X93648130Y-89686108D02*
X93648876Y-89834262D01*
X93652626Y-89650242D02*
X93648130Y-89686108D01*
X93666980Y-89626150D02*
X93652626Y-89650242D01*
X113619256Y-89524330D02*
X113622750Y-89574008D01*
X94022002Y-90356324D02*
X94170159Y-90356557D01*
X93873844Y-90356553D02*
X94022002Y-90356324D01*
X93725689Y-90357238D02*
X93873844Y-90356553D01*
X93690083Y-90352883D02*
X93725689Y-90357238D01*
X93665928Y-90338825D02*
X93690083Y-90352883D01*
X93652258Y-90314347D02*
X93665928Y-90338825D01*
X93648107Y-90278732D02*
X93652258Y-90314347D01*
X93648873Y-90130578D02*
X93648107Y-90278732D01*
X93649126Y-89982420D02*
X93648873Y-90130578D01*
X94353741Y-90353252D02*
X94378409Y-90339890D01*
X94318314Y-90357257D02*
X94353741Y-90353252D01*
X94170159Y-90356557D02*
X94318314Y-90357257D01*
X94397264Y-90280134D02*
X94396512Y-90131980D01*
X94392768Y-90315932D02*
X94397264Y-90280134D01*
X94378409Y-90339890D02*
X94392768Y-90315932D01*
X110629762Y-89546048D02*
X110620174Y-89524849D01*
X110662374Y-89638200D02*
X110629762Y-89546048D01*
X110695670Y-89730114D02*
X110662374Y-89638200D01*
X94396514Y-89835664D02*
X94397285Y-89687511D01*
X94396259Y-89983822D02*
X94396514Y-89835664D01*
X94396512Y-90131980D02*
X94396259Y-89983822D01*
X113577220Y-89410684D02*
X113603483Y-89463886D01*
X94355323Y-89613130D02*
X94319710Y-89609021D01*
X94379475Y-89627205D02*
X94355323Y-89613130D01*
X94393138Y-89651810D02*
X94379475Y-89627205D01*
X94397285Y-89687511D02*
X94393138Y-89651810D01*
X113594984Y-89236012D02*
X113542487Y-89236012D01*
X113616233Y-89619102D02*
X113597990Y-89659722D01*
X113646895Y-89236012D02*
X113594984Y-89236012D01*
X94171566Y-89609858D02*
X94097483Y-89609633D01*
X94245643Y-89609777D02*
X94171566Y-89609858D01*
X94319710Y-89609021D02*
X94245643Y-89609777D01*
X113056249Y-90138905D02*
X113046898Y-90147407D01*
X111811066Y-89750160D02*
X111893380Y-89523174D01*
X111728695Y-89977126D02*
X111811066Y-89750160D01*
X111646459Y-90204140D02*
X111728695Y-89977126D01*
X110590232Y-89502618D02*
X110566743Y-89501391D01*
X110607520Y-89510404D02*
X110590232Y-89502618D01*
X110620174Y-89524849D02*
X110607520Y-89510404D01*
X113046898Y-90147407D02*
X113038028Y-90157341D01*
X113501149Y-89318390D02*
X113542447Y-89362821D01*
X113426233Y-89236012D02*
X113448462Y-89260887D01*
X94023402Y-89609475D02*
X94023402Y-89609475D01*
X94097483Y-89609633D02*
X94023402Y-89609475D01*
X110462822Y-89502530D02*
X110425016Y-89502187D01*
X110498640Y-89503037D02*
X110462822Y-89502530D01*
X110533077Y-89502919D02*
X110498640Y-89503037D01*
X110566743Y-89501391D02*
X110533077Y-89502919D01*
X111564552Y-90431273D02*
X111646459Y-90204140D01*
X111545028Y-90459492D02*
X111564552Y-90431273D01*
X111519556Y-90466297D02*
X111545028Y-90459492D01*
X111491511Y-90463619D02*
X111519556Y-90466297D01*
X111464272Y-90463392D02*
X111491511Y-90463619D01*
X113628674Y-89143690D02*
X113633551Y-89168402D01*
X113467446Y-89282342D02*
X113484552Y-89301226D01*
X113642396Y-89213218D02*
X113646895Y-89236012D01*
X113038028Y-90157341D02*
X113030000Y-90170000D01*
X113030000Y-90170000D02*
X113023177Y-90186679D01*
D11*
X109961428Y-93944285D02*
X110032857Y-93872857D01*
X110175714Y-93801428D01*
X110318571Y-93801428D01*
X110461428Y-93872857D01*
X110532857Y-93944285D01*
X110604285Y-94087142D01*
X110604285Y-94230000D01*
X110532857Y-94372857D01*
X110461428Y-94444285D01*
X110318571Y-94515714D01*
X110175714Y-94515714D01*
X110032857Y-94444285D01*
X109961428Y-94372857D01*
X109961428Y-93801428D02*
X109961428Y-94372857D01*
X109890000Y-94444285D01*
X109818571Y-94444285D01*
X109675714Y-94372857D01*
X109604285Y-94230000D01*
X109604285Y-93872857D01*
X109747142Y-93658571D01*
X109961428Y-93515714D01*
X110247142Y-93444285D01*
X110532857Y-93515714D01*
X110747142Y-93658571D01*
X110890000Y-93872857D01*
X110961428Y-94158571D01*
X110890000Y-94444285D01*
X110747142Y-94658571D01*
X110532857Y-94801428D01*
X110247142Y-94872857D01*
X109961428Y-94801428D01*
X109747142Y-94658571D01*
X108747142Y-94658571D02*
X108890000Y-94587142D01*
X108961428Y-94444285D01*
X108961428Y-93158571D01*
X108175714Y-94658571D02*
X108175714Y-93658571D01*
X108175714Y-93158571D02*
X108247142Y-93230000D01*
X108175714Y-93301428D01*
X108104285Y-93230000D01*
X108175714Y-93158571D01*
X108175714Y-93301428D01*
X107675714Y-93658571D02*
X107104285Y-93658571D01*
X107461428Y-93158571D02*
X107461428Y-94444285D01*
X107390000Y-94587142D01*
X107247142Y-94658571D01*
X107104285Y-94658571D01*
X106604285Y-94658571D02*
X106604285Y-93158571D01*
X105961428Y-94658571D02*
X105961428Y-93872857D01*
X106032857Y-93730000D01*
X106175714Y-93658571D01*
X106390000Y-93658571D01*
X106532857Y-93730000D01*
X106604285Y-93801428D01*
X105032857Y-94658571D02*
X105175714Y-94587142D01*
X105247142Y-94515714D01*
X105318571Y-94372857D01*
X105318571Y-93944285D01*
X105247142Y-93801428D01*
X105175714Y-93730000D01*
X105032857Y-93658571D01*
X104818571Y-93658571D01*
X104675714Y-93730000D01*
X104604285Y-93801428D01*
X104532857Y-93944285D01*
X104532857Y-94372857D01*
X104604285Y-94515714D01*
X104675714Y-94587142D01*
X104818571Y-94658571D01*
X105032857Y-94658571D01*
X103247142Y-94587142D02*
X103390000Y-94658571D01*
X103675714Y-94658571D01*
X103818571Y-94587142D01*
X103890000Y-94515714D01*
X103961428Y-94372857D01*
X103961428Y-93944285D01*
X103890000Y-93801428D01*
X103818571Y-93730000D01*
X103675714Y-93658571D01*
X103390000Y-93658571D01*
X103247142Y-93730000D01*
X102604285Y-94658571D02*
X102604285Y-93158571D01*
X101961428Y-94658571D02*
X101961428Y-93872857D01*
X102032857Y-93730000D01*
X102175714Y-93658571D01*
X102390000Y-93658571D01*
X102532857Y-93730000D01*
X102604285Y-93801428D01*
X100604285Y-94658571D02*
X100604285Y-93872857D01*
X100675714Y-93730000D01*
X100818571Y-93658571D01*
X101104285Y-93658571D01*
X101247142Y-93730000D01*
X100604285Y-94587142D02*
X100747142Y-94658571D01*
X101104285Y-94658571D01*
X101247142Y-94587142D01*
X101318571Y-94444285D01*
X101318571Y-94301428D01*
X101247142Y-94158571D01*
X101104285Y-94087142D01*
X100747142Y-94087142D01*
X100604285Y-94015714D01*
X99961428Y-94587142D02*
X99818571Y-94658571D01*
X99532857Y-94658571D01*
X99390000Y-94587142D01*
X99318571Y-94444285D01*
X99318571Y-94372857D01*
X99390000Y-94230000D01*
X99532857Y-94158571D01*
X99747142Y-94158571D01*
X99890000Y-94087142D01*
X99961428Y-93944285D01*
X99961428Y-93872857D01*
X99890000Y-93730000D01*
X99747142Y-93658571D01*
X99532857Y-93658571D01*
X99390000Y-93730000D01*
X98675714Y-94658571D02*
X98675714Y-93658571D01*
X98675714Y-93801428D02*
X98604285Y-93730000D01*
X98461428Y-93658571D01*
X98247142Y-93658571D01*
X98104285Y-93730000D01*
X98032857Y-93872857D01*
X98032857Y-94658571D01*
X98032857Y-93872857D02*
X97961428Y-93730000D01*
X97818571Y-93658571D01*
X97604285Y-93658571D01*
X97461428Y-93730000D01*
X97390000Y-93872857D01*
X97390000Y-94658571D01*
X118808571Y-57257142D02*
X119951428Y-57257142D01*
X119380000Y-57828571D02*
X119380000Y-56685714D01*
X88328571Y-57003142D02*
X89471428Y-57003142D01*
X88900000Y-57574571D02*
X88900000Y-56431714D01*
X111077142Y-38778571D02*
X111077142Y-37278571D01*
X110220000Y-38778571D01*
X110220000Y-37278571D01*
X109505714Y-37992857D02*
X109005714Y-37992857D01*
X108791428Y-38778571D02*
X109505714Y-38778571D01*
X109505714Y-37278571D01*
X108791428Y-37278571D01*
X107362857Y-37350000D02*
X107505714Y-37278571D01*
X107720000Y-37278571D01*
X107934285Y-37350000D01*
X108077142Y-37492857D01*
X108148571Y-37635714D01*
X108220000Y-37921428D01*
X108220000Y-38135714D01*
X108148571Y-38421428D01*
X108077142Y-38564285D01*
X107934285Y-38707142D01*
X107720000Y-38778571D01*
X107577142Y-38778571D01*
X107362857Y-38707142D01*
X107291428Y-38635714D01*
X107291428Y-38135714D01*
X107577142Y-38135714D01*
D12*
X107950000Y-27940000D02*
G75*
G02X107950000Y-33020000I0J-2540000D01*
G01*
X100330000Y-33020000D02*
G75*
G02X100330000Y-27940000I0J2540000D01*
G01*
D13*
X107950000Y-33020000D02*
X100330000Y-33020000D01*
X100330000Y-27940000D02*
X107950000Y-27940000D01*
D12*
X134543800Y-72694800D02*
X134189473Y-73081477D01*
X134569200Y-71805800D02*
X134543800Y-72694800D01*
X135051800Y-71043800D02*
X134569200Y-71805800D01*
X136575800Y-70053200D02*
X135051800Y-71043800D01*
X138633200Y-68961000D02*
X136575800Y-70053200D01*
X139471400Y-68021200D02*
X138633200Y-68961000D01*
X140208000Y-66700400D02*
X139471400Y-68021200D01*
X140690600Y-65354200D02*
X140208000Y-66700400D01*
X140639800Y-64135000D02*
X140690600Y-65354200D01*
X140157200Y-62712600D02*
X140639800Y-64135000D01*
X139496800Y-61772800D02*
X140157200Y-62712600D01*
X138277600Y-60756800D02*
X139496800Y-61772800D01*
X136575800Y-60147200D02*
X138277600Y-60756800D01*
X135128000Y-60172600D02*
X136575800Y-60147200D01*
X134569200Y-60452000D02*
X135128000Y-60172600D01*
X134289800Y-61366400D02*
X134569200Y-60452000D01*
X134340600Y-62128400D02*
X134289800Y-61366400D01*
X134696200Y-62560200D02*
X134340600Y-62128400D01*
X135407400Y-62738000D02*
X134696200Y-62560200D01*
X135686800Y-63042800D02*
X135407400Y-62738000D01*
X136220200Y-63906400D02*
X135686800Y-63042800D01*
X136855200Y-64922400D02*
X136220200Y-63906400D01*
X136880600Y-65328800D02*
X136855200Y-64922400D01*
X136652000Y-65862200D02*
X136880600Y-65328800D01*
X135890000Y-66852800D02*
X136652000Y-65862200D01*
X135026400Y-67716400D02*
X135890000Y-66852800D01*
X133872004Y-68179092D02*
X135026400Y-67716400D01*
X126263400Y-67386200D02*
X127304800Y-67564000D01*
X125247400Y-67437000D02*
X126263400Y-67386200D01*
X124434600Y-67513200D02*
X125247400Y-67437000D01*
X124155200Y-67233800D02*
X124434600Y-67513200D01*
X123977400Y-66598800D02*
X124155200Y-67233800D01*
X124231400Y-65735200D02*
X123977400Y-66598800D01*
X125095000Y-64820800D02*
X124231400Y-65735200D01*
X126644400Y-63144400D02*
X125095000Y-64820800D01*
X127050800Y-62611000D02*
X126644400Y-63144400D01*
X127228600Y-61061600D02*
X127279400Y-61671200D01*
X126949200Y-60121800D02*
X127228600Y-61061600D01*
X126314200Y-55905400D02*
X126365000Y-56515000D01*
X126796800Y-54864000D02*
X126314200Y-55905400D01*
X127279400Y-53467000D02*
X126796800Y-54864000D01*
X127584200Y-52146200D02*
X127279400Y-53467000D01*
X70535800Y-65201800D02*
X70612000Y-64795400D01*
X72771000Y-73609200D02*
X73253600Y-73787000D01*
X72593200Y-73304400D02*
X72771000Y-73609200D01*
X72542400Y-72745600D02*
X72593200Y-73304400D01*
X72720200Y-71907400D02*
X72542400Y-72745600D01*
X72618600Y-71475600D02*
X72720200Y-71907400D01*
X72212200Y-71018400D02*
X72618600Y-71475600D01*
X71170800Y-70307200D02*
X72212200Y-71018400D01*
X69621400Y-69469000D02*
X71170800Y-70307200D01*
X68376800Y-68529200D02*
X69621400Y-69469000D01*
X67614800Y-67564000D02*
X68376800Y-68529200D01*
X66954400Y-66395600D02*
X67614800Y-67564000D01*
X66700400Y-64998600D02*
X66954400Y-66395600D01*
X66776600Y-63906400D02*
X66700400Y-64998600D01*
X67183000Y-62763400D02*
X66776600Y-63906400D01*
X67792600Y-61823600D02*
X67183000Y-62763400D01*
X68478400Y-61188600D02*
X67792600Y-61823600D01*
X69469000Y-60502800D02*
X68478400Y-61188600D01*
X70866000Y-60121800D02*
X69469000Y-60502800D01*
X71932800Y-60121800D02*
X70866000Y-60121800D01*
X72720200Y-60350400D02*
X71932800Y-60121800D01*
X73075800Y-60858400D02*
X72720200Y-60350400D01*
X73152000Y-61442600D02*
X73075800Y-60858400D01*
X73152000Y-61823600D02*
X73152000Y-61442600D01*
X72847200Y-62433200D02*
X73152000Y-61823600D01*
X71932800Y-62890400D02*
X72847200Y-62433200D01*
X70612000Y-64795400D02*
X71932800Y-62890400D01*
X70637400Y-65633600D02*
X70535800Y-65201800D01*
X81686400Y-67335400D02*
X80645000Y-67310000D01*
X83032600Y-67538600D02*
X81686400Y-67335400D01*
X83845400Y-66954400D02*
X83032600Y-67538600D01*
X83997800Y-65989200D02*
X83845400Y-66954400D01*
X82321400Y-64236600D02*
X83997800Y-65989200D01*
X89916000Y-29083000D02*
X89585800Y-29362400D01*
X91363800Y-28092400D02*
X89916000Y-29083000D01*
X81559400Y-62534800D02*
X82321400Y-64236600D01*
X81915000Y-60960000D02*
X81559400Y-62534800D01*
X82804000Y-57226200D02*
X81915000Y-60960000D01*
X81915000Y-54610000D02*
X82804000Y-57226200D01*
X81280000Y-50165000D02*
X81915000Y-54610000D01*
X81280000Y-48260000D02*
X81280000Y-50165000D01*
X81280000Y-44450000D02*
X81280000Y-48260000D01*
X81280000Y-43180000D02*
X81280000Y-44450000D01*
X81915000Y-40640000D02*
X81280000Y-43180000D01*
X83185000Y-37465000D02*
X81915000Y-40640000D01*
X84455000Y-34925000D02*
X83185000Y-37465000D01*
X86461600Y-32461200D02*
X84455000Y-34925000D01*
X89585800Y-29362400D02*
X86461600Y-32461200D01*
X94005400Y-26873200D02*
X91363800Y-28092400D01*
X97155000Y-26035000D02*
X94005400Y-26873200D01*
X102844600Y-25552400D02*
X97155000Y-26035000D01*
X103479600Y-25501600D02*
X102844600Y-25552400D01*
X104775000Y-25400000D02*
X103479600Y-25501600D01*
X106045000Y-25400000D02*
X104775000Y-25400000D01*
X107315000Y-25400000D02*
X106045000Y-25400000D01*
X108534200Y-25552400D02*
X107315000Y-25400000D01*
X111125000Y-26035000D02*
X108534200Y-25552400D01*
X113665000Y-26670000D02*
X111125000Y-26035000D01*
X115570000Y-27305000D02*
X113665000Y-26670000D01*
X118110000Y-28575000D02*
X115570000Y-27305000D01*
X120015000Y-29845000D02*
X118110000Y-28575000D01*
X121920000Y-31115000D02*
X120015000Y-29845000D01*
X123190000Y-32385000D02*
X121920000Y-31115000D01*
X124307600Y-33731200D02*
X123190000Y-32385000D01*
X126441200Y-37414200D02*
X124307600Y-33731200D01*
X127533400Y-41325800D02*
X126441200Y-37414200D01*
X127939800Y-47599600D02*
X127533400Y-41325800D01*
X127584200Y-52146200D02*
X127939800Y-47599600D01*
X126949200Y-60121800D02*
X126365000Y-56515000D01*
X127050800Y-62611000D02*
X127279400Y-61671200D01*
D14*
X77698600Y-85725000D02*
X77811321Y-85813537D01*
X77811321Y-85813537D02*
X77927008Y-85904076D01*
X77927008Y-85904076D02*
X78043397Y-85994837D01*
X78043397Y-85994837D02*
X78162667Y-86087519D01*
X78162667Y-86087519D02*
X78282636Y-86180430D01*
X78282636Y-86180430D02*
X78401245Y-86271996D01*
X78401245Y-86271996D02*
X78522788Y-86365548D01*
X78522788Y-86365548D02*
X78639002Y-86454760D01*
X78639002Y-86454760D02*
X78758326Y-86546140D01*
X78758326Y-86546140D02*
X78884856Y-86642833D01*
X78884856Y-86642833D02*
X78998367Y-86729426D01*
X78998367Y-86729426D02*
X79127355Y-86827693D01*
X79127355Y-86827693D02*
X79263737Y-86931488D01*
X79263737Y-86931488D02*
X79407628Y-87040942D01*
X79407628Y-87040942D02*
X79527312Y-87131985D01*
X79527312Y-87131985D02*
X79654934Y-87229120D01*
X79654934Y-87229120D02*
X79782691Y-87326458D01*
X79782691Y-87326458D02*
X79910765Y-87424184D01*
X79910765Y-87424184D02*
X80039333Y-87522484D01*
X80039333Y-87522484D02*
X80164530Y-87618435D01*
X80164530Y-87618435D02*
X80278294Y-87705856D01*
X80278294Y-87705856D02*
X80396941Y-87797290D01*
X80396941Y-87797290D02*
X80516554Y-87889769D01*
X80516554Y-87889769D02*
X80633088Y-87980181D01*
X80633088Y-87980181D02*
X80750768Y-88071820D01*
X80750768Y-88071820D02*
X80869721Y-88164813D01*
X80869721Y-88164813D02*
X80983578Y-88254178D01*
X80983578Y-88254178D02*
X81096600Y-88343248D01*
X81096600Y-88343248D02*
X81208802Y-88432037D01*
X81208802Y-88432037D02*
X81324684Y-88524124D01*
X81324684Y-88524124D02*
X81439881Y-88616067D01*
X81439881Y-88616067D02*
X81552082Y-88706002D01*
X81552082Y-88706002D02*
X81663524Y-88795711D01*
X81663524Y-88795711D02*
X81776556Y-88887086D01*
X81776556Y-88887086D02*
X81891255Y-88980206D01*
X81891255Y-88980206D02*
X82007696Y-89075150D01*
X82007696Y-89075150D02*
X82042000Y-89103200D01*
X74472800Y-83159600D02*
X74585296Y-83254057D01*
X74585296Y-83254057D02*
X74694334Y-83347123D01*
X74694334Y-83347123D02*
X74803659Y-83442189D01*
X74803659Y-83442189D02*
X74911883Y-83538293D01*
X74911883Y-83538293D02*
X75017087Y-83633822D01*
X75017087Y-83633822D02*
X75121994Y-83731140D01*
X75121994Y-83731140D02*
X75227239Y-83830341D01*
X75227239Y-83830341D02*
X75330933Y-83928405D01*
X75330933Y-83928405D02*
X75436323Y-84026647D01*
X75436323Y-84026647D02*
X75544422Y-84124401D01*
X75544422Y-84124401D02*
X75652847Y-84218816D01*
X75652847Y-84218816D02*
X75762435Y-84310779D01*
X75762435Y-84310779D02*
X75873366Y-84400903D01*
X75873366Y-84400903D02*
X75985784Y-84489789D01*
X75985784Y-84489789D02*
X76099916Y-84578033D01*
X76099916Y-84578033D02*
X76218228Y-84667827D01*
X76218228Y-84667827D02*
X76336536Y-84756241D01*
X76336536Y-84756241D02*
X76452652Y-84841928D01*
X76452652Y-84841928D02*
X76568886Y-84926810D01*
X76568886Y-84926810D02*
X76691229Y-85015348D01*
X76691229Y-85015348D02*
X76810367Y-85100898D01*
X76810367Y-85100898D02*
X76931487Y-85187289D01*
X76931487Y-85187289D02*
X77049494Y-85270978D01*
X77049494Y-85270978D02*
X77167680Y-85354372D01*
X77167680Y-85354372D02*
X77288595Y-85439311D01*
X77288595Y-85439311D02*
X77408563Y-85523248D01*
X77408563Y-85523248D02*
X77530403Y-85608189D01*
X77530403Y-85608189D02*
X77650119Y-85691380D01*
X77650119Y-85691380D02*
X77698600Y-85725000D01*
X70637400Y-65633600D02*
X70710685Y-65762351D01*
X70710685Y-65762351D02*
X70786210Y-65893062D01*
X70786210Y-65893062D02*
X70862690Y-66022944D01*
X70862690Y-66022944D02*
X70945202Y-66159728D01*
X70945202Y-66159728D02*
X71023306Y-66285486D01*
X71023306Y-66285486D02*
X71102295Y-66408470D01*
X71102295Y-66408470D02*
X71183653Y-66530230D01*
X71183653Y-66530230D02*
X71267707Y-66650319D01*
X71267707Y-66650319D02*
X71356074Y-66769892D01*
X71356074Y-66769892D02*
X71444433Y-66882306D01*
X71444433Y-66882306D02*
X71536339Y-66991499D01*
X71536339Y-66991499D02*
X71632423Y-67097260D01*
X71632423Y-67097260D02*
X71732118Y-67198163D01*
X71732118Y-67198163D02*
X71836447Y-67294593D01*
X71836447Y-67294593D02*
X71947577Y-67387718D01*
X71947577Y-67387718D02*
X72062542Y-67474565D01*
X72062542Y-67474565D02*
X72182668Y-67556092D01*
X72182668Y-67556092D02*
X72307422Y-67631980D01*
X72307422Y-67631980D02*
X72438111Y-67703142D01*
X72438111Y-67703142D02*
X72573986Y-67769366D01*
X72573986Y-67769366D02*
X72713995Y-67830558D01*
X72713995Y-67830558D02*
X72859677Y-67887812D01*
X72859677Y-67887812D02*
X73009729Y-67941030D01*
X73009729Y-67941030D02*
X73161391Y-67989840D01*
X73161391Y-67989840D02*
X73318715Y-68036045D01*
X73318715Y-68036045D02*
X73478192Y-68079028D01*
X73478192Y-68079028D02*
X73639354Y-68119169D01*
X73639354Y-68119169D02*
X73804320Y-68157381D01*
X73804320Y-68157381D02*
X73903200Y-68179092D01*
X73903200Y-68179092D02*
X74070502Y-68213366D01*
X74070502Y-68213366D02*
X74242379Y-68244892D01*
X74242379Y-68244892D02*
X74415400Y-68272818D01*
X74415400Y-68272818D02*
X74594197Y-68297647D01*
X74594197Y-68297647D02*
X74773979Y-68318494D01*
X74773979Y-68318494D02*
X74960158Y-68335773D01*
X74960158Y-68335773D02*
X75153159Y-68349119D01*
X75153159Y-68349119D02*
X75344514Y-68357847D01*
X75344514Y-68357847D02*
X75543242Y-68362279D01*
X75543242Y-68362279D02*
X75747664Y-68362052D01*
X75747664Y-68362052D02*
X75948626Y-68357246D01*
X75948626Y-68357246D02*
X76142108Y-68348471D01*
X76142108Y-68348471D02*
X76330604Y-68336151D01*
X76330604Y-68336151D02*
X76515282Y-68320600D01*
X76515282Y-68320600D02*
X76697407Y-68302018D01*
X76697407Y-68302018D02*
X76876737Y-68280683D01*
X76876737Y-68280683D02*
X77053022Y-68256887D01*
X77053022Y-68256887D02*
X77227677Y-68230658D01*
X77227677Y-68230658D02*
X77403939Y-68201608D01*
X77403939Y-68201608D02*
X77574841Y-68171069D01*
X77574841Y-68171069D02*
X77745317Y-68138360D01*
X77745317Y-68138360D02*
X77915256Y-68103608D01*
X77915256Y-68103608D02*
X78082709Y-68067352D01*
X78082709Y-68067352D02*
X78247461Y-68029802D01*
X78247461Y-68029802D02*
X78411191Y-67990704D01*
X78411191Y-67990704D02*
X78573771Y-67950190D01*
X78573771Y-67950190D02*
X78735070Y-67908392D01*
X78735070Y-67908392D02*
X78892963Y-67865983D01*
X78892963Y-67865983D02*
X79051265Y-67822036D01*
X79051265Y-67822036D02*
X79207872Y-67777198D01*
X79207872Y-67777198D02*
X79362648Y-67731602D01*
X79362648Y-67731602D02*
X79521774Y-67683440D01*
X79521774Y-67683440D02*
X79674682Y-67635969D01*
X79674682Y-67635969D02*
X79831891Y-67585994D01*
X79831891Y-67585994D02*
X79989127Y-67534863D01*
X79989127Y-67534863D02*
X80139643Y-67484873D01*
X80139643Y-67484873D02*
X80289886Y-67433990D01*
X80289886Y-67433990D02*
X80446657Y-67379884D01*
X80446657Y-67379884D02*
X80603212Y-67324851D01*
X80603212Y-67324851D02*
X80645000Y-67310000D01*
X116535200Y-109194600D02*
X116717192Y-109217948D01*
X116717192Y-109217948D02*
X116908544Y-109234632D01*
X116908544Y-109234632D02*
X117098426Y-109245110D01*
X117098426Y-109245110D02*
X117294678Y-109250873D01*
X117294678Y-109250873D02*
X117493462Y-109252382D01*
X117493462Y-109252382D02*
X117693031Y-109250182D01*
X117693031Y-109250182D02*
X117890636Y-109244830D01*
X117890636Y-109244830D02*
X118084790Y-109236847D01*
X118084790Y-109236847D02*
X118279243Y-109226420D01*
X118279243Y-109226420D02*
X118468038Y-109214173D01*
X118468038Y-109214173D02*
X118655409Y-109200104D01*
X118655409Y-109200104D02*
X118840738Y-109184438D01*
X118840738Y-109184438D02*
X119028870Y-109166860D01*
X119028870Y-109166860D02*
X119214022Y-109147992D01*
X119214022Y-109147992D02*
X119431712Y-109123910D01*
X119431712Y-109123910D02*
X119623793Y-109101024D01*
X119623793Y-109101024D02*
X119823014Y-109075719D01*
X119823014Y-109075719D02*
X120003693Y-109051420D01*
X120003693Y-109051420D02*
X120182334Y-109026159D01*
X120182334Y-109026159D02*
X120358678Y-109000026D01*
X120358678Y-109000026D02*
X120538197Y-108972217D01*
X120538197Y-108972217D02*
X120717823Y-108943170D01*
X120717823Y-108943170D02*
X120894489Y-108913411D01*
X120894489Y-108913411D02*
X121070827Y-108882516D01*
X121070827Y-108882516D02*
X121240968Y-108851569D01*
X121240968Y-108851569D02*
X121410412Y-108819614D01*
X121410412Y-108819614D02*
X121578963Y-108786687D01*
X121578963Y-108786687D02*
X121746431Y-108752809D01*
X121746431Y-108752809D02*
X121929161Y-108714480D01*
X121929161Y-108714480D02*
X122108726Y-108675376D01*
X122108726Y-108675376D02*
X122283571Y-108635873D01*
X122283571Y-108635873D02*
X122454879Y-108595728D01*
X122454879Y-108595728D02*
X122629018Y-108553376D01*
X122629018Y-108553376D02*
X122790040Y-108512745D01*
X122790040Y-108512745D02*
X122949630Y-108470988D01*
X122949630Y-108470988D02*
X123107499Y-108428118D01*
X123107499Y-108428118D02*
X123264561Y-108383801D01*
X123264561Y-108383801D02*
X123419237Y-108338391D01*
X123419237Y-108338391D02*
X123573506Y-108291184D01*
X123573506Y-108291184D02*
X123727941Y-108241803D01*
X123727941Y-108241803D02*
X123881849Y-108190222D01*
X123881849Y-108190222D02*
X124034464Y-108136426D01*
X124034464Y-108136426D02*
X124180982Y-108081926D01*
X124180982Y-108081926D02*
X124324859Y-108025225D01*
X124324859Y-108025225D02*
X124468756Y-107964766D01*
X124468756Y-107964766D02*
X124607637Y-107902083D01*
X124607637Y-107902083D02*
X124743476Y-107835604D01*
X124743476Y-107835604D02*
X124877070Y-107763706D01*
X124877070Y-107763706D02*
X125002088Y-107688385D01*
X125002088Y-107688385D02*
X125121613Y-107605604D01*
X125121613Y-107605604D02*
X125234988Y-107510858D01*
X125234988Y-107510858D02*
X125331249Y-107404979D01*
X125331249Y-107404979D02*
X125403343Y-107275779D01*
X125403343Y-107275779D02*
X125409191Y-107258085D01*
X108178600Y-104825800D02*
X108294837Y-104910723D01*
X108294837Y-104910723D02*
X108414065Y-104994978D01*
X108414065Y-104994978D02*
X108533121Y-105076958D01*
X108533121Y-105076958D02*
X108656498Y-105160133D01*
X108656498Y-105160133D02*
X108777679Y-105240384D01*
X108777679Y-105240384D02*
X108900430Y-105320443D01*
X108900430Y-105320443D02*
X109026334Y-105401452D01*
X109026334Y-105401452D02*
X109150514Y-105480387D01*
X109150514Y-105480387D02*
X109275599Y-105559027D01*
X109275599Y-105559027D02*
X109399201Y-105635963D01*
X109399201Y-105635963D02*
X109524469Y-105713219D01*
X109524469Y-105713219D02*
X109649154Y-105789449D01*
X109649154Y-105789449D02*
X109774822Y-105865656D01*
X109774822Y-105865656D02*
X109903228Y-105942913D01*
X109903228Y-105942913D02*
X110034241Y-106021137D01*
X110034241Y-106021137D02*
X110167725Y-106100246D01*
X110167725Y-106100246D02*
X110297128Y-106176390D01*
X110297128Y-106176390D02*
X110424197Y-106250656D01*
X110424197Y-106250656D02*
X110555235Y-106326738D01*
X110555235Y-106326738D02*
X110685766Y-106402031D01*
X110685766Y-106402031D02*
X110813354Y-106475164D01*
X110813354Y-106475164D02*
X110949121Y-106552489D01*
X110949121Y-106552489D02*
X111077097Y-106624918D01*
X111077097Y-106624918D02*
X111206197Y-106697541D01*
X111206197Y-106697541D02*
X111336330Y-106770298D01*
X111336330Y-106770298D02*
X111467407Y-106843137D01*
X111467407Y-106843137D02*
X111599337Y-106915996D01*
X111599337Y-106915996D02*
X111732028Y-106988818D01*
X111732028Y-106988818D02*
X111865391Y-107061552D01*
X111865391Y-107061552D02*
X111999337Y-107134136D01*
X111999337Y-107134136D02*
X112133774Y-107206513D01*
X112133774Y-107206513D02*
X112266197Y-107277342D01*
X112266197Y-107277342D02*
X112413420Y-107355538D01*
X112413420Y-107355538D02*
X112548800Y-107426929D01*
X112548800Y-107426929D02*
X112684305Y-107497884D01*
X112684305Y-107497884D02*
X112819842Y-107568344D01*
X112819842Y-107568344D02*
X112955320Y-107638252D01*
X112955320Y-107638252D02*
X113090652Y-107707552D01*
X113090652Y-107707552D02*
X113235384Y-107781066D01*
X113235384Y-107781066D02*
X113370123Y-107848928D01*
X113370123Y-107848928D02*
X113504436Y-107916007D01*
X113504436Y-107916007D02*
X113638234Y-107982248D01*
X113638234Y-107982248D02*
X113778542Y-108051066D01*
X113778542Y-108051066D02*
X113913358Y-108116545D01*
X113913358Y-108116545D02*
X114054377Y-108184334D01*
X114054377Y-108184334D02*
X114192051Y-108249792D01*
X114192051Y-108249792D02*
X114330937Y-108315065D01*
X114330937Y-108315065D02*
X114470864Y-108380021D01*
X114470864Y-108380021D02*
X114616165Y-108446564D01*
X114616165Y-108446564D02*
X114766477Y-108514374D01*
X114766477Y-108514374D02*
X114908201Y-108577292D01*
X114908201Y-108577292D02*
X115058810Y-108642994D01*
X115058810Y-108642994D02*
X115204846Y-108705476D01*
X115204846Y-108705476D02*
X115346263Y-108764740D01*
X115346263Y-108764740D02*
X115489169Y-108823285D01*
X115489169Y-108823285D02*
X115633150Y-108880781D01*
X115633150Y-108880781D02*
X115779703Y-108937616D01*
X115779703Y-108937616D02*
X115926272Y-108992569D01*
X115926272Y-108992569D02*
X116075993Y-109046518D01*
X116075993Y-109046518D02*
X116227874Y-109098684D01*
X116227874Y-109098684D02*
X116380816Y-109148205D01*
X116380816Y-109148205D02*
X116535200Y-109194600D01*
X103936800Y-101320600D02*
X104043512Y-101422415D01*
X104043512Y-101422415D02*
X104146690Y-101520526D01*
X104146690Y-101520526D02*
X104254867Y-101622862D01*
X104254867Y-101622862D02*
X104360338Y-101722046D01*
X104360338Y-101722046D02*
X104466880Y-101821612D01*
X104466880Y-101821612D02*
X104574253Y-101921297D01*
X104574253Y-101921297D02*
X104679349Y-102018223D01*
X104679349Y-102018223D02*
X104786065Y-102115978D01*
X104786065Y-102115978D02*
X104895603Y-102215619D01*
X104895603Y-102215619D02*
X105001778Y-102311516D01*
X105001778Y-102311516D02*
X105109610Y-102408219D01*
X105109610Y-102408219D02*
X105216732Y-102503583D01*
X105216732Y-102503583D02*
X105326878Y-102600910D01*
X105326878Y-102600910D02*
X105433452Y-102694369D01*
X105433452Y-102694369D02*
X105542511Y-102789272D01*
X105542511Y-102789272D02*
X105653947Y-102885473D01*
X105653947Y-102885473D02*
X105765366Y-102980869D01*
X105765366Y-102980869D02*
X105874205Y-103073283D01*
X105874205Y-103073283D02*
X105987257Y-103168455D01*
X105987257Y-103168455D02*
X106097317Y-103260296D01*
X106097317Y-103260296D02*
X106208976Y-103352640D01*
X106208976Y-103352640D02*
X106322156Y-103445377D01*
X106322156Y-103445377D02*
X106436777Y-103538387D01*
X106436777Y-103538387D02*
X106547690Y-103627507D01*
X106547690Y-103627507D02*
X106664902Y-103720727D01*
X106664902Y-103720727D02*
X106778147Y-103809842D01*
X106778147Y-103809842D02*
X106897644Y-103902837D01*
X106897644Y-103902837D02*
X107011614Y-103990519D01*
X107011614Y-103990519D02*
X107129108Y-104079853D01*
X107129108Y-104079853D02*
X107246108Y-104167721D01*
X107246108Y-104167721D02*
X107363861Y-104255033D01*
X107363861Y-104255033D02*
X107487698Y-104345607D01*
X107487698Y-104345607D02*
X107610845Y-104434375D01*
X107610845Y-104434375D02*
X107731842Y-104520297D01*
X107731842Y-104520297D02*
X107852635Y-104604757D01*
X107852635Y-104604757D02*
X107973832Y-104688135D01*
X107973832Y-104688135D02*
X108093301Y-104768954D01*
X108093301Y-104768954D02*
X108178600Y-104825800D01*
X134129194Y-80891188D02*
X134056752Y-81019539D01*
X134056752Y-81019539D02*
X133985365Y-81150572D01*
X133985365Y-81150572D02*
X133916530Y-81282656D01*
X133916530Y-81282656D02*
X133850148Y-81417493D01*
X133850148Y-81417493D02*
X133787250Y-81555127D01*
X133787250Y-81555127D02*
X133728463Y-81696574D01*
X133728463Y-81696574D02*
X133673358Y-81843846D01*
X133673358Y-81843846D02*
X133620566Y-81992973D01*
X133620566Y-81992973D02*
X133565207Y-82138125D01*
X133565207Y-82138125D02*
X133503520Y-82276459D01*
X133503520Y-82276459D02*
X133434976Y-82409671D01*
X133434976Y-82409671D02*
X133361392Y-82538561D01*
X133361392Y-82538561D02*
X133285083Y-82662917D01*
X133285083Y-82662917D02*
X133206447Y-82784684D01*
X133206447Y-82784684D02*
X133124689Y-82906570D01*
X133124689Y-82906570D02*
X133042315Y-83025874D01*
X133042315Y-83025874D02*
X133019800Y-83058000D01*
X134916839Y-77764259D02*
X134912989Y-77961058D01*
X134912989Y-77961058D02*
X134908308Y-78157500D01*
X134908308Y-78157500D02*
X134902359Y-78351722D01*
X134902359Y-78351722D02*
X134894478Y-78544026D01*
X134894478Y-78544026D02*
X134883779Y-78734090D01*
X134883779Y-78734090D02*
X134869133Y-78920984D01*
X134869133Y-78920984D02*
X134849164Y-79103738D01*
X134849164Y-79103738D02*
X134822304Y-79281840D01*
X134822304Y-79281840D02*
X134787581Y-79452798D01*
X134787581Y-79452798D02*
X134745630Y-79612360D01*
X134745630Y-79612360D02*
X134695213Y-79767291D01*
X134695213Y-79767291D02*
X134639320Y-79912530D01*
X134639320Y-79912530D02*
X134577597Y-80053976D01*
X134577597Y-80053976D02*
X134512014Y-80191064D01*
X134512014Y-80191064D02*
X134443829Y-80324622D01*
X134443829Y-80324622D02*
X134372804Y-80457593D01*
X134372804Y-80457593D02*
X134301627Y-80586827D01*
X134301627Y-80586827D02*
X134228923Y-80716209D01*
X134228923Y-80716209D02*
X134155501Y-80845215D01*
X134155501Y-80845215D02*
X134129194Y-80891188D01*
X72567800Y-77851000D02*
X72583071Y-78042132D01*
X72583071Y-78042132D02*
X72598055Y-78246163D01*
X72598055Y-78246163D02*
X72612260Y-78437185D01*
X72612260Y-78437185D02*
X72627454Y-78624060D01*
X72627454Y-78624060D02*
X72644709Y-78809232D01*
X72644709Y-78809232D02*
X72664714Y-78992408D01*
X72664714Y-78992408D02*
X72687780Y-79171768D01*
X72687780Y-79171768D02*
X72714664Y-79350032D01*
X72714664Y-79350032D02*
X72744831Y-79522247D01*
X72744831Y-79522247D02*
X72778785Y-79691169D01*
X72778785Y-79691169D02*
X72817296Y-79859776D01*
X72817296Y-79859776D02*
X72858769Y-80021296D01*
X72858769Y-80021296D02*
X72903682Y-80178658D01*
X72903682Y-80178658D02*
X72951753Y-80331589D01*
X72951753Y-80331589D02*
X73003878Y-80483290D01*
X73003878Y-80483290D02*
X73058650Y-80630116D01*
X73058650Y-80630116D02*
X73117113Y-80775371D01*
X73117113Y-80775371D02*
X73177533Y-80915324D01*
X73177533Y-80915324D02*
X73228200Y-81026000D01*
X73228200Y-81026000D02*
X73308008Y-81147255D01*
X73308008Y-81147255D02*
X73380093Y-81277140D01*
X73380093Y-81277140D02*
X73444546Y-81413047D01*
X73444546Y-81413047D02*
X73505489Y-81556027D01*
X73505489Y-81556027D02*
X73564688Y-81699302D01*
X73564688Y-81699302D02*
X73625190Y-81840631D01*
X73625190Y-81840631D02*
X73688321Y-81977849D01*
X73688321Y-81977849D02*
X73755860Y-82112774D01*
X73755860Y-82112774D02*
X73827280Y-82244057D01*
X73827280Y-82244057D02*
X73901541Y-82370572D01*
X73901541Y-82370572D02*
X73978831Y-82493700D01*
X73978831Y-82493700D02*
X74058965Y-82614037D01*
X74058965Y-82614037D02*
X74142606Y-82733248D01*
X74142606Y-82733248D02*
X74229327Y-82851236D01*
X74229327Y-82851236D02*
X74317529Y-82966404D01*
X74317529Y-82966404D02*
X74408011Y-83080309D01*
X74408011Y-83080309D02*
X74472800Y-83159600D01*
X73253600Y-73787000D02*
X73224769Y-73960681D01*
X73224769Y-73960681D02*
X73194881Y-74133795D01*
X73194881Y-74133795D02*
X73164328Y-74306781D01*
X73164328Y-74306781D02*
X73132892Y-74482449D01*
X73132892Y-74482449D02*
X73098058Y-74675759D01*
X73098058Y-74675759D02*
X73062440Y-74873003D01*
X73062440Y-74873003D02*
X73031870Y-75042550D01*
X73031870Y-75042550D02*
X72998847Y-75226447D01*
X72998847Y-75226447D02*
X72967675Y-75401091D01*
X72967675Y-75401091D02*
X72936477Y-75577192D01*
X72936477Y-75577192D02*
X72906142Y-75749938D01*
X72906142Y-75749938D02*
X72875316Y-75927263D01*
X72875316Y-75927263D02*
X72844845Y-76104524D01*
X72844845Y-76104524D02*
X72815608Y-76276703D01*
X72815608Y-76276703D02*
X72786147Y-76452438D01*
X72786147Y-76452438D02*
X72755754Y-76636376D01*
X72755754Y-76636376D02*
X72727614Y-76809272D01*
X72727614Y-76809272D02*
X72698666Y-76989973D01*
X72698666Y-76989973D02*
X72670536Y-77168608D01*
X72670536Y-77168608D02*
X72642493Y-77349920D01*
X72642493Y-77349920D02*
X72615944Y-77524811D01*
X72615944Y-77524811D02*
X72589475Y-77702596D01*
X72589475Y-77702596D02*
X72567800Y-77851000D01*
X87096600Y-91871800D02*
X87219921Y-91961484D01*
X87219921Y-91961484D02*
X87339074Y-92047746D01*
X87339074Y-92047746D02*
X87458012Y-92133483D01*
X87458012Y-92133483D02*
X87576714Y-92218696D01*
X87576714Y-92218696D02*
X87695149Y-92303383D01*
X87695149Y-92303383D02*
X87813298Y-92387546D01*
X87813298Y-92387546D02*
X87931131Y-92471181D01*
X87931131Y-92471181D02*
X88048626Y-92554290D01*
X88048626Y-92554290D02*
X88173552Y-92642360D01*
X88173552Y-92642360D02*
X88298034Y-92729828D01*
X88298034Y-92729828D02*
X88425911Y-92819401D01*
X88425911Y-92819401D02*
X88549400Y-92905648D01*
X88549400Y-92905648D02*
X88672352Y-92991294D01*
X88672352Y-92991294D02*
X88794737Y-93076336D01*
X88794737Y-93076336D02*
X88916528Y-93160776D01*
X88916528Y-93160776D02*
X89037693Y-93244613D01*
X89037693Y-93244613D02*
X89161954Y-93330434D01*
X89161954Y-93330434D02*
X89292949Y-93420755D01*
X89292949Y-93420755D02*
X89411961Y-93502701D01*
X89411961Y-93502701D02*
X89552312Y-93599226D01*
X89552312Y-93599226D02*
X89676947Y-93684860D01*
X89676947Y-93684860D02*
X89804282Y-93772301D01*
X89804282Y-93772301D02*
X89944979Y-93868882D01*
X89944979Y-93868882D02*
X90102106Y-93976749D01*
X90102106Y-93976749D02*
X90222327Y-94059312D01*
X90222327Y-94059312D02*
X90348434Y-94145985D01*
X90348434Y-94145985D02*
X90473283Y-94231884D01*
X90473283Y-94231884D02*
X90596825Y-94317009D01*
X90596825Y-94317009D02*
X90719021Y-94401358D01*
X90719021Y-94401358D02*
X90839827Y-94484931D01*
X90839827Y-94484931D02*
X90959198Y-94567731D01*
X90959198Y-94567731D02*
X91086846Y-94656549D01*
X91086846Y-94656549D02*
X91206301Y-94739970D01*
X91206301Y-94739970D02*
X91333577Y-94829229D01*
X91333577Y-94829229D02*
X91458858Y-94917524D01*
X91458858Y-94917524D02*
X91579030Y-95002685D01*
X91579030Y-95002685D02*
X91700200Y-95089077D01*
X91700200Y-95089077D02*
X91819199Y-95174501D01*
X91819199Y-95174501D02*
X91935969Y-95258958D01*
X91935969Y-95258958D02*
X92056114Y-95346596D01*
X92056114Y-95346596D02*
X92173670Y-95433165D01*
X92173670Y-95433165D02*
X92288566Y-95518663D01*
X92288566Y-95518663D02*
X92404690Y-95606085D01*
X92404690Y-95606085D02*
X92520377Y-95694326D01*
X92520377Y-95694326D02*
X92635330Y-95783300D01*
X92635330Y-95783300D02*
X92749238Y-95872927D01*
X92749238Y-95872927D02*
X92864100Y-95965000D01*
X92864100Y-95965000D02*
X92977068Y-96057489D01*
X92977068Y-96057489D02*
X93087767Y-96150301D01*
X93087767Y-96150301D02*
X93195798Y-96243339D01*
X93195798Y-96243339D02*
X93302697Y-96338264D01*
X93302697Y-96338264D02*
X93409538Y-96436600D01*
X93409538Y-96436600D02*
X93511721Y-96534656D01*
X93511721Y-96534656D02*
X93548200Y-96570800D01*
X82042000Y-89103200D02*
X82166331Y-89189296D01*
X82166331Y-89189296D02*
X82288991Y-89272869D01*
X82288991Y-89272869D02*
X82412106Y-89355398D01*
X82412106Y-89355398D02*
X82532831Y-89435024D01*
X82532831Y-89435024D02*
X82659319Y-89517097D01*
X82659319Y-89517097D02*
X82781685Y-89595207D01*
X82781685Y-89595207D02*
X82908149Y-89674635D01*
X82908149Y-89674635D02*
X83036361Y-89753864D01*
X83036361Y-89753864D02*
X83161787Y-89830148D01*
X83161787Y-89830148D02*
X83287080Y-89905195D01*
X83287080Y-89905195D02*
X83423592Y-89985706D01*
X83423592Y-89985706D02*
X83551183Y-90059832D01*
X83551183Y-90059832D02*
X83685008Y-90136473D01*
X83685008Y-90136473D02*
X83814183Y-90209436D01*
X83814183Y-90209436D02*
X83943094Y-90281316D01*
X83943094Y-90281316D02*
X84074073Y-90353450D01*
X84074073Y-90353450D02*
X84204886Y-90424647D01*
X84204886Y-90424647D02*
X84337925Y-90496244D01*
X84337925Y-90496244D02*
X84468431Y-90565741D01*
X84468431Y-90565741D02*
X84601219Y-90635755D01*
X84601219Y-90635755D02*
X84736395Y-90706355D01*
X84736395Y-90706355D02*
X84868914Y-90774960D01*
X84868914Y-90774960D02*
X85006451Y-90845576D01*
X85006451Y-90845576D02*
X85141247Y-90914247D01*
X85141247Y-90914247D02*
X85283961Y-90986422D01*
X85283961Y-90986422D02*
X85426690Y-91058104D01*
X85426690Y-91058104D02*
X85560895Y-91125091D01*
X85560895Y-91125091D02*
X85697536Y-91192910D01*
X85697536Y-91192910D02*
X85836682Y-91261612D01*
X85836682Y-91261612D02*
X85978408Y-91331247D01*
X85978408Y-91331247D02*
X86122786Y-91401864D01*
X86122786Y-91401864D02*
X86260615Y-91469006D01*
X86260615Y-91469006D02*
X86407188Y-91540137D01*
X86407188Y-91540137D02*
X86546894Y-91607709D01*
X86546894Y-91607709D02*
X86682544Y-91673124D01*
X86682544Y-91673124D02*
X86820489Y-91739468D01*
X86820489Y-91739468D02*
X86967511Y-91810002D01*
X86967511Y-91810002D02*
X87096600Y-91871800D01*
X124917200Y-105537000D02*
X124729441Y-105550453D01*
X124729441Y-105550453D02*
X124530281Y-105552482D01*
X124530281Y-105552482D02*
X124340848Y-105540179D01*
X124340848Y-105540179D02*
X124165238Y-105515066D01*
X124165238Y-105515066D02*
X124000436Y-105479599D01*
X124000436Y-105479599D02*
X123841123Y-105435475D01*
X123841123Y-105435475D02*
X123687284Y-105385257D01*
X123687284Y-105385257D02*
X123540452Y-105331905D01*
X123540452Y-105331905D02*
X123396499Y-105275783D01*
X123396499Y-105275783D02*
X123253439Y-105217348D01*
X123253439Y-105217348D02*
X123109149Y-105156592D01*
X123109149Y-105156592D02*
X122959731Y-105092456D01*
X122959731Y-105092456D02*
X122817265Y-105030650D01*
X122817265Y-105030650D02*
X122659676Y-104961969D01*
X122659676Y-104961969D02*
X122580400Y-104927400D01*
X125409191Y-107258085D02*
X125484553Y-107131784D01*
X125484553Y-107131784D02*
X125556197Y-106999669D01*
X125556197Y-106999669D02*
X125622952Y-106860967D01*
X125622952Y-106860967D02*
X125681565Y-106718569D01*
X125681565Y-106718569D02*
X125731323Y-106567309D01*
X125731323Y-106567309D02*
X125768045Y-106403204D01*
X125768045Y-106403204D02*
X125782168Y-106217139D01*
X125782168Y-106217139D02*
X125758405Y-106040783D01*
X125758405Y-106040783D02*
X125699677Y-105898448D01*
X125699677Y-105898448D02*
X125611717Y-105784634D01*
X125611717Y-105784634D02*
X125496677Y-105694176D01*
X125496677Y-105694176D02*
X125362152Y-105627220D01*
X125362152Y-105627220D02*
X125208893Y-105579423D01*
X125208893Y-105579423D02*
X125037315Y-105548548D01*
X125037315Y-105548548D02*
X124917200Y-105537000D01*
X117001956Y-100557569D02*
X116910278Y-100441373D01*
X116910278Y-100441373D02*
X116817638Y-100325011D01*
X116817638Y-100325011D02*
X116726818Y-100211969D01*
X116726818Y-100211969D02*
X116632611Y-100095808D01*
X116632611Y-100095808D02*
X116540387Y-99983177D01*
X116540387Y-99983177D02*
X116445163Y-99868012D01*
X116445163Y-99868012D02*
X116352087Y-99756560D01*
X116352087Y-99756560D02*
X116259945Y-99647303D01*
X116259945Y-99647303D02*
X116167627Y-99538916D01*
X116167627Y-99538916D02*
X116073023Y-99428946D01*
X116073023Y-99428946D02*
X115978624Y-99320315D01*
X115978624Y-99320315D02*
X115883500Y-99211936D01*
X115883500Y-99211936D02*
X115786833Y-99102879D01*
X115786833Y-99102879D02*
X115691943Y-98996843D01*
X115691943Y-98996843D02*
X115594963Y-98889452D01*
X115594963Y-98889452D02*
X115493469Y-98778032D01*
X115493469Y-98778032D02*
X115396334Y-98672217D01*
X115396334Y-98672217D02*
X115296355Y-98563994D01*
X115296355Y-98563994D02*
X115200026Y-98460207D01*
X115200026Y-98460207D02*
X115078146Y-98329226D01*
X115078146Y-98329226D02*
X114980636Y-98224346D01*
X114980636Y-98224346D02*
X114882732Y-98118540D01*
X114882732Y-98118540D02*
X114784877Y-98011782D01*
X114784877Y-98011782D02*
X114688835Y-97905399D01*
X114688835Y-97905399D02*
X114594797Y-97798936D01*
X114594797Y-97798936D02*
X114500520Y-97688954D01*
X114500520Y-97688954D02*
X114408817Y-97577684D01*
X114408817Y-97577684D02*
X114319791Y-97464209D01*
X114319791Y-97464209D02*
X114231462Y-97344594D01*
X114231462Y-97344594D02*
X114148063Y-97223266D01*
X114148063Y-97223266D02*
X114069244Y-97098981D01*
X114069244Y-97098981D02*
X113995736Y-96972434D01*
X113995736Y-96972434D02*
X113925992Y-96840603D01*
X113925992Y-96840603D02*
X113860268Y-96703580D01*
X113860268Y-96703580D02*
X113798711Y-96561753D01*
X113798711Y-96561753D02*
X113792000Y-96545400D01*
X122580400Y-104927400D02*
X122419630Y-104887668D01*
X122419630Y-104887668D02*
X122269228Y-104837117D01*
X122269228Y-104837117D02*
X122125393Y-104779301D01*
X122125393Y-104779301D02*
X121986888Y-104716429D01*
X121986888Y-104716429D02*
X121851273Y-104649059D01*
X121851273Y-104649059D02*
X121719857Y-104579004D01*
X121719857Y-104579004D02*
X121591378Y-104506491D01*
X121591378Y-104506491D02*
X121464175Y-104431176D01*
X121464175Y-104431176D02*
X121336257Y-104352228D01*
X121336257Y-104352228D02*
X121213147Y-104273455D01*
X121213147Y-104273455D02*
X121090173Y-104192243D01*
X121090173Y-104192243D02*
X120970299Y-104110808D01*
X120970299Y-104110808D02*
X120848443Y-104025874D01*
X120848443Y-104025874D02*
X120730247Y-103941531D01*
X120730247Y-103941531D02*
X120609033Y-103853139D01*
X120609033Y-103853139D02*
X120490518Y-103764946D01*
X120490518Y-103764946D02*
X120376371Y-103678422D01*
X120376371Y-103678422D02*
X120261060Y-103589502D01*
X120261060Y-103589502D02*
X120144660Y-103498256D01*
X120144660Y-103498256D02*
X120033137Y-103409478D01*
X120033137Y-103409478D02*
X119920763Y-103318720D01*
X119920763Y-103318720D02*
X119807599Y-103226044D01*
X119807599Y-103226044D02*
X119693713Y-103131508D01*
X119693713Y-103131508D02*
X119579166Y-103035168D01*
X119579166Y-103035168D02*
X119470102Y-102942293D01*
X119470102Y-102942293D02*
X119360557Y-102847904D01*
X119360557Y-102847904D02*
X119250588Y-102752053D01*
X119250588Y-102752053D02*
X119140249Y-102654789D01*
X119140249Y-102654789D02*
X119034210Y-102560299D01*
X119034210Y-102560299D02*
X118924850Y-102461810D01*
X118924850Y-102461810D02*
X118818372Y-102364918D01*
X118818372Y-102364918D02*
X118708661Y-102264054D01*
X118708661Y-102264054D02*
X118603491Y-102166387D01*
X118603491Y-102166387D02*
X118498274Y-102067721D01*
X118498274Y-102067721D02*
X118386872Y-101962212D01*
X118386872Y-101962212D02*
X118281708Y-101861625D01*
X118281708Y-101861625D02*
X118176641Y-101760174D01*
X118176641Y-101760174D02*
X118071715Y-101657894D01*
X118071715Y-101657894D02*
X117966978Y-101554832D01*
X117966978Y-101554832D02*
X117857867Y-101446432D01*
X117857867Y-101446432D02*
X117746009Y-101334191D01*
X117746009Y-101334191D02*
X117642151Y-101228958D01*
X117642151Y-101228958D02*
X117532597Y-101116875D01*
X117532597Y-101116875D02*
X117429570Y-101010438D01*
X117429570Y-101010438D02*
X117322498Y-100898749D01*
X117322498Y-100898749D02*
X117224973Y-100796040D01*
X117224973Y-100796040D02*
X117123502Y-100688167D01*
X117123502Y-100688167D02*
X117026336Y-100583888D01*
X117026336Y-100583888D02*
X117001956Y-100557569D01*
X103936800Y-101320600D02*
X103804094Y-101388556D01*
X103804094Y-101388556D02*
X103676386Y-101462735D01*
X103676386Y-101462735D02*
X103551389Y-101541844D01*
X103551389Y-101541844D02*
X103431276Y-101622674D01*
X103431276Y-101622674D02*
X103310932Y-101707459D01*
X103310932Y-101707459D02*
X103194297Y-101792562D01*
X103194297Y-101792562D02*
X103078773Y-101879155D01*
X103078773Y-101879155D02*
X102960387Y-101969812D01*
X102960387Y-101969812D02*
X102843844Y-102060569D01*
X102843844Y-102060569D02*
X102729625Y-102150667D01*
X102729625Y-102150667D02*
X102616241Y-102240976D01*
X102616241Y-102240976D02*
X102498004Y-102335843D01*
X102498004Y-102335843D02*
X102384987Y-102426992D01*
X102384987Y-102426992D02*
X102265227Y-102523897D01*
X102265227Y-102523897D02*
X102121318Y-102640547D01*
X102121318Y-102640547D02*
X102008708Y-102731827D01*
X102008708Y-102731827D02*
X101889438Y-102828382D01*
X101889438Y-102828382D02*
X101772343Y-102922951D01*
X101772343Y-102922951D02*
X101653046Y-103018969D01*
X101653046Y-103018969D02*
X101538618Y-103110673D01*
X101538618Y-103110673D02*
X101424635Y-103201571D01*
X101424635Y-103201571D02*
X101308784Y-103293437D01*
X101308784Y-103293437D02*
X101193536Y-103384240D01*
X101193536Y-103384240D02*
X101073990Y-103477764D01*
X101073990Y-103477764D02*
X100960223Y-103566088D01*
X100960223Y-103566088D02*
X100842236Y-103656944D01*
X100842236Y-103656944D02*
X100727782Y-103744321D01*
X100727782Y-103744321D02*
X100611765Y-103832089D01*
X100611765Y-103832089D02*
X100494189Y-103920183D01*
X100494189Y-103920183D02*
X100375055Y-104008536D01*
X100375055Y-104008536D02*
X100254364Y-104097083D01*
X100254364Y-104097083D02*
X100137706Y-104181722D01*
X100137706Y-104181722D02*
X100019635Y-104266417D01*
X100019635Y-104266417D02*
X99895857Y-104354137D01*
X99895857Y-104354137D02*
X99773458Y-104439776D01*
X99773458Y-104439776D02*
X99651082Y-104524289D01*
X99651082Y-104524289D02*
X99618800Y-104546400D01*
X130022600Y-85598000D02*
X129902374Y-85692966D01*
X129902374Y-85692966D02*
X129785252Y-85784975D01*
X129785252Y-85784975D02*
X129662729Y-85880715D01*
X129662729Y-85880715D02*
X129546249Y-85971258D01*
X129546249Y-85971258D02*
X129432991Y-86058879D01*
X129432991Y-86058879D02*
X129314523Y-86150106D01*
X129314523Y-86150106D02*
X129196575Y-86240515D01*
X129196575Y-86240515D02*
X129076414Y-86332217D01*
X129076414Y-86332217D02*
X128954145Y-86425126D01*
X128954145Y-86425126D02*
X128832631Y-86517080D01*
X128832631Y-86517080D02*
X128711937Y-86608058D01*
X128711937Y-86608058D02*
X128594841Y-86696005D01*
X128594841Y-86696005D02*
X128473263Y-86786999D01*
X128473263Y-86786999D02*
X128355410Y-86874917D01*
X128355410Y-86874917D02*
X128238632Y-86961778D01*
X128238632Y-86961778D02*
X128122987Y-87047553D01*
X128122987Y-87047553D02*
X127998204Y-87139868D01*
X127998204Y-87139868D02*
X127874932Y-87230842D01*
X127874932Y-87230842D02*
X127753254Y-87320448D01*
X127753254Y-87320448D02*
X127633250Y-87408657D01*
X127633250Y-87408657D02*
X127515007Y-87495444D01*
X127515007Y-87495444D02*
X127384185Y-87591345D01*
X127384185Y-87591345D02*
X127260517Y-87681926D01*
X127260517Y-87681926D02*
X127111585Y-87790963D01*
X127111585Y-87790963D02*
X126975409Y-87890684D01*
X126975409Y-87890684D02*
X126851453Y-87981530D01*
X126851453Y-87981530D02*
X126730672Y-88070180D01*
X126730672Y-88070180D02*
X126611129Y-88158108D01*
X126611129Y-88158108D02*
X126493146Y-88245151D01*
X126493146Y-88245151D02*
X126377063Y-88331129D01*
X126377063Y-88331129D02*
X126255806Y-88421410D01*
X126255806Y-88421410D02*
X126141366Y-88507183D01*
X126141366Y-88507183D02*
X126026922Y-88593680D01*
X126026922Y-88593680D02*
X125911865Y-88681582D01*
X125911865Y-88681582D02*
X125797589Y-88770120D01*
X125797589Y-88770120D02*
X125685646Y-88858453D01*
X125685646Y-88858453D02*
X125572762Y-88949768D01*
X125572762Y-88949768D02*
X125462565Y-89042111D01*
X125462565Y-89042111D02*
X125450600Y-89052400D01*
X133019800Y-83058000D02*
X132915328Y-83167594D01*
X132915328Y-83167594D02*
X132815573Y-83271648D01*
X132815573Y-83271648D02*
X132716987Y-83373776D01*
X132716987Y-83373776D02*
X132615345Y-83478135D01*
X132615345Y-83478135D02*
X132515365Y-83579620D01*
X132515365Y-83579620D02*
X132415040Y-83679956D01*
X132415040Y-83679956D02*
X132310608Y-83782333D01*
X132310608Y-83782333D02*
X132206510Y-83881660D01*
X132206510Y-83881660D02*
X132101351Y-83978436D01*
X132101351Y-83978436D02*
X131993342Y-84073265D01*
X131993342Y-84073265D02*
X131882914Y-84164829D01*
X131882914Y-84164829D02*
X131769569Y-84253438D01*
X131769569Y-84253438D02*
X131651824Y-84341245D01*
X131651824Y-84341245D02*
X131529509Y-84430167D01*
X131529509Y-84430167D02*
X131411467Y-84515583D01*
X131411467Y-84515583D02*
X131293191Y-84601823D01*
X131293191Y-84601823D02*
X131175100Y-84689052D01*
X131175100Y-84689052D02*
X131059689Y-84775523D01*
X131059689Y-84775523D02*
X130943060Y-84864147D01*
X130943060Y-84864147D02*
X130826928Y-84953560D01*
X130826928Y-84953560D02*
X130713259Y-85042124D01*
X130713259Y-85042124D02*
X130600821Y-85130666D01*
X130600821Y-85130666D02*
X130482869Y-85224464D01*
X130482869Y-85224464D02*
X130368240Y-85316440D01*
X130368240Y-85316440D02*
X130255920Y-85407275D01*
X130255920Y-85407275D02*
X130140154Y-85501583D01*
X130140154Y-85501583D02*
X130025537Y-85595582D01*
X130025537Y-85595582D02*
X130022600Y-85598000D01*
X133872004Y-68179092D02*
X133706363Y-68213832D01*
X133706363Y-68213832D02*
X133529852Y-68248566D01*
X133529852Y-68248566D02*
X133358624Y-68279653D01*
X133358624Y-68279653D02*
X133177758Y-68309348D01*
X133177758Y-68309348D02*
X133002062Y-68334805D01*
X133002062Y-68334805D02*
X132823132Y-68357050D01*
X132823132Y-68357050D02*
X132641482Y-68375651D01*
X132641482Y-68375651D02*
X132453288Y-68390555D01*
X132453288Y-68390555D02*
X132263393Y-68401042D01*
X132263393Y-68401042D02*
X132067303Y-68407088D01*
X132067303Y-68407088D02*
X131864842Y-68408326D01*
X131864842Y-68408326D02*
X131667603Y-68404799D01*
X131667603Y-68404799D02*
X131473046Y-68396934D01*
X131473046Y-68396934D02*
X131284283Y-68385344D01*
X131284283Y-68385344D02*
X131098846Y-68370361D01*
X131098846Y-68370361D02*
X130915566Y-68352257D01*
X130915566Y-68352257D02*
X130734763Y-68331377D01*
X130734763Y-68331377D02*
X130556806Y-68308079D01*
X130556806Y-68308079D02*
X130380428Y-68282472D01*
X130380428Y-68282472D02*
X130207676Y-68255110D01*
X130207676Y-68255110D02*
X130031913Y-68225113D01*
X130031913Y-68225113D02*
X129860402Y-68193868D01*
X129860402Y-68193868D02*
X129688052Y-68160641D01*
X129688052Y-68160641D02*
X129520766Y-68126740D01*
X129520766Y-68126740D02*
X129351225Y-68090830D01*
X129351225Y-68090830D02*
X129181467Y-68053406D01*
X129181467Y-68053406D02*
X129017861Y-68016033D01*
X129017861Y-68016033D02*
X128852552Y-67977047D01*
X128852552Y-67977047D02*
X128689914Y-67937561D01*
X128689914Y-67937561D02*
X128528073Y-67897225D01*
X128528073Y-67897225D02*
X128360446Y-67854404D01*
X128360446Y-67854404D02*
X128196044Y-67811440D01*
X128196044Y-67811440D02*
X128037572Y-67769170D01*
X128037572Y-67769170D02*
X127875925Y-67725234D01*
X127875925Y-67725234D02*
X127718381Y-67681657D01*
X127718381Y-67681657D02*
X127555329Y-67635816D01*
X127555329Y-67635816D02*
X127399276Y-67591272D01*
X127399276Y-67591272D02*
X127304800Y-67564000D01*
X90551000Y-100355400D02*
X90640096Y-100240216D01*
X90640096Y-100240216D02*
X90731466Y-100123449D01*
X90731466Y-100123449D02*
X90821209Y-100010092D01*
X90821209Y-100010092D02*
X90910550Y-99898556D01*
X90910550Y-99898556D02*
X91000617Y-99787428D01*
X91000617Y-99787428D02*
X91092453Y-99675477D01*
X91092453Y-99675477D02*
X91183575Y-99565742D01*
X91183575Y-99565742D02*
X91275035Y-99456926D01*
X91275035Y-99456926D02*
X91371080Y-99344083D01*
X91371080Y-99344083D02*
X91465930Y-99234043D01*
X91465930Y-99234043D02*
X91559529Y-99126781D01*
X91559529Y-99126781D02*
X91656880Y-99016580D01*
X91656880Y-99016580D02*
X91752593Y-98909518D01*
X91752593Y-98909518D02*
X91851385Y-98800278D01*
X91851385Y-98800278D02*
X91949065Y-98693433D01*
X91949065Y-98693433D02*
X92045488Y-98588981D01*
X92045488Y-98588981D02*
X92142246Y-98485045D01*
X92142246Y-98485045D02*
X92243997Y-98376477D01*
X92243997Y-98376477D02*
X92345029Y-98269159D01*
X92345029Y-98269159D02*
X92448043Y-98159872D01*
X92448043Y-98159872D02*
X92549362Y-98052062D01*
X92549362Y-98052062D02*
X92645858Y-97948541D01*
X92645858Y-97948541D02*
X92744166Y-97841520D01*
X92744166Y-97841520D02*
X92840800Y-97733867D01*
X92840800Y-97733867D02*
X92934016Y-97626540D01*
X92934016Y-97626540D02*
X93025621Y-97516204D01*
X93025621Y-97516204D02*
X93116788Y-97399501D01*
X93116788Y-97399501D02*
X93200712Y-97283337D01*
X93200712Y-97283337D02*
X93280462Y-97161772D01*
X93280462Y-97161772D02*
X93354973Y-97033902D01*
X93354973Y-97033902D02*
X93422858Y-96899651D01*
X93422858Y-96899651D02*
X93483895Y-96757109D01*
X93483895Y-96757109D02*
X93536233Y-96609300D01*
X93536233Y-96609300D02*
X93548200Y-96570800D01*
X85013800Y-104902000D02*
X85152029Y-104835433D01*
X85152029Y-104835433D02*
X85285633Y-104766600D01*
X85285633Y-104766600D02*
X85416825Y-104695164D01*
X85416825Y-104695164D02*
X85547163Y-104620784D01*
X85547163Y-104620784D02*
X85672661Y-104546224D01*
X85672661Y-104546224D02*
X85799785Y-104467988D01*
X85799785Y-104467988D02*
X85924708Y-104388636D01*
X85924708Y-104388636D02*
X86045819Y-104309516D01*
X86045819Y-104309516D02*
X86166475Y-104228683D01*
X86166475Y-104228683D02*
X86287744Y-104145517D01*
X86287744Y-104145517D02*
X86405625Y-104062928D01*
X86405625Y-104062928D02*
X86525064Y-103977569D01*
X86525064Y-103977569D02*
X86642023Y-103892412D01*
X86642023Y-103892412D02*
X86762991Y-103802775D01*
X86762991Y-103802775D02*
X86881227Y-103713676D01*
X86881227Y-103713676D02*
X86995190Y-103626458D01*
X86995190Y-103626458D02*
X87110173Y-103537169D01*
X87110173Y-103537169D02*
X87226126Y-103445849D01*
X87226126Y-103445849D02*
X87337407Y-103357035D01*
X87337407Y-103357035D02*
X87449476Y-103266461D01*
X87449476Y-103266461D02*
X87562284Y-103174167D01*
X87562284Y-103174167D02*
X87675783Y-103080187D01*
X87675783Y-103080187D02*
X87789932Y-102984563D01*
X87789932Y-102984563D02*
X87898935Y-102892233D01*
X87898935Y-102892233D02*
X88008443Y-102798487D01*
X88008443Y-102798487D02*
X88116967Y-102704617D01*
X88116967Y-102704617D02*
X88228818Y-102606877D01*
X88228818Y-102606877D02*
X88339609Y-102509081D01*
X88339609Y-102509081D02*
X88449284Y-102411312D01*
X88449284Y-102411312D02*
X88556327Y-102314980D01*
X88556327Y-102314980D02*
X88662155Y-102218869D01*
X88662155Y-102218869D02*
X88768190Y-102121687D01*
X88768190Y-102121687D02*
X88880314Y-102017983D01*
X88880314Y-102017983D02*
X88986685Y-101918700D01*
X88986685Y-101918700D02*
X89093168Y-101818437D01*
X89093168Y-101818437D02*
X89199729Y-101717220D01*
X89199729Y-101717220D02*
X89306334Y-101615081D01*
X89306334Y-101615081D02*
X89412954Y-101512047D01*
X89412954Y-101512047D02*
X89519551Y-101408143D01*
X89519551Y-101408143D02*
X89621658Y-101307781D01*
X89621658Y-101307781D02*
X89722208Y-101208143D01*
X89722208Y-101208143D02*
X89832987Y-101097437D01*
X89832987Y-101097437D02*
X89933283Y-100996352D01*
X89933283Y-100996352D02*
X90033420Y-100894618D01*
X90033420Y-100894618D02*
X90133363Y-100792256D01*
X90133363Y-100792256D02*
X90233089Y-100689288D01*
X90233089Y-100689288D02*
X90332569Y-100585742D01*
X90332569Y-100585742D02*
X90436143Y-100477034D01*
X90436143Y-100477034D02*
X90542290Y-100364661D01*
X90542290Y-100364661D02*
X90551000Y-100355400D01*
X82499200Y-105537000D02*
X82708376Y-105537286D01*
X82708376Y-105537286D02*
X82902338Y-105529675D01*
X82902338Y-105529675D02*
X83087685Y-105514725D01*
X83087685Y-105514725D02*
X83266346Y-105492700D01*
X83266346Y-105492700D02*
X83437995Y-105464071D01*
X83437995Y-105464071D02*
X83604420Y-105429022D01*
X83604420Y-105429022D02*
X83768444Y-105387291D01*
X83768444Y-105387291D02*
X83923275Y-105341378D01*
X83923275Y-105341378D02*
X84075115Y-105290447D01*
X84075115Y-105290447D02*
X84225107Y-105234891D01*
X84225107Y-105234891D02*
X84369751Y-105177122D01*
X84369751Y-105177122D02*
X84511717Y-105117411D01*
X84511717Y-105117411D02*
X84653544Y-105055995D01*
X84653544Y-105055995D02*
X84793791Y-104994927D01*
X84793791Y-104994927D02*
X84934626Y-104934755D01*
X84934626Y-104934755D02*
X85013800Y-104902000D01*
X82067400Y-107467400D02*
X82001656Y-107330245D01*
X82001656Y-107330245D02*
X81940687Y-107190244D01*
X81940687Y-107190244D02*
X81884102Y-107043783D01*
X81884102Y-107043783D02*
X81833671Y-106890903D01*
X81833671Y-106890903D02*
X81791322Y-106730116D01*
X81791322Y-106730116D02*
X81760259Y-106559744D01*
X81760259Y-106559744D02*
X81745888Y-106373559D01*
X81745888Y-106373559D02*
X81757946Y-106185355D01*
X81757946Y-106185355D02*
X81797461Y-106023816D01*
X81797461Y-106023816D02*
X81861580Y-105887385D01*
X81861580Y-105887385D02*
X81948687Y-105773832D01*
X81948687Y-105773832D02*
X82059091Y-105681249D01*
X82059091Y-105681249D02*
X82189482Y-105611333D01*
X82189482Y-105611333D02*
X82341988Y-105562452D01*
X82341988Y-105562452D02*
X82499200Y-105537000D01*
X91465400Y-109016800D02*
X91301551Y-109054863D01*
X91301551Y-109054863D02*
X91132935Y-109088528D01*
X91132935Y-109088528D02*
X90951610Y-109119276D01*
X90951610Y-109119276D02*
X90774489Y-109144490D01*
X90774489Y-109144490D02*
X90595123Y-109165699D01*
X90595123Y-109165699D02*
X90394622Y-109184783D01*
X90394622Y-109184783D02*
X90207817Y-109198593D01*
X90207817Y-109198593D02*
X90015972Y-109209149D01*
X90015972Y-109209149D02*
X89780950Y-109217509D01*
X89780950Y-109217509D02*
X89581888Y-109220976D01*
X89581888Y-109220976D02*
X89374359Y-109221331D01*
X89374359Y-109221331D02*
X89175594Y-109218762D01*
X89175594Y-109218762D02*
X88980479Y-109213637D01*
X88980479Y-109213637D02*
X88783614Y-109206000D01*
X88783614Y-109206000D02*
X88591093Y-109196253D01*
X88591093Y-109196253D02*
X88391488Y-109183878D01*
X88391488Y-109183878D02*
X88202682Y-109170139D01*
X88202682Y-109170139D02*
X88013171Y-109154432D01*
X88013171Y-109154432D02*
X87829099Y-109137397D01*
X87829099Y-109137397D02*
X87644742Y-109118630D01*
X87644742Y-109118630D02*
X87460282Y-109098188D01*
X87460282Y-109098188D02*
X87264017Y-109074649D01*
X87264017Y-109074649D02*
X87085863Y-109051714D01*
X87085863Y-109051714D02*
X86908143Y-109027373D01*
X86908143Y-109027373D02*
X86725124Y-109000794D01*
X86725124Y-109000794D02*
X86548792Y-108973746D01*
X86548792Y-108973746D02*
X86373398Y-108945444D01*
X86373398Y-108945444D02*
X86199111Y-108915942D01*
X86199111Y-108915942D02*
X86021790Y-108884508D01*
X86021790Y-108884508D02*
X85821819Y-108847328D01*
X85821819Y-108847328D02*
X85650778Y-108814053D01*
X85650778Y-108814053D02*
X85484357Y-108780348D01*
X85484357Y-108780348D02*
X85317132Y-108745134D01*
X85317132Y-108745134D02*
X85142613Y-108706907D01*
X85142613Y-108706907D02*
X84976067Y-108668972D01*
X84976067Y-108668972D02*
X84808256Y-108629262D01*
X84808256Y-108629262D02*
X84646017Y-108589388D01*
X84646017Y-108589388D02*
X84484349Y-108548133D01*
X84484349Y-108548133D02*
X84324836Y-108505855D01*
X84324836Y-108505855D02*
X84167770Y-108462605D01*
X84167770Y-108462605D02*
X84012274Y-108418085D01*
X84012274Y-108418085D02*
X83853075Y-108370611D01*
X83853075Y-108370611D02*
X83697752Y-108322272D01*
X83697752Y-108322272D02*
X83546680Y-108273137D01*
X83546680Y-108273137D02*
X83393124Y-108220794D01*
X83393124Y-108220794D02*
X83242322Y-108166710D01*
X83242322Y-108166710D02*
X83095179Y-108110965D01*
X83095179Y-108110965D02*
X82949226Y-108052226D01*
X82949226Y-108052226D02*
X82806230Y-107990613D01*
X82806230Y-107990613D02*
X82668159Y-107926284D01*
X82668159Y-107926284D02*
X82534564Y-107858031D01*
X82534564Y-107858031D02*
X82401982Y-107781947D01*
X82401982Y-107781947D02*
X82281551Y-107701386D01*
X82281551Y-107701386D02*
X82170927Y-107608953D01*
X82170927Y-107608953D02*
X82082070Y-107497664D01*
X82082070Y-107497664D02*
X82067400Y-107467400D01*
X99618800Y-104546400D02*
X99501737Y-104630282D01*
X99501737Y-104630282D02*
X99383327Y-104712787D01*
X99383327Y-104712787D02*
X99262339Y-104795242D01*
X99262339Y-104795242D02*
X99139113Y-104877705D01*
X99139113Y-104877705D02*
X99016641Y-104958422D01*
X99016641Y-104958422D02*
X98893076Y-105038799D01*
X98893076Y-105038799D02*
X98771051Y-105117272D01*
X98771051Y-105117272D02*
X98642634Y-105199013D01*
X98642634Y-105199013D02*
X98517106Y-105278166D01*
X98517106Y-105278166D02*
X98393447Y-105355491D01*
X98393447Y-105355491D02*
X98268399Y-105433087D01*
X98268399Y-105433087D02*
X98144259Y-105509573D01*
X98144259Y-105509573D02*
X98013305Y-105589709D01*
X98013305Y-105589709D02*
X97881666Y-105669734D01*
X97881666Y-105669734D02*
X97755959Y-105745686D01*
X97755959Y-105745686D02*
X97628162Y-105822459D01*
X97628162Y-105822459D02*
X97498400Y-105899981D01*
X97498400Y-105899981D02*
X97366802Y-105978176D01*
X97366802Y-105978176D02*
X97240193Y-106053013D01*
X97240193Y-106053013D02*
X97098593Y-106136278D01*
X97098593Y-106136278D02*
X96964522Y-106214704D01*
X96964522Y-106214704D02*
X96833772Y-106290816D01*
X96833772Y-106290816D02*
X96704244Y-106365853D01*
X96704244Y-106365853D02*
X96573763Y-106441093D01*
X96573763Y-106441093D02*
X96442428Y-106516474D01*
X96442428Y-106516474D02*
X96310346Y-106591932D01*
X96310346Y-106591932D02*
X96177616Y-106667408D01*
X96177616Y-106667408D02*
X96047918Y-106740822D01*
X96047918Y-106740822D02*
X95901066Y-106823545D01*
X95901066Y-106823545D02*
X95756208Y-106904723D01*
X95756208Y-106904723D02*
X95623098Y-106978954D01*
X95623098Y-106978954D02*
X95488666Y-107053553D01*
X95488666Y-107053553D02*
X95354223Y-107127796D01*
X95354223Y-107127796D02*
X95219866Y-107201619D01*
X95219866Y-107201619D02*
X95085702Y-107274962D01*
X95085702Y-107274962D02*
X94951830Y-107347764D01*
X94951830Y-107347764D02*
X94818355Y-107419963D01*
X94818355Y-107419963D02*
X94685379Y-107491498D01*
X94685379Y-107491498D02*
X94553005Y-107562309D01*
X94553005Y-107562309D02*
X94421337Y-107632334D01*
X94421337Y-107632334D02*
X94290475Y-107701510D01*
X94290475Y-107701510D02*
X94151279Y-107774617D01*
X94151279Y-107774617D02*
X94013256Y-107846608D01*
X94013256Y-107846608D02*
X93876532Y-107917406D01*
X93876532Y-107917406D02*
X93741231Y-107986935D01*
X93741231Y-107986935D02*
X93605265Y-108056245D01*
X93605265Y-108056245D02*
X93466668Y-108126285D01*
X93466668Y-108126285D02*
X93330068Y-108194674D01*
X93330068Y-108194674D02*
X93191381Y-108263409D01*
X93191381Y-108263409D02*
X93048911Y-108333230D01*
X93048911Y-108333230D02*
X92909300Y-108400810D01*
X92909300Y-108400810D02*
X92770746Y-108466979D01*
X92770746Y-108466979D02*
X92633583Y-108531518D01*
X92633583Y-108531518D02*
X92494406Y-108595917D01*
X92494406Y-108595917D02*
X92353941Y-108659663D01*
X92353941Y-108659663D02*
X92211245Y-108722964D01*
X92211245Y-108722964D02*
X92067436Y-108785041D01*
X92067436Y-108785041D02*
X91925359Y-108844383D01*
X91925359Y-108844383D02*
X91780145Y-108902571D01*
X91780145Y-108902571D02*
X91632872Y-108958418D01*
X91632872Y-108958418D02*
X91484224Y-109010568D01*
X91484224Y-109010568D02*
X91465400Y-109016800D01*
X134189473Y-73081477D02*
X134231221Y-73250636D01*
X134231221Y-73250636D02*
X134271065Y-73417262D01*
X134271065Y-73417262D02*
X134309945Y-73583888D01*
X134309945Y-73583888D02*
X134348075Y-73751090D01*
X134348075Y-73751090D02*
X134384565Y-73914688D01*
X134384565Y-73914688D02*
X134421072Y-74082049D01*
X134421072Y-74082049D02*
X134457955Y-74255150D01*
X134457955Y-74255150D02*
X134494193Y-74429498D01*
X134494193Y-74429498D02*
X134528804Y-74600391D01*
X134528804Y-74600391D02*
X134561985Y-74768688D01*
X134561985Y-74768688D02*
X134594563Y-74938711D01*
X134594563Y-74938711D02*
X134626979Y-75113276D01*
X134626979Y-75113276D02*
X134658343Y-75288061D01*
X134658343Y-75288061D02*
X134688203Y-75460804D01*
X134688203Y-75460804D02*
X134718627Y-75644425D01*
X134718627Y-75644425D02*
X134746511Y-75820960D01*
X134746511Y-75820960D02*
X134773931Y-76004211D01*
X134773931Y-76004211D02*
X134798847Y-76181371D01*
X134798847Y-76181371D02*
X134822746Y-76364034D01*
X134822746Y-76364034D02*
X134844506Y-76545446D01*
X134844506Y-76545446D02*
X134864501Y-76730911D01*
X134864501Y-76730911D02*
X134882211Y-76919493D01*
X134882211Y-76919493D02*
X134897064Y-77110107D01*
X134897064Y-77110107D02*
X134908416Y-77301499D01*
X134908416Y-77301499D02*
X134915694Y-77497600D01*
X134915694Y-77497600D02*
X134917638Y-77697360D01*
X134917638Y-77697360D02*
X134916839Y-77764259D01*
X120523000Y-91719400D02*
X120401034Y-91803330D01*
X120401034Y-91803330D02*
X120280456Y-91886842D01*
X120280456Y-91886842D02*
X120156228Y-91973369D01*
X120156228Y-91973369D02*
X120037335Y-92056580D01*
X120037335Y-92056580D02*
X119909559Y-92146399D01*
X119909559Y-92146399D02*
X119788001Y-92232183D01*
X119788001Y-92232183D02*
X119663975Y-92319998D01*
X119663975Y-92319998D02*
X119537618Y-92409745D01*
X119537618Y-92409745D02*
X119409063Y-92501313D01*
X119409063Y-92501313D02*
X119291588Y-92585192D01*
X119291588Y-92585192D02*
X119172534Y-92670380D01*
X119172534Y-92670380D02*
X119051996Y-92756797D01*
X119051996Y-92756797D02*
X118931772Y-92843144D01*
X118931772Y-92843144D02*
X118806852Y-92933010D01*
X118806852Y-92933010D02*
X118682438Y-93022645D01*
X118682438Y-93022645D02*
X118556926Y-93113197D01*
X118556926Y-93113197D02*
X118430408Y-93204587D01*
X118430408Y-93204587D02*
X118302984Y-93296736D01*
X118302984Y-93296736D02*
X118185462Y-93381804D01*
X118185462Y-93381804D02*
X118060157Y-93472586D01*
X118060157Y-93472586D02*
X117930647Y-93566481D01*
X117930647Y-93566481D02*
X117800605Y-93660831D01*
X117800605Y-93660831D02*
X117677385Y-93750285D01*
X117677385Y-93750285D02*
X117561127Y-93834722D01*
X117561127Y-93834722D02*
X117444661Y-93919340D01*
X117444661Y-93919340D02*
X117328056Y-94004085D01*
X117328056Y-94004085D02*
X117167620Y-94120716D01*
X117167620Y-94120716D02*
X116963501Y-94269124D01*
X116963501Y-94269124D02*
X116817947Y-94374951D01*
X116817947Y-94374951D02*
X116687241Y-94469972D01*
X116687241Y-94469972D02*
X116571369Y-94554192D01*
X116571369Y-94554192D02*
X116427054Y-94659055D01*
X116427054Y-94659055D02*
X116290604Y-94758159D01*
X116290604Y-94758159D02*
X116169147Y-94846332D01*
X116169147Y-94846332D02*
X116027133Y-94949362D01*
X116027133Y-94949362D02*
X115893211Y-95046445D01*
X115893211Y-95046445D02*
X115774300Y-95132579D01*
X115774300Y-95132579D02*
X115656336Y-95217948D01*
X115656336Y-95217948D02*
X115525709Y-95312381D01*
X115525709Y-95312381D02*
X115396481Y-95405682D01*
X115396481Y-95405682D02*
X115275443Y-95492955D01*
X115275443Y-95492955D02*
X115155854Y-95579053D01*
X115155854Y-95579053D02*
X115037812Y-95663900D01*
X115037812Y-95663900D02*
X114908585Y-95756614D01*
X114908585Y-95756614D02*
X114790968Y-95840815D01*
X114790968Y-95840815D02*
X114672204Y-95925646D01*
X114672204Y-95925646D02*
X114546505Y-96015198D01*
X114546505Y-96015198D02*
X114429412Y-96098369D01*
X114429412Y-96098369D02*
X114309053Y-96183586D01*
X114309053Y-96183586D02*
X114191639Y-96266405D01*
X114191639Y-96266405D02*
X114071819Y-96350569D01*
X114071819Y-96350569D02*
X113952900Y-96433692D01*
X113952900Y-96433692D02*
X113830189Y-96518971D01*
X113830189Y-96518971D02*
X113792000Y-96545400D01*
X125450600Y-89052400D02*
X125340744Y-89144658D01*
X125340744Y-89144658D02*
X125226228Y-89231987D01*
X125226228Y-89231987D02*
X125106268Y-89317206D01*
X125106268Y-89317206D02*
X124983842Y-89399516D01*
X124983842Y-89399516D02*
X124857985Y-89480483D01*
X124857985Y-89480483D02*
X124725577Y-89562573D01*
X124725577Y-89562573D02*
X124600390Y-89637859D01*
X124600390Y-89637859D02*
X124472321Y-89712956D01*
X124472321Y-89712956D02*
X124340944Y-89788314D01*
X124340944Y-89788314D02*
X124212387Y-89860648D01*
X124212387Y-89860648D02*
X124079514Y-89934163D01*
X124079514Y-89934163D02*
X123947320Y-90006215D01*
X123947320Y-90006215D02*
X123811471Y-90079269D01*
X123811471Y-90079269D02*
X123677182Y-90150621D01*
X123677182Y-90150621D02*
X123537254Y-90224166D01*
X123537254Y-90224166D02*
X123402186Y-90294469D01*
X123402186Y-90294469D02*
X123264569Y-90365480D01*
X123264569Y-90365480D02*
X123127264Y-90435780D01*
X123127264Y-90435780D02*
X122993297Y-90503900D01*
X122993297Y-90503900D02*
X122860233Y-90571145D01*
X122860233Y-90571145D02*
X122725473Y-90638873D01*
X122725473Y-90638873D02*
X122589131Y-90707052D01*
X122589131Y-90707052D02*
X122451320Y-90775658D01*
X122451320Y-90775658D02*
X122312153Y-90844654D01*
X122312153Y-90844654D02*
X122171747Y-90914016D01*
X122171747Y-90914016D02*
X122030215Y-90983712D01*
X122030215Y-90983712D02*
X121893625Y-91050791D01*
X121893625Y-91050791D02*
X121756205Y-91118123D01*
X121756205Y-91118123D02*
X121612033Y-91188628D01*
X121612033Y-91188628D02*
X121467182Y-91259351D01*
X121467182Y-91259351D02*
X121315694Y-91333225D01*
X121315694Y-91333225D02*
X121169803Y-91404304D01*
X121169803Y-91404304D02*
X120962584Y-91505218D01*
X120962584Y-91505218D02*
X120803861Y-91582511D01*
X120803861Y-91582511D02*
X120638976Y-91662846D01*
X120638976Y-91662846D02*
X120523000Y-91719400D01*
D13*
X108051600Y-58623200D02*
X105206800Y-58623200D01*
X100228400Y-58623200D02*
X103073200Y-58623200D01*
X108051600Y-55880000D02*
X108051600Y-58623200D01*
X100228400Y-55880000D02*
X100228400Y-58623200D01*
X115366800Y-45313600D02*
G75*
G03X115366800Y-45313600I-11226800J0D01*
G01*
D15*
X93352857Y-54642380D02*
X93829047Y-54642380D01*
X93829047Y-53642380D01*
X93019523Y-54118571D02*
X92686190Y-54118571D01*
X92543333Y-54642380D02*
X93019523Y-54642380D01*
X93019523Y-53642380D01*
X92543333Y-53642380D01*
X92114761Y-54642380D02*
X92114761Y-53642380D01*
X91876666Y-53642380D01*
X91733809Y-53690000D01*
X91638571Y-53785238D01*
X91590952Y-53880476D01*
X91543333Y-54070952D01*
X91543333Y-54213809D01*
X91590952Y-54404285D01*
X91638571Y-54499523D01*
X91733809Y-54594761D01*
X91876666Y-54642380D01*
X92114761Y-54642380D01*
X116212857Y-60562380D02*
X116689047Y-60562380D01*
X116689047Y-59562380D01*
X115879523Y-60038571D02*
X115546190Y-60038571D01*
X115403333Y-60562380D02*
X115879523Y-60562380D01*
X115879523Y-59562380D01*
X115403333Y-59562380D01*
X114974761Y-60562380D02*
X114974761Y-59562380D01*
X114736666Y-59562380D01*
X114593809Y-59610000D01*
X114498571Y-59705238D01*
X114450952Y-59800476D01*
X114403333Y-59990952D01*
X114403333Y-60133809D01*
X114450952Y-60324285D01*
X114498571Y-60419523D01*
X114593809Y-60514761D01*
X114736666Y-60562380D01*
X114974761Y-60562380D01*
X112212380Y-74763333D02*
X111736190Y-74430000D01*
X112212380Y-74191904D02*
X111212380Y-74191904D01*
X111212380Y-74572857D01*
X111260000Y-74668095D01*
X111307619Y-74715714D01*
X111402857Y-74763333D01*
X111545714Y-74763333D01*
X111640952Y-74715714D01*
X111688571Y-74668095D01*
X111736190Y-74572857D01*
X111736190Y-74191904D01*
X112212380Y-75715714D02*
X112212380Y-75144285D01*
X112212380Y-75430000D02*
X111212380Y-75430000D01*
X111355238Y-75334761D01*
X111450476Y-75239523D01*
X111498095Y-75144285D01*
X96972380Y-75398333D02*
X96496190Y-75065000D01*
X96972380Y-74826904D02*
X95972380Y-74826904D01*
X95972380Y-75207857D01*
X96020000Y-75303095D01*
X96067619Y-75350714D01*
X96162857Y-75398333D01*
X96305714Y-75398333D01*
X96400952Y-75350714D01*
X96448571Y-75303095D01*
X96496190Y-75207857D01*
X96496190Y-74826904D01*
X96067619Y-75779285D02*
X96020000Y-75826904D01*
X95972380Y-75922142D01*
X95972380Y-76160238D01*
X96020000Y-76255476D01*
X96067619Y-76303095D01*
X96162857Y-76350714D01*
X96258095Y-76350714D01*
X96400952Y-76303095D01*
X96972380Y-75731666D01*
X96972380Y-76350714D01*
X106227619Y-76231904D02*
X106180000Y-76279523D01*
X106132380Y-76374761D01*
X106132380Y-76612857D01*
X106180000Y-76708095D01*
X106227619Y-76755714D01*
X106322857Y-76803333D01*
X106418095Y-76803333D01*
X106560952Y-76755714D01*
X107132380Y-76184285D01*
X107132380Y-76803333D01*
X106227619Y-77184285D02*
X106180000Y-77231904D01*
X106132380Y-77327142D01*
X106132380Y-77565238D01*
X106180000Y-77660476D01*
X106227619Y-77708095D01*
X106322857Y-77755714D01*
X106418095Y-77755714D01*
X106560952Y-77708095D01*
X107132380Y-77136666D01*
X107132380Y-77755714D01*
X106132380Y-78374761D02*
X106132380Y-78470000D01*
X106180000Y-78565238D01*
X106227619Y-78612857D01*
X106322857Y-78660476D01*
X106513333Y-78708095D01*
X106751428Y-78708095D01*
X106941904Y-78660476D01*
X107037142Y-78612857D01*
X107084761Y-78565238D01*
X107132380Y-78470000D01*
X107132380Y-78374761D01*
X107084761Y-78279523D01*
X107037142Y-78231904D01*
X106941904Y-78184285D01*
X106751428Y-78136666D01*
X106513333Y-78136666D01*
X106322857Y-78184285D01*
X106227619Y-78231904D01*
X106180000Y-78279523D01*
X106132380Y-78374761D01*
X101147619Y-76231904D02*
X101100000Y-76279523D01*
X101052380Y-76374761D01*
X101052380Y-76612857D01*
X101100000Y-76708095D01*
X101147619Y-76755714D01*
X101242857Y-76803333D01*
X101338095Y-76803333D01*
X101480952Y-76755714D01*
X102052380Y-76184285D01*
X102052380Y-76803333D01*
X101147619Y-77184285D02*
X101100000Y-77231904D01*
X101052380Y-77327142D01*
X101052380Y-77565238D01*
X101100000Y-77660476D01*
X101147619Y-77708095D01*
X101242857Y-77755714D01*
X101338095Y-77755714D01*
X101480952Y-77708095D01*
X102052380Y-77136666D01*
X102052380Y-77755714D01*
X101052380Y-78374761D02*
X101052380Y-78470000D01*
X101100000Y-78565238D01*
X101147619Y-78612857D01*
X101242857Y-78660476D01*
X101433333Y-78708095D01*
X101671428Y-78708095D01*
X101861904Y-78660476D01*
X101957142Y-78612857D01*
X102004761Y-78565238D01*
X102052380Y-78470000D01*
X102052380Y-78374761D01*
X102004761Y-78279523D01*
X101957142Y-78231904D01*
X101861904Y-78184285D01*
X101671428Y-78136666D01*
X101433333Y-78136666D01*
X101242857Y-78184285D01*
X101147619Y-78231904D01*
X101100000Y-78279523D01*
X101052380Y-78374761D01*
X117628571Y-41956457D02*
X117676190Y-42099314D01*
X117723809Y-42146933D01*
X117819047Y-42194552D01*
X117961904Y-42194552D01*
X118057142Y-42146933D01*
X118104761Y-42099314D01*
X118152380Y-42004076D01*
X118152380Y-41623123D01*
X117152380Y-41623123D01*
X117152380Y-41956457D01*
X117200000Y-42051695D01*
X117247619Y-42099314D01*
X117342857Y-42146933D01*
X117438095Y-42146933D01*
X117533333Y-42099314D01*
X117580952Y-42051695D01*
X117628571Y-41956457D01*
X117628571Y-41623123D01*
X118152380Y-43051695D02*
X117628571Y-43051695D01*
X117533333Y-43004076D01*
X117485714Y-42908838D01*
X117485714Y-42718361D01*
X117533333Y-42623123D01*
X118104761Y-43051695D02*
X118152380Y-42956457D01*
X118152380Y-42718361D01*
X118104761Y-42623123D01*
X118009523Y-42575504D01*
X117914285Y-42575504D01*
X117819047Y-42623123D01*
X117771428Y-42718361D01*
X117771428Y-42956457D01*
X117723809Y-43051695D01*
X117485714Y-43385028D02*
X117485714Y-43765980D01*
X117152380Y-43527885D02*
X118009523Y-43527885D01*
X118104761Y-43575504D01*
X118152380Y-43670742D01*
X118152380Y-43765980D01*
X117485714Y-43956457D02*
X117485714Y-44337409D01*
X117152380Y-44099314D02*
X118009523Y-44099314D01*
X118104761Y-44146933D01*
X118152380Y-44242171D01*
X118152380Y-44337409D01*
X118104761Y-45051695D02*
X118152380Y-44956457D01*
X118152380Y-44765980D01*
X118104761Y-44670742D01*
X118009523Y-44623123D01*
X117628571Y-44623123D01*
X117533333Y-44670742D01*
X117485714Y-44765980D01*
X117485714Y-44956457D01*
X117533333Y-45051695D01*
X117628571Y-45099314D01*
X117723809Y-45099314D01*
X117819047Y-44623123D01*
X118152380Y-45527885D02*
X117485714Y-45527885D01*
X117676190Y-45527885D02*
X117580952Y-45575504D01*
X117533333Y-45623123D01*
X117485714Y-45718361D01*
X117485714Y-45813600D01*
X117485714Y-46051695D02*
X118152380Y-46289790D01*
X117485714Y-46527885D02*
X118152380Y-46289790D01*
X118390476Y-46194552D01*
X118438095Y-46146933D01*
X118485714Y-46051695D01*
X117152380Y-47575504D02*
X117152380Y-48194552D01*
X117533333Y-47861219D01*
X117533333Y-48004076D01*
X117580952Y-48099314D01*
X117628571Y-48146933D01*
X117723809Y-48194552D01*
X117961904Y-48194552D01*
X118057142Y-48146933D01*
X118104761Y-48099314D01*
X118152380Y-48004076D01*
X118152380Y-47718361D01*
X118104761Y-47623123D01*
X118057142Y-47575504D01*
X117152380Y-48480266D02*
X118152380Y-48813600D01*
X117152380Y-49146933D01*
M02*
