G04 #@! TF.GenerationSoftware,KiCad,Pcbnew,(5.1.0-0)*
G04 #@! TF.CreationDate,2019-04-03T12:05:29-07:00*
G04 #@! TF.ProjectId,ZiaconBadge,5a696163-6f6e-4426-9164-67652e6b6963,rev?*
G04 #@! TF.SameCoordinates,Original*
G04 #@! TF.FileFunction,Copper,L2,Bot*
G04 #@! TF.FilePolarity,Positive*
%FSLAX46Y46*%
G04 Gerber Fmt 4.6, Leading zero omitted, Abs format (unit mm)*
G04 Created by KiCad (PCBNEW (5.1.0-0)) date 2019-04-03 12:05:29*
%MOMM*%
%LPD*%
G04 APERTURE LIST*
%ADD10C,0.050000*%
%ADD11C,0.100000*%
%ADD12C,0.200000*%
%ADD13R,1.600000X1.600000*%
%ADD14O,1.600000X1.600000*%
%ADD15C,1.800000*%
%ADD16R,1.800000X1.800000*%
%ADD17C,1.600000*%
%ADD18R,2.170000X2.170000*%
%ADD19C,2.500000*%
%ADD20C,0.800000*%
%ADD21C,0.254000*%
G04 APERTURE END LIST*
D10*
X107950000Y-27940000D02*
G75*
G02X107950000Y-33020000I0J-2540000D01*
G01*
X100330000Y-33020000D02*
G75*
G02X100330000Y-27940000I0J2540000D01*
G01*
D11*
X107950000Y-33020000D02*
X100330000Y-33020000D01*
X100330000Y-27940000D02*
X107950000Y-27940000D01*
D10*
X134543800Y-72694800D02*
X134189473Y-73081477D01*
X134569200Y-71805800D02*
X134543800Y-72694800D01*
X135051800Y-71043800D02*
X134569200Y-71805800D01*
X136575800Y-70053200D02*
X135051800Y-71043800D01*
X138633200Y-68961000D02*
X136575800Y-70053200D01*
X139471400Y-68021200D02*
X138633200Y-68961000D01*
X140208000Y-66700400D02*
X139471400Y-68021200D01*
X140690600Y-65354200D02*
X140208000Y-66700400D01*
X140639800Y-64135000D02*
X140690600Y-65354200D01*
X140157200Y-62712600D02*
X140639800Y-64135000D01*
X139496800Y-61772800D02*
X140157200Y-62712600D01*
X138277600Y-60756800D02*
X139496800Y-61772800D01*
X136575800Y-60147200D02*
X138277600Y-60756800D01*
X135128000Y-60172600D02*
X136575800Y-60147200D01*
X134569200Y-60452000D02*
X135128000Y-60172600D01*
X134289800Y-61366400D02*
X134569200Y-60452000D01*
X134340600Y-62128400D02*
X134289800Y-61366400D01*
X134696200Y-62560200D02*
X134340600Y-62128400D01*
X135407400Y-62738000D02*
X134696200Y-62560200D01*
X135686800Y-63042800D02*
X135407400Y-62738000D01*
X136220200Y-63906400D02*
X135686800Y-63042800D01*
X136855200Y-64922400D02*
X136220200Y-63906400D01*
X136880600Y-65328800D02*
X136855200Y-64922400D01*
X136652000Y-65862200D02*
X136880600Y-65328800D01*
X135890000Y-66852800D02*
X136652000Y-65862200D01*
X135026400Y-67716400D02*
X135890000Y-66852800D01*
X133872004Y-68179092D02*
X135026400Y-67716400D01*
X126263400Y-67386200D02*
X127304800Y-67564000D01*
X125247400Y-67437000D02*
X126263400Y-67386200D01*
X124434600Y-67513200D02*
X125247400Y-67437000D01*
X124155200Y-67233800D02*
X124434600Y-67513200D01*
X123977400Y-66598800D02*
X124155200Y-67233800D01*
X124231400Y-65735200D02*
X123977400Y-66598800D01*
X125095000Y-64820800D02*
X124231400Y-65735200D01*
X126644400Y-63144400D02*
X125095000Y-64820800D01*
X127050800Y-62611000D02*
X126644400Y-63144400D01*
X127228600Y-61061600D02*
X127279400Y-61671200D01*
X126949200Y-60121800D02*
X127228600Y-61061600D01*
X126314200Y-55905400D02*
X126365000Y-56515000D01*
X126796800Y-54864000D02*
X126314200Y-55905400D01*
X127279400Y-53467000D02*
X126796800Y-54864000D01*
X127584200Y-52146200D02*
X127279400Y-53467000D01*
X70535800Y-65201800D02*
X70612000Y-64795400D01*
X72771000Y-73609200D02*
X73253600Y-73787000D01*
X72593200Y-73304400D02*
X72771000Y-73609200D01*
X72542400Y-72745600D02*
X72593200Y-73304400D01*
X72720200Y-71907400D02*
X72542400Y-72745600D01*
X72618600Y-71475600D02*
X72720200Y-71907400D01*
X72212200Y-71018400D02*
X72618600Y-71475600D01*
X71170800Y-70307200D02*
X72212200Y-71018400D01*
X69621400Y-69469000D02*
X71170800Y-70307200D01*
X68376800Y-68529200D02*
X69621400Y-69469000D01*
X67614800Y-67564000D02*
X68376800Y-68529200D01*
X66954400Y-66395600D02*
X67614800Y-67564000D01*
X66700400Y-64998600D02*
X66954400Y-66395600D01*
X66776600Y-63906400D02*
X66700400Y-64998600D01*
X67183000Y-62763400D02*
X66776600Y-63906400D01*
X67792600Y-61823600D02*
X67183000Y-62763400D01*
X68478400Y-61188600D02*
X67792600Y-61823600D01*
X69469000Y-60502800D02*
X68478400Y-61188600D01*
X70866000Y-60121800D02*
X69469000Y-60502800D01*
X71932800Y-60121800D02*
X70866000Y-60121800D01*
X72720200Y-60350400D02*
X71932800Y-60121800D01*
X73075800Y-60858400D02*
X72720200Y-60350400D01*
X73152000Y-61442600D02*
X73075800Y-60858400D01*
X73152000Y-61823600D02*
X73152000Y-61442600D01*
X72847200Y-62433200D02*
X73152000Y-61823600D01*
X71932800Y-62890400D02*
X72847200Y-62433200D01*
X70612000Y-64795400D02*
X71932800Y-62890400D01*
X70637400Y-65633600D02*
X70535800Y-65201800D01*
X81686400Y-67335400D02*
X80645000Y-67310000D01*
X83032600Y-67538600D02*
X81686400Y-67335400D01*
X83845400Y-66954400D02*
X83032600Y-67538600D01*
X83997800Y-65989200D02*
X83845400Y-66954400D01*
X82321400Y-64236600D02*
X83997800Y-65989200D01*
X89916000Y-29083000D02*
X89585800Y-29362400D01*
X91363800Y-28092400D02*
X89916000Y-29083000D01*
X81559400Y-62534800D02*
X82321400Y-64236600D01*
X81915000Y-60960000D02*
X81559400Y-62534800D01*
X82804000Y-57226200D02*
X81915000Y-60960000D01*
X81915000Y-54610000D02*
X82804000Y-57226200D01*
X81280000Y-50165000D02*
X81915000Y-54610000D01*
X81280000Y-48260000D02*
X81280000Y-50165000D01*
X81280000Y-44450000D02*
X81280000Y-48260000D01*
X81280000Y-43180000D02*
X81280000Y-44450000D01*
X81915000Y-40640000D02*
X81280000Y-43180000D01*
X83185000Y-37465000D02*
X81915000Y-40640000D01*
X84455000Y-34925000D02*
X83185000Y-37465000D01*
X86461600Y-32461200D02*
X84455000Y-34925000D01*
X89585800Y-29362400D02*
X86461600Y-32461200D01*
X94005400Y-26873200D02*
X91363800Y-28092400D01*
X97155000Y-26035000D02*
X94005400Y-26873200D01*
X102844600Y-25552400D02*
X97155000Y-26035000D01*
X103479600Y-25501600D02*
X102844600Y-25552400D01*
X104775000Y-25400000D02*
X103479600Y-25501600D01*
X106045000Y-25400000D02*
X104775000Y-25400000D01*
X107315000Y-25400000D02*
X106045000Y-25400000D01*
X108534200Y-25552400D02*
X107315000Y-25400000D01*
X111125000Y-26035000D02*
X108534200Y-25552400D01*
X113665000Y-26670000D02*
X111125000Y-26035000D01*
X115570000Y-27305000D02*
X113665000Y-26670000D01*
X118110000Y-28575000D02*
X115570000Y-27305000D01*
X120015000Y-29845000D02*
X118110000Y-28575000D01*
X121920000Y-31115000D02*
X120015000Y-29845000D01*
X123190000Y-32385000D02*
X121920000Y-31115000D01*
X124307600Y-33731200D02*
X123190000Y-32385000D01*
X126441200Y-37414200D02*
X124307600Y-33731200D01*
X127533400Y-41325800D02*
X126441200Y-37414200D01*
X127939800Y-47599600D02*
X127533400Y-41325800D01*
X127584200Y-52146200D02*
X127939800Y-47599600D01*
X126949200Y-60121800D02*
X126365000Y-56515000D01*
X127050800Y-62611000D02*
X127279400Y-61671200D01*
D12*
X77698600Y-85725000D02*
X77811321Y-85813537D01*
X77811321Y-85813537D02*
X77927008Y-85904076D01*
X77927008Y-85904076D02*
X78043397Y-85994837D01*
X78043397Y-85994837D02*
X78162667Y-86087519D01*
X78162667Y-86087519D02*
X78282636Y-86180430D01*
X78282636Y-86180430D02*
X78401245Y-86271996D01*
X78401245Y-86271996D02*
X78522788Y-86365548D01*
X78522788Y-86365548D02*
X78639002Y-86454760D01*
X78639002Y-86454760D02*
X78758326Y-86546140D01*
X78758326Y-86546140D02*
X78884856Y-86642833D01*
X78884856Y-86642833D02*
X78998367Y-86729426D01*
X78998367Y-86729426D02*
X79127355Y-86827693D01*
X79127355Y-86827693D02*
X79263737Y-86931488D01*
X79263737Y-86931488D02*
X79407628Y-87040942D01*
X79407628Y-87040942D02*
X79527312Y-87131985D01*
X79527312Y-87131985D02*
X79654934Y-87229120D01*
X79654934Y-87229120D02*
X79782691Y-87326458D01*
X79782691Y-87326458D02*
X79910765Y-87424184D01*
X79910765Y-87424184D02*
X80039333Y-87522484D01*
X80039333Y-87522484D02*
X80164530Y-87618435D01*
X80164530Y-87618435D02*
X80278294Y-87705856D01*
X80278294Y-87705856D02*
X80396941Y-87797290D01*
X80396941Y-87797290D02*
X80516554Y-87889769D01*
X80516554Y-87889769D02*
X80633088Y-87980181D01*
X80633088Y-87980181D02*
X80750768Y-88071820D01*
X80750768Y-88071820D02*
X80869721Y-88164813D01*
X80869721Y-88164813D02*
X80983578Y-88254178D01*
X80983578Y-88254178D02*
X81096600Y-88343248D01*
X81096600Y-88343248D02*
X81208802Y-88432037D01*
X81208802Y-88432037D02*
X81324684Y-88524124D01*
X81324684Y-88524124D02*
X81439881Y-88616067D01*
X81439881Y-88616067D02*
X81552082Y-88706002D01*
X81552082Y-88706002D02*
X81663524Y-88795711D01*
X81663524Y-88795711D02*
X81776556Y-88887086D01*
X81776556Y-88887086D02*
X81891255Y-88980206D01*
X81891255Y-88980206D02*
X82007696Y-89075150D01*
X82007696Y-89075150D02*
X82042000Y-89103200D01*
X74472800Y-83159600D02*
X74585296Y-83254057D01*
X74585296Y-83254057D02*
X74694334Y-83347123D01*
X74694334Y-83347123D02*
X74803659Y-83442189D01*
X74803659Y-83442189D02*
X74911883Y-83538293D01*
X74911883Y-83538293D02*
X75017087Y-83633822D01*
X75017087Y-83633822D02*
X75121994Y-83731140D01*
X75121994Y-83731140D02*
X75227239Y-83830341D01*
X75227239Y-83830341D02*
X75330933Y-83928405D01*
X75330933Y-83928405D02*
X75436323Y-84026647D01*
X75436323Y-84026647D02*
X75544422Y-84124401D01*
X75544422Y-84124401D02*
X75652847Y-84218816D01*
X75652847Y-84218816D02*
X75762435Y-84310779D01*
X75762435Y-84310779D02*
X75873366Y-84400903D01*
X75873366Y-84400903D02*
X75985784Y-84489789D01*
X75985784Y-84489789D02*
X76099916Y-84578033D01*
X76099916Y-84578033D02*
X76218228Y-84667827D01*
X76218228Y-84667827D02*
X76336536Y-84756241D01*
X76336536Y-84756241D02*
X76452652Y-84841928D01*
X76452652Y-84841928D02*
X76568886Y-84926810D01*
X76568886Y-84926810D02*
X76691229Y-85015348D01*
X76691229Y-85015348D02*
X76810367Y-85100898D01*
X76810367Y-85100898D02*
X76931487Y-85187289D01*
X76931487Y-85187289D02*
X77049494Y-85270978D01*
X77049494Y-85270978D02*
X77167680Y-85354372D01*
X77167680Y-85354372D02*
X77288595Y-85439311D01*
X77288595Y-85439311D02*
X77408563Y-85523248D01*
X77408563Y-85523248D02*
X77530403Y-85608189D01*
X77530403Y-85608189D02*
X77650119Y-85691380D01*
X77650119Y-85691380D02*
X77698600Y-85725000D01*
X70637400Y-65633600D02*
X70710685Y-65762351D01*
X70710685Y-65762351D02*
X70786210Y-65893062D01*
X70786210Y-65893062D02*
X70862690Y-66022944D01*
X70862690Y-66022944D02*
X70945202Y-66159728D01*
X70945202Y-66159728D02*
X71023306Y-66285486D01*
X71023306Y-66285486D02*
X71102295Y-66408470D01*
X71102295Y-66408470D02*
X71183653Y-66530230D01*
X71183653Y-66530230D02*
X71267707Y-66650319D01*
X71267707Y-66650319D02*
X71356074Y-66769892D01*
X71356074Y-66769892D02*
X71444433Y-66882306D01*
X71444433Y-66882306D02*
X71536339Y-66991499D01*
X71536339Y-66991499D02*
X71632423Y-67097260D01*
X71632423Y-67097260D02*
X71732118Y-67198163D01*
X71732118Y-67198163D02*
X71836447Y-67294593D01*
X71836447Y-67294593D02*
X71947577Y-67387718D01*
X71947577Y-67387718D02*
X72062542Y-67474565D01*
X72062542Y-67474565D02*
X72182668Y-67556092D01*
X72182668Y-67556092D02*
X72307422Y-67631980D01*
X72307422Y-67631980D02*
X72438111Y-67703142D01*
X72438111Y-67703142D02*
X72573986Y-67769366D01*
X72573986Y-67769366D02*
X72713995Y-67830558D01*
X72713995Y-67830558D02*
X72859677Y-67887812D01*
X72859677Y-67887812D02*
X73009729Y-67941030D01*
X73009729Y-67941030D02*
X73161391Y-67989840D01*
X73161391Y-67989840D02*
X73318715Y-68036045D01*
X73318715Y-68036045D02*
X73478192Y-68079028D01*
X73478192Y-68079028D02*
X73639354Y-68119169D01*
X73639354Y-68119169D02*
X73804320Y-68157381D01*
X73804320Y-68157381D02*
X73903200Y-68179092D01*
X73903200Y-68179092D02*
X74070502Y-68213366D01*
X74070502Y-68213366D02*
X74242379Y-68244892D01*
X74242379Y-68244892D02*
X74415400Y-68272818D01*
X74415400Y-68272818D02*
X74594197Y-68297647D01*
X74594197Y-68297647D02*
X74773979Y-68318494D01*
X74773979Y-68318494D02*
X74960158Y-68335773D01*
X74960158Y-68335773D02*
X75153159Y-68349119D01*
X75153159Y-68349119D02*
X75344514Y-68357847D01*
X75344514Y-68357847D02*
X75543242Y-68362279D01*
X75543242Y-68362279D02*
X75747664Y-68362052D01*
X75747664Y-68362052D02*
X75948626Y-68357246D01*
X75948626Y-68357246D02*
X76142108Y-68348471D01*
X76142108Y-68348471D02*
X76330604Y-68336151D01*
X76330604Y-68336151D02*
X76515282Y-68320600D01*
X76515282Y-68320600D02*
X76697407Y-68302018D01*
X76697407Y-68302018D02*
X76876737Y-68280683D01*
X76876737Y-68280683D02*
X77053022Y-68256887D01*
X77053022Y-68256887D02*
X77227677Y-68230658D01*
X77227677Y-68230658D02*
X77403939Y-68201608D01*
X77403939Y-68201608D02*
X77574841Y-68171069D01*
X77574841Y-68171069D02*
X77745317Y-68138360D01*
X77745317Y-68138360D02*
X77915256Y-68103608D01*
X77915256Y-68103608D02*
X78082709Y-68067352D01*
X78082709Y-68067352D02*
X78247461Y-68029802D01*
X78247461Y-68029802D02*
X78411191Y-67990704D01*
X78411191Y-67990704D02*
X78573771Y-67950190D01*
X78573771Y-67950190D02*
X78735070Y-67908392D01*
X78735070Y-67908392D02*
X78892963Y-67865983D01*
X78892963Y-67865983D02*
X79051265Y-67822036D01*
X79051265Y-67822036D02*
X79207872Y-67777198D01*
X79207872Y-67777198D02*
X79362648Y-67731602D01*
X79362648Y-67731602D02*
X79521774Y-67683440D01*
X79521774Y-67683440D02*
X79674682Y-67635969D01*
X79674682Y-67635969D02*
X79831891Y-67585994D01*
X79831891Y-67585994D02*
X79989127Y-67534863D01*
X79989127Y-67534863D02*
X80139643Y-67484873D01*
X80139643Y-67484873D02*
X80289886Y-67433990D01*
X80289886Y-67433990D02*
X80446657Y-67379884D01*
X80446657Y-67379884D02*
X80603212Y-67324851D01*
X80603212Y-67324851D02*
X80645000Y-67310000D01*
X116535200Y-109194600D02*
X116717192Y-109217948D01*
X116717192Y-109217948D02*
X116908544Y-109234632D01*
X116908544Y-109234632D02*
X117098426Y-109245110D01*
X117098426Y-109245110D02*
X117294678Y-109250873D01*
X117294678Y-109250873D02*
X117493462Y-109252382D01*
X117493462Y-109252382D02*
X117693031Y-109250182D01*
X117693031Y-109250182D02*
X117890636Y-109244830D01*
X117890636Y-109244830D02*
X118084790Y-109236847D01*
X118084790Y-109236847D02*
X118279243Y-109226420D01*
X118279243Y-109226420D02*
X118468038Y-109214173D01*
X118468038Y-109214173D02*
X118655409Y-109200104D01*
X118655409Y-109200104D02*
X118840738Y-109184438D01*
X118840738Y-109184438D02*
X119028870Y-109166860D01*
X119028870Y-109166860D02*
X119214022Y-109147992D01*
X119214022Y-109147992D02*
X119431712Y-109123910D01*
X119431712Y-109123910D02*
X119623793Y-109101024D01*
X119623793Y-109101024D02*
X119823014Y-109075719D01*
X119823014Y-109075719D02*
X120003693Y-109051420D01*
X120003693Y-109051420D02*
X120182334Y-109026159D01*
X120182334Y-109026159D02*
X120358678Y-109000026D01*
X120358678Y-109000026D02*
X120538197Y-108972217D01*
X120538197Y-108972217D02*
X120717823Y-108943170D01*
X120717823Y-108943170D02*
X120894489Y-108913411D01*
X120894489Y-108913411D02*
X121070827Y-108882516D01*
X121070827Y-108882516D02*
X121240968Y-108851569D01*
X121240968Y-108851569D02*
X121410412Y-108819614D01*
X121410412Y-108819614D02*
X121578963Y-108786687D01*
X121578963Y-108786687D02*
X121746431Y-108752809D01*
X121746431Y-108752809D02*
X121929161Y-108714480D01*
X121929161Y-108714480D02*
X122108726Y-108675376D01*
X122108726Y-108675376D02*
X122283571Y-108635873D01*
X122283571Y-108635873D02*
X122454879Y-108595728D01*
X122454879Y-108595728D02*
X122629018Y-108553376D01*
X122629018Y-108553376D02*
X122790040Y-108512745D01*
X122790040Y-108512745D02*
X122949630Y-108470988D01*
X122949630Y-108470988D02*
X123107499Y-108428118D01*
X123107499Y-108428118D02*
X123264561Y-108383801D01*
X123264561Y-108383801D02*
X123419237Y-108338391D01*
X123419237Y-108338391D02*
X123573506Y-108291184D01*
X123573506Y-108291184D02*
X123727941Y-108241803D01*
X123727941Y-108241803D02*
X123881849Y-108190222D01*
X123881849Y-108190222D02*
X124034464Y-108136426D01*
X124034464Y-108136426D02*
X124180982Y-108081926D01*
X124180982Y-108081926D02*
X124324859Y-108025225D01*
X124324859Y-108025225D02*
X124468756Y-107964766D01*
X124468756Y-107964766D02*
X124607637Y-107902083D01*
X124607637Y-107902083D02*
X124743476Y-107835604D01*
X124743476Y-107835604D02*
X124877070Y-107763706D01*
X124877070Y-107763706D02*
X125002088Y-107688385D01*
X125002088Y-107688385D02*
X125121613Y-107605604D01*
X125121613Y-107605604D02*
X125234988Y-107510858D01*
X125234988Y-107510858D02*
X125331249Y-107404979D01*
X125331249Y-107404979D02*
X125403343Y-107275779D01*
X125403343Y-107275779D02*
X125409191Y-107258085D01*
X108178600Y-104825800D02*
X108294837Y-104910723D01*
X108294837Y-104910723D02*
X108414065Y-104994978D01*
X108414065Y-104994978D02*
X108533121Y-105076958D01*
X108533121Y-105076958D02*
X108656498Y-105160133D01*
X108656498Y-105160133D02*
X108777679Y-105240384D01*
X108777679Y-105240384D02*
X108900430Y-105320443D01*
X108900430Y-105320443D02*
X109026334Y-105401452D01*
X109026334Y-105401452D02*
X109150514Y-105480387D01*
X109150514Y-105480387D02*
X109275599Y-105559027D01*
X109275599Y-105559027D02*
X109399201Y-105635963D01*
X109399201Y-105635963D02*
X109524469Y-105713219D01*
X109524469Y-105713219D02*
X109649154Y-105789449D01*
X109649154Y-105789449D02*
X109774822Y-105865656D01*
X109774822Y-105865656D02*
X109903228Y-105942913D01*
X109903228Y-105942913D02*
X110034241Y-106021137D01*
X110034241Y-106021137D02*
X110167725Y-106100246D01*
X110167725Y-106100246D02*
X110297128Y-106176390D01*
X110297128Y-106176390D02*
X110424197Y-106250656D01*
X110424197Y-106250656D02*
X110555235Y-106326738D01*
X110555235Y-106326738D02*
X110685766Y-106402031D01*
X110685766Y-106402031D02*
X110813354Y-106475164D01*
X110813354Y-106475164D02*
X110949121Y-106552489D01*
X110949121Y-106552489D02*
X111077097Y-106624918D01*
X111077097Y-106624918D02*
X111206197Y-106697541D01*
X111206197Y-106697541D02*
X111336330Y-106770298D01*
X111336330Y-106770298D02*
X111467407Y-106843137D01*
X111467407Y-106843137D02*
X111599337Y-106915996D01*
X111599337Y-106915996D02*
X111732028Y-106988818D01*
X111732028Y-106988818D02*
X111865391Y-107061552D01*
X111865391Y-107061552D02*
X111999337Y-107134136D01*
X111999337Y-107134136D02*
X112133774Y-107206513D01*
X112133774Y-107206513D02*
X112266197Y-107277342D01*
X112266197Y-107277342D02*
X112413420Y-107355538D01*
X112413420Y-107355538D02*
X112548800Y-107426929D01*
X112548800Y-107426929D02*
X112684305Y-107497884D01*
X112684305Y-107497884D02*
X112819842Y-107568344D01*
X112819842Y-107568344D02*
X112955320Y-107638252D01*
X112955320Y-107638252D02*
X113090652Y-107707552D01*
X113090652Y-107707552D02*
X113235384Y-107781066D01*
X113235384Y-107781066D02*
X113370123Y-107848928D01*
X113370123Y-107848928D02*
X113504436Y-107916007D01*
X113504436Y-107916007D02*
X113638234Y-107982248D01*
X113638234Y-107982248D02*
X113778542Y-108051066D01*
X113778542Y-108051066D02*
X113913358Y-108116545D01*
X113913358Y-108116545D02*
X114054377Y-108184334D01*
X114054377Y-108184334D02*
X114192051Y-108249792D01*
X114192051Y-108249792D02*
X114330937Y-108315065D01*
X114330937Y-108315065D02*
X114470864Y-108380021D01*
X114470864Y-108380021D02*
X114616165Y-108446564D01*
X114616165Y-108446564D02*
X114766477Y-108514374D01*
X114766477Y-108514374D02*
X114908201Y-108577292D01*
X114908201Y-108577292D02*
X115058810Y-108642994D01*
X115058810Y-108642994D02*
X115204846Y-108705476D01*
X115204846Y-108705476D02*
X115346263Y-108764740D01*
X115346263Y-108764740D02*
X115489169Y-108823285D01*
X115489169Y-108823285D02*
X115633150Y-108880781D01*
X115633150Y-108880781D02*
X115779703Y-108937616D01*
X115779703Y-108937616D02*
X115926272Y-108992569D01*
X115926272Y-108992569D02*
X116075993Y-109046518D01*
X116075993Y-109046518D02*
X116227874Y-109098684D01*
X116227874Y-109098684D02*
X116380816Y-109148205D01*
X116380816Y-109148205D02*
X116535200Y-109194600D01*
X103936800Y-101320600D02*
X104043512Y-101422415D01*
X104043512Y-101422415D02*
X104146690Y-101520526D01*
X104146690Y-101520526D02*
X104254867Y-101622862D01*
X104254867Y-101622862D02*
X104360338Y-101722046D01*
X104360338Y-101722046D02*
X104466880Y-101821612D01*
X104466880Y-101821612D02*
X104574253Y-101921297D01*
X104574253Y-101921297D02*
X104679349Y-102018223D01*
X104679349Y-102018223D02*
X104786065Y-102115978D01*
X104786065Y-102115978D02*
X104895603Y-102215619D01*
X104895603Y-102215619D02*
X105001778Y-102311516D01*
X105001778Y-102311516D02*
X105109610Y-102408219D01*
X105109610Y-102408219D02*
X105216732Y-102503583D01*
X105216732Y-102503583D02*
X105326878Y-102600910D01*
X105326878Y-102600910D02*
X105433452Y-102694369D01*
X105433452Y-102694369D02*
X105542511Y-102789272D01*
X105542511Y-102789272D02*
X105653947Y-102885473D01*
X105653947Y-102885473D02*
X105765366Y-102980869D01*
X105765366Y-102980869D02*
X105874205Y-103073283D01*
X105874205Y-103073283D02*
X105987257Y-103168455D01*
X105987257Y-103168455D02*
X106097317Y-103260296D01*
X106097317Y-103260296D02*
X106208976Y-103352640D01*
X106208976Y-103352640D02*
X106322156Y-103445377D01*
X106322156Y-103445377D02*
X106436777Y-103538387D01*
X106436777Y-103538387D02*
X106547690Y-103627507D01*
X106547690Y-103627507D02*
X106664902Y-103720727D01*
X106664902Y-103720727D02*
X106778147Y-103809842D01*
X106778147Y-103809842D02*
X106897644Y-103902837D01*
X106897644Y-103902837D02*
X107011614Y-103990519D01*
X107011614Y-103990519D02*
X107129108Y-104079853D01*
X107129108Y-104079853D02*
X107246108Y-104167721D01*
X107246108Y-104167721D02*
X107363861Y-104255033D01*
X107363861Y-104255033D02*
X107487698Y-104345607D01*
X107487698Y-104345607D02*
X107610845Y-104434375D01*
X107610845Y-104434375D02*
X107731842Y-104520297D01*
X107731842Y-104520297D02*
X107852635Y-104604757D01*
X107852635Y-104604757D02*
X107973832Y-104688135D01*
X107973832Y-104688135D02*
X108093301Y-104768954D01*
X108093301Y-104768954D02*
X108178600Y-104825800D01*
X134129194Y-80891188D02*
X134056752Y-81019539D01*
X134056752Y-81019539D02*
X133985365Y-81150572D01*
X133985365Y-81150572D02*
X133916530Y-81282656D01*
X133916530Y-81282656D02*
X133850148Y-81417493D01*
X133850148Y-81417493D02*
X133787250Y-81555127D01*
X133787250Y-81555127D02*
X133728463Y-81696574D01*
X133728463Y-81696574D02*
X133673358Y-81843846D01*
X133673358Y-81843846D02*
X133620566Y-81992973D01*
X133620566Y-81992973D02*
X133565207Y-82138125D01*
X133565207Y-82138125D02*
X133503520Y-82276459D01*
X133503520Y-82276459D02*
X133434976Y-82409671D01*
X133434976Y-82409671D02*
X133361392Y-82538561D01*
X133361392Y-82538561D02*
X133285083Y-82662917D01*
X133285083Y-82662917D02*
X133206447Y-82784684D01*
X133206447Y-82784684D02*
X133124689Y-82906570D01*
X133124689Y-82906570D02*
X133042315Y-83025874D01*
X133042315Y-83025874D02*
X133019800Y-83058000D01*
X134916839Y-77764259D02*
X134912989Y-77961058D01*
X134912989Y-77961058D02*
X134908308Y-78157500D01*
X134908308Y-78157500D02*
X134902359Y-78351722D01*
X134902359Y-78351722D02*
X134894478Y-78544026D01*
X134894478Y-78544026D02*
X134883779Y-78734090D01*
X134883779Y-78734090D02*
X134869133Y-78920984D01*
X134869133Y-78920984D02*
X134849164Y-79103738D01*
X134849164Y-79103738D02*
X134822304Y-79281840D01*
X134822304Y-79281840D02*
X134787581Y-79452798D01*
X134787581Y-79452798D02*
X134745630Y-79612360D01*
X134745630Y-79612360D02*
X134695213Y-79767291D01*
X134695213Y-79767291D02*
X134639320Y-79912530D01*
X134639320Y-79912530D02*
X134577597Y-80053976D01*
X134577597Y-80053976D02*
X134512014Y-80191064D01*
X134512014Y-80191064D02*
X134443829Y-80324622D01*
X134443829Y-80324622D02*
X134372804Y-80457593D01*
X134372804Y-80457593D02*
X134301627Y-80586827D01*
X134301627Y-80586827D02*
X134228923Y-80716209D01*
X134228923Y-80716209D02*
X134155501Y-80845215D01*
X134155501Y-80845215D02*
X134129194Y-80891188D01*
X72567800Y-77851000D02*
X72583071Y-78042132D01*
X72583071Y-78042132D02*
X72598055Y-78246163D01*
X72598055Y-78246163D02*
X72612260Y-78437185D01*
X72612260Y-78437185D02*
X72627454Y-78624060D01*
X72627454Y-78624060D02*
X72644709Y-78809232D01*
X72644709Y-78809232D02*
X72664714Y-78992408D01*
X72664714Y-78992408D02*
X72687780Y-79171768D01*
X72687780Y-79171768D02*
X72714664Y-79350032D01*
X72714664Y-79350032D02*
X72744831Y-79522247D01*
X72744831Y-79522247D02*
X72778785Y-79691169D01*
X72778785Y-79691169D02*
X72817296Y-79859776D01*
X72817296Y-79859776D02*
X72858769Y-80021296D01*
X72858769Y-80021296D02*
X72903682Y-80178658D01*
X72903682Y-80178658D02*
X72951753Y-80331589D01*
X72951753Y-80331589D02*
X73003878Y-80483290D01*
X73003878Y-80483290D02*
X73058650Y-80630116D01*
X73058650Y-80630116D02*
X73117113Y-80775371D01*
X73117113Y-80775371D02*
X73177533Y-80915324D01*
X73177533Y-80915324D02*
X73228200Y-81026000D01*
X73228200Y-81026000D02*
X73308008Y-81147255D01*
X73308008Y-81147255D02*
X73380093Y-81277140D01*
X73380093Y-81277140D02*
X73444546Y-81413047D01*
X73444546Y-81413047D02*
X73505489Y-81556027D01*
X73505489Y-81556027D02*
X73564688Y-81699302D01*
X73564688Y-81699302D02*
X73625190Y-81840631D01*
X73625190Y-81840631D02*
X73688321Y-81977849D01*
X73688321Y-81977849D02*
X73755860Y-82112774D01*
X73755860Y-82112774D02*
X73827280Y-82244057D01*
X73827280Y-82244057D02*
X73901541Y-82370572D01*
X73901541Y-82370572D02*
X73978831Y-82493700D01*
X73978831Y-82493700D02*
X74058965Y-82614037D01*
X74058965Y-82614037D02*
X74142606Y-82733248D01*
X74142606Y-82733248D02*
X74229327Y-82851236D01*
X74229327Y-82851236D02*
X74317529Y-82966404D01*
X74317529Y-82966404D02*
X74408011Y-83080309D01*
X74408011Y-83080309D02*
X74472800Y-83159600D01*
X73253600Y-73787000D02*
X73224769Y-73960681D01*
X73224769Y-73960681D02*
X73194881Y-74133795D01*
X73194881Y-74133795D02*
X73164328Y-74306781D01*
X73164328Y-74306781D02*
X73132892Y-74482449D01*
X73132892Y-74482449D02*
X73098058Y-74675759D01*
X73098058Y-74675759D02*
X73062440Y-74873003D01*
X73062440Y-74873003D02*
X73031870Y-75042550D01*
X73031870Y-75042550D02*
X72998847Y-75226447D01*
X72998847Y-75226447D02*
X72967675Y-75401091D01*
X72967675Y-75401091D02*
X72936477Y-75577192D01*
X72936477Y-75577192D02*
X72906142Y-75749938D01*
X72906142Y-75749938D02*
X72875316Y-75927263D01*
X72875316Y-75927263D02*
X72844845Y-76104524D01*
X72844845Y-76104524D02*
X72815608Y-76276703D01*
X72815608Y-76276703D02*
X72786147Y-76452438D01*
X72786147Y-76452438D02*
X72755754Y-76636376D01*
X72755754Y-76636376D02*
X72727614Y-76809272D01*
X72727614Y-76809272D02*
X72698666Y-76989973D01*
X72698666Y-76989973D02*
X72670536Y-77168608D01*
X72670536Y-77168608D02*
X72642493Y-77349920D01*
X72642493Y-77349920D02*
X72615944Y-77524811D01*
X72615944Y-77524811D02*
X72589475Y-77702596D01*
X72589475Y-77702596D02*
X72567800Y-77851000D01*
X87096600Y-91871800D02*
X87219921Y-91961484D01*
X87219921Y-91961484D02*
X87339074Y-92047746D01*
X87339074Y-92047746D02*
X87458012Y-92133483D01*
X87458012Y-92133483D02*
X87576714Y-92218696D01*
X87576714Y-92218696D02*
X87695149Y-92303383D01*
X87695149Y-92303383D02*
X87813298Y-92387546D01*
X87813298Y-92387546D02*
X87931131Y-92471181D01*
X87931131Y-92471181D02*
X88048626Y-92554290D01*
X88048626Y-92554290D02*
X88173552Y-92642360D01*
X88173552Y-92642360D02*
X88298034Y-92729828D01*
X88298034Y-92729828D02*
X88425911Y-92819401D01*
X88425911Y-92819401D02*
X88549400Y-92905648D01*
X88549400Y-92905648D02*
X88672352Y-92991294D01*
X88672352Y-92991294D02*
X88794737Y-93076336D01*
X88794737Y-93076336D02*
X88916528Y-93160776D01*
X88916528Y-93160776D02*
X89037693Y-93244613D01*
X89037693Y-93244613D02*
X89161954Y-93330434D01*
X89161954Y-93330434D02*
X89292949Y-93420755D01*
X89292949Y-93420755D02*
X89411961Y-93502701D01*
X89411961Y-93502701D02*
X89552312Y-93599226D01*
X89552312Y-93599226D02*
X89676947Y-93684860D01*
X89676947Y-93684860D02*
X89804282Y-93772301D01*
X89804282Y-93772301D02*
X89944979Y-93868882D01*
X89944979Y-93868882D02*
X90102106Y-93976749D01*
X90102106Y-93976749D02*
X90222327Y-94059312D01*
X90222327Y-94059312D02*
X90348434Y-94145985D01*
X90348434Y-94145985D02*
X90473283Y-94231884D01*
X90473283Y-94231884D02*
X90596825Y-94317009D01*
X90596825Y-94317009D02*
X90719021Y-94401358D01*
X90719021Y-94401358D02*
X90839827Y-94484931D01*
X90839827Y-94484931D02*
X90959198Y-94567731D01*
X90959198Y-94567731D02*
X91086846Y-94656549D01*
X91086846Y-94656549D02*
X91206301Y-94739970D01*
X91206301Y-94739970D02*
X91333577Y-94829229D01*
X91333577Y-94829229D02*
X91458858Y-94917524D01*
X91458858Y-94917524D02*
X91579030Y-95002685D01*
X91579030Y-95002685D02*
X91700200Y-95089077D01*
X91700200Y-95089077D02*
X91819199Y-95174501D01*
X91819199Y-95174501D02*
X91935969Y-95258958D01*
X91935969Y-95258958D02*
X92056114Y-95346596D01*
X92056114Y-95346596D02*
X92173670Y-95433165D01*
X92173670Y-95433165D02*
X92288566Y-95518663D01*
X92288566Y-95518663D02*
X92404690Y-95606085D01*
X92404690Y-95606085D02*
X92520377Y-95694326D01*
X92520377Y-95694326D02*
X92635330Y-95783300D01*
X92635330Y-95783300D02*
X92749238Y-95872927D01*
X92749238Y-95872927D02*
X92864100Y-95965000D01*
X92864100Y-95965000D02*
X92977068Y-96057489D01*
X92977068Y-96057489D02*
X93087767Y-96150301D01*
X93087767Y-96150301D02*
X93195798Y-96243339D01*
X93195798Y-96243339D02*
X93302697Y-96338264D01*
X93302697Y-96338264D02*
X93409538Y-96436600D01*
X93409538Y-96436600D02*
X93511721Y-96534656D01*
X93511721Y-96534656D02*
X93548200Y-96570800D01*
X82042000Y-89103200D02*
X82166331Y-89189296D01*
X82166331Y-89189296D02*
X82288991Y-89272869D01*
X82288991Y-89272869D02*
X82412106Y-89355398D01*
X82412106Y-89355398D02*
X82532831Y-89435024D01*
X82532831Y-89435024D02*
X82659319Y-89517097D01*
X82659319Y-89517097D02*
X82781685Y-89595207D01*
X82781685Y-89595207D02*
X82908149Y-89674635D01*
X82908149Y-89674635D02*
X83036361Y-89753864D01*
X83036361Y-89753864D02*
X83161787Y-89830148D01*
X83161787Y-89830148D02*
X83287080Y-89905195D01*
X83287080Y-89905195D02*
X83423592Y-89985706D01*
X83423592Y-89985706D02*
X83551183Y-90059832D01*
X83551183Y-90059832D02*
X83685008Y-90136473D01*
X83685008Y-90136473D02*
X83814183Y-90209436D01*
X83814183Y-90209436D02*
X83943094Y-90281316D01*
X83943094Y-90281316D02*
X84074073Y-90353450D01*
X84074073Y-90353450D02*
X84204886Y-90424647D01*
X84204886Y-90424647D02*
X84337925Y-90496244D01*
X84337925Y-90496244D02*
X84468431Y-90565741D01*
X84468431Y-90565741D02*
X84601219Y-90635755D01*
X84601219Y-90635755D02*
X84736395Y-90706355D01*
X84736395Y-90706355D02*
X84868914Y-90774960D01*
X84868914Y-90774960D02*
X85006451Y-90845576D01*
X85006451Y-90845576D02*
X85141247Y-90914247D01*
X85141247Y-90914247D02*
X85283961Y-90986422D01*
X85283961Y-90986422D02*
X85426690Y-91058104D01*
X85426690Y-91058104D02*
X85560895Y-91125091D01*
X85560895Y-91125091D02*
X85697536Y-91192910D01*
X85697536Y-91192910D02*
X85836682Y-91261612D01*
X85836682Y-91261612D02*
X85978408Y-91331247D01*
X85978408Y-91331247D02*
X86122786Y-91401864D01*
X86122786Y-91401864D02*
X86260615Y-91469006D01*
X86260615Y-91469006D02*
X86407188Y-91540137D01*
X86407188Y-91540137D02*
X86546894Y-91607709D01*
X86546894Y-91607709D02*
X86682544Y-91673124D01*
X86682544Y-91673124D02*
X86820489Y-91739468D01*
X86820489Y-91739468D02*
X86967511Y-91810002D01*
X86967511Y-91810002D02*
X87096600Y-91871800D01*
X124917200Y-105537000D02*
X124729441Y-105550453D01*
X124729441Y-105550453D02*
X124530281Y-105552482D01*
X124530281Y-105552482D02*
X124340848Y-105540179D01*
X124340848Y-105540179D02*
X124165238Y-105515066D01*
X124165238Y-105515066D02*
X124000436Y-105479599D01*
X124000436Y-105479599D02*
X123841123Y-105435475D01*
X123841123Y-105435475D02*
X123687284Y-105385257D01*
X123687284Y-105385257D02*
X123540452Y-105331905D01*
X123540452Y-105331905D02*
X123396499Y-105275783D01*
X123396499Y-105275783D02*
X123253439Y-105217348D01*
X123253439Y-105217348D02*
X123109149Y-105156592D01*
X123109149Y-105156592D02*
X122959731Y-105092456D01*
X122959731Y-105092456D02*
X122817265Y-105030650D01*
X122817265Y-105030650D02*
X122659676Y-104961969D01*
X122659676Y-104961969D02*
X122580400Y-104927400D01*
X125409191Y-107258085D02*
X125484553Y-107131784D01*
X125484553Y-107131784D02*
X125556197Y-106999669D01*
X125556197Y-106999669D02*
X125622952Y-106860967D01*
X125622952Y-106860967D02*
X125681565Y-106718569D01*
X125681565Y-106718569D02*
X125731323Y-106567309D01*
X125731323Y-106567309D02*
X125768045Y-106403204D01*
X125768045Y-106403204D02*
X125782168Y-106217139D01*
X125782168Y-106217139D02*
X125758405Y-106040783D01*
X125758405Y-106040783D02*
X125699677Y-105898448D01*
X125699677Y-105898448D02*
X125611717Y-105784634D01*
X125611717Y-105784634D02*
X125496677Y-105694176D01*
X125496677Y-105694176D02*
X125362152Y-105627220D01*
X125362152Y-105627220D02*
X125208893Y-105579423D01*
X125208893Y-105579423D02*
X125037315Y-105548548D01*
X125037315Y-105548548D02*
X124917200Y-105537000D01*
X117001956Y-100557569D02*
X116910278Y-100441373D01*
X116910278Y-100441373D02*
X116817638Y-100325011D01*
X116817638Y-100325011D02*
X116726818Y-100211969D01*
X116726818Y-100211969D02*
X116632611Y-100095808D01*
X116632611Y-100095808D02*
X116540387Y-99983177D01*
X116540387Y-99983177D02*
X116445163Y-99868012D01*
X116445163Y-99868012D02*
X116352087Y-99756560D01*
X116352087Y-99756560D02*
X116259945Y-99647303D01*
X116259945Y-99647303D02*
X116167627Y-99538916D01*
X116167627Y-99538916D02*
X116073023Y-99428946D01*
X116073023Y-99428946D02*
X115978624Y-99320315D01*
X115978624Y-99320315D02*
X115883500Y-99211936D01*
X115883500Y-99211936D02*
X115786833Y-99102879D01*
X115786833Y-99102879D02*
X115691943Y-98996843D01*
X115691943Y-98996843D02*
X115594963Y-98889452D01*
X115594963Y-98889452D02*
X115493469Y-98778032D01*
X115493469Y-98778032D02*
X115396334Y-98672217D01*
X115396334Y-98672217D02*
X115296355Y-98563994D01*
X115296355Y-98563994D02*
X115200026Y-98460207D01*
X115200026Y-98460207D02*
X115078146Y-98329226D01*
X115078146Y-98329226D02*
X114980636Y-98224346D01*
X114980636Y-98224346D02*
X114882732Y-98118540D01*
X114882732Y-98118540D02*
X114784877Y-98011782D01*
X114784877Y-98011782D02*
X114688835Y-97905399D01*
X114688835Y-97905399D02*
X114594797Y-97798936D01*
X114594797Y-97798936D02*
X114500520Y-97688954D01*
X114500520Y-97688954D02*
X114408817Y-97577684D01*
X114408817Y-97577684D02*
X114319791Y-97464209D01*
X114319791Y-97464209D02*
X114231462Y-97344594D01*
X114231462Y-97344594D02*
X114148063Y-97223266D01*
X114148063Y-97223266D02*
X114069244Y-97098981D01*
X114069244Y-97098981D02*
X113995736Y-96972434D01*
X113995736Y-96972434D02*
X113925992Y-96840603D01*
X113925992Y-96840603D02*
X113860268Y-96703580D01*
X113860268Y-96703580D02*
X113798711Y-96561753D01*
X113798711Y-96561753D02*
X113792000Y-96545400D01*
X122580400Y-104927400D02*
X122419630Y-104887668D01*
X122419630Y-104887668D02*
X122269228Y-104837117D01*
X122269228Y-104837117D02*
X122125393Y-104779301D01*
X122125393Y-104779301D02*
X121986888Y-104716429D01*
X121986888Y-104716429D02*
X121851273Y-104649059D01*
X121851273Y-104649059D02*
X121719857Y-104579004D01*
X121719857Y-104579004D02*
X121591378Y-104506491D01*
X121591378Y-104506491D02*
X121464175Y-104431176D01*
X121464175Y-104431176D02*
X121336257Y-104352228D01*
X121336257Y-104352228D02*
X121213147Y-104273455D01*
X121213147Y-104273455D02*
X121090173Y-104192243D01*
X121090173Y-104192243D02*
X120970299Y-104110808D01*
X120970299Y-104110808D02*
X120848443Y-104025874D01*
X120848443Y-104025874D02*
X120730247Y-103941531D01*
X120730247Y-103941531D02*
X120609033Y-103853139D01*
X120609033Y-103853139D02*
X120490518Y-103764946D01*
X120490518Y-103764946D02*
X120376371Y-103678422D01*
X120376371Y-103678422D02*
X120261060Y-103589502D01*
X120261060Y-103589502D02*
X120144660Y-103498256D01*
X120144660Y-103498256D02*
X120033137Y-103409478D01*
X120033137Y-103409478D02*
X119920763Y-103318720D01*
X119920763Y-103318720D02*
X119807599Y-103226044D01*
X119807599Y-103226044D02*
X119693713Y-103131508D01*
X119693713Y-103131508D02*
X119579166Y-103035168D01*
X119579166Y-103035168D02*
X119470102Y-102942293D01*
X119470102Y-102942293D02*
X119360557Y-102847904D01*
X119360557Y-102847904D02*
X119250588Y-102752053D01*
X119250588Y-102752053D02*
X119140249Y-102654789D01*
X119140249Y-102654789D02*
X119034210Y-102560299D01*
X119034210Y-102560299D02*
X118924850Y-102461810D01*
X118924850Y-102461810D02*
X118818372Y-102364918D01*
X118818372Y-102364918D02*
X118708661Y-102264054D01*
X118708661Y-102264054D02*
X118603491Y-102166387D01*
X118603491Y-102166387D02*
X118498274Y-102067721D01*
X118498274Y-102067721D02*
X118386872Y-101962212D01*
X118386872Y-101962212D02*
X118281708Y-101861625D01*
X118281708Y-101861625D02*
X118176641Y-101760174D01*
X118176641Y-101760174D02*
X118071715Y-101657894D01*
X118071715Y-101657894D02*
X117966978Y-101554832D01*
X117966978Y-101554832D02*
X117857867Y-101446432D01*
X117857867Y-101446432D02*
X117746009Y-101334191D01*
X117746009Y-101334191D02*
X117642151Y-101228958D01*
X117642151Y-101228958D02*
X117532597Y-101116875D01*
X117532597Y-101116875D02*
X117429570Y-101010438D01*
X117429570Y-101010438D02*
X117322498Y-100898749D01*
X117322498Y-100898749D02*
X117224973Y-100796040D01*
X117224973Y-100796040D02*
X117123502Y-100688167D01*
X117123502Y-100688167D02*
X117026336Y-100583888D01*
X117026336Y-100583888D02*
X117001956Y-100557569D01*
X103936800Y-101320600D02*
X103804094Y-101388556D01*
X103804094Y-101388556D02*
X103676386Y-101462735D01*
X103676386Y-101462735D02*
X103551389Y-101541844D01*
X103551389Y-101541844D02*
X103431276Y-101622674D01*
X103431276Y-101622674D02*
X103310932Y-101707459D01*
X103310932Y-101707459D02*
X103194297Y-101792562D01*
X103194297Y-101792562D02*
X103078773Y-101879155D01*
X103078773Y-101879155D02*
X102960387Y-101969812D01*
X102960387Y-101969812D02*
X102843844Y-102060569D01*
X102843844Y-102060569D02*
X102729625Y-102150667D01*
X102729625Y-102150667D02*
X102616241Y-102240976D01*
X102616241Y-102240976D02*
X102498004Y-102335843D01*
X102498004Y-102335843D02*
X102384987Y-102426992D01*
X102384987Y-102426992D02*
X102265227Y-102523897D01*
X102265227Y-102523897D02*
X102121318Y-102640547D01*
X102121318Y-102640547D02*
X102008708Y-102731827D01*
X102008708Y-102731827D02*
X101889438Y-102828382D01*
X101889438Y-102828382D02*
X101772343Y-102922951D01*
X101772343Y-102922951D02*
X101653046Y-103018969D01*
X101653046Y-103018969D02*
X101538618Y-103110673D01*
X101538618Y-103110673D02*
X101424635Y-103201571D01*
X101424635Y-103201571D02*
X101308784Y-103293437D01*
X101308784Y-103293437D02*
X101193536Y-103384240D01*
X101193536Y-103384240D02*
X101073990Y-103477764D01*
X101073990Y-103477764D02*
X100960223Y-103566088D01*
X100960223Y-103566088D02*
X100842236Y-103656944D01*
X100842236Y-103656944D02*
X100727782Y-103744321D01*
X100727782Y-103744321D02*
X100611765Y-103832089D01*
X100611765Y-103832089D02*
X100494189Y-103920183D01*
X100494189Y-103920183D02*
X100375055Y-104008536D01*
X100375055Y-104008536D02*
X100254364Y-104097083D01*
X100254364Y-104097083D02*
X100137706Y-104181722D01*
X100137706Y-104181722D02*
X100019635Y-104266417D01*
X100019635Y-104266417D02*
X99895857Y-104354137D01*
X99895857Y-104354137D02*
X99773458Y-104439776D01*
X99773458Y-104439776D02*
X99651082Y-104524289D01*
X99651082Y-104524289D02*
X99618800Y-104546400D01*
X130022600Y-85598000D02*
X129902374Y-85692966D01*
X129902374Y-85692966D02*
X129785252Y-85784975D01*
X129785252Y-85784975D02*
X129662729Y-85880715D01*
X129662729Y-85880715D02*
X129546249Y-85971258D01*
X129546249Y-85971258D02*
X129432991Y-86058879D01*
X129432991Y-86058879D02*
X129314523Y-86150106D01*
X129314523Y-86150106D02*
X129196575Y-86240515D01*
X129196575Y-86240515D02*
X129076414Y-86332217D01*
X129076414Y-86332217D02*
X128954145Y-86425126D01*
X128954145Y-86425126D02*
X128832631Y-86517080D01*
X128832631Y-86517080D02*
X128711937Y-86608058D01*
X128711937Y-86608058D02*
X128594841Y-86696005D01*
X128594841Y-86696005D02*
X128473263Y-86786999D01*
X128473263Y-86786999D02*
X128355410Y-86874917D01*
X128355410Y-86874917D02*
X128238632Y-86961778D01*
X128238632Y-86961778D02*
X128122987Y-87047553D01*
X128122987Y-87047553D02*
X127998204Y-87139868D01*
X127998204Y-87139868D02*
X127874932Y-87230842D01*
X127874932Y-87230842D02*
X127753254Y-87320448D01*
X127753254Y-87320448D02*
X127633250Y-87408657D01*
X127633250Y-87408657D02*
X127515007Y-87495444D01*
X127515007Y-87495444D02*
X127384185Y-87591345D01*
X127384185Y-87591345D02*
X127260517Y-87681926D01*
X127260517Y-87681926D02*
X127111585Y-87790963D01*
X127111585Y-87790963D02*
X126975409Y-87890684D01*
X126975409Y-87890684D02*
X126851453Y-87981530D01*
X126851453Y-87981530D02*
X126730672Y-88070180D01*
X126730672Y-88070180D02*
X126611129Y-88158108D01*
X126611129Y-88158108D02*
X126493146Y-88245151D01*
X126493146Y-88245151D02*
X126377063Y-88331129D01*
X126377063Y-88331129D02*
X126255806Y-88421410D01*
X126255806Y-88421410D02*
X126141366Y-88507183D01*
X126141366Y-88507183D02*
X126026922Y-88593680D01*
X126026922Y-88593680D02*
X125911865Y-88681582D01*
X125911865Y-88681582D02*
X125797589Y-88770120D01*
X125797589Y-88770120D02*
X125685646Y-88858453D01*
X125685646Y-88858453D02*
X125572762Y-88949768D01*
X125572762Y-88949768D02*
X125462565Y-89042111D01*
X125462565Y-89042111D02*
X125450600Y-89052400D01*
X133019800Y-83058000D02*
X132915328Y-83167594D01*
X132915328Y-83167594D02*
X132815573Y-83271648D01*
X132815573Y-83271648D02*
X132716987Y-83373776D01*
X132716987Y-83373776D02*
X132615345Y-83478135D01*
X132615345Y-83478135D02*
X132515365Y-83579620D01*
X132515365Y-83579620D02*
X132415040Y-83679956D01*
X132415040Y-83679956D02*
X132310608Y-83782333D01*
X132310608Y-83782333D02*
X132206510Y-83881660D01*
X132206510Y-83881660D02*
X132101351Y-83978436D01*
X132101351Y-83978436D02*
X131993342Y-84073265D01*
X131993342Y-84073265D02*
X131882914Y-84164829D01*
X131882914Y-84164829D02*
X131769569Y-84253438D01*
X131769569Y-84253438D02*
X131651824Y-84341245D01*
X131651824Y-84341245D02*
X131529509Y-84430167D01*
X131529509Y-84430167D02*
X131411467Y-84515583D01*
X131411467Y-84515583D02*
X131293191Y-84601823D01*
X131293191Y-84601823D02*
X131175100Y-84689052D01*
X131175100Y-84689052D02*
X131059689Y-84775523D01*
X131059689Y-84775523D02*
X130943060Y-84864147D01*
X130943060Y-84864147D02*
X130826928Y-84953560D01*
X130826928Y-84953560D02*
X130713259Y-85042124D01*
X130713259Y-85042124D02*
X130600821Y-85130666D01*
X130600821Y-85130666D02*
X130482869Y-85224464D01*
X130482869Y-85224464D02*
X130368240Y-85316440D01*
X130368240Y-85316440D02*
X130255920Y-85407275D01*
X130255920Y-85407275D02*
X130140154Y-85501583D01*
X130140154Y-85501583D02*
X130025537Y-85595582D01*
X130025537Y-85595582D02*
X130022600Y-85598000D01*
X133872004Y-68179092D02*
X133706363Y-68213832D01*
X133706363Y-68213832D02*
X133529852Y-68248566D01*
X133529852Y-68248566D02*
X133358624Y-68279653D01*
X133358624Y-68279653D02*
X133177758Y-68309348D01*
X133177758Y-68309348D02*
X133002062Y-68334805D01*
X133002062Y-68334805D02*
X132823132Y-68357050D01*
X132823132Y-68357050D02*
X132641482Y-68375651D01*
X132641482Y-68375651D02*
X132453288Y-68390555D01*
X132453288Y-68390555D02*
X132263393Y-68401042D01*
X132263393Y-68401042D02*
X132067303Y-68407088D01*
X132067303Y-68407088D02*
X131864842Y-68408326D01*
X131864842Y-68408326D02*
X131667603Y-68404799D01*
X131667603Y-68404799D02*
X131473046Y-68396934D01*
X131473046Y-68396934D02*
X131284283Y-68385344D01*
X131284283Y-68385344D02*
X131098846Y-68370361D01*
X131098846Y-68370361D02*
X130915566Y-68352257D01*
X130915566Y-68352257D02*
X130734763Y-68331377D01*
X130734763Y-68331377D02*
X130556806Y-68308079D01*
X130556806Y-68308079D02*
X130380428Y-68282472D01*
X130380428Y-68282472D02*
X130207676Y-68255110D01*
X130207676Y-68255110D02*
X130031913Y-68225113D01*
X130031913Y-68225113D02*
X129860402Y-68193868D01*
X129860402Y-68193868D02*
X129688052Y-68160641D01*
X129688052Y-68160641D02*
X129520766Y-68126740D01*
X129520766Y-68126740D02*
X129351225Y-68090830D01*
X129351225Y-68090830D02*
X129181467Y-68053406D01*
X129181467Y-68053406D02*
X129017861Y-68016033D01*
X129017861Y-68016033D02*
X128852552Y-67977047D01*
X128852552Y-67977047D02*
X128689914Y-67937561D01*
X128689914Y-67937561D02*
X128528073Y-67897225D01*
X128528073Y-67897225D02*
X128360446Y-67854404D01*
X128360446Y-67854404D02*
X128196044Y-67811440D01*
X128196044Y-67811440D02*
X128037572Y-67769170D01*
X128037572Y-67769170D02*
X127875925Y-67725234D01*
X127875925Y-67725234D02*
X127718381Y-67681657D01*
X127718381Y-67681657D02*
X127555329Y-67635816D01*
X127555329Y-67635816D02*
X127399276Y-67591272D01*
X127399276Y-67591272D02*
X127304800Y-67564000D01*
X90551000Y-100355400D02*
X90640096Y-100240216D01*
X90640096Y-100240216D02*
X90731466Y-100123449D01*
X90731466Y-100123449D02*
X90821209Y-100010092D01*
X90821209Y-100010092D02*
X90910550Y-99898556D01*
X90910550Y-99898556D02*
X91000617Y-99787428D01*
X91000617Y-99787428D02*
X91092453Y-99675477D01*
X91092453Y-99675477D02*
X91183575Y-99565742D01*
X91183575Y-99565742D02*
X91275035Y-99456926D01*
X91275035Y-99456926D02*
X91371080Y-99344083D01*
X91371080Y-99344083D02*
X91465930Y-99234043D01*
X91465930Y-99234043D02*
X91559529Y-99126781D01*
X91559529Y-99126781D02*
X91656880Y-99016580D01*
X91656880Y-99016580D02*
X91752593Y-98909518D01*
X91752593Y-98909518D02*
X91851385Y-98800278D01*
X91851385Y-98800278D02*
X91949065Y-98693433D01*
X91949065Y-98693433D02*
X92045488Y-98588981D01*
X92045488Y-98588981D02*
X92142246Y-98485045D01*
X92142246Y-98485045D02*
X92243997Y-98376477D01*
X92243997Y-98376477D02*
X92345029Y-98269159D01*
X92345029Y-98269159D02*
X92448043Y-98159872D01*
X92448043Y-98159872D02*
X92549362Y-98052062D01*
X92549362Y-98052062D02*
X92645858Y-97948541D01*
X92645858Y-97948541D02*
X92744166Y-97841520D01*
X92744166Y-97841520D02*
X92840800Y-97733867D01*
X92840800Y-97733867D02*
X92934016Y-97626540D01*
X92934016Y-97626540D02*
X93025621Y-97516204D01*
X93025621Y-97516204D02*
X93116788Y-97399501D01*
X93116788Y-97399501D02*
X93200712Y-97283337D01*
X93200712Y-97283337D02*
X93280462Y-97161772D01*
X93280462Y-97161772D02*
X93354973Y-97033902D01*
X93354973Y-97033902D02*
X93422858Y-96899651D01*
X93422858Y-96899651D02*
X93483895Y-96757109D01*
X93483895Y-96757109D02*
X93536233Y-96609300D01*
X93536233Y-96609300D02*
X93548200Y-96570800D01*
X85013800Y-104902000D02*
X85152029Y-104835433D01*
X85152029Y-104835433D02*
X85285633Y-104766600D01*
X85285633Y-104766600D02*
X85416825Y-104695164D01*
X85416825Y-104695164D02*
X85547163Y-104620784D01*
X85547163Y-104620784D02*
X85672661Y-104546224D01*
X85672661Y-104546224D02*
X85799785Y-104467988D01*
X85799785Y-104467988D02*
X85924708Y-104388636D01*
X85924708Y-104388636D02*
X86045819Y-104309516D01*
X86045819Y-104309516D02*
X86166475Y-104228683D01*
X86166475Y-104228683D02*
X86287744Y-104145517D01*
X86287744Y-104145517D02*
X86405625Y-104062928D01*
X86405625Y-104062928D02*
X86525064Y-103977569D01*
X86525064Y-103977569D02*
X86642023Y-103892412D01*
X86642023Y-103892412D02*
X86762991Y-103802775D01*
X86762991Y-103802775D02*
X86881227Y-103713676D01*
X86881227Y-103713676D02*
X86995190Y-103626458D01*
X86995190Y-103626458D02*
X87110173Y-103537169D01*
X87110173Y-103537169D02*
X87226126Y-103445849D01*
X87226126Y-103445849D02*
X87337407Y-103357035D01*
X87337407Y-103357035D02*
X87449476Y-103266461D01*
X87449476Y-103266461D02*
X87562284Y-103174167D01*
X87562284Y-103174167D02*
X87675783Y-103080187D01*
X87675783Y-103080187D02*
X87789932Y-102984563D01*
X87789932Y-102984563D02*
X87898935Y-102892233D01*
X87898935Y-102892233D02*
X88008443Y-102798487D01*
X88008443Y-102798487D02*
X88116967Y-102704617D01*
X88116967Y-102704617D02*
X88228818Y-102606877D01*
X88228818Y-102606877D02*
X88339609Y-102509081D01*
X88339609Y-102509081D02*
X88449284Y-102411312D01*
X88449284Y-102411312D02*
X88556327Y-102314980D01*
X88556327Y-102314980D02*
X88662155Y-102218869D01*
X88662155Y-102218869D02*
X88768190Y-102121687D01*
X88768190Y-102121687D02*
X88880314Y-102017983D01*
X88880314Y-102017983D02*
X88986685Y-101918700D01*
X88986685Y-101918700D02*
X89093168Y-101818437D01*
X89093168Y-101818437D02*
X89199729Y-101717220D01*
X89199729Y-101717220D02*
X89306334Y-101615081D01*
X89306334Y-101615081D02*
X89412954Y-101512047D01*
X89412954Y-101512047D02*
X89519551Y-101408143D01*
X89519551Y-101408143D02*
X89621658Y-101307781D01*
X89621658Y-101307781D02*
X89722208Y-101208143D01*
X89722208Y-101208143D02*
X89832987Y-101097437D01*
X89832987Y-101097437D02*
X89933283Y-100996352D01*
X89933283Y-100996352D02*
X90033420Y-100894618D01*
X90033420Y-100894618D02*
X90133363Y-100792256D01*
X90133363Y-100792256D02*
X90233089Y-100689288D01*
X90233089Y-100689288D02*
X90332569Y-100585742D01*
X90332569Y-100585742D02*
X90436143Y-100477034D01*
X90436143Y-100477034D02*
X90542290Y-100364661D01*
X90542290Y-100364661D02*
X90551000Y-100355400D01*
X82499200Y-105537000D02*
X82708376Y-105537286D01*
X82708376Y-105537286D02*
X82902338Y-105529675D01*
X82902338Y-105529675D02*
X83087685Y-105514725D01*
X83087685Y-105514725D02*
X83266346Y-105492700D01*
X83266346Y-105492700D02*
X83437995Y-105464071D01*
X83437995Y-105464071D02*
X83604420Y-105429022D01*
X83604420Y-105429022D02*
X83768444Y-105387291D01*
X83768444Y-105387291D02*
X83923275Y-105341378D01*
X83923275Y-105341378D02*
X84075115Y-105290447D01*
X84075115Y-105290447D02*
X84225107Y-105234891D01*
X84225107Y-105234891D02*
X84369751Y-105177122D01*
X84369751Y-105177122D02*
X84511717Y-105117411D01*
X84511717Y-105117411D02*
X84653544Y-105055995D01*
X84653544Y-105055995D02*
X84793791Y-104994927D01*
X84793791Y-104994927D02*
X84934626Y-104934755D01*
X84934626Y-104934755D02*
X85013800Y-104902000D01*
X82067400Y-107467400D02*
X82001656Y-107330245D01*
X82001656Y-107330245D02*
X81940687Y-107190244D01*
X81940687Y-107190244D02*
X81884102Y-107043783D01*
X81884102Y-107043783D02*
X81833671Y-106890903D01*
X81833671Y-106890903D02*
X81791322Y-106730116D01*
X81791322Y-106730116D02*
X81760259Y-106559744D01*
X81760259Y-106559744D02*
X81745888Y-106373559D01*
X81745888Y-106373559D02*
X81757946Y-106185355D01*
X81757946Y-106185355D02*
X81797461Y-106023816D01*
X81797461Y-106023816D02*
X81861580Y-105887385D01*
X81861580Y-105887385D02*
X81948687Y-105773832D01*
X81948687Y-105773832D02*
X82059091Y-105681249D01*
X82059091Y-105681249D02*
X82189482Y-105611333D01*
X82189482Y-105611333D02*
X82341988Y-105562452D01*
X82341988Y-105562452D02*
X82499200Y-105537000D01*
X91465400Y-109016800D02*
X91301551Y-109054863D01*
X91301551Y-109054863D02*
X91132935Y-109088528D01*
X91132935Y-109088528D02*
X90951610Y-109119276D01*
X90951610Y-109119276D02*
X90774489Y-109144490D01*
X90774489Y-109144490D02*
X90595123Y-109165699D01*
X90595123Y-109165699D02*
X90394622Y-109184783D01*
X90394622Y-109184783D02*
X90207817Y-109198593D01*
X90207817Y-109198593D02*
X90015972Y-109209149D01*
X90015972Y-109209149D02*
X89780950Y-109217509D01*
X89780950Y-109217509D02*
X89581888Y-109220976D01*
X89581888Y-109220976D02*
X89374359Y-109221331D01*
X89374359Y-109221331D02*
X89175594Y-109218762D01*
X89175594Y-109218762D02*
X88980479Y-109213637D01*
X88980479Y-109213637D02*
X88783614Y-109206000D01*
X88783614Y-109206000D02*
X88591093Y-109196253D01*
X88591093Y-109196253D02*
X88391488Y-109183878D01*
X88391488Y-109183878D02*
X88202682Y-109170139D01*
X88202682Y-109170139D02*
X88013171Y-109154432D01*
X88013171Y-109154432D02*
X87829099Y-109137397D01*
X87829099Y-109137397D02*
X87644742Y-109118630D01*
X87644742Y-109118630D02*
X87460282Y-109098188D01*
X87460282Y-109098188D02*
X87264017Y-109074649D01*
X87264017Y-109074649D02*
X87085863Y-109051714D01*
X87085863Y-109051714D02*
X86908143Y-109027373D01*
X86908143Y-109027373D02*
X86725124Y-109000794D01*
X86725124Y-109000794D02*
X86548792Y-108973746D01*
X86548792Y-108973746D02*
X86373398Y-108945444D01*
X86373398Y-108945444D02*
X86199111Y-108915942D01*
X86199111Y-108915942D02*
X86021790Y-108884508D01*
X86021790Y-108884508D02*
X85821819Y-108847328D01*
X85821819Y-108847328D02*
X85650778Y-108814053D01*
X85650778Y-108814053D02*
X85484357Y-108780348D01*
X85484357Y-108780348D02*
X85317132Y-108745134D01*
X85317132Y-108745134D02*
X85142613Y-108706907D01*
X85142613Y-108706907D02*
X84976067Y-108668972D01*
X84976067Y-108668972D02*
X84808256Y-108629262D01*
X84808256Y-108629262D02*
X84646017Y-108589388D01*
X84646017Y-108589388D02*
X84484349Y-108548133D01*
X84484349Y-108548133D02*
X84324836Y-108505855D01*
X84324836Y-108505855D02*
X84167770Y-108462605D01*
X84167770Y-108462605D02*
X84012274Y-108418085D01*
X84012274Y-108418085D02*
X83853075Y-108370611D01*
X83853075Y-108370611D02*
X83697752Y-108322272D01*
X83697752Y-108322272D02*
X83546680Y-108273137D01*
X83546680Y-108273137D02*
X83393124Y-108220794D01*
X83393124Y-108220794D02*
X83242322Y-108166710D01*
X83242322Y-108166710D02*
X83095179Y-108110965D01*
X83095179Y-108110965D02*
X82949226Y-108052226D01*
X82949226Y-108052226D02*
X82806230Y-107990613D01*
X82806230Y-107990613D02*
X82668159Y-107926284D01*
X82668159Y-107926284D02*
X82534564Y-107858031D01*
X82534564Y-107858031D02*
X82401982Y-107781947D01*
X82401982Y-107781947D02*
X82281551Y-107701386D01*
X82281551Y-107701386D02*
X82170927Y-107608953D01*
X82170927Y-107608953D02*
X82082070Y-107497664D01*
X82082070Y-107497664D02*
X82067400Y-107467400D01*
X99618800Y-104546400D02*
X99501737Y-104630282D01*
X99501737Y-104630282D02*
X99383327Y-104712787D01*
X99383327Y-104712787D02*
X99262339Y-104795242D01*
X99262339Y-104795242D02*
X99139113Y-104877705D01*
X99139113Y-104877705D02*
X99016641Y-104958422D01*
X99016641Y-104958422D02*
X98893076Y-105038799D01*
X98893076Y-105038799D02*
X98771051Y-105117272D01*
X98771051Y-105117272D02*
X98642634Y-105199013D01*
X98642634Y-105199013D02*
X98517106Y-105278166D01*
X98517106Y-105278166D02*
X98393447Y-105355491D01*
X98393447Y-105355491D02*
X98268399Y-105433087D01*
X98268399Y-105433087D02*
X98144259Y-105509573D01*
X98144259Y-105509573D02*
X98013305Y-105589709D01*
X98013305Y-105589709D02*
X97881666Y-105669734D01*
X97881666Y-105669734D02*
X97755959Y-105745686D01*
X97755959Y-105745686D02*
X97628162Y-105822459D01*
X97628162Y-105822459D02*
X97498400Y-105899981D01*
X97498400Y-105899981D02*
X97366802Y-105978176D01*
X97366802Y-105978176D02*
X97240193Y-106053013D01*
X97240193Y-106053013D02*
X97098593Y-106136278D01*
X97098593Y-106136278D02*
X96964522Y-106214704D01*
X96964522Y-106214704D02*
X96833772Y-106290816D01*
X96833772Y-106290816D02*
X96704244Y-106365853D01*
X96704244Y-106365853D02*
X96573763Y-106441093D01*
X96573763Y-106441093D02*
X96442428Y-106516474D01*
X96442428Y-106516474D02*
X96310346Y-106591932D01*
X96310346Y-106591932D02*
X96177616Y-106667408D01*
X96177616Y-106667408D02*
X96047918Y-106740822D01*
X96047918Y-106740822D02*
X95901066Y-106823545D01*
X95901066Y-106823545D02*
X95756208Y-106904723D01*
X95756208Y-106904723D02*
X95623098Y-106978954D01*
X95623098Y-106978954D02*
X95488666Y-107053553D01*
X95488666Y-107053553D02*
X95354223Y-107127796D01*
X95354223Y-107127796D02*
X95219866Y-107201619D01*
X95219866Y-107201619D02*
X95085702Y-107274962D01*
X95085702Y-107274962D02*
X94951830Y-107347764D01*
X94951830Y-107347764D02*
X94818355Y-107419963D01*
X94818355Y-107419963D02*
X94685379Y-107491498D01*
X94685379Y-107491498D02*
X94553005Y-107562309D01*
X94553005Y-107562309D02*
X94421337Y-107632334D01*
X94421337Y-107632334D02*
X94290475Y-107701510D01*
X94290475Y-107701510D02*
X94151279Y-107774617D01*
X94151279Y-107774617D02*
X94013256Y-107846608D01*
X94013256Y-107846608D02*
X93876532Y-107917406D01*
X93876532Y-107917406D02*
X93741231Y-107986935D01*
X93741231Y-107986935D02*
X93605265Y-108056245D01*
X93605265Y-108056245D02*
X93466668Y-108126285D01*
X93466668Y-108126285D02*
X93330068Y-108194674D01*
X93330068Y-108194674D02*
X93191381Y-108263409D01*
X93191381Y-108263409D02*
X93048911Y-108333230D01*
X93048911Y-108333230D02*
X92909300Y-108400810D01*
X92909300Y-108400810D02*
X92770746Y-108466979D01*
X92770746Y-108466979D02*
X92633583Y-108531518D01*
X92633583Y-108531518D02*
X92494406Y-108595917D01*
X92494406Y-108595917D02*
X92353941Y-108659663D01*
X92353941Y-108659663D02*
X92211245Y-108722964D01*
X92211245Y-108722964D02*
X92067436Y-108785041D01*
X92067436Y-108785041D02*
X91925359Y-108844383D01*
X91925359Y-108844383D02*
X91780145Y-108902571D01*
X91780145Y-108902571D02*
X91632872Y-108958418D01*
X91632872Y-108958418D02*
X91484224Y-109010568D01*
X91484224Y-109010568D02*
X91465400Y-109016800D01*
X134189473Y-73081477D02*
X134231221Y-73250636D01*
X134231221Y-73250636D02*
X134271065Y-73417262D01*
X134271065Y-73417262D02*
X134309945Y-73583888D01*
X134309945Y-73583888D02*
X134348075Y-73751090D01*
X134348075Y-73751090D02*
X134384565Y-73914688D01*
X134384565Y-73914688D02*
X134421072Y-74082049D01*
X134421072Y-74082049D02*
X134457955Y-74255150D01*
X134457955Y-74255150D02*
X134494193Y-74429498D01*
X134494193Y-74429498D02*
X134528804Y-74600391D01*
X134528804Y-74600391D02*
X134561985Y-74768688D01*
X134561985Y-74768688D02*
X134594563Y-74938711D01*
X134594563Y-74938711D02*
X134626979Y-75113276D01*
X134626979Y-75113276D02*
X134658343Y-75288061D01*
X134658343Y-75288061D02*
X134688203Y-75460804D01*
X134688203Y-75460804D02*
X134718627Y-75644425D01*
X134718627Y-75644425D02*
X134746511Y-75820960D01*
X134746511Y-75820960D02*
X134773931Y-76004211D01*
X134773931Y-76004211D02*
X134798847Y-76181371D01*
X134798847Y-76181371D02*
X134822746Y-76364034D01*
X134822746Y-76364034D02*
X134844506Y-76545446D01*
X134844506Y-76545446D02*
X134864501Y-76730911D01*
X134864501Y-76730911D02*
X134882211Y-76919493D01*
X134882211Y-76919493D02*
X134897064Y-77110107D01*
X134897064Y-77110107D02*
X134908416Y-77301499D01*
X134908416Y-77301499D02*
X134915694Y-77497600D01*
X134915694Y-77497600D02*
X134917638Y-77697360D01*
X134917638Y-77697360D02*
X134916839Y-77764259D01*
X120523000Y-91719400D02*
X120401034Y-91803330D01*
X120401034Y-91803330D02*
X120280456Y-91886842D01*
X120280456Y-91886842D02*
X120156228Y-91973369D01*
X120156228Y-91973369D02*
X120037335Y-92056580D01*
X120037335Y-92056580D02*
X119909559Y-92146399D01*
X119909559Y-92146399D02*
X119788001Y-92232183D01*
X119788001Y-92232183D02*
X119663975Y-92319998D01*
X119663975Y-92319998D02*
X119537618Y-92409745D01*
X119537618Y-92409745D02*
X119409063Y-92501313D01*
X119409063Y-92501313D02*
X119291588Y-92585192D01*
X119291588Y-92585192D02*
X119172534Y-92670380D01*
X119172534Y-92670380D02*
X119051996Y-92756797D01*
X119051996Y-92756797D02*
X118931772Y-92843144D01*
X118931772Y-92843144D02*
X118806852Y-92933010D01*
X118806852Y-92933010D02*
X118682438Y-93022645D01*
X118682438Y-93022645D02*
X118556926Y-93113197D01*
X118556926Y-93113197D02*
X118430408Y-93204587D01*
X118430408Y-93204587D02*
X118302984Y-93296736D01*
X118302984Y-93296736D02*
X118185462Y-93381804D01*
X118185462Y-93381804D02*
X118060157Y-93472586D01*
X118060157Y-93472586D02*
X117930647Y-93566481D01*
X117930647Y-93566481D02*
X117800605Y-93660831D01*
X117800605Y-93660831D02*
X117677385Y-93750285D01*
X117677385Y-93750285D02*
X117561127Y-93834722D01*
X117561127Y-93834722D02*
X117444661Y-93919340D01*
X117444661Y-93919340D02*
X117328056Y-94004085D01*
X117328056Y-94004085D02*
X117167620Y-94120716D01*
X117167620Y-94120716D02*
X116963501Y-94269124D01*
X116963501Y-94269124D02*
X116817947Y-94374951D01*
X116817947Y-94374951D02*
X116687241Y-94469972D01*
X116687241Y-94469972D02*
X116571369Y-94554192D01*
X116571369Y-94554192D02*
X116427054Y-94659055D01*
X116427054Y-94659055D02*
X116290604Y-94758159D01*
X116290604Y-94758159D02*
X116169147Y-94846332D01*
X116169147Y-94846332D02*
X116027133Y-94949362D01*
X116027133Y-94949362D02*
X115893211Y-95046445D01*
X115893211Y-95046445D02*
X115774300Y-95132579D01*
X115774300Y-95132579D02*
X115656336Y-95217948D01*
X115656336Y-95217948D02*
X115525709Y-95312381D01*
X115525709Y-95312381D02*
X115396481Y-95405682D01*
X115396481Y-95405682D02*
X115275443Y-95492955D01*
X115275443Y-95492955D02*
X115155854Y-95579053D01*
X115155854Y-95579053D02*
X115037812Y-95663900D01*
X115037812Y-95663900D02*
X114908585Y-95756614D01*
X114908585Y-95756614D02*
X114790968Y-95840815D01*
X114790968Y-95840815D02*
X114672204Y-95925646D01*
X114672204Y-95925646D02*
X114546505Y-96015198D01*
X114546505Y-96015198D02*
X114429412Y-96098369D01*
X114429412Y-96098369D02*
X114309053Y-96183586D01*
X114309053Y-96183586D02*
X114191639Y-96266405D01*
X114191639Y-96266405D02*
X114071819Y-96350569D01*
X114071819Y-96350569D02*
X113952900Y-96433692D01*
X113952900Y-96433692D02*
X113830189Y-96518971D01*
X113830189Y-96518971D02*
X113792000Y-96545400D01*
X125450600Y-89052400D02*
X125340744Y-89144658D01*
X125340744Y-89144658D02*
X125226228Y-89231987D01*
X125226228Y-89231987D02*
X125106268Y-89317206D01*
X125106268Y-89317206D02*
X124983842Y-89399516D01*
X124983842Y-89399516D02*
X124857985Y-89480483D01*
X124857985Y-89480483D02*
X124725577Y-89562573D01*
X124725577Y-89562573D02*
X124600390Y-89637859D01*
X124600390Y-89637859D02*
X124472321Y-89712956D01*
X124472321Y-89712956D02*
X124340944Y-89788314D01*
X124340944Y-89788314D02*
X124212387Y-89860648D01*
X124212387Y-89860648D02*
X124079514Y-89934163D01*
X124079514Y-89934163D02*
X123947320Y-90006215D01*
X123947320Y-90006215D02*
X123811471Y-90079269D01*
X123811471Y-90079269D02*
X123677182Y-90150621D01*
X123677182Y-90150621D02*
X123537254Y-90224166D01*
X123537254Y-90224166D02*
X123402186Y-90294469D01*
X123402186Y-90294469D02*
X123264569Y-90365480D01*
X123264569Y-90365480D02*
X123127264Y-90435780D01*
X123127264Y-90435780D02*
X122993297Y-90503900D01*
X122993297Y-90503900D02*
X122860233Y-90571145D01*
X122860233Y-90571145D02*
X122725473Y-90638873D01*
X122725473Y-90638873D02*
X122589131Y-90707052D01*
X122589131Y-90707052D02*
X122451320Y-90775658D01*
X122451320Y-90775658D02*
X122312153Y-90844654D01*
X122312153Y-90844654D02*
X122171747Y-90914016D01*
X122171747Y-90914016D02*
X122030215Y-90983712D01*
X122030215Y-90983712D02*
X121893625Y-91050791D01*
X121893625Y-91050791D02*
X121756205Y-91118123D01*
X121756205Y-91118123D02*
X121612033Y-91188628D01*
X121612033Y-91188628D02*
X121467182Y-91259351D01*
X121467182Y-91259351D02*
X121315694Y-91333225D01*
X121315694Y-91333225D02*
X121169803Y-91404304D01*
X121169803Y-91404304D02*
X120962584Y-91505218D01*
X120962584Y-91505218D02*
X120803861Y-91582511D01*
X120803861Y-91582511D02*
X120638976Y-91662846D01*
X120638976Y-91662846D02*
X120523000Y-91719400D01*
D13*
X100330000Y-61595000D03*
D14*
X107950000Y-69215000D03*
X100330000Y-64135000D03*
X107950000Y-66675000D03*
X100330000Y-66675000D03*
X107950000Y-64135000D03*
X100330000Y-69215000D03*
X107950000Y-61595000D03*
D15*
X91440000Y-57150000D03*
D16*
X93980000Y-57150000D03*
X114300000Y-57150000D03*
D15*
X116840000Y-57150000D03*
D17*
X111760000Y-71120000D03*
D14*
X111760000Y-78740000D03*
X96520000Y-78740000D03*
D17*
X96520000Y-71120000D03*
X106680000Y-73660000D03*
D14*
X106680000Y-81280000D03*
X101600000Y-73660000D03*
D17*
X101600000Y-81280000D03*
D18*
X104140000Y-37846000D03*
D19*
X104140000Y-57846000D03*
D20*
X129006600Y-72567800D03*
X78181200Y-73177400D03*
D21*
X91440000Y-57150000D02*
X91440000Y-81280000D01*
X91440000Y-81280000D02*
X96520000Y-86360000D01*
X101600000Y-86360000D02*
X106680000Y-81280000D01*
X96520000Y-86360000D02*
X101600000Y-86360000D01*
X115940001Y-58049999D02*
X116840000Y-57150000D01*
X109639010Y-75648425D02*
X100451435Y-84836000D01*
X109639011Y-64350989D02*
X109639010Y-75648425D01*
X116840000Y-57150000D02*
X109639011Y-64350989D01*
X100451435Y-84836000D02*
X99568000Y-84836000D01*
X99568000Y-75692000D02*
X101600000Y-73660000D01*
X99568000Y-84836000D02*
X99568000Y-75692000D01*
X100360128Y-85851990D02*
X96730424Y-85851990D01*
X107246881Y-80098999D02*
X106113119Y-80098999D01*
X107861001Y-80713119D02*
X107246881Y-80098999D01*
X96730424Y-85851990D02*
X92710000Y-81831566D01*
X107861001Y-81846881D02*
X107861001Y-80713119D01*
X105379872Y-86868010D02*
X102839872Y-86868010D01*
X114300000Y-77947882D02*
X105379872Y-86868010D01*
X102839872Y-86868010D02*
X107861001Y-81846881D01*
X106113119Y-80098999D02*
X100360128Y-85851990D01*
X114300000Y-73660000D02*
X114300000Y-77947882D01*
X111760000Y-71120000D02*
X114300000Y-73660000D01*
X92710000Y-71755000D02*
X100330000Y-64135000D01*
X92710000Y-81831566D02*
X92710000Y-71755000D01*
X96520000Y-70485000D02*
X96520000Y-71120000D01*
X100330000Y-66675000D02*
X96520000Y-70485000D01*
X107950000Y-61300400D02*
X107950000Y-61595000D01*
X107889000Y-61595000D02*
X107950000Y-61595000D01*
X104140000Y-57846000D02*
X107889000Y-61595000D01*
X93980000Y-55996000D02*
X93980000Y-57150000D01*
X93980000Y-58304000D02*
X93980000Y-57150000D01*
X114300000Y-57150000D02*
X114300000Y-58304000D01*
X105479000Y-37490400D02*
X104140000Y-37490400D01*
X114300000Y-46311400D02*
X105479000Y-37490400D01*
X114300000Y-57150000D02*
X114300000Y-46311400D01*
X93980000Y-46311400D02*
X102801000Y-37490400D01*
X102801000Y-37490400D02*
X104140000Y-37490400D01*
X93980000Y-57150000D02*
X93980000Y-46311400D01*
X100330000Y-69215000D02*
X101600000Y-67945000D01*
X98170802Y-57150000D02*
X95134000Y-57150000D01*
X95134000Y-57150000D02*
X93980000Y-57150000D01*
X101600000Y-60579198D02*
X98170802Y-57150000D01*
X101600000Y-67945000D02*
X101600000Y-60579198D01*
X106680000Y-70485000D02*
X107950000Y-69215000D01*
X106680000Y-73660000D02*
X106680000Y-70485000D01*
X108749999Y-67474999D02*
X107950000Y-66675000D01*
X109131001Y-67856001D02*
X108749999Y-67474999D01*
X103289001Y-81280000D02*
X109131001Y-75438000D01*
X109131001Y-75438000D02*
X109131001Y-67856001D01*
X101600000Y-81280000D02*
X103289001Y-81280000D01*
M02*
