M48
; DRILL file {KiCad (5.1.0-0)} date Wednesday, April 03, 2019 at 12:02:17 PM
; FORMAT={2:4/ absolute / inch / suppress leading zeros}
; #@! TF.CreationDate,2019-04-03T12:02:17-07:00
; #@! TF.GenerationSoftware,Kicad,Pcbnew,(5.1.0-0)
; #@! TF.FileFunction,Plated,1,2,PTH
FMAT,2
INCH,TZ
T1C0.0157
T2C0.0315
T3C0.0354
T4C0.0461
T5C0.0591
%
G90
G05
T1
X30780Y-28810
X50790Y-28570
T2
X42000Y-29000
X42000Y-32000
X38000Y-28000
X38000Y-31000
X44000Y-28000
X44000Y-31000
X39500Y-24250
X39500Y-25250
X39500Y-26250
X39500Y-27250
X42500Y-24250
X42500Y-25250
X42500Y-26250
X42500Y-27250
X40000Y-29000
X40000Y-32000
T3
X45000Y-22500
X46000Y-22500
X36000Y-22500
X37000Y-22500
T4
X41000Y-14900
T5
X41000Y-22774
T0
M30
