  0
SECTION
  2
HEADER
  9
$ACADVER
  1
AC1014
  9
$HANDSEED
  5
FFFF
  9
$MEASUREMENT
 70
     1
  0
ENDSEC
  0
SECTION
  2
TABLES
  0
TABLE
  2
VPORT
  5
8
330
0
100
AcDbSymbolTable
 70
     4
  0
VPORT
  5
2E
330
8
100
AcDbSymbolTableRecord
100
AcDbViewportTableRecord
  2
*ACTIVE
 70
     0
 10
0.0
 20
0.0
 11
1.0
 21
1.0
 12
210.0
 22
148.5
 13
0.0
 23
0.0
 14
10.0
 24
10.0
 15
10.0
 25
10.0
 16
0.0
 26
0.0
 36
1.0
 17
0.0
 27
0.0
 37
0.0
 40
341.0
 41
1.24
 42
50.0
 43
0.0
 44
0.0
 50
0.0
 51
0.0
 71
     0
 72
   100
 73
     1
 74
     3
 75
     0
 76
     0
 77
     0
 78
     0
  0
ENDTAB
  0
TABLE
  2
LTYPE
  5
5
330
0
100
AcDbSymbolTable
 70
     1
  0
LTYPE
  5
14
330
5
100
AcDbSymbolTableRecord
100
AcDbLinetypeTableRecord
  2
BYBLOCK
 70
     0
  3

 72
    65
 73
     0
 40
0.0
  0
LTYPE
  5
15
330
5
100
AcDbSymbolTableRecord
100
AcDbLinetypeTableRecord
  2
BYLAYER
 70
     0
  3

 72
    65
 73
     0
 40
0.0
  0
LTYPE
  5
16
330
5
100
AcDbSymbolTableRecord
100
AcDbLinetypeTableRecord
  2
CONTINUOUS
 70
     0
  3
Solid line
 72
    65
 73
     0
 40
0.0
  0
ENDTAB
  0
TABLE
  2
LAYER
  5
2
100
AcDbSymbolTable
 70
2
  0
LAYER
  5
50
100
AcDbSymbolTableRecord
100
AcDbLayerTableRecord
  2
0
 70
0
  6
CONTINUOUS
  0
LAYER
  5
51
100
AcDbSymbolTableRecord
100
AcDbLayerTableRecord
  2
Layer_1
 70
0
  6
CONTINUOUS
  0
ENDTAB
  0
TABLE
  2
STYLE
  5
3
330
0
100
AcDbSymbolTable
 70
     1
  0
STYLE
  5
11
330
3
100
AcDbSymbolTableRecord
100
AcDbTextStyleTableRecord
  2
STANDARD
 70
     0
 40
0.0
 41
1.0
 50
0.0
 71
     0
 42
2.5
  3
txt
  4

  0
ENDTAB
  0
TABLE
  2
VIEW
  5
6
330
0
100
AcDbSymbolTable
 70
     0
  0
ENDTAB
  0
TABLE
  2
UCS
  5
7
330
0
100
AcDbSymbolTable
 70
     0
  0
ENDTAB
  0
TABLE
  2
APPID
  5
9
330
0
100
AcDbSymbolTable
 70
     2
  0
APPID
  5
12
330
9
100
AcDbSymbolTableRecord
100
AcDbRegAppTableRecord
  2
ACAD
 70
     0
  0
ENDTAB
  0
TABLE
  2
DIMSTYLE
  5
A
330
0
100
AcDbSymbolTable
 70
     1
  0
DIMSTYLE
105
27
330
A
100
AcDbSymbolTableRecord
100
AcDbDimStyleTableRecord
  2
ISO-25
 70
     0
  3

  4

  5

  6

  7

 40
1.0
 41
2.5
 42
0.625
 43
3.75
 44
1.25
 45
0.0
 46
0.0
 47
0.0
 48
0.0
140
2.5
141
2.5
142
0.0
143
0.03937007874016
144
1.0
145
0.0
146
1.0
147
0.625
 71
     0
 72
     0
 73
     0
 74
     0
 75
     0
 76
     0
 77
     1
 78
     8
170
     0
171
     3
172
     1
173
     0
174
     0
175
     0
176
     0
177
     0
178
     0
270
     2
271
     2
272
     2
273
     2
274
     3
340
11
275
     0
280
     0
281
     0
282
     0
283
     0
284
     8
285
     0
286
     0
287
     3
288
     0
  0
ENDTAB
  0
TABLE
  2
BLOCK_RECORD
  5
1
330
0
100
AcDbSymbolTable
 70
     1
  0
BLOCK_RECORD
  5
1F
330
1
100
AcDbSymbolTableRecord
100
AcDbBlockTableRecord
  2
*MODEL_SPACE
  0
BLOCK_RECORD
  5
1B
330
1
100
AcDbSymbolTableRecord
100
AcDbBlockTableRecord
  2
*PAPER_SPACE
  0
ENDTAB
  0
ENDSEC
  0
SECTION
  2
BLOCKS
  0
BLOCK
  5
20
330
1F
100
AcDbEntity
  8
0
100
AcDbBlockBegin
  2
*MODEL_SPACE
 70
     0
 10
0.0
 20
0.0
 30
0.0
  3
*MODEL_SPACE
  1

  0
ENDBLK
  5
21
330
1F
100
AcDbEntity
  8
0
100
AcDbBlockEnd
  0
BLOCK
  5
1C
330
1B
100
AcDbEntity
 67
     1
  8
0
100
AcDbBlockBegin
  2
*PAPER_SPACE
  1

  0
ENDBLK
  5
1D
330
1B
100
AcDbEntity
 67
     1
  8
0
100
AcDbBlockEnd
  0
ENDSEC
  0
SECTION
  2
ENTITIES
  0
SPLINE
  5
100
100
AcDbEntity
  8
Layer_1
 62
7
100
AcDbSpline
 70
8
 71
3
 72
8
 73
4
 74
0
 40
0
 40
0
 40
0
 40
0
 40
1
 40
1
 40
1
 40
1
 10
12.093786
 20
42.609667
 30
0.0
 10
12.093786
 20
42.609667
 30
0.0
 10
12.182530
 20
40.702200
 30
0.0
 10
11.493341
 20
39.887776
 30
0.0
  0
SPLINE
  5
101
100
AcDbEntity
  8
Layer_1
 62
7
100
AcDbSpline
 70
8
 71
3
 72
8
 73
4
 74
0
 40
0
 40
0
 40
0
 40
0
 40
1
 40
1
 40
1
 40
1
 10
11.493341
 20
39.887776
 30
0.0
 10
10.804152
 20
39.073352
 30
0.0
 10
9.862797
 20
38.732300
 30
0.0
 10
8.647841
 20
38.537547
 30
0.0
  0
SPLINE
  5
102
100
AcDbEntity
  8
Layer_1
 62
7
100
AcDbSpline
 70
8
 71
3
 72
8
 73
4
 74
0
 40
0
 40
0
 40
0
 40
0
 40
1
 40
1
 40
1
 40
1
 10
8.647841
 20
38.537547
 30
0.0
 10
7.432886
 20
38.342793
 30
0.0
 10
7.196124
 20
37.962294
 30
0.0
 10
6.943623
 20
38.435666
 30
0.0
  0
SPLINE
  5
103
100
AcDbEntity
  8
Layer_1
 62
7
100
AcDbSpline
 70
8
 71
3
 72
8
 73
4
 74
0
 40
0
 40
0
 40
0
 40
0
 40
1
 40
1
 40
1
 40
1
 10
6.943623
 20
38.435666
 30
0.0
 10
6.691456
 20
38.908728
 30
0.0
 10
7.890671
 20
39.957353
 30
0.0
 10
6.026713
 20
41.209118
 30
0.0
  0
SPLINE
  5
104
100
AcDbEntity
  8
Layer_1
 62
7
100
AcDbSpline
 70
8
 71
3
 72
8
 73
4
 74
0
 40
0
 40
0
 40
0
 40
0
 40
1
 40
1
 40
1
 40
1
 10
6.026713
 20
41.209118
 30
0.0
 10
4.163090
 20
42.460884
 30
0.0
 10
2.587801
 20
42.712479
 30
0.0
 10
1.744566
 20
44.432336
 30
0.0
  0
SPLINE
  5
105
100
AcDbEntity
  8
Layer_1
 62
7
100
AcDbSpline
 70
8
 71
3
 72
8
 73
4
 74
0
 40
0
 40
0
 40
0
 40
0
 40
1
 40
1
 40
1
 40
1
 10
1.744566
 20
44.432336
 30
0.0
 10
1.051024
 20
45.845930
 30
0.0
 10
0.677294
 20
46.525549
 30
0.0
 10
1.243246
 20
48.166510
 30
0.0
  0
SPLINE
  5
106
100
AcDbEntity
  8
Layer_1
 62
7
100
AcDbSpline
 70
8
 71
3
 72
8
 73
4
 74
0
 40
0
 40
0
 40
0
 40
0
 40
1
 40
1
 40
1
 40
1
 10
1.243246
 20
48.166510
 30
0.0
 10
1.941142
 20
50.190146
 30
0.0
 10
4.058607
 20
51.224172
 30
0.0
 10
5.359961
 20
51.118875
 30
0.0
  0
SPLINE
  5
107
100
AcDbEntity
  8
Layer_1
 62
7
100
AcDbSpline
 70
8
 71
3
 72
8
 73
4
 74
0
 40
0
 40
0
 40
0
 40
0
 40
1
 40
1
 40
1
 40
1
 10
5.359961
 20
51.118875
 30
0.0
 10
6.661316
 20
51.013888
 30
0.0
 10
6.445987
 20
50.960152
 30
0.0
 10
6.532721
 20
50.660101
 30
0.0
  0
SPLINE
  5
108
100
AcDbEntity
  8
Layer_1
 62
7
100
AcDbSpline
 70
8
 71
3
 72
8
 73
4
 74
0
 40
0
 40
0
 40
0
 40
0
 40
1
 40
1
 40
1
 40
1
 10
6.532721
 20
50.660101
 30
0.0
 10
6.619456
 20
50.360050
 30
0.0
 10
6.742358
 20
49.533202
 30
0.0
 10
6.311364
 20
49.426041
 30
0.0
  0
SPLINE
  5
109
100
AcDbEntity
  8
Layer_1
 62
7
100
AcDbSpline
 70
8
 71
3
 72
8
 73
4
 74
0
 40
0
 40
0
 40
0
 40
0
 40
1
 40
1
 40
1
 40
1
 10
6.311364
 20
49.426041
 30
0.0
 10
5.880035
 20
49.318880
 30
0.0
 10
5.527738
 20
49.338448
 30
0.0
 10
4.817451
 20
48.197261
 30
0.0
  0
SPLINE
  5
10a
100
AcDbEntity
  8
Layer_1
 62
7
100
AcDbSpline
 70
8
 71
3
 72
8
 73
4
 74
0
 40
0
 40
0
 40
0
 40
0
 40
1
 40
1
 40
1
 40
1
 10
4.817451
 20
48.197261
 30
0.0
 10
4.106830
 20
47.056074
 30
0.0
 10
3.467538
 20
46.468396
 30
0.0
 10
4.547870
 20
45.129038
 30
0.0
  0
SPLINE
  5
10b
100
AcDbEntity
  8
Layer_1
 62
7
100
AcDbSpline
 70
8
 71
3
 72
8
 73
4
 74
0
 40
0
 40
0
 40
0
 40
0
 40
1
 40
1
 40
1
 40
1
 10
4.547870
 20
45.129038
 30
0.0
 10
5.628203
 20
43.789681
 30
0.0
 10
6.124834
 20
43.270027
 30
0.0
 10
7.973387
 20
42.871823
 30
0.0
  0
SPLINE
  5
10c
100
AcDbEntity
  8
Layer_1
 62
7
100
AcDbSpline
 70
8
 71
3
 72
8
 73
4
 74
0
 40
0
 40
0
 40
0
 40
0
 40
1
 40
1
 40
1
 40
1
 10
7.973387
 20
42.871823
 30
0.0
 10
9.619002
 20
42.517415
 30
0.0
 10
12.094121
 20
42.609667
 30
0.0
 10
12.094121
 20
42.609667
 30
0.0
  0
SPLINE
  5
10d
100
AcDbEntity
  8
Layer_1
 62
7
100
AcDbSpline
 70
8
 71
3
 72
8
 73
4
 74
0
 40
0
 40
0
 40
0
 40
0
 40
1
 40
1
 40
1
 40
1
 10
49.918137
 20
4.686149
 30
0.0
 10
45.708659
 20
6.855772
 30
0.0
 10
41.872911
 20
9.332590
 30
0.0
 10
38.568622
 20
12.370062
 30
0.0
  0
SPLINE
  5
10e
100
AcDbEntity
  8
Layer_1
 62
7
100
AcDbSpline
 70
8
 71
3
 72
8
 73
4
 74
0
 40
0
 40
0
 40
0
 40
0
 40
1
 40
1
 40
1
 40
1
 10
22.913852
 20
21.556404
 30
0.0
 10
20.999996
 20
22.581423
 30
0.0
 10
15.157630
 20
25.202675
 30
0.0
 10
12.868035
 20
27.527914
 30
0.0
  0
SPLINE
  5
10f
100
AcDbEntity
  8
Layer_1
 62
7
100
AcDbSpline
 70
8
 71
3
 72
8
 73
4
 74
0
 40
0
 40
0
 40
0
 40
0
 40
1
 40
1
 40
1
 40
1
 10
21.367028
 20
38.911834
 30
0.0
 10
19.337303
 20
40.336921
 30
0.0
 10
18.625007
 20
40.802838
 30
0.0
 10
16.726556
 20
40.974296
 30
0.0
  0
LWPOLYLINE
  5
110
100
AcDbEntity
  8
Layer_1
 62
7
100
AcDbPolyline
 90
2
 70
0
 10
12.094121
 20
42.609667
 30
0.0
 10
12.093786
 20
42.609667
 30
0.0
  0
SPLINE
  5
111
100
AcDbEntity
  8
Layer_1
 62
7
100
AcDbSpline
 70
8
 71
3
 72
8
 73
4
 74
0
 40
0
 40
0
 40
0
 40
0
 40
1
 40
1
 40
1
 40
1
 10
15.952642
 20
38.852507
 30
0.0
 10
17.958925
 20
38.708073
 30
0.0
 10
18.397956
 20
38.388143
 30
0.0
 10
19.636353
 20
37.302555
 30
0.0
  0
LWPOLYLINE
  5
112
100
AcDbEntity
  8
Layer_1
 62
7
100
AcDbPolyline
 90
2
 70
0
 10
16.726556
 20
40.974296
 30
0.0
 10
15.952642
 20
38.852507
 30
0.0
  0
SPLINE
  5
113
100
AcDbEntity
  8
Layer_1
 62
7
100
AcDbSpline
 70
8
 71
3
 72
8
 73
4
 74
0
 40
0
 40
0
 40
0
 40
0
 40
1
 40
1
 40
1
 40
1
 10
7.655918
 20
37.969438
 30
0.0
 10
7.655918
 20
37.969438
 30
0.0
 10
6.897744
 20
34.993778
 30
0.0
 10
6.928553
 20
33.286656
 30
0.0
  0
SPLINE
  5
114
100
AcDbEntity
  8
Layer_1
 62
7
100
AcDbSpline
 70
8
 71
3
 72
8
 73
4
 74
0
 40
0
 40
0
 40
0
 40
0
 40
1
 40
1
 40
1
 40
1
 10
6.928553
 20
33.286656
 30
0.0
 10
6.959362
 20
31.579534
 30
0.0
 10
7.017297
 20
31.379500
 30
0.0
 10
7.716197
 20
30.159727
 30
0.0
  0
SPLINE
  5
115
100
AcDbEntity
  8
Layer_1
 62
7
100
AcDbSpline
 70
8
 71
3
 72
8
 73
4
 74
0
 40
0
 40
0
 40
0
 40
0
 40
1
 40
1
 40
1
 40
1
 10
7.716197
 20
30.159727
 30
0.0
 10
8.415098
 20
28.939955
 30
0.0
 10
8.005201
 20
29.159868
 30
0.0
 10
8.969999
 20
28.220578
 30
0.0
  0
SPLINE
  5
116
100
AcDbEntity
  8
Layer_1
 62
7
100
AcDbSpline
 70
8
 71
3
 72
8
 73
4
 74
0
 40
0
 40
0
 40
0
 40
0
 40
1
 40
1
 40
1
 40
1
 10
8.969999
 20
28.220578
 30
0.0
 10
9.934796
 20
27.281289
 30
0.0
 10
9.963596
 20
27.181272
 30
0.0
 10
11.992987
 20
25.756185
 30
0.0
  0
SPLINE
  5
117
100
AcDbEntity
  8
Layer_1
 62
7
100
AcDbSpline
 70
8
 71
3
 72
8
 73
4
 74
0
 40
0
 40
0
 40
0
 40
0
 40
1
 40
1
 40
1
 40
1
 10
11.992987
 20
25.756185
 30
0.0
 10
13.755475
 20
24.518708
 30
0.0
 10
15.719563
 20
23.210101
 30
0.0
 10
16.441236
 20
22.359956
 30
0.0
  0
SPLINE
  5
118
100
AcDbEntity
  8
Layer_1
 62
7
100
AcDbSpline
 70
8
 71
3
 72
8
 73
4
 74
0
 40
0
 40
0
 40
0
 40
0
 40
1
 40
1
 40
1
 40
1
 10
16.441236
 20
22.359956
 30
0.0
 10
16.967002
 20
21.740286
 30
0.0
 10
20.045915
 20
20.683274
 30
0.0
 10
21.607474
 20
19.677824
 30
0.0
  0
SPLINE
  5
119
100
AcDbEntity
  8
Layer_1
 62
7
100
AcDbSpline
 70
8
 71
3
 72
8
 73
4
 74
0
 40
0
 40
0
 40
0
 40
0
 40
1
 40
1
 40
1
 40
1
 10
21.607474
 20
19.677824
 30
0.0
 10
23.169368
 20
18.672374
 30
0.0
 10
26.739219
 20
15.915384
 30
0.0
 10
28.027179
 20
15.056543
 30
0.0
  0
SPLINE
  5
11a
100
AcDbEntity
  8
Layer_1
 62
7
100
AcDbSpline
 70
8
 71
3
 72
8
 73
4
 74
0
 40
0
 40
0
 40
0
 40
0
 40
1
 40
1
 40
1
 40
1
 10
28.027179
 20
15.056543
 30
0.0
 10
29.315473
 20
14.197080
 30
0.0
 10
35.796796
 20
12.163816
 30
0.0
 10
37.308457
 20
10.931930
 30
0.0
  0
SPLINE
  5
11b
100
AcDbEntity
  8
Layer_1
 62
7
100
AcDbSpline
 70
8
 71
3
 72
8
 73
4
 74
0
 40
0
 40
0
 40
0
 40
0
 40
1
 40
1
 40
1
 40
1
 10
37.308457
 20
10.931930
 30
0.0
 10
38.820119
 20
9.699733
 30
0.0
 10
41.072876
 20
7.901291
 30
0.0
 10
42.419105
 20
6.842416
 30
0.0
  0
SPLINE
  5
11c
100
AcDbEntity
  8
Layer_1
 62
7
100
AcDbSpline
 70
8
 71
3
 72
8
 73
4
 74
0
 40
0
 40
0
 40
0
 40
0
 40
1
 40
1
 40
1
 40
1
 10
42.419105
 20
6.842416
 30
0.0
 10
43.765334
 20
5.783230
 30
0.0
 10
48.931237
 20
3.101408
 30
0.0
 10
50.514229
 20
2.422722
 30
0.0
  0
SPLINE
  5
11d
100
AcDbEntity
  8
Layer_1
 62
7
100
AcDbSpline
 70
8
 71
3
 72
8
 73
4
 74
0
 40
0
 40
0
 40
0
 40
0
 40
1
 40
1
 40
1
 40
1
 10
50.514229
 20
2.422722
 30
0.0
 10
52.097220
 20
1.743724
 30
0.0
 10
59.005519
 20
3.031831
 30
0.0
 10
59.479378
 20
3.792830
 30
0.0
  0
SPLINE
  5
11e
100
AcDbEntity
  8
Layer_1
 62
7
100
AcDbSpline
 70
8
 71
3
 72
8
 73
4
 74
0
 40
0
 40
0
 40
0
 40
0
 40
1
 40
1
 40
1
 40
1
 10
59.479378
 20
3.792830
 30
0.0
 10
59.952902
 20
4.553518
 30
0.0
 10
60.151488
 20
5.435034
 30
0.0
 10
59.046040
 20
5.292774
 30
0.0
  0
SPLINE
  5
11f
100
AcDbEntity
  8
Layer_1
 62
7
100
AcDbSpline
 70
8
 71
3
 72
8
 73
4
 74
0
 40
0
 40
0
 40
0
 40
0
 40
1
 40
1
 40
1
 40
1
 10
59.046040
 20
5.292774
 30
0.0
 10
58.154581
 20
5.178779
 30
0.0
 10
57.794582
 20
5.624818
 30
0.0
 10
56.650622
 20
5.983885
 30
0.0
  0
SPLINE
  5
120
100
AcDbEntity
  8
Layer_1
 62
7
100
AcDbSpline
 70
8
 71
3
 72
8
 73
4
 74
0
 40
0
 40
0
 40
0
 40
0
 40
1
 40
1
 40
1
 40
1
 10
56.650622
 20
5.983885
 30
0.0
 10
55.506997
 20
6.342642
 30
0.0
 10
53.088138
 20
8.314405
 30
0.0
 10
51.072143
 20
10.493346
 30
0.0
  0
SPLINE
  5
121
100
AcDbEntity
  8
Layer_1
 62
7
100
AcDbSpline
 70
8
 71
3
 72
8
 73
4
 74
0
 40
0
 40
0
 40
0
 40
0
 40
1
 40
1
 40
1
 40
1
 10
51.072143
 20
10.493346
 30
0.0
 10
49.055814
 20
12.672287
 30
0.0
 10
46.722015
 20
15.950794
 30
0.0
 10
45.426018
 20
17.236727
 30
0.0
  0
SPLINE
  5
122
100
AcDbEntity
  8
Layer_1
 62
7
100
AcDbSpline
 70
8
 71
3
 72
8
 73
4
 74
0
 40
0
 40
0
 40
0
 40
0
 40
1
 40
1
 40
1
 40
1
 10
45.426018
 20
17.236727
 30
0.0
 10
44.129687
 20
18.522659
 30
0.0
 10
43.452219
 20
20.069195
 30
0.0
 10
41.062494
 20
21.940631
 30
0.0
  0
SPLINE
  5
123
100
AcDbEntity
  8
Layer_1
 62
7
100
AcDbSpline
 70
8
 71
3
 72
8
 73
4
 74
0
 40
0
 40
0
 40
0
 40
0
 40
1
 40
1
 40
1
 40
1
 10
41.062494
 20
21.940631
 30
0.0
 10
38.672770
 20
23.812066
 30
0.0
 10
38.909532
 20
24.192566
 30
0.0
 10
37.182541
 20
25.371026
 30
0.0
  0
SPLINE
  5
124
100
AcDbEntity
  8
Layer_1
 62
7
100
AcDbSpline
 70
8
 71
3
 72
8
 73
4
 74
0
 40
0
 40
0
 40
0
 40
0
 40
1
 40
1
 40
1
 40
1
 10
37.182541
 20
25.371026
 30
0.0
 10
35.561373
 20
26.477115
 30
0.0
 10
34.303553
 20
27.335024
 30
0.0
 10
32.763092
 20
28.667549
 30
0.0
  0
SPLINE
  5
125
100
AcDbEntity
  8
Layer_1
 62
7
100
AcDbSpline
 70
8
 71
3
 72
8
 73
4
 74
0
 40
0
 40
0
 40
0
 40
0
 40
1
 40
1
 40
1
 40
1
 10
32.763092
 20
28.667549
 30
0.0
 10
31.222631
 20
29.999762
 30
0.0
 10
30.021071
 20
30.558553
 30
0.0
 10
29.119901
 20
32.478444
 30
0.0
  0
SPLINE
  5
126
100
AcDbEntity
  8
Layer_1
 62
7
100
AcDbSpline
 70
8
 71
3
 72
8
 73
4
 74
0
 40
0
 40
0
 40
0
 40
0
 40
1
 40
1
 40
1
 40
1
 10
29.119901
 20
32.478444
 30
0.0
 10
28.182899
 20
34.474124
 30
0.0
 10
27.375162
 20
36.117571
 30
0.0
 10
25.359167
 20
38.296202
 30
0.0
  0
SPLINE
  5
127
100
AcDbEntity
  8
Layer_1
 62
7
100
AcDbSpline
 70
8
 71
3
 72
8
 73
4
 74
0
 40
0
 40
0
 40
0
 40
0
 40
1
 40
1
 40
1
 40
1
 10
25.359167
 20
38.296202
 30
0.0
 10
23.343172
 20
40.474832
 30
0.0
 10
22.759471
 20
41.294847
 30
0.0
 10
21.147680
 20
42.073551
 30
0.0
  0
SPLINE
  5
128
100
AcDbEntity
  8
Layer_1
 62
7
100
AcDbSpline
 70
8
 71
3
 72
8
 73
4
 74
0
 40
0
 40
0
 40
0
 40
0
 40
1
 40
1
 40
1
 40
1
 10
21.147680
 20
42.073551
 30
0.0
 10
19.535888
 20
42.851944
 30
0.0
 10
16.594277
 20
43.835341
 30
0.0
 10
15.350187
 20
43.740915
 30
0.0
  0
SPLINE
  5
129
100
AcDbEntity
  8
Layer_1
 62
7
100
AcDbSpline
 70
8
 71
3
 72
8
 73
4
 74
0
 40
0
 40
0
 40
0
 40
0
 40
1
 40
1
 40
1
 40
1
 10
15.350187
 20
43.740915
 30
0.0
 10
14.106097
 20
43.646178
 30
0.0
 10
13.703903
 20
43.439000
 30
0.0
 10
12.662082
 20
42.644145
 30
0.0
  0
SPLINE
  5
12a
100
AcDbEntity
  8
Layer_1
 62
7
100
AcDbSpline
 70
8
 71
3
 72
8
 73
4
 74
0
 40
0
 40
0
 40
0
 40
0
 40
1
 40
1
 40
1
 40
1
 10
12.662082
 20
42.644145
 30
0.0
 10
11.620597
 20
41.848979
 30
0.0
 10
12.467516
 20
42.917172
 30
0.0
 10
12.088428
 20
41.429653
 30
0.0
  0
SPLINE
  5
12b
100
AcDbEntity
  8
Layer_1
 62
7
100
AcDbSpline
 70
8
 71
3
 72
8
 73
4
 74
0
 40
0
 40
0
 40
0
 40
0
 40
1
 40
1
 40
1
 40
1
 10
12.088428
 20
41.429653
 30
0.0
 10
11.709341
 20
39.941823
 30
0.0
 10
11.953805
 20
39.895541
 30
0.0
 10
10.560023
 20
39.120255
 30
0.0
  0
SPLINE
  5
12c
100
AcDbEntity
  8
Layer_1
 62
7
100
AcDbSpline
 70
8
 71
3
 72
8
 73
4
 74
0
 40
0
 40
0
 40
0
 40
0
 40
1
 40
1
 40
1
 40
1
 10
10.560023
 20
39.120255
 30
0.0
 10
9.165905
 20
38.344968
 30
0.0
 10
7.656588
 20
37.969749
 30
0.0
 10
7.656588
 20
37.969749
 30
0.0
  0
LWPOLYLINE
  5
12d
100
AcDbEntity
  8
Layer_1
 62
7
100
AcDbPolyline
 90
2
 70
0
 10
19.636353
 20
37.302555
 30
0.0
 10
21.367028
 20
38.911834
 30
0.0
  0
SPLINE
  5
12e
100
AcDbEntity
  8
Layer_1
 62
7
100
AcDbSpline
 70
8
 71
3
 72
8
 73
4
 74
0
 40
0
 40
0
 40
0
 40
0
 40
1
 40
1
 40
1
 40
1
 10
68.259660
 20
37.969438
 30
0.0
 10
68.259660
 20
37.969438
 30
0.0
 10
69.017835
 20
34.993778
 30
0.0
 10
68.987026
 20
33.286656
 30
0.0
  0
SPLINE
  5
12f
100
AcDbEntity
  8
Layer_1
 62
7
100
AcDbSpline
 70
8
 71
3
 72
8
 73
4
 74
0
 40
0
 40
0
 40
0
 40
0
 40
1
 40
1
 40
1
 40
1
 10
68.987026
 20
33.286656
 30
0.0
 10
68.956216
 20
31.579534
 30
0.0
 10
68.898282
 20
31.379500
 30
0.0
 10
68.199381
 20
30.159727
 30
0.0
  0
SPLINE
  5
130
100
AcDbEntity
  8
Layer_1
 62
7
100
AcDbSpline
 70
8
 71
3
 72
8
 73
4
 74
0
 40
0
 40
0
 40
0
 40
0
 40
1
 40
1
 40
1
 40
1
 10
68.199381
 20
30.159727
 30
0.0
 10
67.500481
 20
28.939955
 30
0.0
 10
67.910377
 20
29.159868
 30
0.0
 10
66.945580
 20
28.220578
 30
0.0
  0
SPLINE
  5
131
100
AcDbEntity
  8
Layer_1
 62
7
100
AcDbSpline
 70
8
 71
3
 72
8
 73
4
 74
0
 40
0
 40
0
 40
0
 40
0
 40
1
 40
1
 40
1
 40
1
 10
66.945580
 20
28.220578
 30
0.0
 10
65.980782
 20
27.281289
 30
0.0
 10
65.951982
 20
27.181272
 30
0.0
 10
63.922592
 20
25.756185
 30
0.0
  0
SPLINE
  5
132
100
AcDbEntity
  8
Layer_1
 62
7
100
AcDbSpline
 70
8
 71
3
 72
8
 73
4
 74
0
 40
0
 40
0
 40
0
 40
0
 40
1
 40
1
 40
1
 40
1
 10
63.922592
 20
25.756185
 30
0.0
 10
62.160103
 20
24.518708
 30
0.0
 10
60.196015
 20
23.210101
 30
0.0
 10
59.474343
 20
22.359956
 30
0.0
  0
SPLINE
  5
133
100
AcDbEntity
  8
Layer_1
 62
7
100
AcDbSpline
 70
8
 71
3
 72
8
 73
4
 74
0
 40
0
 40
0
 40
0
 40
0
 40
1
 40
1
 40
1
 40
1
 10
59.474343
 20
22.359956
 30
0.0
 10
58.948577
 20
21.740286
 30
0.0
 10
55.869664
 20
20.683274
 30
0.0
 10
54.308105
 20
19.677824
 30
0.0
  0
SPLINE
  5
134
100
AcDbEntity
  8
Layer_1
 62
7
100
AcDbSpline
 70
8
 71
3
 72
8
 73
4
 74
0
 40
0
 40
0
 40
0
 40
0
 40
1
 40
1
 40
1
 40
1
 10
54.308105
 20
19.677824
 30
0.0
 10
52.746211
 20
18.672374
 30
0.0
 10
49.176360
 20
15.915384
 30
0.0
 10
47.888400
 20
15.056543
 30
0.0
  0
SPLINE
  5
135
100
AcDbEntity
  8
Layer_1
 62
7
100
AcDbSpline
 70
8
 71
3
 72
8
 73
4
 74
0
 40
0
 40
0
 40
0
 40
0
 40
1
 40
1
 40
1
 40
1
 10
47.888400
 20
15.056543
 30
0.0
 10
46.600106
 20
14.197080
 30
0.0
 10
40.118782
 20
12.163816
 30
0.0
 10
38.607121
 20
10.931930
 30
0.0
  0
SPLINE
  5
136
100
AcDbEntity
  8
Layer_1
 62
7
100
AcDbSpline
 70
8
 71
3
 72
8
 73
4
 74
0
 40
0
 40
0
 40
0
 40
0
 40
1
 40
1
 40
1
 40
1
 10
38.607121
 20
10.931930
 30
0.0
 10
37.095460
 20
9.699733
 30
0.0
 10
34.842703
 20
7.901291
 30
0.0
 10
33.496474
 20
6.842416
 30
0.0
  0
SPLINE
  5
137
100
AcDbEntity
  8
Layer_1
 62
7
100
AcDbSpline
 70
8
 71
3
 72
8
 73
4
 74
0
 40
0
 40
0
 40
0
 40
0
 40
1
 40
1
 40
1
 40
1
 10
33.496474
 20
6.842416
 30
0.0
 10
32.150244
 20
5.783230
 30
0.0
 10
26.984341
 20
3.101408
 30
0.0
 10
25.401350
 20
2.422722
 30
0.0
  0
SPLINE
  5
138
100
AcDbEntity
  8
Layer_1
 62
7
100
AcDbSpline
 70
8
 71
3
 72
8
 73
4
 74
0
 40
0
 40
0
 40
0
 40
0
 40
1
 40
1
 40
1
 40
1
 10
25.401350
 20
2.422722
 30
0.0
 10
23.818359
 20
1.743724
 30
0.0
 10
16.910060
 20
3.031831
 30
0.0
 10
16.436201
 20
3.792830
 30
0.0
  0
SPLINE
  5
139
100
AcDbEntity
  8
Layer_1
 62
7
100
AcDbSpline
 70
8
 71
3
 72
8
 73
4
 74
0
 40
0
 40
0
 40
0
 40
0
 40
1
 40
1
 40
1
 40
1
 10
16.436201
 20
3.792830
 30
0.0
 10
15.962676
 20
4.553518
 30
0.0
 10
15.764091
 20
5.435034
 30
0.0
 10
16.869539
 20
5.292774
 30
0.0
  0
SPLINE
  5
13a
100
AcDbEntity
  8
Layer_1
 62
7
100
AcDbSpline
 70
8
 71
3
 72
8
 73
4
 74
0
 40
0
 40
0
 40
0
 40
0
 40
1
 40
1
 40
1
 40
1
 10
16.869539
 20
5.292774
 30
0.0
 10
17.760997
 20
5.178779
 30
0.0
 10
18.120996
 20
5.624818
 30
0.0
 10
19.264956
 20
5.983885
 30
0.0
  0
SPLINE
  5
13b
100
AcDbEntity
  8
Layer_1
 62
7
100
AcDbSpline
 70
8
 71
3
 72
8
 73
4
 74
0
 40
0
 40
0
 40
0
 40
0
 40
1
 40
1
 40
1
 40
1
 10
19.264956
 20
5.983885
 30
0.0
 10
20.408581
 20
6.342642
 30
0.0
 10
22.827440
 20
8.314405
 30
0.0
 10
24.843435
 20
10.493346
 30
0.0
  0
SPLINE
  5
13c
100
AcDbEntity
  8
Layer_1
 62
7
100
AcDbSpline
 70
8
 71
3
 72
8
 73
4
 74
0
 40
0
 40
0
 40
0
 40
0
 40
1
 40
1
 40
1
 40
1
 10
24.843435
 20
10.493346
 30
0.0
 10
26.859765
 20
12.672287
 30
0.0
 10
29.193564
 20
15.950794
 30
0.0
 10
30.489560
 20
17.236727
 30
0.0
  0
SPLINE
  5
13d
100
AcDbEntity
  8
Layer_1
 62
7
100
AcDbSpline
 70
8
 71
3
 72
8
 73
4
 74
0
 40
0
 40
0
 40
0
 40
0
 40
1
 40
1
 40
1
 40
1
 10
30.489560
 20
17.236727
 30
0.0
 10
31.785892
 20
18.522659
 30
0.0
 10
32.463360
 20
20.069195
 30
0.0
 10
34.853084
 20
21.940631
 30
0.0
  0
SPLINE
  5
13e
100
AcDbEntity
  8
Layer_1
 62
7
100
AcDbSpline
 70
8
 71
3
 72
8
 73
4
 74
0
 40
0
 40
0
 40
0
 40
0
 40
1
 40
1
 40
1
 40
1
 10
34.853084
 20
21.940631
 30
0.0
 10
37.242808
 20
23.812066
 30
0.0
 10
37.006046
 20
24.192566
 30
0.0
 10
38.733037
 20
25.371026
 30
0.0
  0
SPLINE
  5
13f
100
AcDbEntity
  8
Layer_1
 62
7
100
AcDbSpline
 70
8
 71
3
 72
8
 73
4
 74
0
 40
0
 40
0
 40
0
 40
0
 40
1
 40
1
 40
1
 40
1
 10
38.733037
 20
25.371026
 30
0.0
 10
40.354205
 20
26.477115
 30
0.0
 10
41.612025
 20
27.335024
 30
0.0
 10
43.152486
 20
28.667549
 30
0.0
  0
SPLINE
  5
140
100
AcDbEntity
  8
Layer_1
 62
7
100
AcDbSpline
 70
8
 71
3
 72
8
 73
4
 74
0
 40
0
 40
0
 40
0
 40
0
 40
1
 40
1
 40
1
 40
1
 10
43.152486
 20
28.667549
 30
0.0
 10
44.692948
 20
29.999762
 30
0.0
 10
45.894507
 20
30.558553
 30
0.0
 10
46.795677
 20
32.478444
 30
0.0
  0
SPLINE
  5
141
100
AcDbEntity
  8
Layer_1
 62
7
100
AcDbSpline
 70
8
 71
3
 72
8
 73
4
 74
0
 40
0
 40
0
 40
0
 40
0
 40
1
 40
1
 40
1
 40
1
 10
46.795677
 20
32.478444
 30
0.0
 10
47.732679
 20
34.474124
 30
0.0
 10
48.540417
 20
36.117571
 30
0.0
 10
50.556412
 20
38.296202
 30
0.0
  0
SPLINE
  5
142
100
AcDbEntity
  8
Layer_1
 62
7
100
AcDbSpline
 70
8
 71
3
 72
8
 73
4
 74
0
 40
0
 40
0
 40
0
 40
0
 40
1
 40
1
 40
1
 40
1
 10
50.556412
 20
38.296202
 30
0.0
 10
52.572407
 20
40.474832
 30
0.0
 10
53.156108
 20
41.294847
 30
0.0
 10
54.767899
 20
42.073551
 30
0.0
  0
SPLINE
  5
143
100
AcDbEntity
  8
Layer_1
 62
7
100
AcDbSpline
 70
8
 71
3
 72
8
 73
4
 74
0
 40
0
 40
0
 40
0
 40
0
 40
1
 40
1
 40
1
 40
1
 10
54.767899
 20
42.073551
 30
0.0
 10
56.379690
 20
42.851944
 30
0.0
 10
59.321301
 20
43.835341
 30
0.0
 10
60.565391
 20
43.740915
 30
0.0
  0
SPLINE
  5
144
100
AcDbEntity
  8
Layer_1
 62
7
100
AcDbSpline
 70
8
 71
3
 72
8
 73
4
 74
0
 40
0
 40
0
 40
0
 40
0
 40
1
 40
1
 40
1
 40
1
 10
60.565391
 20
43.740915
 30
0.0
 10
61.809481
 20
43.646178
 30
0.0
 10
62.211675
 20
43.439000
 30
0.0
 10
63.253496
 20
42.644145
 30
0.0
  0
SPLINE
  5
145
100
AcDbEntity
  8
Layer_1
 62
7
100
AcDbSpline
 70
8
 71
3
 72
8
 73
4
 74
0
 40
0
 40
0
 40
0
 40
0
 40
1
 40
1
 40
1
 40
1
 10
63.253496
 20
42.644145
 30
0.0
 10
64.294982
 20
41.848979
 30
0.0
 10
63.448063
 20
42.917172
 30
0.0
 10
63.827150
 20
41.429653
 30
0.0
  0
SPLINE
  5
146
100
AcDbEntity
  8
Layer_1
 62
7
100
AcDbSpline
 70
8
 71
3
 72
8
 73
4
 74
0
 40
0
 40
0
 40
0
 40
0
 40
1
 40
1
 40
1
 40
1
 10
63.827150
 20
41.429653
 30
0.0
 10
64.206238
 20
39.941823
 30
0.0
 10
63.961773
 20
39.895541
 30
0.0
 10
65.355556
 20
39.120255
 30
0.0
  0
SPLINE
  5
147
100
AcDbEntity
  8
Layer_1
 62
7
100
AcDbSpline
 70
8
 71
3
 72
8
 73
4
 74
0
 40
0
 40
0
 40
0
 40
0
 40
1
 40
1
 40
1
 40
1
 10
65.355556
 20
39.120255
 30
0.0
 10
66.749673
 20
38.344968
 30
0.0
 10
68.258990
 20
37.969749
 30
0.0
 10
68.258990
 20
37.969749
 30
0.0
  0
LWPOLYLINE
  5
148
100
AcDbEntity
  8
Layer_1
 62
7
100
AcDbPolyline
 90
2
 70
0
 10
7.656588
 20
37.969749
 30
0.0
 10
7.655918
 20
37.969438
 30
0.0
  0
SPLINE
  5
149
100
AcDbEntity
  8
Layer_1
 62
7
100
AcDbSpline
 70
8
 71
3
 72
8
 73
4
 74
0
 40
0
 40
0
 40
0
 40
0
 40
1
 40
1
 40
1
 40
1
 10
63.821792
 20
42.609667
 30
0.0
 10
63.821792
 20
42.609667
 30
0.0
 10
63.733048
 20
40.702200
 30
0.0
 10
64.422237
 20
39.887776
 30
0.0
  0
SPLINE
  5
14a
100
AcDbEntity
  8
Layer_1
 62
7
100
AcDbSpline
 70
8
 71
3
 72
8
 73
4
 74
0
 40
0
 40
0
 40
0
 40
0
 40
1
 40
1
 40
1
 40
1
 10
64.422237
 20
39.887776
 30
0.0
 10
65.111426
 20
39.073352
 30
0.0
 10
66.052782
 20
38.732300
 30
0.0
 10
67.267737
 20
38.537547
 30
0.0
  0
SPLINE
  5
14b
100
AcDbEntity
  8
Layer_1
 62
7
100
AcDbSpline
 70
8
 71
3
 72
8
 73
4
 74
0
 40
0
 40
0
 40
0
 40
0
 40
1
 40
1
 40
1
 40
1
 10
67.267737
 20
38.537547
 30
0.0
 10
68.482692
 20
38.342793
 30
0.0
 10
68.719454
 20
37.962294
 30
0.0
 10
68.971956
 20
38.435666
 30
0.0
  0
SPLINE
  5
14c
100
AcDbEntity
  8
Layer_1
 62
7
100
AcDbSpline
 70
8
 71
3
 72
8
 73
4
 74
0
 40
0
 40
0
 40
0
 40
0
 40
1
 40
1
 40
1
 40
1
 10
68.971956
 20
38.435666
 30
0.0
 10
69.224123
 20
38.908728
 30
0.0
 10
68.024907
 20
39.957353
 30
0.0
 10
69.888865
 20
41.209118
 30
0.0
  0
SPLINE
  5
14d
100
AcDbEntity
  8
Layer_1
 62
7
100
AcDbSpline
 70
8
 71
3
 72
8
 73
4
 74
0
 40
0
 40
0
 40
0
 40
0
 40
1
 40
1
 40
1
 40
1
 10
69.888865
 20
41.209118
 30
0.0
 10
71.752488
 20
42.460884
 30
0.0
 10
73.327778
 20
42.712479
 30
0.0
 10
74.171013
 20
44.432336
 30
0.0
  0
SPLINE
  5
14e
100
AcDbEntity
  8
Layer_1
 62
7
100
AcDbSpline
 70
8
 71
3
 72
8
 73
4
 74
0
 40
0
 40
0
 40
0
 40
0
 40
1
 40
1
 40
1
 40
1
 10
74.171013
 20
44.432336
 30
0.0
 10
74.864555
 20
45.845930
 30
0.0
 10
75.238284
 20
46.525549
 30
0.0
 10
74.672332
 20
48.166510
 30
0.0
  0
SPLINE
  5
14f
100
AcDbEntity
  8
Layer_1
 62
7
100
AcDbSpline
 70
8
 71
3
 72
8
 73
4
 74
0
 40
0
 40
0
 40
0
 40
0
 40
1
 40
1
 40
1
 40
1
 10
74.672332
 20
48.166510
 30
0.0
 10
73.974436
 20
50.190146
 30
0.0
 10
71.856972
 20
51.224172
 30
0.0
 10
70.555617
 20
51.118875
 30
0.0
  0
SPLINE
  5
150
100
AcDbEntity
  8
Layer_1
 62
7
100
AcDbSpline
 70
8
 71
3
 72
8
 73
4
 74
0
 40
0
 40
0
 40
0
 40
0
 40
1
 40
1
 40
1
 40
1
 10
70.555617
 20
51.118875
 30
0.0
 10
69.254262
 20
51.013888
 30
0.0
 10
69.469592
 20
50.960152
 30
0.0
 10
69.382857
 20
50.660101
 30
0.0
  0
SPLINE
  5
151
100
AcDbEntity
  8
Layer_1
 62
7
100
AcDbSpline
 70
8
 71
3
 72
8
 73
4
 74
0
 40
0
 40
0
 40
0
 40
0
 40
1
 40
1
 40
1
 40
1
 10
69.382857
 20
50.660101
 30
0.0
 10
69.296123
 20
50.360050
 30
0.0
 10
69.173221
 20
49.533202
 30
0.0
 10
69.604215
 20
49.426041
 30
0.0
  0
SPLINE
  5
152
100
AcDbEntity
  8
Layer_1
 62
7
100
AcDbSpline
 70
8
 71
3
 72
8
 73
4
 74
0
 40
0
 40
0
 40
0
 40
0
 40
1
 40
1
 40
1
 40
1
 10
69.604215
 20
49.426041
 30
0.0
 10
70.035544
 20
49.318880
 30
0.0
 10
70.387841
 20
49.338448
 30
0.0
 10
71.098127
 20
48.197261
 30
0.0
  0
SPLINE
  5
153
100
AcDbEntity
  8
Layer_1
 62
7
100
AcDbSpline
 70
8
 71
3
 72
8
 73
4
 74
0
 40
0
 40
0
 40
0
 40
0
 40
1
 40
1
 40
1
 40
1
 10
71.098127
 20
48.197261
 30
0.0
 10
71.808749
 20
47.056074
 30
0.0
 10
72.448040
 20
46.468396
 30
0.0
 10
71.367708
 20
45.129038
 30
0.0
  0
SPLINE
  5
154
100
AcDbEntity
  8
Layer_1
 62
7
100
AcDbSpline
 70
8
 71
3
 72
8
 73
4
 74
0
 40
0
 40
0
 40
0
 40
0
 40
1
 40
1
 40
1
 40
1
 10
71.367708
 20
45.129038
 30
0.0
 10
70.287376
 20
43.789681
 30
0.0
 10
69.790745
 20
43.270027
 30
0.0
 10
67.942191
 20
42.871823
 30
0.0
  0
SPLINE
  5
155
100
AcDbEntity
  8
Layer_1
 62
7
100
AcDbSpline
 70
8
 71
3
 72
8
 73
4
 74
0
 40
0
 40
0
 40
0
 40
0
 40
1
 40
1
 40
1
 40
1
 10
67.942191
 20
42.871823
 30
0.0
 10
66.296577
 20
42.517415
 30
0.0
 10
63.821457
 20
42.609667
 30
0.0
 10
63.821457
 20
42.609667
 30
0.0
  0
LWPOLYLINE
  5
156
100
AcDbEntity
  8
Layer_1
 62
7
100
AcDbPolyline
 90
2
 70
0
 10
68.258990
 20
37.969749
 30
0.0
 10
68.259660
 20
37.969438
 30
0.0
  0
SPLINE
  5
157
100
AcDbEntity
  8
Layer_1
 62
7
100
AcDbSpline
 70
8
 71
3
 72
8
 73
4
 74
0
 40
0
 40
0
 40
0
 40
0
 40
1
 40
1
 40
1
 40
1
 10
25.997441
 20
4.686149
 30
0.0
 10
30.206919
 20
6.855772
 30
0.0
 10
34.042668
 20
9.332590
 30
0.0
 10
37.346957
 20
12.370062
 30
0.0
  0
SPLINE
  5
158
100
AcDbEntity
  8
Layer_1
 62
7
100
AcDbSpline
 70
8
 71
3
 72
8
 73
4
 74
0
 40
0
 40
0
 40
0
 40
0
 40
1
 40
1
 40
1
 40
1
 10
53.001727
 20
21.556404
 30
0.0
 10
54.915582
 20
22.581423
 30
0.0
 10
60.757949
 20
25.202675
 30
0.0
 10
63.047543
 20
27.527914
 30
0.0
  0
SPLINE
  5
159
100
AcDbEntity
  8
Layer_1
 62
7
100
AcDbSpline
 70
8
 71
3
 72
8
 73
4
 74
0
 40
0
 40
0
 40
0
 40
0
 40
1
 40
1
 40
1
 40
1
 10
54.548551
 20
38.911834
 30
0.0
 10
56.578276
 20
40.336921
 30
0.0
 10
57.290572
 20
40.802838
 30
0.0
 10
59.189023
 20
40.974296
 30
0.0
  0
LWPOLYLINE
  5
15a
100
AcDbEntity
  8
Layer_1
 62
7
100
AcDbPolyline
 90
2
 70
0
 10
63.821457
 20
42.609667
 30
0.0
 10
63.821792
 20
42.609667
 30
0.0
  0
SPLINE
  5
15b
100
AcDbEntity
  8
Layer_1
 62
7
100
AcDbSpline
 70
8
 71
3
 72
8
 73
4
 74
0
 40
0
 40
0
 40
0
 40
0
 40
1
 40
1
 40
1
 40
1
 10
59.962937
 20
38.852507
 30
0.0
 10
57.956654
 20
38.708073
 30
0.0
 10
57.517622
 20
38.388143
 30
0.0
 10
56.279225
 20
37.302555
 30
0.0
  0
LWPOLYLINE
  5
15c
100
AcDbEntity
  8
Layer_1
 62
7
100
AcDbPolyline
 90
2
 70
0
 10
59.189023
 20
40.974296
 30
0.0
 10
59.962937
 20
38.852507
 30
0.0
  0
SPLINE
  5
15d
100
AcDbEntity
  8
Layer_1
 62
7
100
AcDbSpline
 70
8
 71
3
 72
8
 73
4
 74
0
 40
0
 40
0
 40
0
 40
0
 40
1
 40
1
 40
1
 40
1
 10
38.284938
 20
74.582380
 30
0.0
 10
24.667389
 20
74.582380
 30
0.0
 10
13.689976
 20
63.604967
 30
0.0
 10
13.689976
 20
49.987417
 30
0.0
  0
SPLINE
  5
15e
100
AcDbEntity
  8
Layer_1
 62
7
100
AcDbSpline
 70
8
 71
3
 72
8
 73
4
 74
0
 40
0
 40
0
 40
0
 40
0
 40
1
 40
1
 40
1
 40
1
 10
13.689976
 20
49.987417
 30
0.0
 10
13.689976
 20
32.618095
 30
0.0
 10
21.610388
 20
35.814050
 30
0.0
 10
21.610388
 20
25.531410
 30
0.0
  0
SPLINE
  5
15f
100
AcDbEntity
  8
Layer_1
 62
7
100
AcDbSpline
 70
8
 71
3
 72
8
 73
4
 74
0
 40
0
 40
0
 40
0
 40
0
 40
1
 40
1
 40
1
 40
1
 10
21.610388
 20
25.531410
 30
0.0
 10
21.610388
 20
23.586047
 30
0.0
 10
23.972616
 20
21.779637
 30
0.0
 10
25.917979
 20
21.779637
 30
0.0
  0
SPLINE
  5
160
100
AcDbEntity
  8
Layer_1
 62
7
100
AcDbSpline
 70
8
 71
3
 72
8
 73
4
 74
0
 40
0
 40
0
 40
0
 40
0
 40
1
 40
1
 40
1
 40
1
 10
25.917979
 20
21.779637
 30
0.0
 10
29.808708
 20
21.779637
 30
0.0
 10
30.503481
 20
24.280820
 30
0.0
 10
30.642436
 20
26.504093
 30
0.0
  0
SPLINE
  5
161
100
AcDbEntity
  8
Layer_1
 62
7
100
AcDbSpline
 70
8
 71
3
 72
8
 73
4
 74
0
 40
0
 40
0
 40
0
 40
0
 40
1
 40
1
 40
1
 40
1
 10
30.642436
 20
26.504093
 30
0.0
 10
30.781390
 20
27.337820
 30
0.0
 10
31.476163
 20
27.893639
 30
0.0
 10
32.170936
 20
27.893639
 30
0.0
  0
SPLINE
  5
162
100
AcDbEntity
  8
Layer_1
 62
7
100
AcDbSpline
 70
8
 71
3
 72
8
 73
4
 74
0
 40
0
 40
0
 40
0
 40
0
 40
1
 40
1
 40
1
 40
1
 10
32.170936
 20
27.893639
 30
0.0
 10
33.004664
 20
27.893639
 30
0.0
 10
33.838391
 20
27.198866
 30
0.0
 10
33.838391
 20
26.226183
 30
0.0
  0
SPLINE
  5
163
100
AcDbEntity
  8
Layer_1
 62
7
100
AcDbSpline
 70
8
 71
3
 72
8
 73
4
 74
0
 40
0
 40
0
 40
0
 40
0
 40
1
 40
1
 40
1
 40
1
 10
33.838391
 20
26.226183
 30
0.0
 10
33.838391
 20
23.308137
 30
0.0
 10
35.922710
 20
21.640682
 30
0.0
 10
38.145983
 20
21.640682
 30
0.0
  0
SPLINE
  5
164
100
AcDbEntity
  8
Layer_1
 62
7
100
AcDbSpline
 70
8
 71
3
 72
8
 73
4
 74
0
 40
0
 40
0
 40
0
 40
0
 40
1
 40
1
 40
1
 40
1
 10
38.145983
 20
21.640682
 30
0.0
 10
40.369256
 20
21.640682
 30
0.0
 10
42.453576
 20
23.308137
 30
0.0
 10
42.453576
 20
26.226183
 30
0.0
  0
SPLINE
  5
165
100
AcDbEntity
  8
Layer_1
 62
7
100
AcDbSpline
 70
8
 71
3
 72
8
 73
4
 74
0
 40
0
 40
0
 40
0
 40
0
 40
1
 40
1
 40
1
 40
1
 10
42.453576
 20
26.226183
 30
0.0
 10
42.453576
 20
27.059911
 30
0.0
 10
43.148349
 20
27.893639
 30
0.0
 10
44.121030
 20
27.893639
 30
0.0
  0
SPLINE
  5
166
100
AcDbEntity
  8
Layer_1
 62
7
100
AcDbSpline
 70
8
 71
3
 72
8
 73
4
 74
0
 40
0
 40
0
 40
0
 40
0
 40
1
 40
1
 40
1
 40
1
 10
44.121030
 20
27.893639
 30
0.0
 10
44.954758
 20
27.893639
 30
0.0
 10
45.649530
 20
27.337820
 30
0.0
 10
45.649530
 20
26.504093
 30
0.0
  0
SPLINE
  5
167
100
AcDbEntity
  8
Layer_1
 62
7
100
AcDbSpline
 70
8
 71
3
 72
8
 73
4
 74
0
 40
0
 40
0
 40
0
 40
0
 40
1
 40
1
 40
1
 40
1
 10
45.649530
 20
26.504093
 30
0.0
 10
45.927440
 20
24.280820
 30
0.0
 10
46.622213
 20
21.779637
 30
0.0
 10
50.373986
 20
21.779637
 30
0.0
  0
SPLINE
  5
168
100
AcDbEntity
  8
Layer_1
 62
7
100
AcDbSpline
 70
8
 71
3
 72
8
 73
4
 74
0
 40
0
 40
0
 40
0
 40
0
 40
1
 40
1
 40
1
 40
1
 10
50.373986
 20
21.779637
 30
0.0
 10
52.319351
 20
21.779637
 30
0.0
 10
54.681579
 20
23.447092
 30
0.0
 10
54.681579
 20
25.531410
 30
0.0
  0
SPLINE
  5
169
100
AcDbEntity
  8
Layer_1
 62
7
100
AcDbSpline
 70
8
 71
3
 72
8
 73
4
 74
0
 40
0
 40
0
 40
0
 40
0
 40
1
 40
1
 40
1
 40
1
 10
54.681579
 20
25.531410
 30
0.0
 10
54.681579
 20
35.953005
 30
0.0
 10
62.601990
 20
32.757049
 30
0.0
 10
62.601990
 20
49.987417
 30
0.0
  0
SPLINE
  5
16a
100
AcDbEntity
  8
Layer_1
 62
7
100
AcDbSpline
 70
8
 71
3
 72
8
 73
4
 74
0
 40
0
 40
0
 40
0
 40
0
 40
1
 40
1
 40
1
 40
1
 10
62.601990
 20
49.987417
 30
0.0
 10
62.879899
 20
63.604967
 30
0.0
 10
51.902487
 20
74.582380
 30
0.0
 10
38.284938
 20
74.582380
 30
0.0
  0
LWPOLYLINE
  5
16b
100
AcDbEntity
  8
Layer_1
 62
7
100
AcDbPolyline
 90
2
 70
0
 10
56.279225
 20
37.302555
 30
0.0
 10
54.548551
 20
38.911834
 30
0.0
  0
SPLINE
  5
16c
100
AcDbEntity
  8
Layer_1
 62
2
100
AcDbSpline
 70
8
 71
3
 72
8
 73
4
 74
0
 40
0
 40
0
 40
0
 40
0
 40
1
 40
1
 40
1
 40
1
 10
38.284938
 20
74.582380
 30
0.0
 10
24.667389
 20
74.582380
 30
0.0
 10
13.689976
 20
63.604967
 30
0.0
 10
13.689976
 20
49.987417
 30
0.0
  0
SPLINE
  5
16d
100
AcDbEntity
  8
Layer_1
 62
2
100
AcDbSpline
 70
8
 71
3
 72
8
 73
4
 74
0
 40
0
 40
0
 40
0
 40
0
 40
1
 40
1
 40
1
 40
1
 10
13.689976
 20
49.987417
 30
0.0
 10
13.689976
 20
32.618095
 30
0.0
 10
21.610388
 20
35.814050
 30
0.0
 10
21.610388
 20
25.531410
 30
0.0
  0
SPLINE
  5
16e
100
AcDbEntity
  8
Layer_1
 62
2
100
AcDbSpline
 70
8
 71
3
 72
8
 73
4
 74
0
 40
0
 40
0
 40
0
 40
0
 40
1
 40
1
 40
1
 40
1
 10
21.610388
 20
25.531410
 30
0.0
 10
21.610388
 20
23.586047
 30
0.0
 10
23.972616
 20
21.779637
 30
0.0
 10
25.917979
 20
21.779637
 30
0.0
  0
SPLINE
  5
16f
100
AcDbEntity
  8
Layer_1
 62
2
100
AcDbSpline
 70
8
 71
3
 72
8
 73
4
 74
0
 40
0
 40
0
 40
0
 40
0
 40
1
 40
1
 40
1
 40
1
 10
25.917979
 20
21.779637
 30
0.0
 10
29.808708
 20
21.779637
 30
0.0
 10
30.503481
 20
24.280820
 30
0.0
 10
30.642436
 20
26.504093
 30
0.0
  0
SPLINE
  5
170
100
AcDbEntity
  8
Layer_1
 62
2
100
AcDbSpline
 70
8
 71
3
 72
8
 73
4
 74
0
 40
0
 40
0
 40
0
 40
0
 40
1
 40
1
 40
1
 40
1
 10
30.642436
 20
26.504093
 30
0.0
 10
30.781390
 20
27.337820
 30
0.0
 10
31.476163
 20
27.893639
 30
0.0
 10
32.170936
 20
27.893639
 30
0.0
  0
SPLINE
  5
171
100
AcDbEntity
  8
Layer_1
 62
2
100
AcDbSpline
 70
8
 71
3
 72
8
 73
4
 74
0
 40
0
 40
0
 40
0
 40
0
 40
1
 40
1
 40
1
 40
1
 10
32.170936
 20
27.893639
 30
0.0
 10
33.004664
 20
27.893639
 30
0.0
 10
33.838391
 20
27.198866
 30
0.0
 10
33.838391
 20
26.226183
 30
0.0
  0
SPLINE
  5
172
100
AcDbEntity
  8
Layer_1
 62
2
100
AcDbSpline
 70
8
 71
3
 72
8
 73
4
 74
0
 40
0
 40
0
 40
0
 40
0
 40
1
 40
1
 40
1
 40
1
 10
33.838391
 20
26.226183
 30
0.0
 10
33.838391
 20
23.308137
 30
0.0
 10
35.922710
 20
21.640682
 30
0.0
 10
38.145983
 20
21.640682
 30
0.0
  0
SPLINE
  5
173
100
AcDbEntity
  8
Layer_1
 62
2
100
AcDbSpline
 70
8
 71
3
 72
8
 73
4
 74
0
 40
0
 40
0
 40
0
 40
0
 40
1
 40
1
 40
1
 40
1
 10
38.145983
 20
21.640682
 30
0.0
 10
40.369256
 20
21.640682
 30
0.0
 10
42.453576
 20
23.308137
 30
0.0
 10
42.453576
 20
26.226183
 30
0.0
  0
SPLINE
  5
174
100
AcDbEntity
  8
Layer_1
 62
2
100
AcDbSpline
 70
8
 71
3
 72
8
 73
4
 74
0
 40
0
 40
0
 40
0
 40
0
 40
1
 40
1
 40
1
 40
1
 10
42.453576
 20
26.226183
 30
0.0
 10
42.453576
 20
27.059911
 30
0.0
 10
43.148349
 20
27.893639
 30
0.0
 10
44.121030
 20
27.893639
 30
0.0
  0
SPLINE
  5
175
100
AcDbEntity
  8
Layer_1
 62
2
100
AcDbSpline
 70
8
 71
3
 72
8
 73
4
 74
0
 40
0
 40
0
 40
0
 40
0
 40
1
 40
1
 40
1
 40
1
 10
44.121030
 20
27.893639
 30
0.0
 10
44.954758
 20
27.893639
 30
0.0
 10
45.649530
 20
27.337820
 30
0.0
 10
45.649530
 20
26.504093
 30
0.0
  0
SPLINE
  5
176
100
AcDbEntity
  8
Layer_1
 62
2
100
AcDbSpline
 70
8
 71
3
 72
8
 73
4
 74
0
 40
0
 40
0
 40
0
 40
0
 40
1
 40
1
 40
1
 40
1
 10
45.649530
 20
26.504093
 30
0.0
 10
45.927440
 20
24.280820
 30
0.0
 10
46.622213
 20
21.779637
 30
0.0
 10
50.373986
 20
21.779637
 30
0.0
  0
SPLINE
  5
177
100
AcDbEntity
  8
Layer_1
 62
2
100
AcDbSpline
 70
8
 71
3
 72
8
 73
4
 74
0
 40
0
 40
0
 40
0
 40
0
 40
1
 40
1
 40
1
 40
1
 10
50.373986
 20
21.779637
 30
0.0
 10
52.319351
 20
21.779637
 30
0.0
 10
54.681579
 20
23.447092
 30
0.0
 10
54.681579
 20
25.531410
 30
0.0
  0
SPLINE
  5
178
100
AcDbEntity
  8
Layer_1
 62
2
100
AcDbSpline
 70
8
 71
3
 72
8
 73
4
 74
0
 40
0
 40
0
 40
0
 40
0
 40
1
 40
1
 40
1
 40
1
 10
54.681579
 20
25.531410
 30
0.0
 10
54.681579
 20
35.953005
 30
0.0
 10
62.601990
 20
32.757049
 30
0.0
 10
62.601990
 20
49.987417
 30
0.0
  0
SPLINE
  5
179
100
AcDbEntity
  8
Layer_1
 62
2
100
AcDbSpline
 70
8
 71
3
 72
8
 73
4
 74
0
 40
0
 40
0
 40
0
 40
0
 40
1
 40
1
 40
1
 40
1
 10
62.601990
 20
49.987417
 30
0.0
 10
62.879899
 20
63.604967
 30
0.0
 10
51.902487
 20
74.582380
 30
0.0
 10
38.284938
 20
74.582380
 30
0.0
  0
LWPOLYLINE
  5
17a
100
AcDbEntity
  8
Layer_1
 62
7
100
AcDbPolyline
 90
2
 70
1
 10
38.284938
 20
74.582380
 30
0.0
 10
38.284938
 20
74.582380
 30
0.0
  0
ENDSEC
  0
SECTION
  2
OBJECTS
  0
DICTIONARY
  5
C
330
0
100
AcDbDictionary
  3
ACAD_GROUP
350
D
  3
ACAD_MLINESTYLE
350
17
  0
DICTIONARY
  5
D
330
C
100
AcDbDictionary
  0
DICTIONARY
  5
1A
330
C
100
AcDbDictionary
  0
DICTIONARY
  5
17
330
C
100
AcDbDictionary
  3
STANDARD
350
18
  0
DICTIONARY
  5
19
330
C
100
AcDbDictionary
  0
ENDSEC
  0
EOF
