  0
SECTION
  2
HEADER
  9
$ACADVER
  1
AC1014
  9
$HANDSEED
  5
FFFF
  9
$MEASUREMENT
 70
     1
  0
ENDSEC
  0
SECTION
  2
TABLES
  0
TABLE
  2
VPORT
  5
8
330
0
100
AcDbSymbolTable
 70
     4
  0
VPORT
  5
2E
330
8
100
AcDbSymbolTableRecord
100
AcDbViewportTableRecord
  2
*ACTIVE
 70
     0
 10
0.0
 20
0.0
 11
1.0
 21
1.0
 12
210.0
 22
148.5
 13
0.0
 23
0.0
 14
10.0
 24
10.0
 15
10.0
 25
10.0
 16
0.0
 26
0.0
 36
1.0
 17
0.0
 27
0.0
 37
0.0
 40
341.0
 41
1.24
 42
50.0
 43
0.0
 44
0.0
 50
0.0
 51
0.0
 71
     0
 72
   100
 73
     1
 74
     3
 75
     0
 76
     0
 77
     0
 78
     0
  0
ENDTAB
  0
TABLE
  2
LTYPE
  5
5
330
0
100
AcDbSymbolTable
 70
     1
  0
LTYPE
  5
14
330
5
100
AcDbSymbolTableRecord
100
AcDbLinetypeTableRecord
  2
BYBLOCK
 70
     0
  3

 72
    65
 73
     0
 40
0.0
  0
LTYPE
  5
15
330
5
100
AcDbSymbolTableRecord
100
AcDbLinetypeTableRecord
  2
BYLAYER
 70
     0
  3

 72
    65
 73
     0
 40
0.0
  0
LTYPE
  5
16
330
5
100
AcDbSymbolTableRecord
100
AcDbLinetypeTableRecord
  2
CONTINUOUS
 70
     0
  3
Solid line
 72
    65
 73
     0
 40
0.0
  0
ENDTAB
  0
TABLE
  2
LAYER
  5
2
100
AcDbSymbolTable
 70
3
  0
LAYER
  5
50
100
AcDbSymbolTableRecord
100
AcDbLayerTableRecord
  2
0
 70
0
  6
CONTINUOUS
  0
LAYER
  5
51
100
AcDbSymbolTableRecord
100
AcDbLayerTableRecord
  2
Layer_2
 70
0
  6
CONTINUOUS
  0
LAYER
  5
52
100
AcDbSymbolTableRecord
100
AcDbLayerTableRecord
  2
Layer_1
 70
0
  6
CONTINUOUS
  0
ENDTAB
  0
TABLE
  2
STYLE
  5
3
330
0
100
AcDbSymbolTable
 70
     1
  0
STYLE
  5
11
330
3
100
AcDbSymbolTableRecord
100
AcDbTextStyleTableRecord
  2
STANDARD
 70
     0
 40
0.0
 41
1.0
 50
0.0
 71
     0
 42
2.5
  3
txt
  4

  0
ENDTAB
  0
TABLE
  2
VIEW
  5
6
330
0
100
AcDbSymbolTable
 70
     0
  0
ENDTAB
  0
TABLE
  2
UCS
  5
7
330
0
100
AcDbSymbolTable
 70
     0
  0
ENDTAB
  0
TABLE
  2
APPID
  5
9
330
0
100
AcDbSymbolTable
 70
     2
  0
APPID
  5
12
330
9
100
AcDbSymbolTableRecord
100
AcDbRegAppTableRecord
  2
ACAD
 70
     0
  0
ENDTAB
  0
TABLE
  2
DIMSTYLE
  5
A
330
0
100
AcDbSymbolTable
 70
     1
  0
DIMSTYLE
105
27
330
A
100
AcDbSymbolTableRecord
100
AcDbDimStyleTableRecord
  2
ISO-25
 70
     0
  3

  4

  5

  6

  7

 40
1.0
 41
2.5
 42
0.625
 43
3.75
 44
1.25
 45
0.0
 46
0.0
 47
0.0
 48
0.0
140
2.5
141
2.5
142
0.0
143
0.03937007874016
144
1.0
145
0.0
146
1.0
147
0.625
 71
     0
 72
     0
 73
     0
 74
     0
 75
     0
 76
     0
 77
     1
 78
     8
170
     0
171
     3
172
     1
173
     0
174
     0
175
     0
176
     0
177
     0
178
     0
270
     2
271
     2
272
     2
273
     2
274
     3
340
11
275
     0
280
     0
281
     0
282
     0
283
     0
284
     8
285
     0
286
     0
287
     3
288
     0
  0
ENDTAB
  0
TABLE
  2
BLOCK_RECORD
  5
1
330
0
100
AcDbSymbolTable
 70
     1
  0
BLOCK_RECORD
  5
1F
330
1
100
AcDbSymbolTableRecord
100
AcDbBlockTableRecord
  2
*MODEL_SPACE
  0
BLOCK_RECORD
  5
1B
330
1
100
AcDbSymbolTableRecord
100
AcDbBlockTableRecord
  2
*PAPER_SPACE
  0
ENDTAB
  0
ENDSEC
  0
SECTION
  2
BLOCKS
  0
BLOCK
  5
20
330
1F
100
AcDbEntity
  8
0
100
AcDbBlockBegin
  2
*MODEL_SPACE
 70
     0
 10
0.0
 20
0.0
 30
0.0
  3
*MODEL_SPACE
  1

  0
ENDBLK
  5
21
330
1F
100
AcDbEntity
  8
0
100
AcDbBlockEnd
  0
BLOCK
  5
1C
330
1B
100
AcDbEntity
 67
     1
  8
0
100
AcDbBlockBegin
  2
*PAPER_SPACE
  1

  0
ENDBLK
  5
1D
330
1B
100
AcDbEntity
 67
     1
  8
0
100
AcDbBlockEnd
  0
ENDSEC
  0
SECTION
  2
ENTITIES
  0
SPLINE
  5
100
100
AcDbEntity
  8
Layer_2
 62
7
100
AcDbSpline
 70
8
 71
3
 72
8
 73
4
 74
0
 40
0
 40
0
 40
0
 40
0
 40
1
 40
1
 40
1
 40
1
 10
5.016237
 20
8.621460
 30
0.0
 10
5.016237
 20
8.621460
 30
0.0
 10
5.016230
 20
8.502544
 30
0.0
 10
4.999875
 20
8.438187
 30
0.0
  0
SPLINE
  5
101
100
AcDbEntity
  8
Layer_2
 62
7
100
AcDbSpline
 70
8
 71
3
 72
8
 73
4
 74
0
 40
0
 40
0
 40
0
 40
0
 40
1
 40
1
 40
1
 40
1
 10
4.999875
 20
8.438187
 30
0.0
 10
4.983519
 20
8.373830
 30
0.0
 10
4.979696
 20
8.366740
 30
0.0
 10
4.944247
 20
8.326373
 30
0.0
  0
SPLINE
  5
102
100
AcDbEntity
  8
Layer_2
 62
7
100
AcDbSpline
 70
8
 71
3
 72
8
 73
4
 74
0
 40
0
 40
0
 40
0
 40
0
 40
1
 40
1
 40
1
 40
1
 10
4.944247
 20
8.326373
 30
0.0
 10
4.908798
 20
8.286006
 30
0.0
 10
4.925156
 20
8.290928
 30
0.0
 10
4.882882
 20
8.263383
 30
0.0
  0
SPLINE
  5
103
100
AcDbEntity
  8
Layer_2
 62
7
100
AcDbSpline
 70
8
 71
3
 72
8
 73
4
 74
0
 40
0
 40
0
 40
0
 40
0
 40
1
 40
1
 40
1
 40
1
 10
4.882882
 20
8.263383
 30
0.0
 10
4.840608
 20
8.235839
 30
0.0
 10
4.838703
 20
8.232292
 30
0.0
 10
4.754709
 20
8.195196
 30
0.0
  0
SPLINE
  5
104
100
AcDbEntity
  8
Layer_2
 62
7
100
AcDbSpline
 70
8
 71
3
 72
8
 73
4
 74
0
 40
0
 40
0
 40
0
 40
0
 40
1
 40
1
 40
1
 40
1
 10
4.754709
 20
8.195196
 30
0.0
 10
4.681764
 20
8.162985
 30
0.0
 10
4.601106
 20
8.129755
 30
0.0
 10
4.568165
 20
8.103567
 30
0.0
  0
SPLINE
  5
105
100
AcDbEntity
  8
Layer_2
 62
7
100
AcDbSpline
 70
8
 71
3
 72
8
 73
4
 74
0
 40
0
 40
0
 40
0
 40
0
 40
1
 40
1
 40
1
 40
1
 10
4.568165
 20
8.103567
 30
0.0
 10
4.544163
 20
8.084477
 30
0.0
 10
4.426619
 20
8.070021
 30
0.0
 10
4.362804
 20
8.044925
 30
0.0
  0
SPLINE
  5
106
100
AcDbEntity
  8
Layer_2
 62
7
100
AcDbSpline
 70
8
 71
3
 72
8
 73
4
 74
0
 40
0
 40
0
 40
0
 40
0
 40
1
 40
1
 40
1
 40
1
 10
4.362804
 20
8.044925
 30
0.0
 10
4.298977
 20
8.019831
 30
0.0
 10
4.148988
 20
7.945107
 30
0.0
 10
4.096089
 20
7.923290
 30
0.0
  0
SPLINE
  5
107
100
AcDbEntity
  8
Layer_2
 62
7
100
AcDbSpline
 70
8
 71
3
 72
8
 73
4
 74
0
 40
0
 40
0
 40
0
 40
0
 40
1
 40
1
 40
1
 40
1
 10
4.096089
 20
7.923290
 30
0.0
 10
4.043173
 20
7.901451
 30
0.0
 10
3.797451
 20
7.878281
 30
0.0
 10
3.733362
 20
7.844200
 30
0.0
  0
SPLINE
  5
108
100
AcDbEntity
  8
Layer_2
 62
7
100
AcDbSpline
 70
8
 71
3
 72
8
 73
4
 74
0
 40
0
 40
0
 40
0
 40
0
 40
1
 40
1
 40
1
 40
1
 10
3.733362
 20
7.844200
 30
0.0
 10
3.669269
 20
7.810108
 30
0.0
 10
3.574094
 20
7.760734
 30
0.0
 10
3.517360
 20
7.731828
 30
0.0
  0
SPLINE
  5
109
100
AcDbEntity
  8
Layer_2
 62
7
100
AcDbSpline
 70
8
 71
3
 72
8
 73
4
 74
0
 40
0
 40
0
 40
0
 40
0
 40
1
 40
1
 40
1
 40
1
 10
3.517360
 20
7.731828
 30
0.0
 10
3.460624
 20
7.702911
 30
0.0
 10
3.255277
 20
7.644278
 30
0.0
 10
3.193633
 20
7.631727
 30
0.0
  0
SPLINE
  5
10a
100
AcDbEntity
  8
Layer_2
 62
7
100
AcDbSpline
 70
8
 71
3
 72
8
 73
4
 74
0
 40
0
 40
0
 40
0
 40
0
 40
1
 40
1
 40
1
 40
1
 10
3.193633
 20
7.631727
 30
0.0
 10
3.131986
 20
7.619164
 30
0.0
 10
2.900991
 20
7.725247
 30
0.0
 10
2.891165
 20
7.757982
 30
0.0
  0
SPLINE
  5
10b
100
AcDbEntity
  8
Layer_2
 62
7
100
AcDbSpline
 70
8
 71
3
 72
8
 73
4
 74
0
 40
0
 40
0
 40
0
 40
0
 40
1
 40
1
 40
1
 40
1
 10
2.891165
 20
7.757982
 30
0.0
 10
2.881347
 20
7.790703
 30
0.0
 10
2.882263
 20
7.825715
 30
0.0
 10
2.919797
 20
7.811157
 30
0.0
  0
SPLINE
  5
10c
100
AcDbEntity
  8
Layer_2
 62
7
100
AcDbSpline
 70
8
 71
3
 72
8
 73
4
 74
0
 40
0
 40
0
 40
0
 40
0
 40
1
 40
1
 40
1
 40
1
 10
2.919797
 20
7.811157
 30
0.0
 10
2.950073
 20
7.799444
 30
0.0
 10
2.966701
 20
7.813339
 30
0.0
 10
3.010073
 20
7.817436
 30
0.0
  0
SPLINE
  5
10d
100
AcDbEntity
  8
Layer_2
 62
7
100
AcDbSpline
 70
8
 71
3
 72
8
 73
4
 74
0
 40
0
 40
0
 40
0
 40
0
 40
1
 40
1
 40
1
 40
1
 10
3.010073
 20
7.817436
 30
0.0
 10
3.053431
 20
7.821524
 30
0.0
 10
3.155988
 20
7.876079
 30
0.0
 10
3.246255
 20
7.941820
 30
0.0
  0
SPLINE
  5
10e
100
AcDbEntity
  8
Layer_2
 62
7
100
AcDbSpline
 70
8
 71
3
 72
8
 73
4
 74
0
 40
0
 40
0
 40
0
 40
0
 40
1
 40
1
 40
1
 40
1
 10
3.246255
 20
7.941820
 30
0.0
 10
3.336535
 20
8.007557
 30
0.0
 10
3.447797
 20
8.112277
 30
0.0
 10
3.504799
 20
8.150193
 30
0.0
  0
SPLINE
  5
10f
100
AcDbEntity
  8
Layer_2
 62
7
100
AcDbSpline
 70
8
 71
3
 72
8
 73
4
 74
0
 40
0
 40
0
 40
0
 40
0
 40
1
 40
1
 40
1
 40
1
 10
3.504799
 20
8.150193
 30
0.0
 10
3.561813
 20
8.188106
 30
0.0
 10
3.599433
 20
8.241018
 30
0.0
 10
3.700069
 20
8.292018
 30
0.0
  0
SPLINE
  5
110
100
AcDbEntity
  8
Layer_2
 62
7
100
AcDbSpline
 70
8
 71
3
 72
8
 73
4
 74
0
 40
0
 40
0
 40
0
 40
0
 40
1
 40
1
 40
1
 40
1
 10
3.700069
 20
8.292018
 30
0.0
 10
3.800706
 20
8.343018
 30
0.0
 10
3.795799
 20
8.359385
 30
0.0
 10
3.866969
 20
8.389656
 30
0.0
  0
SPLINE
  5
111
100
AcDbEntity
  8
Layer_2
 62
7
100
AcDbSpline
 70
8
 71
3
 72
8
 73
4
 74
0
 40
0
 40
0
 40
0
 40
0
 40
1
 40
1
 40
1
 40
1
 10
3.866969
 20
8.389656
 30
0.0
 10
3.933778
 20
8.418067
 30
0.0
 10
3.985610
 20
8.440100
 30
0.0
 10
4.051611
 20
8.477750
 30
0.0
  0
SPLINE
  5
112
100
AcDbEntity
  8
Layer_2
 62
7
100
AcDbSpline
 70
8
 71
3
 72
8
 73
4
 74
0
 40
0
 40
0
 40
0
 40
0
 40
1
 40
1
 40
1
 40
1
 10
4.051611
 20
8.477750
 30
0.0
 10
4.117609
 20
8.515389
 30
0.0
 10
4.164790
 20
8.526567
 30
0.0
 10
4.213604
 20
8.591754
 30
0.0
  0
SPLINE
  5
113
100
AcDbEntity
  8
Layer_2
 62
7
100
AcDbSpline
 70
8
 71
3
 72
8
 73
4
 74
0
 40
0
 40
0
 40
0
 40
0
 40
1
 40
1
 40
1
 40
1
 10
4.213604
 20
8.591754
 30
0.0
 10
4.264353
 20
8.659512
 30
0.0
 10
4.307413
 20
8.715012
 30
0.0
 10
4.397678
 20
8.780740
 30
0.0
  0
SPLINE
  5
114
100
AcDbEntity
  8
Layer_2
 62
7
100
AcDbSpline
 70
8
 71
3
 72
8
 73
4
 74
0
 40
0
 40
0
 40
0
 40
0
 40
1
 40
1
 40
1
 40
1
 10
4.397678
 20
8.780740
 30
0.0
 10
4.487943
 20
8.846469
 30
0.0
 10
4.515771
 20
8.872661
 30
0.0
 10
4.579321
 20
8.888758
 30
0.0
  0
SPLINE
  5
115
100
AcDbEntity
  8
Layer_2
 62
7
100
AcDbSpline
 70
8
 71
3
 72
8
 73
4
 74
0
 40
0
 40
0
 40
0
 40
0
 40
1
 40
1
 40
1
 40
1
 10
4.579321
 20
8.888758
 30
0.0
 10
4.642868
 20
8.904844
 30
0.0
 10
4.754934
 20
8.917653
 30
0.0
 10
4.797763
 20
8.903755
 30
0.0
  0
SPLINE
  5
116
100
AcDbEntity
  8
Layer_2
 62
7
100
AcDbSpline
 70
8
 71
3
 72
8
 73
4
 74
0
 40
0
 40
0
 40
0
 40
0
 40
1
 40
1
 40
1
 40
1
 10
4.797763
 20
8.903755
 30
0.0
 10
4.840590
 20
8.889845
 30
0.0
 10
4.852856
 20
8.878666
 30
0.0
 10
4.882318
 20
8.839936
 30
0.0
  0
SPLINE
  5
117
100
AcDbEntity
  8
Layer_2
 62
7
100
AcDbSpline
 70
8
 71
3
 72
8
 73
4
 74
0
 40
0
 40
0
 40
0
 40
0
 40
1
 40
1
 40
1
 40
1
 10
4.882318
 20
8.839936
 30
0.0
 10
4.911765
 20
8.801197
 30
0.0
 10
4.891591
 20
8.848655
 30
0.0
 10
4.891590
 20
8.789209
 30
0.0
  0
SPLINE
  5
118
100
AcDbEntity
  8
Layer_2
 62
7
100
AcDbSpline
 70
8
 71
3
 72
8
 73
4
 74
0
 40
0
 40
0
 40
0
 40
0
 40
1
 40
1
 40
1
 40
1
 10
4.891590
 20
8.789209
 30
0.0
 10
4.891587
 20
8.729750
 30
0.0
 10
4.882590
 20
8.730027
 30
0.0
 10
4.924583
 20
8.689117
 30
0.0
  0
SPLINE
  5
119
100
AcDbEntity
  8
Layer_2
 62
7
100
AcDbSpline
 70
8
 71
3
 72
8
 73
4
 74
0
 40
0
 40
0
 40
0
 40
0
 40
1
 40
1
 40
1
 40
1
 10
4.924583
 20
8.689117
 30
0.0
 10
4.966588
 20
8.648204
 30
0.0
 10
5.016216
 20
8.621478
 30
0.0
 10
5.016216
 20
8.621478
 30
0.0
  0
SPLINE
  5
11a
100
AcDbEntity
  8
Layer_2
 62
7
100
AcDbSpline
 70
8
 71
3
 72
8
 73
4
 74
0
 40
0
 40
0
 40
0
 40
0
 40
1
 40
1
 40
1
 40
1
 10
4.901960
 20
8.833915
 30
0.0
 10
4.901960
 20
8.833915
 30
0.0
 10
4.881778
 20
8.762456
 30
0.0
 10
4.898686
 20
8.725912
 30
0.0
  0
SPLINE
  5
11b
100
AcDbEntity
  8
Layer_2
 62
7
100
AcDbSpline
 70
8
 71
3
 72
8
 73
4
 74
0
 40
0
 40
0
 40
0
 40
0
 40
1
 40
1
 40
1
 40
1
 10
4.898686
 20
8.725912
 30
0.0
 10
4.915593
 20
8.689368
 30
0.0
 10
4.945589
 20
8.668648
 30
0.0
 10
4.986498
 20
8.651194
 30
0.0
  0
SPLINE
  5
11c
100
AcDbEntity
  8
Layer_2
 62
7
100
AcDbSpline
 70
8
 71
3
 72
8
 73
4
 74
0
 40
0
 40
0
 40
0
 40
0
 40
1
 40
1
 40
1
 40
1
 10
4.986498
 20
8.651194
 30
0.0
 10
5.027407
 20
8.633740
 30
0.0
 10
5.032315
 20
8.617374
 30
0.0
 10
5.045414
 20
8.633195
 30
0.0
  0
SPLINE
  5
11d
100
AcDbEntity
  8
Layer_2
 62
7
100
AcDbSpline
 70
8
 71
3
 72
8
 73
4
 74
0
 40
0
 40
0
 40
0
 40
0
 40
1
 40
1
 40
1
 40
1
 10
5.045414
 20
8.633195
 30
0.0
 10
5.058499
 20
8.649007
 30
0.0
 10
5.025782
 20
8.698648
 30
0.0
 10
5.102417
 20
8.730558
 30
0.0
  0
SPLINE
  5
11e
100
AcDbEntity
  8
Layer_2
 62
7
100
AcDbSpline
 70
8
 71
3
 72
8
 73
4
 74
0
 40
0
 40
0
 40
0
 40
0
 40
1
 40
1
 40
1
 40
1
 10
5.102417
 20
8.730558
 30
0.0
 10
5.179040
 20
8.762470
 30
0.0
 10
5.236593
 20
8.758920
 30
0.0
 10
5.281583
 20
8.817017
 30
0.0
  0
SPLINE
  5
11f
100
AcDbEntity
  8
Layer_2
 62
7
100
AcDbSpline
 70
8
 71
3
 72
8
 73
4
 74
0
 40
0
 40
0
 40
0
 40
0
 40
1
 40
1
 40
1
 40
1
 10
5.281583
 20
8.817017
 30
0.0
 10
5.318577
 20
8.864764
 30
0.0
 10
5.337778
 20
8.887385
 30
0.0
 10
5.332592
 20
8.954190
 30
0.0
  0
SPLINE
  5
120
100
AcDbEntity
  8
Layer_2
 62
7
100
AcDbSpline
 70
8
 71
3
 72
8
 73
4
 74
0
 40
0
 40
0
 40
0
 40
0
 40
1
 40
1
 40
1
 40
1
 10
5.332592
 20
8.954190
 30
0.0
 10
5.326197
 20
9.036574
 30
0.0
 10
5.261114
 20
9.093282
 30
0.0
 10
5.214487
 20
9.100096
 30
0.0
  0
SPLINE
  5
121
100
AcDbEntity
  8
Layer_2
 62
7
100
AcDbSpline
 70
8
 71
3
 72
8
 73
4
 74
0
 40
0
 40
0
 40
0
 40
0
 40
1
 40
1
 40
1
 40
1
 10
5.214487
 20
9.100096
 30
0.0
 10
5.167863
 20
9.106922
 30
0.0
 10
5.174941
 20
9.103101
 30
0.0
 10
5.169212
 20
9.092465
 30
0.0
  0
SPLINE
  5
122
100
AcDbEntity
  8
Layer_2
 62
7
100
AcDbSpline
 70
8
 71
3
 72
8
 73
4
 74
0
 40
0
 40
0
 40
0
 40
0
 40
1
 40
1
 40
1
 40
1
 10
5.169212
 20
9.092465
 30
0.0
 10
5.163482
 20
9.081828
 30
0.0
 10
5.151770
 20
9.051553
 30
0.0
 10
5.165941
 20
9.043920
 30
0.0
  0
SPLINE
  5
123
100
AcDbEntity
  8
Layer_2
 62
7
100
AcDbSpline
 70
8
 71
3
 72
8
 73
4
 74
0
 40
0
 40
0
 40
0
 40
0
 40
1
 40
1
 40
1
 40
1
 10
5.165941
 20
9.043920
 30
0.0
 10
5.180125
 20
9.036285
 30
0.0
 10
5.192667
 20
9.034102
 30
0.0
 10
5.207392
 20
8.985015
 30
0.0
  0
SPLINE
  5
124
100
AcDbEntity
  8
Layer_2
 62
7
100
AcDbSpline
 70
8
 71
3
 72
8
 73
4
 74
0
 40
0
 40
0
 40
0
 40
0
 40
1
 40
1
 40
1
 40
1
 10
5.207392
 20
8.985015
 30
0.0
 10
5.222129
 20
8.935925
 30
0.0
 10
5.239313
 20
8.908377
 30
0.0
 10
5.189404
 20
8.866649
 30
0.0
  0
SPLINE
  5
125
100
AcDbEntity
  8
Layer_2
 62
7
100
AcDbSpline
 70
8
 71
3
 72
8
 73
4
 74
0
 40
0
 40
0
 40
0
 40
0
 40
1
 40
1
 40
1
 40
1
 10
5.189404
 20
8.866649
 30
0.0
 10
5.139495
 20
8.824922
 30
0.0
 10
5.117411
 20
8.809375
 30
0.0
 10
5.048954
 20
8.809644
 30
0.0
  0
SPLINE
  5
126
100
AcDbEntity
  8
Layer_2
 62
7
100
AcDbSpline
 70
8
 71
3
 72
8
 73
4
 74
0
 40
0
 40
0
 40
0
 40
0
 40
1
 40
1
 40
1
 40
1
 10
5.048954
 20
8.809644
 30
0.0
 10
4.988013
 20
8.809886
 30
0.0
 10
4.901948
 20
8.833918
 30
0.0
 10
4.901948
 20
8.833918
 30
0.0
  0
LWPOLYLINE
  5
127
100
AcDbEntity
  8
Layer_2
 62
7
100
AcDbPolyline
 90
1
 70
1
 10
5.016216
 20
8.621478
 30
0.0
  0
SPLINE
  5
128
100
AcDbEntity
  8
Layer_2
 62
7
100
AcDbSpline
 70
8
 71
3
 72
8
 73
4
 74
0
 40
0
 40
0
 40
0
 40
0
 40
1
 40
1
 40
1
 40
1
 10
3.234810
 20
7.712448
 30
0.0
 10
3.401998
 20
7.759633
 30
0.0
 10
3.558814
 20
7.821546
 30
0.0
 10
3.701990
 20
7.909089
 30
0.0
  0
SPLINE
  5
129
100
AcDbEntity
  8
Layer_2
 62
7
100
AcDbSpline
 70
8
 71
3
 72
8
 73
4
 74
0
 40
0
 40
0
 40
0
 40
0
 40
1
 40
1
 40
1
 40
1
 10
4.333750
 20
8.126868
 30
0.0
 10
4.410108
 20
8.149781
 30
0.0
 10
4.638660
 20
8.200508
 30
0.0
 10
4.739842
 20
8.269515
 30
0.0
  0
SPLINE
  5
12a
100
AcDbEntity
  8
Layer_2
 62
7
100
AcDbSpline
 70
8
 71
3
 72
8
 73
4
 74
0
 40
0
 40
0
 40
0
 40
0
 40
1
 40
1
 40
1
 40
1
 10
4.543332
 20
8.770912
 30
0.0
 10
4.627337
 20
8.808006
 30
0.0
 10
4.656512
 20
8.819729
 30
0.0
 10
4.724692
 20
8.810464
 30
0.0
  0
LWPOLYLINE
  5
12b
100
AcDbEntity
  8
Layer_2
 62
7
100
AcDbPolyline
 90
1
 70
1
 10
4.901948
 20
8.833918
 30
0.0
  0
SPLINE
  5
12c
100
AcDbEntity
  8
Layer_2
 62
7
100
AcDbSpline
 70
8
 71
3
 72
8
 73
4
 74
0
 40
0
 40
0
 40
0
 40
0
 40
1
 40
1
 40
1
 40
1
 10
4.732877
 20
8.723735
 30
0.0
 10
4.661153
 20
8.734917
 30
0.0
 10
4.642878
 20
8.726452
 30
0.0
 10
4.589691
 20
8.695640
 30
0.0
  0
LWPOLYLINE
  5
12d
100
AcDbEntity
  8
Layer_2
 62
7
100
AcDbPolyline
 90
2
 70
0
 10
4.724692
 20
8.810464
 30
0.0
 10
4.732877
 20
8.723735
 30
0.0
  0
SPLINE
  5
12e
100
AcDbEntity
  8
Layer_2
 62
7
100
AcDbSpline
 70
8
 71
3
 72
8
 73
4
 74
0
 40
0
 40
0
 40
0
 40
0
 40
1
 40
1
 40
1
 40
1
 10
2.387743
 20
8.621460
 30
0.0
 10
2.387743
 20
8.621460
 30
0.0
 10
2.387750
 20
8.502544
 30
0.0
 10
2.404105
 20
8.438187
 30
0.0
  0
SPLINE
  5
12f
100
AcDbEntity
  8
Layer_2
 62
7
100
AcDbSpline
 70
8
 71
3
 72
8
 73
4
 74
0
 40
0
 40
0
 40
0
 40
0
 40
1
 40
1
 40
1
 40
1
 10
2.404105
 20
8.438187
 30
0.0
 10
2.420460
 20
8.373830
 30
0.0
 10
2.424284
 20
8.366740
 30
0.0
 10
2.459733
 20
8.326373
 30
0.0
  0
SPLINE
  5
130
100
AcDbEntity
  8
Layer_2
 62
7
100
AcDbSpline
 70
8
 71
3
 72
8
 73
4
 74
0
 40
0
 40
0
 40
0
 40
0
 40
1
 40
1
 40
1
 40
1
 10
2.459733
 20
8.326373
 30
0.0
 10
2.495181
 20
8.286006
 30
0.0
 10
2.478824
 20
8.290928
 30
0.0
 10
2.521098
 20
8.263383
 30
0.0
  0
SPLINE
  5
131
100
AcDbEntity
  8
Layer_2
 62
7
100
AcDbSpline
 70
8
 71
3
 72
8
 73
4
 74
0
 40
0
 40
0
 40
0
 40
0
 40
1
 40
1
 40
1
 40
1
 10
2.521098
 20
8.263383
 30
0.0
 10
2.563371
 20
8.235839
 30
0.0
 10
2.565277
 20
8.232292
 30
0.0
 10
2.649271
 20
8.195196
 30
0.0
  0
SPLINE
  5
132
100
AcDbEntity
  8
Layer_2
 62
7
100
AcDbSpline
 70
8
 71
3
 72
8
 73
4
 74
0
 40
0
 40
0
 40
0
 40
0
 40
1
 40
1
 40
1
 40
1
 10
2.649271
 20
8.195196
 30
0.0
 10
2.722215
 20
8.162985
 30
0.0
 10
2.802874
 20
8.129755
 30
0.0
 10
2.835815
 20
8.103567
 30
0.0
  0
SPLINE
  5
133
100
AcDbEntity
  8
Layer_2
 62
7
100
AcDbSpline
 70
8
 71
3
 72
8
 73
4
 74
0
 40
0
 40
0
 40
0
 40
0
 40
1
 40
1
 40
1
 40
1
 10
2.835815
 20
8.103567
 30
0.0
 10
2.859817
 20
8.084477
 30
0.0
 10
2.977361
 20
8.070021
 30
0.0
 10
3.041176
 20
8.044925
 30
0.0
  0
SPLINE
  5
134
100
AcDbEntity
  8
Layer_2
 62
7
100
AcDbSpline
 70
8
 71
3
 72
8
 73
4
 74
0
 40
0
 40
0
 40
0
 40
0
 40
1
 40
1
 40
1
 40
1
 10
3.041176
 20
8.044925
 30
0.0
 10
3.105003
 20
8.019831
 30
0.0
 10
3.254992
 20
7.945107
 30
0.0
 10
3.307890
 20
7.923290
 30
0.0
  0
SPLINE
  5
135
100
AcDbEntity
  8
Layer_2
 62
7
100
AcDbSpline
 70
8
 71
3
 72
8
 73
4
 74
0
 40
0
 40
0
 40
0
 40
0
 40
1
 40
1
 40
1
 40
1
 10
3.307890
 20
7.923290
 30
0.0
 10
3.360806
 20
7.901451
 30
0.0
 10
3.606529
 20
7.878281
 30
0.0
 10
3.670618
 20
7.844200
 30
0.0
  0
SPLINE
  5
136
100
AcDbEntity
  8
Layer_2
 62
7
100
AcDbSpline
 70
8
 71
3
 72
8
 73
4
 74
0
 40
0
 40
0
 40
0
 40
0
 40
1
 40
1
 40
1
 40
1
 10
3.670618
 20
7.844200
 30
0.0
 10
3.734710
 20
7.810108
 30
0.0
 10
3.829886
 20
7.760734
 30
0.0
 10
3.886620
 20
7.731828
 30
0.0
  0
SPLINE
  5
137
100
AcDbEntity
  8
Layer_2
 62
7
100
AcDbSpline
 70
8
 71
3
 72
8
 73
4
 74
0
 40
0
 40
0
 40
0
 40
0
 40
1
 40
1
 40
1
 40
1
 10
3.886620
 20
7.731828
 30
0.0
 10
3.943356
 20
7.702911
 30
0.0
 10
4.148703
 20
7.644278
 30
0.0
 10
4.210347
 20
7.631727
 30
0.0
  0
SPLINE
  5
138
100
AcDbEntity
  8
Layer_2
 62
7
100
AcDbSpline
 70
8
 71
3
 72
8
 73
4
 74
0
 40
0
 40
0
 40
0
 40
0
 40
1
 40
1
 40
1
 40
1
 10
4.210347
 20
7.631727
 30
0.0
 10
4.271994
 20
7.619164
 30
0.0
 10
4.502989
 20
7.725247
 30
0.0
 10
4.512815
 20
7.757982
 30
0.0
  0
SPLINE
  5
139
100
AcDbEntity
  8
Layer_2
 62
7
100
AcDbSpline
 70
8
 71
3
 72
8
 73
4
 74
0
 40
0
 40
0
 40
0
 40
0
 40
1
 40
1
 40
1
 40
1
 10
4.512815
 20
7.757982
 30
0.0
 10
4.522632
 20
7.790703
 30
0.0
 10
4.521717
 20
7.825715
 30
0.0
 10
4.484182
 20
7.811157
 30
0.0
  0
SPLINE
  5
13a
100
AcDbEntity
  8
Layer_2
 62
7
100
AcDbSpline
 70
8
 71
3
 72
8
 73
4
 74
0
 40
0
 40
0
 40
0
 40
0
 40
1
 40
1
 40
1
 40
1
 10
4.484182
 20
7.811157
 30
0.0
 10
4.453907
 20
7.799444
 30
0.0
 10
4.437278
 20
7.813339
 30
0.0
 10
4.393906
 20
7.817436
 30
0.0
  0
SPLINE
  5
13b
100
AcDbEntity
  8
Layer_2
 62
7
100
AcDbSpline
 70
8
 71
3
 72
8
 73
4
 74
0
 40
0
 40
0
 40
0
 40
0
 40
1
 40
1
 40
1
 40
1
 10
4.393906
 20
7.817436
 30
0.0
 10
4.350549
 20
7.821524
 30
0.0
 10
4.247992
 20
7.876079
 30
0.0
 10
4.157724
 20
7.941820
 30
0.0
  0
SPLINE
  5
13c
100
AcDbEntity
  8
Layer_2
 62
7
100
AcDbSpline
 70
8
 71
3
 72
8
 73
4
 74
0
 40
0
 40
0
 40
0
 40
0
 40
1
 40
1
 40
1
 40
1
 10
4.157724
 20
7.941820
 30
0.0
 10
4.067445
 20
8.007557
 30
0.0
 10
3.956182
 20
8.112277
 30
0.0
 10
3.899180
 20
8.150193
 30
0.0
  0
SPLINE
  5
13d
100
AcDbEntity
  8
Layer_2
 62
7
100
AcDbSpline
 70
8
 71
3
 72
8
 73
4
 74
0
 40
0
 40
0
 40
0
 40
0
 40
1
 40
1
 40
1
 40
1
 10
3.899180
 20
8.150193
 30
0.0
 10
3.842167
 20
8.188106
 30
0.0
 10
3.804547
 20
8.241018
 30
0.0
 10
3.703910
 20
8.292018
 30
0.0
  0
SPLINE
  5
13e
100
AcDbEntity
  8
Layer_2
 62
7
100
AcDbSpline
 70
8
 71
3
 72
8
 73
4
 74
0
 40
0
 40
0
 40
0
 40
0
 40
1
 40
1
 40
1
 40
1
 10
3.703910
 20
8.292018
 30
0.0
 10
3.603274
 20
8.343018
 30
0.0
 10
3.608181
 20
8.359385
 30
0.0
 10
3.537010
 20
8.389656
 30
0.0
  0
SPLINE
  5
13f
100
AcDbEntity
  8
Layer_2
 62
7
100
AcDbSpline
 70
8
 71
3
 72
8
 73
4
 74
0
 40
0
 40
0
 40
0
 40
0
 40
1
 40
1
 40
1
 40
1
 10
3.537010
 20
8.389656
 30
0.0
 10
3.470202
 20
8.418067
 30
0.0
 10
3.418370
 20
8.440100
 30
0.0
 10
3.352369
 20
8.477750
 30
0.0
  0
SPLINE
  5
140
100
AcDbEntity
  8
Layer_2
 62
7
100
AcDbSpline
 70
8
 71
3
 72
8
 73
4
 74
0
 40
0
 40
0
 40
0
 40
0
 40
1
 40
1
 40
1
 40
1
 10
3.352369
 20
8.477750
 30
0.0
 10
3.286371
 20
8.515389
 30
0.0
 10
3.239190
 20
8.526567
 30
0.0
 10
3.190376
 20
8.591754
 30
0.0
  0
SPLINE
  5
141
100
AcDbEntity
  8
Layer_2
 62
7
100
AcDbSpline
 70
8
 71
3
 72
8
 73
4
 74
0
 40
0
 40
0
 40
0
 40
0
 40
1
 40
1
 40
1
 40
1
 10
3.190376
 20
8.591754
 30
0.0
 10
3.139627
 20
8.659512
 30
0.0
 10
3.096567
 20
8.715012
 30
0.0
 10
3.006302
 20
8.780740
 30
0.0
  0
SPLINE
  5
142
100
AcDbEntity
  8
Layer_2
 62
7
100
AcDbSpline
 70
8
 71
3
 72
8
 73
4
 74
0
 40
0
 40
0
 40
0
 40
0
 40
1
 40
1
 40
1
 40
1
 10
3.006302
 20
8.780740
 30
0.0
 10
2.916037
 20
8.846469
 30
0.0
 10
2.888209
 20
8.872661
 30
0.0
 10
2.824659
 20
8.888758
 30
0.0
  0
SPLINE
  5
143
100
AcDbEntity
  8
Layer_2
 62
7
100
AcDbSpline
 70
8
 71
3
 72
8
 73
4
 74
0
 40
0
 40
0
 40
0
 40
0
 40
1
 40
1
 40
1
 40
1
 10
2.824659
 20
8.888758
 30
0.0
 10
2.761112
 20
8.904844
 30
0.0
 10
2.649046
 20
8.917653
 30
0.0
 10
2.606217
 20
8.903755
 30
0.0
  0
SPLINE
  5
144
100
AcDbEntity
  8
Layer_2
 62
7
100
AcDbSpline
 70
8
 71
3
 72
8
 73
4
 74
0
 40
0
 40
0
 40
0
 40
0
 40
1
 40
1
 40
1
 40
1
 10
2.606217
 20
8.903755
 30
0.0
 10
2.563390
 20
8.889845
 30
0.0
 10
2.551124
 20
8.878666
 30
0.0
 10
2.521662
 20
8.839936
 30
0.0
  0
SPLINE
  5
145
100
AcDbEntity
  8
Layer_2
 62
7
100
AcDbSpline
 70
8
 71
3
 72
8
 73
4
 74
0
 40
0
 40
0
 40
0
 40
0
 40
1
 40
1
 40
1
 40
1
 10
2.521662
 20
8.839936
 30
0.0
 10
2.492214
 20
8.801197
 30
0.0
 10
2.512389
 20
8.848655
 30
0.0
 10
2.512390
 20
8.789209
 30
0.0
  0
SPLINE
  5
146
100
AcDbEntity
  8
Layer_2
 62
7
100
AcDbSpline
 70
8
 71
3
 72
8
 73
4
 74
0
 40
0
 40
0
 40
0
 40
0
 40
1
 40
1
 40
1
 40
1
 10
2.512390
 20
8.789209
 30
0.0
 10
2.512393
 20
8.729750
 30
0.0
 10
2.521389
 20
8.730027
 30
0.0
 10
2.479396
 20
8.689117
 30
0.0
  0
SPLINE
  5
147
100
AcDbEntity
  8
Layer_2
 62
7
100
AcDbSpline
 70
8
 71
3
 72
8
 73
4
 74
0
 40
0
 40
0
 40
0
 40
0
 40
1
 40
1
 40
1
 40
1
 10
2.479396
 20
8.689117
 30
0.0
 10
2.437392
 20
8.648204
 30
0.0
 10
2.387763
 20
8.621478
 30
0.0
 10
2.387763
 20
8.621478
 30
0.0
  0
LWPOLYLINE
  5
148
100
AcDbEntity
  8
Layer_2
 62
7
100
AcDbPolyline
 90
2
 70
0
 10
4.589691
 20
8.695640
 30
0.0
 10
4.543332
 20
8.770912
 30
0.0
  0
SPLINE
  5
149
100
AcDbEntity
  8
Layer_2
 62
7
100
AcDbSpline
 70
8
 71
3
 72
8
 73
4
 74
0
 40
0
 40
0
 40
0
 40
0
 40
1
 40
1
 40
1
 40
1
 10
2.502020
 20
8.833915
 30
0.0
 10
2.502020
 20
8.833915
 30
0.0
 10
2.522202
 20
8.762456
 30
0.0
 10
2.505294
 20
8.725912
 30
0.0
  0
SPLINE
  5
14a
100
AcDbEntity
  8
Layer_2
 62
7
100
AcDbSpline
 70
8
 71
3
 72
8
 73
4
 74
0
 40
0
 40
0
 40
0
 40
0
 40
1
 40
1
 40
1
 40
1
 10
2.505294
 20
8.725912
 30
0.0
 10
2.488386
 20
8.689368
 30
0.0
 10
2.458391
 20
8.668648
 30
0.0
 10
2.417482
 20
8.651194
 30
0.0
  0
SPLINE
  5
14b
100
AcDbEntity
  8
Layer_2
 62
7
100
AcDbSpline
 70
8
 71
3
 72
8
 73
4
 74
0
 40
0
 40
0
 40
0
 40
0
 40
1
 40
1
 40
1
 40
1
 10
2.417482
 20
8.651194
 30
0.0
 10
2.376572
 20
8.633740
 30
0.0
 10
2.371665
 20
8.617374
 30
0.0
 10
2.358566
 20
8.633195
 30
0.0
  0
SPLINE
  5
14c
100
AcDbEntity
  8
Layer_2
 62
7
100
AcDbSpline
 70
8
 71
3
 72
8
 73
4
 74
0
 40
0
 40
0
 40
0
 40
0
 40
1
 40
1
 40
1
 40
1
 10
2.358566
 20
8.633195
 30
0.0
 10
2.345481
 20
8.649007
 30
0.0
 10
2.378198
 20
8.698648
 30
0.0
 10
2.301563
 20
8.730558
 30
0.0
  0
SPLINE
  5
14d
100
AcDbEntity
  8
Layer_2
 62
7
100
AcDbSpline
 70
8
 71
3
 72
8
 73
4
 74
0
 40
0
 40
0
 40
0
 40
0
 40
1
 40
1
 40
1
 40
1
 10
2.301563
 20
8.730558
 30
0.0
 10
2.224940
 20
8.762470
 30
0.0
 10
2.167387
 20
8.758920
 30
0.0
 10
2.122397
 20
8.817017
 30
0.0
  0
SPLINE
  5
14e
100
AcDbEntity
  8
Layer_2
 62
7
100
AcDbSpline
 70
8
 71
3
 72
8
 73
4
 74
0
 40
0
 40
0
 40
0
 40
0
 40
1
 40
1
 40
1
 40
1
 10
2.122397
 20
8.817017
 30
0.0
 10
2.085403
 20
8.864764
 30
0.0
 10
2.066202
 20
8.887385
 30
0.0
 10
2.071388
 20
8.954190
 30
0.0
  0
SPLINE
  5
14f
100
AcDbEntity
  8
Layer_2
 62
7
100
AcDbSpline
 70
8
 71
3
 72
8
 73
4
 74
0
 40
0
 40
0
 40
0
 40
0
 40
1
 40
1
 40
1
 40
1
 10
2.071388
 20
8.954190
 30
0.0
 10
2.077783
 20
9.036574
 30
0.0
 10
2.142866
 20
9.093282
 30
0.0
 10
2.189493
 20
9.100096
 30
0.0
  0
SPLINE
  5
150
100
AcDbEntity
  8
Layer_2
 62
7
100
AcDbSpline
 70
8
 71
3
 72
8
 73
4
 74
0
 40
0
 40
0
 40
0
 40
0
 40
1
 40
1
 40
1
 40
1
 10
2.189493
 20
9.100096
 30
0.0
 10
2.236117
 20
9.106922
 30
0.0
 10
2.229039
 20
9.103101
 30
0.0
 10
2.234768
 20
9.092465
 30
0.0
  0
SPLINE
  5
151
100
AcDbEntity
  8
Layer_2
 62
7
100
AcDbSpline
 70
8
 71
3
 72
8
 73
4
 74
0
 40
0
 40
0
 40
0
 40
0
 40
1
 40
1
 40
1
 40
1
 10
2.234768
 20
9.092465
 30
0.0
 10
2.240497
 20
9.081828
 30
0.0
 10
2.252210
 20
9.051553
 30
0.0
 10
2.238038
 20
9.043920
 30
0.0
  0
SPLINE
  5
152
100
AcDbEntity
  8
Layer_2
 62
7
100
AcDbSpline
 70
8
 71
3
 72
8
 73
4
 74
0
 40
0
 40
0
 40
0
 40
0
 40
1
 40
1
 40
1
 40
1
 10
2.238038
 20
9.043920
 30
0.0
 10
2.223855
 20
9.036285
 30
0.0
 10
2.211312
 20
9.034102
 30
0.0
 10
2.196588
 20
8.985015
 30
0.0
  0
SPLINE
  5
153
100
AcDbEntity
  8
Layer_2
 62
7
100
AcDbSpline
 70
8
 71
3
 72
8
 73
4
 74
0
 40
0
 40
0
 40
0
 40
0
 40
1
 40
1
 40
1
 40
1
 10
2.196588
 20
8.985015
 30
0.0
 10
2.181851
 20
8.935925
 30
0.0
 10
2.164666
 20
8.908377
 30
0.0
 10
2.214575
 20
8.866649
 30
0.0
  0
SPLINE
  5
154
100
AcDbEntity
  8
Layer_2
 62
7
100
AcDbSpline
 70
8
 71
3
 72
8
 73
4
 74
0
 40
0
 40
0
 40
0
 40
0
 40
1
 40
1
 40
1
 40
1
 10
2.214575
 20
8.866649
 30
0.0
 10
2.264484
 20
8.824922
 30
0.0
 10
2.286568
 20
8.809375
 30
0.0
 10
2.355026
 20
8.809644
 30
0.0
  0
SPLINE
  5
155
100
AcDbEntity
  8
Layer_2
 62
7
100
AcDbSpline
 70
8
 71
3
 72
8
 73
4
 74
0
 40
0
 40
0
 40
0
 40
0
 40
1
 40
1
 40
1
 40
1
 10
2.355026
 20
8.809644
 30
0.0
 10
2.415967
 20
8.809886
 30
0.0
 10
2.502032
 20
8.833918
 30
0.0
 10
2.502032
 20
8.833918
 30
0.0
  0
LWPOLYLINE
  5
156
100
AcDbEntity
  8
Layer_2
 62
7
100
AcDbPolyline
 90
1
 70
1
 10
2.387763
 20
8.621478
 30
0.0
  0
SPLINE
  5
157
100
AcDbEntity
  8
Layer_2
 62
7
100
AcDbSpline
 70
8
 71
3
 72
8
 73
4
 74
0
 40
0
 40
0
 40
0
 40
0
 40
1
 40
1
 40
1
 40
1
 10
4.169170
 20
7.712448
 30
0.0
 10
4.001982
 20
7.759633
 30
0.0
 10
3.845165
 20
7.821546
 30
0.0
 10
3.701990
 20
7.909089
 30
0.0
  0
SPLINE
  5
158
100
AcDbEntity
  8
Layer_2
 62
7
100
AcDbSpline
 70
8
 71
3
 72
8
 73
4
 74
0
 40
0
 40
0
 40
0
 40
0
 40
1
 40
1
 40
1
 40
1
 10
3.070229
 20
8.126868
 30
0.0
 10
2.993872
 20
8.149781
 30
0.0
 10
2.765319
 20
8.200508
 30
0.0
 10
2.664138
 20
8.269515
 30
0.0
  0
SPLINE
  5
159
100
AcDbEntity
  8
Layer_2
 62
7
100
AcDbSpline
 70
8
 71
3
 72
8
 73
4
 74
0
 40
0
 40
0
 40
0
 40
0
 40
1
 40
1
 40
1
 40
1
 10
2.860647
 20
8.770912
 30
0.0
 10
2.776642
 20
8.808006
 30
0.0
 10
2.747468
 20
8.819729
 30
0.0
 10
2.679288
 20
8.810464
 30
0.0
  0
LWPOLYLINE
  5
15a
100
AcDbEntity
  8
Layer_2
 62
7
100
AcDbPolyline
 90
1
 70
1
 10
2.502032
 20
8.833918
 30
0.0
  0
SPLINE
  5
15b
100
AcDbEntity
  8
Layer_2
 62
7
100
AcDbSpline
 70
8
 71
3
 72
8
 73
4
 74
0
 40
0
 40
0
 40
0
 40
0
 40
1
 40
1
 40
1
 40
1
 10
2.671103
 20
8.723735
 30
0.0
 10
2.742827
 20
8.734917
 30
0.0
 10
2.761102
 20
8.726452
 30
0.0
 10
2.814289
 20
8.695640
 30
0.0
  0
LWPOLYLINE
  5
15c
100
AcDbEntity
  8
Layer_2
 62
7
100
AcDbPolyline
 90
2
 70
0
 10
2.679288
 20
8.810464
 30
0.0
 10
2.671103
 20
8.723735
 30
0.0
  0
SPLINE
  5
15d
100
AcDbEntity
  8
Layer_1
 62
7
100
AcDbSpline
 70
8
 71
3
 72
8
 73
4
 74
0
 40
0
 40
0
 40
0
 40
0
 40
1
 40
1
 40
1
 40
1
 10
3.638206
 20
10.752927
 30
0.0
 10
3.038964
 20
10.752927
 30
0.0
 10
2.555901
 20
10.269865
 30
0.0
 10
2.555901
 20
9.670622
 30
0.0
  0
SPLINE
  5
15e
100
AcDbEntity
  8
Layer_1
 62
7
100
AcDbSpline
 70
8
 71
3
 72
8
 73
4
 74
0
 40
0
 40
0
 40
0
 40
0
 40
1
 40
1
 40
1
 40
1
 10
2.555901
 20
9.670622
 30
0.0
 10
2.555901
 20
8.906282
 30
0.0
 10
2.904440
 20
9.046921
 30
0.0
 10
2.904440
 20
8.594432
 30
0.0
  0
SPLINE
  5
15f
100
AcDbEntity
  8
Layer_1
 62
7
100
AcDbSpline
 70
8
 71
3
 72
8
 73
4
 74
0
 40
0
 40
0
 40
0
 40
0
 40
1
 40
1
 40
1
 40
1
 10
2.904440
 20
8.594432
 30
0.0
 10
2.904440
 20
8.508826
 30
0.0
 10
3.008390
 20
8.429334
 30
0.0
 10
3.093996
 20
8.429334
 30
0.0
  0
SPLINE
  5
160
100
AcDbEntity
  8
Layer_1
 62
7
100
AcDbSpline
 70
8
 71
3
 72
8
 73
4
 74
0
 40
0
 40
0
 40
0
 40
0
 40
1
 40
1
 40
1
 40
1
 10
3.093996
 20
8.429334
 30
0.0
 10
3.265208
 20
8.429334
 30
0.0
 10
3.295782
 20
8.539399
 30
0.0
 10
3.301897
 20
8.637235
 30
0.0
  0
SPLINE
  5
161
100
AcDbEntity
  8
Layer_1
 62
7
100
AcDbSpline
 70
8
 71
3
 72
8
 73
4
 74
0
 40
0
 40
0
 40
0
 40
0
 40
1
 40
1
 40
1
 40
1
 10
3.301897
 20
8.637235
 30
0.0
 10
3.308011
 20
8.673923
 30
0.0
 10
3.338585
 20
8.698382
 30
0.0
 10
3.369159
 20
8.698382
 30
0.0
  0
SPLINE
  5
162
100
AcDbEntity
  8
Layer_1
 62
7
100
AcDbSpline
 70
8
 71
3
 72
8
 73
4
 74
0
 40
0
 40
0
 40
0
 40
0
 40
1
 40
1
 40
1
 40
1
 10
3.369159
 20
8.698382
 30
0.0
 10
3.405847
 20
8.698382
 30
0.0
 10
3.442535
 20
8.667808
 30
0.0
 10
3.442535
 20
8.625005
 30
0.0
  0
SPLINE
  5
163
100
AcDbEntity
  8
Layer_1
 62
7
100
AcDbSpline
 70
8
 71
3
 72
8
 73
4
 74
0
 40
0
 40
0
 40
0
 40
0
 40
1
 40
1
 40
1
 40
1
 10
3.442535
 20
8.625005
 30
0.0
 10
3.442535
 20
8.496596
 30
0.0
 10
3.534256
 20
8.423220
 30
0.0
 10
3.632092
 20
8.423220
 30
0.0
  0
SPLINE
  5
164
100
AcDbEntity
  8
Layer_1
 62
7
100
AcDbSpline
 70
8
 71
3
 72
8
 73
4
 74
0
 40
0
 40
0
 40
0
 40
0
 40
1
 40
1
 40
1
 40
1
 10
3.632092
 20
8.423220
 30
0.0
 10
3.729927
 20
8.423220
 30
0.0
 10
3.821648
 20
8.496596
 30
0.0
 10
3.821648
 20
8.625005
 30
0.0
  0
SPLINE
  5
165
100
AcDbEntity
  8
Layer_1
 62
7
100
AcDbSpline
 70
8
 71
3
 72
8
 73
4
 74
0
 40
0
 40
0
 40
0
 40
0
 40
1
 40
1
 40
1
 40
1
 10
3.821648
 20
8.625005
 30
0.0
 10
3.821648
 20
8.661694
 30
0.0
 10
3.852221
 20
8.698382
 30
0.0
 10
3.895024
 20
8.698382
 30
0.0
  0
SPLINE
  5
166
100
AcDbEntity
  8
Layer_1
 62
7
100
AcDbSpline
 70
8
 71
3
 72
8
 73
4
 74
0
 40
0
 40
0
 40
0
 40
0
 40
1
 40
1
 40
1
 40
1
 10
3.895024
 20
8.698382
 30
0.0
 10
3.931713
 20
8.698382
 30
0.0
 10
3.962286
 20
8.673923
 30
0.0
 10
3.962286
 20
8.637235
 30
0.0
  0
SPLINE
  5
167
100
AcDbEntity
  8
Layer_1
 62
7
100
AcDbSpline
 70
8
 71
3
 72
8
 73
4
 74
0
 40
0
 40
0
 40
0
 40
0
 40
1
 40
1
 40
1
 40
1
 10
3.962286
 20
8.637235
 30
0.0
 10
3.974516
 20
8.539399
 30
0.0
 10
4.005089
 20
8.429334
 30
0.0
 10
4.170187
 20
8.429334
 30
0.0
  0
SPLINE
  5
168
100
AcDbEntity
  8
Layer_1
 62
7
100
AcDbSpline
 70
8
 71
3
 72
8
 73
4
 74
0
 40
0
 40
0
 40
0
 40
0
 40
1
 40
1
 40
1
 40
1
 10
4.170187
 20
8.429334
 30
0.0
 10
4.255793
 20
8.429334
 30
0.0
 10
4.359743
 20
8.502711
 30
0.0
 10
4.359743
 20
8.594432
 30
0.0
  0
SPLINE
  5
169
100
AcDbEntity
  8
Layer_1
 62
7
100
AcDbSpline
 70
8
 71
3
 72
8
 73
4
 74
0
 40
0
 40
0
 40
0
 40
0
 40
1
 40
1
 40
1
 40
1
 10
4.359743
 20
8.594432
 30
0.0
 10
4.359743
 20
9.053036
 30
0.0
 10
4.708282
 20
8.912397
 30
0.0
 10
4.708282
 20
9.670622
 30
0.0
  0
SPLINE
  5
16a
100
AcDbEntity
  8
Layer_1
 62
7
100
AcDbSpline
 70
8
 71
3
 72
8
 73
4
 74
0
 40
0
 40
0
 40
0
 40
0
 40
1
 40
1
 40
1
 40
1
 10
4.708282
 20
9.670622
 30
0.0
 10
4.720511
 20
10.269865
 30
0.0
 10
4.237449
 20
10.752927
 30
0.0
 10
3.638206
 20
10.752927
 30
0.0
  0
LWPOLYLINE
  5
16b
100
AcDbEntity
  8
Layer_2
 62
7
100
AcDbPolyline
 90
2
 70
0
 10
2.814289
 20
8.695640
 30
0.0
 10
2.860647
 20
8.770912
 30
0.0
  0
SPLINE
  5
16c
100
AcDbEntity
  8
Layer_1
 62
2
100
AcDbSpline
 70
8
 71
3
 72
8
 73
4
 74
0
 40
0
 40
0
 40
0
 40
0
 40
1
 40
1
 40
1
 40
1
 10
3.638206
 20
10.752927
 30
0.0
 10
3.038964
 20
10.752927
 30
0.0
 10
2.555901
 20
10.269865
 30
0.0
 10
2.555901
 20
9.670622
 30
0.0
  0
SPLINE
  5
16d
100
AcDbEntity
  8
Layer_1
 62
2
100
AcDbSpline
 70
8
 71
3
 72
8
 73
4
 74
0
 40
0
 40
0
 40
0
 40
0
 40
1
 40
1
 40
1
 40
1
 10
2.555901
 20
9.670622
 30
0.0
 10
2.555901
 20
8.906282
 30
0.0
 10
2.904440
 20
9.046921
 30
0.0
 10
2.904440
 20
8.594432
 30
0.0
  0
SPLINE
  5
16e
100
AcDbEntity
  8
Layer_1
 62
2
100
AcDbSpline
 70
8
 71
3
 72
8
 73
4
 74
0
 40
0
 40
0
 40
0
 40
0
 40
1
 40
1
 40
1
 40
1
 10
2.904440
 20
8.594432
 30
0.0
 10
2.904440
 20
8.508826
 30
0.0
 10
3.008390
 20
8.429334
 30
0.0
 10
3.093996
 20
8.429334
 30
0.0
  0
SPLINE
  5
16f
100
AcDbEntity
  8
Layer_1
 62
2
100
AcDbSpline
 70
8
 71
3
 72
8
 73
4
 74
0
 40
0
 40
0
 40
0
 40
0
 40
1
 40
1
 40
1
 40
1
 10
3.093996
 20
8.429334
 30
0.0
 10
3.265208
 20
8.429334
 30
0.0
 10
3.295782
 20
8.539399
 30
0.0
 10
3.301897
 20
8.637235
 30
0.0
  0
SPLINE
  5
170
100
AcDbEntity
  8
Layer_1
 62
2
100
AcDbSpline
 70
8
 71
3
 72
8
 73
4
 74
0
 40
0
 40
0
 40
0
 40
0
 40
1
 40
1
 40
1
 40
1
 10
3.301897
 20
8.637235
 30
0.0
 10
3.308011
 20
8.673923
 30
0.0
 10
3.338585
 20
8.698382
 30
0.0
 10
3.369159
 20
8.698382
 30
0.0
  0
SPLINE
  5
171
100
AcDbEntity
  8
Layer_1
 62
2
100
AcDbSpline
 70
8
 71
3
 72
8
 73
4
 74
0
 40
0
 40
0
 40
0
 40
0
 40
1
 40
1
 40
1
 40
1
 10
3.369159
 20
8.698382
 30
0.0
 10
3.405847
 20
8.698382
 30
0.0
 10
3.442535
 20
8.667808
 30
0.0
 10
3.442535
 20
8.625005
 30
0.0
  0
SPLINE
  5
172
100
AcDbEntity
  8
Layer_1
 62
2
100
AcDbSpline
 70
8
 71
3
 72
8
 73
4
 74
0
 40
0
 40
0
 40
0
 40
0
 40
1
 40
1
 40
1
 40
1
 10
3.442535
 20
8.625005
 30
0.0
 10
3.442535
 20
8.496596
 30
0.0
 10
3.534256
 20
8.423220
 30
0.0
 10
3.632092
 20
8.423220
 30
0.0
  0
SPLINE
  5
173
100
AcDbEntity
  8
Layer_1
 62
2
100
AcDbSpline
 70
8
 71
3
 72
8
 73
4
 74
0
 40
0
 40
0
 40
0
 40
0
 40
1
 40
1
 40
1
 40
1
 10
3.632092
 20
8.423220
 30
0.0
 10
3.729927
 20
8.423220
 30
0.0
 10
3.821648
 20
8.496596
 30
0.0
 10
3.821648
 20
8.625005
 30
0.0
  0
SPLINE
  5
174
100
AcDbEntity
  8
Layer_1
 62
2
100
AcDbSpline
 70
8
 71
3
 72
8
 73
4
 74
0
 40
0
 40
0
 40
0
 40
0
 40
1
 40
1
 40
1
 40
1
 10
3.821648
 20
8.625005
 30
0.0
 10
3.821648
 20
8.661694
 30
0.0
 10
3.852221
 20
8.698382
 30
0.0
 10
3.895024
 20
8.698382
 30
0.0
  0
SPLINE
  5
175
100
AcDbEntity
  8
Layer_1
 62
2
100
AcDbSpline
 70
8
 71
3
 72
8
 73
4
 74
0
 40
0
 40
0
 40
0
 40
0
 40
1
 40
1
 40
1
 40
1
 10
3.895024
 20
8.698382
 30
0.0
 10
3.931713
 20
8.698382
 30
0.0
 10
3.962286
 20
8.673923
 30
0.0
 10
3.962286
 20
8.637235
 30
0.0
  0
SPLINE
  5
176
100
AcDbEntity
  8
Layer_1
 62
2
100
AcDbSpline
 70
8
 71
3
 72
8
 73
4
 74
0
 40
0
 40
0
 40
0
 40
0
 40
1
 40
1
 40
1
 40
1
 10
3.962286
 20
8.637235
 30
0.0
 10
3.974516
 20
8.539399
 30
0.0
 10
4.005089
 20
8.429334
 30
0.0
 10
4.170187
 20
8.429334
 30
0.0
  0
SPLINE
  5
177
100
AcDbEntity
  8
Layer_1
 62
2
100
AcDbSpline
 70
8
 71
3
 72
8
 73
4
 74
0
 40
0
 40
0
 40
0
 40
0
 40
1
 40
1
 40
1
 40
1
 10
4.170187
 20
8.429334
 30
0.0
 10
4.255793
 20
8.429334
 30
0.0
 10
4.359743
 20
8.502711
 30
0.0
 10
4.359743
 20
8.594432
 30
0.0
  0
SPLINE
  5
178
100
AcDbEntity
  8
Layer_1
 62
2
100
AcDbSpline
 70
8
 71
3
 72
8
 73
4
 74
0
 40
0
 40
0
 40
0
 40
0
 40
1
 40
1
 40
1
 40
1
 10
4.359743
 20
8.594432
 30
0.0
 10
4.359743
 20
9.053036
 30
0.0
 10
4.708282
 20
8.912397
 30
0.0
 10
4.708282
 20
9.670622
 30
0.0
  0
SPLINE
  5
179
100
AcDbEntity
  8
Layer_1
 62
2
100
AcDbSpline
 70
8
 71
3
 72
8
 73
4
 74
0
 40
0
 40
0
 40
0
 40
0
 40
1
 40
1
 40
1
 40
1
 10
4.708282
 20
9.670622
 30
0.0
 10
4.720511
 20
10.269865
 30
0.0
 10
4.237449
 20
10.752927
 30
0.0
 10
3.638206
 20
10.752927
 30
0.0
  0
SPLINE
  5
17a
100
AcDbEntity
  8
Layer_1
 62
7
100
AcDbSpline
 70
8
 71
3
 72
8
 73
4
 74
0
 40
0
 40
0
 40
0
 40
0
 40
1
 40
1
 40
1
 40
1
 10
3.424191
 20
9.419919
 30
0.0
 10
3.424191
 20
9.351806
 30
0.0
 10
3.397134
 20
9.286484
 30
0.0
 10
3.348971
 20
9.238321
 30
0.0
  0
SPLINE
  5
17b
100
AcDbEntity
  8
Layer_1
 62
7
100
AcDbSpline
 70
8
 71
3
 72
8
 73
4
 74
0
 40
0
 40
0
 40
0
 40
0
 40
1
 40
1
 40
1
 40
1
 10
3.348971
 20
9.238321
 30
0.0
 10
3.300808
 20
9.190158
 30
0.0
 10
3.235485
 20
9.163101
 30
0.0
 10
3.167373
 20
9.163101
 30
0.0
  0
SPLINE
  5
17c
100
AcDbEntity
  8
Layer_1
 62
7
100
AcDbSpline
 70
8
 71
3
 72
8
 73
4
 74
0
 40
0
 40
0
 40
0
 40
0
 40
1
 40
1
 40
1
 40
1
 10
3.167373
 20
9.163101
 30
0.0
 10
3.099260
 20
9.163101
 30
0.0
 10
3.033938
 20
9.190158
 30
0.0
 10
2.985775
 20
9.238321
 30
0.0
  0
SPLINE
  5
17d
100
AcDbEntity
  8
Layer_1
 62
7
100
AcDbSpline
 70
8
 71
3
 72
8
 73
4
 74
0
 40
0
 40
0
 40
0
 40
0
 40
1
 40
1
 40
1
 40
1
 10
2.985775
 20
9.238321
 30
0.0
 10
2.937612
 20
9.286484
 30
0.0
 10
2.910555
 20
9.351806
 30
0.0
 10
2.910555
 20
9.419919
 30
0.0
  0
SPLINE
  5
17e
100
AcDbEntity
  8
Layer_1
 62
7
100
AcDbSpline
 70
8
 71
3
 72
8
 73
4
 74
0
 40
0
 40
0
 40
0
 40
0
 40
1
 40
1
 40
1
 40
1
 10
2.910555
 20
9.419919
 30
0.0
 10
2.910555
 20
9.488031
 30
0.0
 10
2.937612
 20
9.553354
 30
0.0
 10
2.985775
 20
9.601517
 30
0.0
  0
SPLINE
  5
17f
100
AcDbEntity
  8
Layer_1
 62
7
100
AcDbSpline
 70
8
 71
3
 72
8
 73
4
 74
0
 40
0
 40
0
 40
0
 40
0
 40
1
 40
1
 40
1
 40
1
 10
2.985775
 20
9.601517
 30
0.0
 10
3.033938
 20
9.649679
 30
0.0
 10
3.099260
 20
9.676737
 30
0.0
 10
3.167373
 20
9.676737
 30
0.0
  0
SPLINE
  5
180
100
AcDbEntity
  8
Layer_1
 62
7
100
AcDbSpline
 70
8
 71
3
 72
8
 73
4
 74
0
 40
0
 40
0
 40
0
 40
0
 40
1
 40
1
 40
1
 40
1
 10
3.167373
 20
9.676737
 30
0.0
 10
3.235485
 20
9.676737
 30
0.0
 10
3.300808
 20
9.649679
 30
0.0
 10
3.348971
 20
9.601517
 30
0.0
  0
SPLINE
  5
181
100
AcDbEntity
  8
Layer_1
 62
7
100
AcDbSpline
 70
8
 71
3
 72
8
 73
4
 74
0
 40
0
 40
0
 40
0
 40
0
 40
1
 40
1
 40
1
 40
1
 10
3.348971
 20
9.601517
 30
0.0
 10
3.397134
 20
9.553354
 30
0.0
 10
3.424191
 20
9.488031
 30
0.0
 10
3.424191
 20
9.419919
 30
0.0
  0
LWPOLYLINE
  5
182
100
AcDbEntity
  8
Layer_1
 62
7
100
AcDbPolyline
 90
2
 70
1
 10
3.638206
 20
10.752927
 30
0.0
 10
3.638206
 20
10.752927
 30
0.0
  0
SPLINE
  5
183
100
AcDbEntity
  8
Layer_1
 62
7
100
AcDbSpline
 70
8
 71
3
 72
8
 73
4
 74
0
 40
0
 40
0
 40
0
 40
0
 40
1
 40
1
 40
1
 40
1
 10
3.167373
 20
9.566672
 30
0.0
 10
3.289667
 20
9.566672
 30
0.0
 10
3.393618
 20
9.481066
 30
0.0
 10
3.418076
 20
9.364886
 30
0.0
  0
SPLINE
  5
184
100
AcDbEntity
  8
Layer_1
 62
7
100
AcDbSpline
 70
8
 71
3
 72
8
 73
4
 74
0
 40
0
 40
0
 40
0
 40
0
 40
1
 40
1
 40
1
 40
1
 10
3.418076
 20
9.364886
 30
0.0
 10
3.424191
 20
9.383230
 30
0.0
 10
3.424191
 20
9.401575
 30
0.0
 10
3.424191
 20
9.419919
 30
0.0
  0
SPLINE
  5
185
100
AcDbEntity
  8
Layer_1
 62
7
100
AcDbSpline
 70
8
 71
3
 72
8
 73
4
 74
0
 40
0
 40
0
 40
0
 40
0
 40
1
 40
1
 40
1
 40
1
 10
3.424191
 20
9.419919
 30
0.0
 10
3.424191
 20
9.560557
 30
0.0
 10
3.308012
 20
9.676737
 30
0.0
 10
3.167373
 20
9.676737
 30
0.0
  0
SPLINE
  5
186
100
AcDbEntity
  8
Layer_1
 62
7
100
AcDbSpline
 70
8
 71
3
 72
8
 73
4
 74
0
 40
0
 40
0
 40
0
 40
0
 40
1
 40
1
 40
1
 40
1
 10
3.167373
 20
9.676737
 30
0.0
 10
3.026734
 20
9.676737
 30
0.0
 10
2.910555
 20
9.560557
 30
0.0
 10
2.910555
 20
9.419919
 30
0.0
  0
SPLINE
  5
187
100
AcDbEntity
  8
Layer_1
 62
7
100
AcDbSpline
 70
8
 71
3
 72
8
 73
4
 74
0
 40
0
 40
0
 40
0
 40
0
 40
1
 40
1
 40
1
 40
1
 10
2.910555
 20
9.419919
 30
0.0
 10
2.910555
 20
9.401575
 30
0.0
 10
2.910555
 20
9.383230
 30
0.0
 10
2.916670
 20
9.364886
 30
0.0
  0
SPLINE
  5
188
100
AcDbEntity
  8
Layer_1
 62
7
100
AcDbSpline
 70
8
 71
3
 72
8
 73
4
 74
0
 40
0
 40
0
 40
0
 40
0
 40
1
 40
1
 40
1
 40
1
 10
2.916670
 20
9.364886
 30
0.0
 10
2.941128
 20
9.481066
 30
0.0
 10
3.045079
 20
9.566672
 30
0.0
 10
3.167373
 20
9.566672
 30
0.0
  0
LWPOLYLINE
  5
189
100
AcDbEntity
  8
Layer_1
 62
7
100
AcDbPolyline
 90
1
 70
1
 10
3.424191
 20
9.419919
 30
0.0
  0
SPLINE
  5
18a
100
AcDbEntity
  8
Layer_1
 62
2
100
AcDbSpline
 70
8
 71
3
 72
8
 73
4
 74
0
 40
0
 40
0
 40
0
 40
0
 40
1
 40
1
 40
1
 40
1
 10
3.424191
 20
9.419919
 30
0.0
 10
3.424191
 20
9.351806
 30
0.0
 10
3.397134
 20
9.286484
 30
0.0
 10
3.348971
 20
9.238321
 30
0.0
  0
SPLINE
  5
18b
100
AcDbEntity
  8
Layer_1
 62
2
100
AcDbSpline
 70
8
 71
3
 72
8
 73
4
 74
0
 40
0
 40
0
 40
0
 40
0
 40
1
 40
1
 40
1
 40
1
 10
3.348971
 20
9.238321
 30
0.0
 10
3.300808
 20
9.190158
 30
0.0
 10
3.235485
 20
9.163101
 30
0.0
 10
3.167373
 20
9.163101
 30
0.0
  0
SPLINE
  5
18c
100
AcDbEntity
  8
Layer_1
 62
2
100
AcDbSpline
 70
8
 71
3
 72
8
 73
4
 74
0
 40
0
 40
0
 40
0
 40
0
 40
1
 40
1
 40
1
 40
1
 10
3.167373
 20
9.163101
 30
0.0
 10
3.099260
 20
9.163101
 30
0.0
 10
3.033938
 20
9.190158
 30
0.0
 10
2.985775
 20
9.238321
 30
0.0
  0
SPLINE
  5
18d
100
AcDbEntity
  8
Layer_1
 62
2
100
AcDbSpline
 70
8
 71
3
 72
8
 73
4
 74
0
 40
0
 40
0
 40
0
 40
0
 40
1
 40
1
 40
1
 40
1
 10
2.985775
 20
9.238321
 30
0.0
 10
2.937612
 20
9.286484
 30
0.0
 10
2.910555
 20
9.351806
 30
0.0
 10
2.910555
 20
9.419919
 30
0.0
  0
SPLINE
  5
18e
100
AcDbEntity
  8
Layer_1
 62
2
100
AcDbSpline
 70
8
 71
3
 72
8
 73
4
 74
0
 40
0
 40
0
 40
0
 40
0
 40
1
 40
1
 40
1
 40
1
 10
2.910555
 20
9.419919
 30
0.0
 10
2.910555
 20
9.488031
 30
0.0
 10
2.937612
 20
9.553354
 30
0.0
 10
2.985775
 20
9.601517
 30
0.0
  0
SPLINE
  5
18f
100
AcDbEntity
  8
Layer_1
 62
2
100
AcDbSpline
 70
8
 71
3
 72
8
 73
4
 74
0
 40
0
 40
0
 40
0
 40
0
 40
1
 40
1
 40
1
 40
1
 10
2.985775
 20
9.601517
 30
0.0
 10
3.033938
 20
9.649679
 30
0.0
 10
3.099260
 20
9.676737
 30
0.0
 10
3.167373
 20
9.676737
 30
0.0
  0
SPLINE
  5
190
100
AcDbEntity
  8
Layer_1
 62
2
100
AcDbSpline
 70
8
 71
3
 72
8
 73
4
 74
0
 40
0
 40
0
 40
0
 40
0
 40
1
 40
1
 40
1
 40
1
 10
3.167373
 20
9.676737
 30
0.0
 10
3.235485
 20
9.676737
 30
0.0
 10
3.300808
 20
9.649679
 30
0.0
 10
3.348971
 20
9.601517
 30
0.0
  0
SPLINE
  5
191
100
AcDbEntity
  8
Layer_1
 62
2
100
AcDbSpline
 70
8
 71
3
 72
8
 73
4
 74
0
 40
0
 40
0
 40
0
 40
0
 40
1
 40
1
 40
1
 40
1
 10
3.348971
 20
9.601517
 30
0.0
 10
3.397134
 20
9.553354
 30
0.0
 10
3.424191
 20
9.488031
 30
0.0
 10
3.424191
 20
9.419919
 30
0.0
  0
LWPOLYLINE
  5
192
100
AcDbEntity
  8
Layer_1
 62
7
100
AcDbPolyline
 90
1
 70
1
 10
3.167373
 20
9.566672
 30
0.0
  0
SPLINE
  5
193
100
AcDbEntity
  8
Layer_1
 62
7
100
AcDbSpline
 70
8
 71
3
 72
8
 73
4
 74
0
 40
0
 40
0
 40
0
 40
0
 40
1
 40
1
 40
1
 40
1
 10
4.365858
 20
9.419919
 30
0.0
 10
4.365858
 20
9.351806
 30
0.0
 10
4.338800
 20
9.286484
 30
0.0
 10
4.290638
 20
9.238321
 30
0.0
  0
SPLINE
  5
194
100
AcDbEntity
  8
Layer_1
 62
7
100
AcDbSpline
 70
8
 71
3
 72
8
 73
4
 74
0
 40
0
 40
0
 40
0
 40
0
 40
1
 40
1
 40
1
 40
1
 10
4.290638
 20
9.238321
 30
0.0
 10
4.242475
 20
9.190158
 30
0.0
 10
4.177152
 20
9.163101
 30
0.0
 10
4.109040
 20
9.163101
 30
0.0
  0
SPLINE
  5
195
100
AcDbEntity
  8
Layer_1
 62
7
100
AcDbSpline
 70
8
 71
3
 72
8
 73
4
 74
0
 40
0
 40
0
 40
0
 40
0
 40
1
 40
1
 40
1
 40
1
 10
4.109040
 20
9.163101
 30
0.0
 10
4.040927
 20
9.163101
 30
0.0
 10
3.975605
 20
9.190158
 30
0.0
 10
3.927442
 20
9.238321
 30
0.0
  0
SPLINE
  5
196
100
AcDbEntity
  8
Layer_1
 62
7
100
AcDbSpline
 70
8
 71
3
 72
8
 73
4
 74
0
 40
0
 40
0
 40
0
 40
0
 40
1
 40
1
 40
1
 40
1
 10
3.927442
 20
9.238321
 30
0.0
 10
3.879279
 20
9.286484
 30
0.0
 10
3.852222
 20
9.351806
 30
0.0
 10
3.852222
 20
9.419919
 30
0.0
  0
SPLINE
  5
197
100
AcDbEntity
  8
Layer_1
 62
7
100
AcDbSpline
 70
8
 71
3
 72
8
 73
4
 74
0
 40
0
 40
0
 40
0
 40
0
 40
1
 40
1
 40
1
 40
1
 10
3.852222
 20
9.419919
 30
0.0
 10
3.852222
 20
9.488031
 30
0.0
 10
3.879279
 20
9.553354
 30
0.0
 10
3.927442
 20
9.601517
 30
0.0
  0
SPLINE
  5
198
100
AcDbEntity
  8
Layer_1
 62
7
100
AcDbSpline
 70
8
 71
3
 72
8
 73
4
 74
0
 40
0
 40
0
 40
0
 40
0
 40
1
 40
1
 40
1
 40
1
 10
3.927442
 20
9.601517
 30
0.0
 10
3.975605
 20
9.649679
 30
0.0
 10
4.040927
 20
9.676737
 30
0.0
 10
4.109040
 20
9.676737
 30
0.0
  0
SPLINE
  5
199
100
AcDbEntity
  8
Layer_1
 62
7
100
AcDbSpline
 70
8
 71
3
 72
8
 73
4
 74
0
 40
0
 40
0
 40
0
 40
0
 40
1
 40
1
 40
1
 40
1
 10
4.109040
 20
9.676737
 30
0.0
 10
4.177152
 20
9.676737
 30
0.0
 10
4.242475
 20
9.649679
 30
0.0
 10
4.290638
 20
9.601517
 30
0.0
  0
SPLINE
  5
19a
100
AcDbEntity
  8
Layer_1
 62
7
100
AcDbSpline
 70
8
 71
3
 72
8
 73
4
 74
0
 40
0
 40
0
 40
0
 40
0
 40
1
 40
1
 40
1
 40
1
 10
4.290638
 20
9.601517
 30
0.0
 10
4.338800
 20
9.553354
 30
0.0
 10
4.365858
 20
9.488031
 30
0.0
 10
4.365858
 20
9.419919
 30
0.0
  0
LWPOLYLINE
  5
19b
100
AcDbEntity
  8
Layer_1
 62
2
100
AcDbPolyline
 90
1
 70
1
 10
3.424191
 20
9.419919
 30
0.0
  0
SPLINE
  5
19c
100
AcDbEntity
  8
Layer_1
 62
7
100
AcDbSpline
 70
8
 71
3
 72
8
 73
4
 74
0
 40
0
 40
0
 40
0
 40
0
 40
1
 40
1
 40
1
 40
1
 10
4.109040
 20
9.566672
 30
0.0
 10
4.231334
 20
9.566672
 30
0.0
 10
4.335284
 20
9.481066
 30
0.0
 10
4.359743
 20
9.364886
 30
0.0
  0
SPLINE
  5
19d
100
AcDbEntity
  8
Layer_1
 62
7
100
AcDbSpline
 70
8
 71
3
 72
8
 73
4
 74
0
 40
0
 40
0
 40
0
 40
0
 40
1
 40
1
 40
1
 40
1
 10
4.359743
 20
9.364886
 30
0.0
 10
4.365858
 20
9.383230
 30
0.0
 10
4.365858
 20
9.401575
 30
0.0
 10
4.365858
 20
9.419919
 30
0.0
  0
SPLINE
  5
19e
100
AcDbEntity
  8
Layer_1
 62
7
100
AcDbSpline
 70
8
 71
3
 72
8
 73
4
 74
0
 40
0
 40
0
 40
0
 40
0
 40
1
 40
1
 40
1
 40
1
 10
4.365858
 20
9.419919
 30
0.0
 10
4.365858
 20
9.560557
 30
0.0
 10
4.249678
 20
9.676737
 30
0.0
 10
4.109040
 20
9.676737
 30
0.0
  0
SPLINE
  5
19f
100
AcDbEntity
  8
Layer_1
 62
7
100
AcDbSpline
 70
8
 71
3
 72
8
 73
4
 74
0
 40
0
 40
0
 40
0
 40
0
 40
1
 40
1
 40
1
 40
1
 10
4.109040
 20
9.676737
 30
0.0
 10
3.968401
 20
9.676737
 30
0.0
 10
3.852221
 20
9.560557
 30
0.0
 10
3.852221
 20
9.419919
 30
0.0
  0
SPLINE
  5
1a0
100
AcDbEntity
  8
Layer_1
 62
7
100
AcDbSpline
 70
8
 71
3
 72
8
 73
4
 74
0
 40
0
 40
0
 40
0
 40
0
 40
1
 40
1
 40
1
 40
1
 10
3.852221
 20
9.419919
 30
0.0
 10
3.852221
 20
9.401575
 30
0.0
 10
3.852221
 20
9.383230
 30
0.0
 10
3.858336
 20
9.364886
 30
0.0
  0
SPLINE
  5
1a1
100
AcDbEntity
  8
Layer_1
 62
7
100
AcDbSpline
 70
8
 71
3
 72
8
 73
4
 74
0
 40
0
 40
0
 40
0
 40
0
 40
1
 40
1
 40
1
 40
1
 10
3.858336
 20
9.364886
 30
0.0
 10
3.882795
 20
9.481066
 30
0.0
 10
3.986745
 20
9.566672
 30
0.0
 10
4.109040
 20
9.566672
 30
0.0
  0
LWPOLYLINE
  5
1a2
100
AcDbEntity
  8
Layer_1
 62
7
100
AcDbPolyline
 90
1
 70
1
 10
4.365858
 20
9.419919
 30
0.0
  0
SPLINE
  5
1a3
100
AcDbEntity
  8
Layer_1
 62
2
100
AcDbSpline
 70
8
 71
3
 72
8
 73
4
 74
0
 40
0
 40
0
 40
0
 40
0
 40
1
 40
1
 40
1
 40
1
 10
4.365858
 20
9.419919
 30
0.0
 10
4.365858
 20
9.351806
 30
0.0
 10
4.338800
 20
9.286484
 30
0.0
 10
4.290638
 20
9.238321
 30
0.0
  0
SPLINE
  5
1a4
100
AcDbEntity
  8
Layer_1
 62
2
100
AcDbSpline
 70
8
 71
3
 72
8
 73
4
 74
0
 40
0
 40
0
 40
0
 40
0
 40
1
 40
1
 40
1
 40
1
 10
4.290638
 20
9.238321
 30
0.0
 10
4.242475
 20
9.190158
 30
0.0
 10
4.177152
 20
9.163101
 30
0.0
 10
4.109040
 20
9.163101
 30
0.0
  0
SPLINE
  5
1a5
100
AcDbEntity
  8
Layer_1
 62
2
100
AcDbSpline
 70
8
 71
3
 72
8
 73
4
 74
0
 40
0
 40
0
 40
0
 40
0
 40
1
 40
1
 40
1
 40
1
 10
4.109040
 20
9.163101
 30
0.0
 10
4.040927
 20
9.163101
 30
0.0
 10
3.975605
 20
9.190158
 30
0.0
 10
3.927442
 20
9.238321
 30
0.0
  0
SPLINE
  5
1a6
100
AcDbEntity
  8
Layer_1
 62
2
100
AcDbSpline
 70
8
 71
3
 72
8
 73
4
 74
0
 40
0
 40
0
 40
0
 40
0
 40
1
 40
1
 40
1
 40
1
 10
3.927442
 20
9.238321
 30
0.0
 10
3.879279
 20
9.286484
 30
0.0
 10
3.852222
 20
9.351806
 30
0.0
 10
3.852222
 20
9.419919
 30
0.0
  0
SPLINE
  5
1a7
100
AcDbEntity
  8
Layer_1
 62
2
100
AcDbSpline
 70
8
 71
3
 72
8
 73
4
 74
0
 40
0
 40
0
 40
0
 40
0
 40
1
 40
1
 40
1
 40
1
 10
3.852222
 20
9.419919
 30
0.0
 10
3.852222
 20
9.488031
 30
0.0
 10
3.879279
 20
9.553354
 30
0.0
 10
3.927442
 20
9.601517
 30
0.0
  0
SPLINE
  5
1a8
100
AcDbEntity
  8
Layer_1
 62
2
100
AcDbSpline
 70
8
 71
3
 72
8
 73
4
 74
0
 40
0
 40
0
 40
0
 40
0
 40
1
 40
1
 40
1
 40
1
 10
3.927442
 20
9.601517
 30
0.0
 10
3.975605
 20
9.649679
 30
0.0
 10
4.040927
 20
9.676737
 30
0.0
 10
4.109040
 20
9.676737
 30
0.0
  0
SPLINE
  5
1a9
100
AcDbEntity
  8
Layer_1
 62
2
100
AcDbSpline
 70
8
 71
3
 72
8
 73
4
 74
0
 40
0
 40
0
 40
0
 40
0
 40
1
 40
1
 40
1
 40
1
 10
4.109040
 20
9.676737
 30
0.0
 10
4.177152
 20
9.676737
 30
0.0
 10
4.242475
 20
9.649679
 30
0.0
 10
4.290638
 20
9.601517
 30
0.0
  0
SPLINE
  5
1aa
100
AcDbEntity
  8
Layer_1
 62
2
100
AcDbSpline
 70
8
 71
3
 72
8
 73
4
 74
0
 40
0
 40
0
 40
0
 40
0
 40
1
 40
1
 40
1
 40
1
 10
4.290638
 20
9.601517
 30
0.0
 10
4.338800
 20
9.553354
 30
0.0
 10
4.365858
 20
9.488031
 30
0.0
 10
4.365858
 20
9.419919
 30
0.0
  0
LWPOLYLINE
  5
1ab
100
AcDbEntity
  8
Layer_1
 62
7
100
AcDbPolyline
 90
1
 70
1
 10
4.109040
 20
9.566672
 30
0.0
  0
SPLINE
  5
1ac
100
AcDbEntity
  8
Layer_1
 62
7
100
AcDbSpline
 70
8
 71
3
 72
8
 73
4
 74
0
 40
0
 40
0
 40
0
 40
0
 40
1
 40
1
 40
1
 40
1
 10
3.962286
 20
10.538912
 30
0.0
 10
3.962286
 20
10.495010
 30
0.0
 10
3.817191
 20
10.459421
 30
0.0
 10
3.638206
 20
10.459421
 30
0.0
  0
SPLINE
  5
1ad
100
AcDbEntity
  8
Layer_1
 62
7
100
AcDbSpline
 70
8
 71
3
 72
8
 73
4
 74
0
 40
0
 40
0
 40
0
 40
0
 40
1
 40
1
 40
1
 40
1
 10
3.638206
 20
10.459421
 30
0.0
 10
3.459222
 20
10.459421
 30
0.0
 10
3.314126
 20
10.495010
 30
0.0
 10
3.314126
 20
10.538912
 30
0.0
  0
SPLINE
  5
1ae
100
AcDbEntity
  8
Layer_1
 62
7
100
AcDbSpline
 70
8
 71
3
 72
8
 73
4
 74
0
 40
0
 40
0
 40
0
 40
0
 40
1
 40
1
 40
1
 40
1
 10
3.314126
 20
10.538912
 30
0.0
 10
3.314126
 20
10.582814
 30
0.0
 10
3.459222
 20
10.618404
 30
0.0
 10
3.638206
 20
10.618404
 30
0.0
  0
SPLINE
  5
1af
100
AcDbEntity
  8
Layer_1
 62
7
100
AcDbSpline
 70
8
 71
3
 72
8
 73
4
 74
0
 40
0
 40
0
 40
0
 40
0
 40
1
 40
1
 40
1
 40
1
 10
3.638206
 20
10.618404
 30
0.0
 10
3.817191
 20
10.618404
 30
0.0
 10
3.962286
 20
10.582814
 30
0.0
 10
3.962286
 20
10.538912
 30
0.0
  0
LWPOLYLINE
  5
1b0
100
AcDbEntity
  8
Layer_1
 62
2
100
AcDbPolyline
 90
1
 70
1
 10
4.365858
 20
9.419919
 30
0.0
  0
LWPOLYLINE
  5
1b1
100
AcDbEntity
  8
Layer_1
 62
7
100
AcDbPolyline
 90
1
 70
1
 10
3.962286
 20
10.538912
 30
0.0
  0
ENDSEC
  0
SECTION
  2
OBJECTS
  0
DICTIONARY
  5
C
330
0
100
AcDbDictionary
  3
ACAD_GROUP
350
D
  3
ACAD_MLINESTYLE
350
17
  0
DICTIONARY
  5
D
330
C
100
AcDbDictionary
  0
DICTIONARY
  5
1A
330
C
100
AcDbDictionary
  0
DICTIONARY
  5
17
330
C
100
AcDbDictionary
  3
STANDARD
350
18
  0
DICTIONARY
  5
19
330
C
100
AcDbDictionary
  0
ENDSEC
  0
EOF
