  0
SECTION
  2
HEADER
  9
$ACADVER
  1
AC1014
  9
$HANDSEED
  5
FFFF
  9
$MEASUREMENT
 70
     1
  0
ENDSEC
  0
SECTION
  2
TABLES
  0
TABLE
  2
VPORT
  5
8
330
0
100
AcDbSymbolTable
 70
     4
  0
VPORT
  5
2E
330
8
100
AcDbSymbolTableRecord
100
AcDbViewportTableRecord
  2
*ACTIVE
 70
     0
 10
0.0
 20
0.0
 11
1.0
 21
1.0
 12
210.0
 22
148.5
 13
0.0
 23
0.0
 14
10.0
 24
10.0
 15
10.0
 25
10.0
 16
0.0
 26
0.0
 36
1.0
 17
0.0
 27
0.0
 37
0.0
 40
341.0
 41
1.24
 42
50.0
 43
0.0
 44
0.0
 50
0.0
 51
0.0
 71
     0
 72
   100
 73
     1
 74
     3
 75
     0
 76
     0
 77
     0
 78
     0
  0
ENDTAB
  0
TABLE
  2
LTYPE
  5
5
330
0
100
AcDbSymbolTable
 70
     1
  0
LTYPE
  5
14
330
5
100
AcDbSymbolTableRecord
100
AcDbLinetypeTableRecord
  2
BYBLOCK
 70
     0
  3

 72
    65
 73
     0
 40
0.0
  0
LTYPE
  5
15
330
5
100
AcDbSymbolTableRecord
100
AcDbLinetypeTableRecord
  2
BYLAYER
 70
     0
  3

 72
    65
 73
     0
 40
0.0
  0
LTYPE
  5
16
330
5
100
AcDbSymbolTableRecord
100
AcDbLinetypeTableRecord
  2
CONTINUOUS
 70
     0
  3
Solid line
 72
    65
 73
     0
 40
0.0
  0
ENDTAB
  0
TABLE
  2
LAYER
  5
2
100
AcDbSymbolTable
 70
2
  0
LAYER
  5
50
100
AcDbSymbolTableRecord
100
AcDbLayerTableRecord
  2
0
 70
0
  6
CONTINUOUS
  0
LAYER
  5
51
100
AcDbSymbolTableRecord
100
AcDbLayerTableRecord
  2
Layer_1
 70
0
  6
CONTINUOUS
  0
ENDTAB
  0
TABLE
  2
STYLE
  5
3
330
0
100
AcDbSymbolTable
 70
     1
  0
STYLE
  5
11
330
3
100
AcDbSymbolTableRecord
100
AcDbTextStyleTableRecord
  2
STANDARD
 70
     0
 40
0.0
 41
1.0
 50
0.0
 71
     0
 42
2.5
  3
txt
  4

  0
ENDTAB
  0
TABLE
  2
VIEW
  5
6
330
0
100
AcDbSymbolTable
 70
     0
  0
ENDTAB
  0
TABLE
  2
UCS
  5
7
330
0
100
AcDbSymbolTable
 70
     0
  0
ENDTAB
  0
TABLE
  2
APPID
  5
9
330
0
100
AcDbSymbolTable
 70
     2
  0
APPID
  5
12
330
9
100
AcDbSymbolTableRecord
100
AcDbRegAppTableRecord
  2
ACAD
 70
     0
  0
ENDTAB
  0
TABLE
  2
DIMSTYLE
  5
A
330
0
100
AcDbSymbolTable
 70
     1
  0
DIMSTYLE
105
27
330
A
100
AcDbSymbolTableRecord
100
AcDbDimStyleTableRecord
  2
ISO-25
 70
     0
  3

  4

  5

  6

  7

 40
1.0
 41
2.5
 42
0.625
 43
3.75
 44
1.25
 45
0.0
 46
0.0
 47
0.0
 48
0.0
140
2.5
141
2.5
142
0.0
143
0.03937007874016
144
1.0
145
0.0
146
1.0
147
0.625
 71
     0
 72
     0
 73
     0
 74
     0
 75
     0
 76
     0
 77
     1
 78
     8
170
     0
171
     3
172
     1
173
     0
174
     0
175
     0
176
     0
177
     0
178
     0
270
     2
271
     2
272
     2
273
     2
274
     3
340
11
275
     0
280
     0
281
     0
282
     0
283
     0
284
     8
285
     0
286
     0
287
     3
288
     0
  0
ENDTAB
  0
TABLE
  2
BLOCK_RECORD
  5
1
330
0
100
AcDbSymbolTable
 70
     1
  0
BLOCK_RECORD
  5
1F
330
1
100
AcDbSymbolTableRecord
100
AcDbBlockTableRecord
  2
*MODEL_SPACE
  0
BLOCK_RECORD
  5
1B
330
1
100
AcDbSymbolTableRecord
100
AcDbBlockTableRecord
  2
*PAPER_SPACE
  0
ENDTAB
  0
ENDSEC
  0
SECTION
  2
BLOCKS
  0
BLOCK
  5
20
330
1F
100
AcDbEntity
  8
0
100
AcDbBlockBegin
  2
*MODEL_SPACE
 70
     0
 10
0.0
 20
0.0
 30
0.0
  3
*MODEL_SPACE
  1

  0
ENDBLK
  5
21
330
1F
100
AcDbEntity
  8
0
100
AcDbBlockEnd
  0
BLOCK
  5
1C
330
1B
100
AcDbEntity
 67
     1
  8
0
100
AcDbBlockBegin
  2
*PAPER_SPACE
  1

  0
ENDBLK
  5
1D
330
1B
100
AcDbEntity
 67
     1
  8
0
100
AcDbBlockEnd
  0
ENDSEC
  0
SECTION
  2
ENTITIES
  0
LWPOLYLINE
  5
100
100
AcDbEntity
  8
Layer_1
 62
7
100
AcDbPolyline
 90
200
 70
1
 10
86.578319
 20
134.710510
 30
0.0
 10
83.136621
 20
135.142251
 30
0.0
 10
80.205594
 20
135.891190
 30
0.0
 10
79.525615
 20
136.209556
 30
0.0
 10
79.129743
 20
136.540140
 30
0.0
 10
78.681766
 20
137.412790
 30
0.0
 10
78.571595
 20
137.980285
 30
0.0
 10
78.636177
 20
138.472880
 30
0.0
 10
78.869393
 20
138.872250
 30
0.0
 10
79.265127
 20
139.160070
 30
0.0
 10
80.219490
 20
139.300730
 30
0.0
 10
80.698218
 20
139.293730
 30
0.0
 10
80.952218
 20
139.398970
 30
0.0
 10
81.523718
 20
139.642440
 30
0.0
 10
82.184118
 20
139.901100
 30
0.0
 10
83.131070
 20
140.365790
 30
0.0
 10
85.451258
 20
142.176640
 30
0.0
 10
87.925330
 20
144.651720
 30
0.0
 10
90.560569
 20
147.866660
 30
0.0
 10
90.036559
 20
148.257330
 30
0.0
 10
88.131560
 20
149.652100
 30
0.0
 10
84.838461
 20
152.032238
 30
0.0
 10
83.212818
 20
152.959160
 30
0.0
 10
81.980918
 20
153.536060
 30
0.0
 10
79.529818
 20
154.769070
 30
0.0
 10
78.996418
 20
155.247790
 30
0.0
 10
77.910108
 20
156.178641
 30
0.0
 10
75.704449
 20
157.764160
 30
0.0
 10
73.185372
 20
159.577595
 30
0.0
 10
71.794829
 20
160.844220
 30
0.0
 10
71.076656
 20
161.608574
 30
0.0
 10
70.742334
 20
162.185870
 30
0.0
 10
70.187846
 20
163.269920
 30
0.0
 10
69.602973
 20
164.597426
 30
0.0
 10
69.444034
 20
166.190920
 30
0.0
 10
69.536504
 20
168.019720
 30
0.0
 10
69.933010
 20
170.283930
 30
0.0
 10
70.075218
 20
170.947930
 30
0.0
 10
69.922729
 20
171.097150
 30
0.0
 10
69.683271
 20
171.416771
 30
0.0
 10
69.592421
 20
171.778100
 30
0.0
 10
69.674501
 20
172.375820
 30
0.0
 10
69.756991
 20
172.940130
 30
0.0
 10
69.627352
 20
173.333243
 30
0.0
 10
69.240395
 20
173.742688
 30
0.0
 10
67.363211
 20
174.878920
 30
0.0
 10
66.100730
 20
175.607256
 30
0.0
 10
65.329090
 20
176.249020
 30
0.0
 10
64.805135
 20
176.858748
 30
0.0
 10
64.361406
 20
177.655450
 30
0.0
 10
63.701413
 20
179.361430
 30
0.0
 10
63.689143
 20
180.605420
 30
0.0
 10
64.051734
 20
181.846928
 30
0.0
 10
64.654782
 20
182.916820
 30
0.0
 10
65.517251
 20
183.812030
 30
0.0
 10
66.659852
 20
184.527625
 30
0.0
 10
67.891361
 20
184.927230
 30
0.0
 10
68.671310
 20
184.965330
 30
0.0
 10
69.580319
 20
184.887480
 30
0.0
 10
70.112881
 20
184.713030
 30
0.0
 10
70.384719
 20
184.454220
 30
0.0
 10
70.539496
 20
183.989940
 30
0.0
 10
70.604525
 20
183.009883
 30
0.0
 10
70.298717
 20
182.349610
 30
0.0
 10
69.717598
 20
182.043180
 30
0.0
 10
69.200890
 20
181.754960
 30
0.0
 10
68.565953
 20
180.859430
 30
0.0
 10
68.074085
 20
180.029070
 30
0.0
 10
67.992066
 20
179.598910
 30
0.0
 10
68.171275
 20
179.109901
 30
0.0
 10
68.764723
 20
178.325850
 30
0.0
 10
69.756355
 20
177.363929
 30
0.0
 10
70.891321
 20
176.860790
 30
0.0
 10
72.364258
 20
176.574256
 30
0.0
 10
74.376897
 20
176.472710
 30
0.0
 10
75.446984
 20
176.458710
 30
0.0
 10
75.697697
 20
176.647970
 30
0.0
 10
76.527612
 20
177.201000
 30
0.0
 10
76.711902
 20
177.376300
 30
0.0
 10
76.635492
 20
177.952490
 30
0.0
 10
76.362561
 20
181.777309
 30
0.0
 10
76.432378
 20
185.367910
 30
0.0
 10
77.032196
 20
189.125059
 30
0.0
 10
78.185330
 20
192.735630
 30
0.0
 10
79.864695
 20
196.132615
 30
0.0
 10
82.043205
 20
199.249008
 30
0.0
 10
83.597004
 20
200.972237
 30
0.0
 10
85.308306
 20
202.566355
 30
0.0
 10
88.411194
 20
204.807310
 30
0.0
 10
91.822315
 20
206.548455
 30
0.0
 10
95.465757
 20
207.758036
 30
0.0
 10
99.265607
 20
208.404302
 30
0.0
 10
101.631340
 20
208.508440
 30
0.0
 10
104.002710
 20
208.403474
 30
0.0
 10
106.250613
 20
208.093427
 30
0.0
 10
108.460550
 20
207.581424
 30
0.0
 10
110.616442
 20
206.871964
 30
0.0
 10
112.702210
 20
205.969545
 30
0.0
 10
115.482101
 20
204.386763
 30
0.0
 10
118.004679
 20
202.488882
 30
0.0
 10
120.247955
 20
200.307323
 30
0.0
 10
122.189941
 20
197.873512
 30
0.0
 10
123.808648
 20
195.218871
 30
0.0
 10
125.082085
 20
192.374825
 30
0.0
 10
125.988266
 20
189.372797
 30
0.0
 10
126.505200
 20
186.244210
 30
0.0
 10
126.619670
 20
183.310510
 30
0.0
 10
126.540803
 20
180.249150
 30
0.0
 10
126.292030
 20
177.654650
 30
0.0
 10
126.228030
 20
177.146650
 30
0.0
 10
126.415970
 20
176.990860
 30
0.0
 10
126.878470
 20
176.663790
 30
0.0
 10
127.153370
 20
176.458760
 30
0.0
 10
128.220880
 20
176.472760
 30
0.0
 10
130.110098
 20
176.560793
 30
0.0
 10
131.510900
 20
176.807150
 30
0.0
 10
132.772991
 20
177.321103
 30
0.0
 10
133.830490
 20
178.325870
 30
0.0
 10
134.423940
 20
179.109921
 30
0.0
 10
134.603150
 20
179.598930
 30
0.0
 10
134.522844
 20
180.025483
 30
0.0
 10
134.053400
 20
180.821350
 30
0.0
 10
133.395040
 20
181.752870
 30
0.0
 10
132.882500
 20
182.040600
 30
0.0
 10
132.290400
 20
182.355550
 30
0.0
 10
132.032065
 20
182.809598
 30
0.0
 10
131.976770
 20
183.424850
 30
0.0
 10
132.161450
 20
184.370960
 30
0.0
 10
132.385425
 20
184.643696
 30
0.0
 10
132.751283
 20
184.825325
 30
0.0
 10
134.050900
 20
184.959590
 30
0.0
 10
134.847330
 20
184.904290
 30
0.0
 10
136.286759
 20
184.351293
 30
0.0
 10
137.518550
 20
183.395680
 30
0.0
 10
138.218508
 20
182.502309
 30
0.0
 10
138.686310
 20
181.460790
 30
0.0
 10
138.938380
 20
180.021250
 30
0.0
 10
138.806599
 20
179.008203
 30
0.0
 10
138.233810
 20
177.655480
 30
0.0
 10
137.341540
 20
176.316870
 30
0.0
 10
136.508733
 20
175.616988
 30
0.0
 10
135.041500
 20
174.776210
 30
0.0
 10
133.563745
 20
173.898593
 30
0.0
 10
132.923500
 20
173.256790
 30
0.0
 10
132.835533
 20
172.907959
 30
0.0
 10
132.920500
 20
172.375850
 30
0.0
 10
133.003900
 20
171.789700
 30
0.0
 10
132.912531
 20
171.421938
 30
0.0
 10
132.675910
 20
171.100570
 30
0.0
 10
132.519800
 20
170.947820
 30
0.0
 10
132.650190
 20
170.334680
 30
0.0
 10
133.063459
 20
167.985849
 30
0.0
 10
133.151280
 20
166.178930
 30
0.0
 10
132.989806
 20
164.590903
 30
0.0
 10
132.407320
 20
163.269950
 30
0.0
 10
131.852830
 20
162.185900
 30
0.0
 10
131.405618
 20
161.469841
 30
0.0
 10
130.382360
 20
160.430120
 30
0.0
 10
129.228113
 20
159.436535
 30
0.0
 10
127.027750
 20
157.859510
 30
0.0
 10
124.620168
 20
156.129880
 30
0.0
 10
123.522550
 20
155.175480
 30
0.0
 10
122.699799
 20
154.538246
 30
0.0
 10
120.728550
 20
153.587310
 30
0.0
 10
118.577090
 20
152.544140
 30
0.0
 10
114.598700
 20
149.750800
 30
0.0
 10
112.503200
 20
148.215510
 30
0.0
 10
112.034380
 20
147.865260
 30
0.0
 10
114.634640
 20
144.689850
 30
0.0
 10
117.129226
 20
142.188981
 30
0.0
 10
119.464100
 20
140.364680
 30
0.0
 10
120.444070
 20
139.889780
 30
0.0
 10
121.066370
 20
139.645930
 30
0.0
 10
121.642950
 20
139.399520
 30
0.0
 10
121.896950
 20
139.293760
 30
0.0
 10
122.375680
 20
139.300760
 30
0.0
 10
122.997980
 20
139.278360
 30
0.0
 10
123.634470
 20
138.962020
 30
0.0
 10
123.921170
 20
138.568045
 30
0.0
 10
124.026429
 20
138.093109
 30
0.0
 10
123.950208
 20
137.538618
 30
0.0
 10
123.692470
 20
136.905980
 30
0.0
 10
123.034940
 20
136.183020
 30
0.0
 10
121.530419
 20
135.614349
 30
0.0
 10
119.308623
 20
135.113499
 30
0.0
 10
116.909470
 20
134.778172
 30
0.0
 10
114.872880
 20
134.706070
 30
0.0
 10
113.667380
 20
134.894270
 30
0.0
 10
110.992349
 20
136.171556
 30
0.0
 10
107.355480
 20
138.130960
 30
0.0
 10
105.533499
 20
139.267164
 30
0.0
 10
102.606550
 20
141.563970
 30
0.0
 10
101.298450
 20
142.589970
 30
0.0
 10
99.798045
 20
141.410990
 30
0.0
 10
97.003316
 20
139.216250
 30
0.0
 10
94.558732
 20
137.744639
 30
0.0
 10
90.972477
 20
135.854430
 30
0.0
 10
88.927777
 20
134.894270
 30
0.0
 10
87.759377
 20
134.707590
 30
0.0
 10
86.578277
 20
134.710590
 30
0.0
  0
LWPOLYLINE
  5
101
100
AcDbEntity
  8
Layer_1
 62
7
100
AcDbPolyline
 90
105
 70
1
 10
102.134690
 20
155.626470
 30
0.0
 10
103.082244
 20
155.934750
 30
0.0
 10
103.889379
 20
156.484478
 30
0.0
 10
104.516609
 20
157.239731
 30
0.0
 10
104.924450
 20
158.164590
 30
0.0
 10
105.095280
 20
159.307590
 30
0.0
 10
105.189598
 20
160.067243
 30
0.0
 10
105.435040
 20
160.641090
 30
0.0
 10
105.871106
 20
161.189228
 30
0.0
 10
106.453820
 20
161.579520
 30
0.0
 10
106.923544
 20
161.757428
 30
0.0
 10
107.469820
 20
161.796600
 30
0.0
 10
108.087970
 20
161.738700
 30
0.0
 10
108.831743
 20
161.390035
 30
0.0
 10
109.369100
 20
160.816670
 30
0.0
 10
109.580406
 20
160.364814
 30
0.0
 10
109.706400
 20
159.612380
 30
0.0
 10
109.992283
 20
158.229639
 30
0.0
 10
110.458270
 20
157.170380
 30
0.0
 10
111.227710
 20
156.351040
 30
0.0
 10
111.920161
 20
155.994159
 30
0.0
 10
112.756710
 20
155.773590
 30
0.0
 10
114.340520
 20
155.772590
 30
0.0
 10
115.203009
 20
156.058997
 30
0.0
 10
115.981880
 20
156.514253
 30
0.0
 10
116.626216
 20
157.101077
 30
0.0
 10
117.085100
 20
157.782190
 30
0.0
 10
117.279474
 20
158.320579
 30
0.0
 10
117.338450
 20
159.185480
 30
0.0
 10
117.672148
 20
162.186703
 30
0.0
 10
118.037292
 20
163.465779
 30
0.0
 10
118.555730
 20
164.692670
 30
0.0
 10
119.357596
 20
166.081450
 30
0.0
 10
120.668450
 20
167.867670
 30
0.0
 10
122.100033
 20
169.813371
 30
0.0
 10
123.035820
 20
171.387560
 30
0.0
 10
123.808163
 20
173.139515
 30
0.0
 10
124.410681
 20
175.103130
 30
0.0
 10
124.847384
 20
177.294437
 30
0.0
 10
125.122280
 20
179.729470
 30
0.0
 10
125.238440
 20
184.555470
 30
0.0
 10
125.022241
 20
187.047550
 30
0.0
 10
124.549550
 20
189.444980
 30
0.0
 10
123.794946
 20
191.876800
 30
0.0
 10
122.785264
 20
194.193641
 30
0.0
 10
121.534758
 20
196.377942
 30
0.0
 10
120.057684
 20
198.412141
 30
0.0
 10
118.368298
 20
200.278676
 30
0.0
 10
116.480855
 20
201.959987
 30
0.0
 10
114.409610
 20
203.438511
 30
0.0
 10
112.168820
 20
204.696689
 30
0.0
 10
110.123787
 20
205.588797
 30
0.0
 10
108.023794
 20
206.275188
 30
0.0
 10
105.840488
 20
206.763638
 30
0.0
 10
103.545520
 20
207.061925
 30
0.0
 10
100.318720
 20
207.100275
 30
0.0
 10
97.863780
 20
206.840556
 30
0.0
 10
95.479384
 20
206.341262
 30
0.0
 10
93.171755
 20
205.604034
 30
0.0
 10
90.947119
 20
204.630513
 30
0.0
 10
88.496385
 20
203.222357
 30
0.0
 10
86.249795
 20
201.554289
 30
0.0
 10
84.217177
 20
199.634548
 30
0.0
 10
82.408359
 20
197.471376
 30
0.0
 10
80.672561
 20
194.765546
 30
0.0
 10
79.320364
 20
191.858422
 30
0.0
 10
78.370543
 20
188.798676
 30
0.0
 10
77.841877
 20
185.634980
 30
0.0
 10
77.730342
 20
183.006080
 30
0.0
 10
77.864024
 20
179.480357
 30
0.0
 10
78.263801
 20
176.398076
 30
0.0
 10
78.938567
 20
173.711497
 30
0.0
 10
79.897215
 20
171.372880
 30
0.0
 10
80.836118
 20
169.762643
 30
0.0
 10
82.273401
 20
167.804180
 30
0.0
 10
84.046311
 20
165.303428
 30
0.0
 10
84.982885
 20
163.257580
 30
0.0
 10
85.441523
 20
161.389746
 30
0.0
 10
85.637381
 20
159.142780
 30
0.0
 10
85.689110
 20
158.371974
 30
0.0
 10
85.852793
 20
157.908690
 30
0.0
 10
86.550102
 20
156.958120
 30
0.0
 10
87.708619
 20
156.122120
 30
0.0
 10
88.529991
 20
155.805578
 30
0.0
 10
89.347554
 20
155.713780
 30
0.0
 10
90.399534
 20
155.801733
 30
0.0
 10
91.293372
 20
156.061758
 30
0.0
 10
92.015537
 20
156.488106
 30
0.0
 10
92.552495
 20
157.075030
 30
0.0
 10
93.025200
 20
158.110676
 30
0.0
 10
93.270820
 20
159.498380
 30
0.0
 10
93.498038
 20
160.477670
 30
0.0
 10
94.076063
 20
161.256893
 30
0.0
 10
94.922219
 20
161.733460
 30
0.0
 10
95.949057
 20
161.773560
 30
0.0
 10
96.558532
 20
161.562957
 30
0.0
 10
97.079634
 20
161.206998
 30
0.0
 10
97.488754
 20
160.726902
 30
0.0
 10
97.762282
 20
160.143890
 30
0.0
 10
97.881053
 20
159.215340
 30
0.0
 10
98.205939
 20
157.717196
 30
0.0
 10
99.009882
 20
156.557880
 30
0.0
 10
99.862519
 20
155.948160
 30
0.0
 10
100.752840
 20
155.639330
 30
0.0
 10
102.134690
 20
155.626730
 30
0.0
  0
LWPOLYLINE
  5
102
100
AcDbEntity
  8
Layer_1
 62
7
100
AcDbPolyline
 90
38
 70
1
 10
71.351018
 20
172.286460
 30
0.0
 10
71.922518
 20
172.400920
 30
0.0
 10
72.960827
 20
172.772280
 30
0.0
 10
74.237151
 20
173.535190
 30
0.0
 10
74.437337
 20
174.103090
 30
0.0
 10
74.578496
 20
174.725390
 30
0.0
 10
74.679570
 20
175.163540
 30
0.0
 10
74.692090
 20
175.220740
 30
0.0
 10
74.253457
 20
175.220750
 30
0.0
 10
71.111277
 20
175.514890
 30
0.0
 10
69.610713
 20
175.992331
 30
0.0
 10
68.493522
 20
176.727210
 30
0.0
 10
67.533885
 20
177.768469
 30
0.0
 10
66.842241
 20
178.785990
 30
0.0
 10
66.645627
 20
179.737565
 30
0.0
 10
66.938251
 20
180.716050
 30
0.0
 10
67.971752
 20
182.319540
 30
0.0
 10
68.529972
 20
182.879170
 30
0.0
 10
69.146062
 20
183.186140
 30
0.0
 10
69.287799
 20
183.227340
 30
0.0
 10
69.273869
 20
183.430620
 30
0.0
 10
69.238369
 20
183.655450
 30
0.0
 10
68.514809
 20
183.729550
 30
0.0
 10
67.289651
 20
183.434453
 30
0.0
 10
66.129276
 20
182.612540
 30
0.0
 10
65.450453
 20
181.718946
 30
0.0
 10
65.048013
 20
180.592860
 30
0.0
 10
65.059793
 20
179.425060
 30
0.0
 10
65.581630
 20
178.179420
 30
0.0
 10
66.382113
 20
177.018000
 30
0.0
 10
68.188720
 20
175.874080
 30
0.0
 10
69.602280
 20
175.060289
 30
0.0
 10
70.412136
 20
174.421450
 30
0.0
 10
70.929356
 20
173.688408
 30
0.0
 10
71.109720
 20
172.888360
 30
0.0
 10
71.016840
 20
172.235040
 30
0.0
 10
71.048160
 20
172.208240
 30
0.0
 10
71.351020
 20
172.286440
 30
0.0
  0
LWPOLYLINE
  5
103
100
AcDbEntity
  8
Layer_1
 62
7
100
AcDbPolyline
 90
39
 70
1
 10
131.576480
 20
172.239960
 30
0.0
 10
131.493780
 20
172.985480
 30
0.0
 10
131.700080
 20
173.760180
 30
0.0
 10
132.025085
 20
174.253845
 30
0.0
 10
132.537921
 20
174.733436
 30
0.0
 10
134.431920
 20
175.887810
 30
0.0
 10
136.213130
 20
177.017920
 30
0.0
 10
137.013610
 20
178.179340
 30
0.0
 10
137.462281
 20
179.194648
 30
0.0
 10
137.598270
 20
179.894280
 30
0.0
 10
137.447655
 20
180.968129
 30
0.0
 10
136.967190
 20
182.017010
 30
0.0
 10
135.881705
 20
183.098560
 30
0.0
 10
135.209867
 20
183.473230
 30
0.0
 10
134.516140
 20
183.693270
 30
0.0
 10
133.359000
 20
183.657470
 30
0.0
 10
133.321400
 20
183.430520
 30
0.0
 10
133.307500
 20
183.227240
 30
0.0
 10
133.449240
 20
183.186040
 30
0.0
 10
134.065325
 20
182.879070
 30
0.0
 10
134.623540
 20
182.319440
 30
0.0
 10
135.657040
 20
180.715950
 30
0.0
 10
135.949664
 20
179.737465
 30
0.0
 10
135.753040
 20
178.785890
 30
0.0
 10
134.578090
 20
177.205160
 30
0.0
 10
133.957367
 20
176.601138
 30
0.0
 10
133.275670
 20
176.138434
 30
0.0
 10
131.523280
 20
175.523530
 30
0.0
 10
130.023104
 20
175.302745
 30
0.0
 10
128.316910
 20
175.220650
 30
0.0
 10
127.853360
 20
175.220640
 30
0.0
 10
127.853360
 20
175.107210
 30
0.0
 10
127.991950
 20
174.193820
 30
0.0
 10
128.248011
 20
173.584305
 30
0.0
 10
128.717890
 20
173.113660
 30
0.0
 10
129.528598
 20
172.685886
 30
0.0
 10
130.799760
 20
172.376950
 30
0.0
 10
131.383960
 20
172.252130
 30
0.0
 10
131.576520
 20
172.239930
 30
0.0
  0
ENDSEC
  0
SECTION
  2
OBJECTS
  0
DICTIONARY
  5
C
330
0
100
AcDbDictionary
  3
ACAD_GROUP
350
D
  3
ACAD_MLINESTYLE
350
17
  0
DICTIONARY
  5
D
330
C
100
AcDbDictionary
  0
DICTIONARY
  5
1A
330
C
100
AcDbDictionary
  0
DICTIONARY
  5
17
330
C
100
AcDbDictionary
  3
STANDARD
350
18
  0
DICTIONARY
  5
19
330
C
100
AcDbDictionary
  0
ENDSEC
  0
EOF
